M48
; DRILL file {KiCad 9.0.7} date 2026-02-01T21:09:57+0900
; FORMAT={-:-/ absolute / metric / decimal}
; #@! TF.CreationDate,2026-02-01T21:09:57+09:00
; #@! TF.GenerationSoftware,Kicad,Pcbnew,9.0.7
; #@! TF.FileFunction,Plated,1,2,PTH
FMAT,2
METRIC
; #@! TA.AperFunction,Plated,PTH,ViaDrill
T1C0.300
; #@! TA.AperFunction,Plated,PTH,ComponentDrill
T2C0.800
; #@! TA.AperFunction,Plated,PTH,ComponentDrill
T3C1.000
; #@! TA.AperFunction,Plated,PTH,ComponentDrill
T4C1.100
; #@! TA.AperFunction,Plated,PTH,ComponentDrill
T5C1.500
%
G90
G05
T1
X140.0Y-113.0
X170.0Y-97.0
X182.0Y-105.0
T2
X128.3Y-25.08
X128.3Y-32.7
X128.3Y-35.08
X128.3Y-42.7
X128.3Y-45.08
X128.3Y-52.7
X128.3Y-55.08
X128.3Y-62.7
X128.3Y-65.08
X128.3Y-72.7
X143.0Y-35.11
X143.0Y-42.73
X143.3Y-25.08
X143.3Y-32.7
X143.3Y-45.08
X143.3Y-52.7
X143.3Y-55.08
X143.3Y-62.7
X143.3Y-65.08
X143.3Y-72.7
X158.3Y-25.08
X158.3Y-32.7
X158.3Y-35.08
X158.3Y-42.7
X158.3Y-45.08
X158.3Y-52.7
X158.3Y-55.08
X158.3Y-62.7
X158.3Y-65.08
X158.3Y-72.7
X174.3Y-25.08
X174.3Y-32.7
X174.3Y-35.08
X174.3Y-42.7
X174.3Y-45.08
X174.3Y-52.7
X174.3Y-55.08
X174.3Y-62.7
X174.3Y-65.08
X174.3Y-72.7
X175.19Y-92.0
X182.81Y-92.0
X189.3Y-25.08
X189.3Y-32.7
X189.3Y-35.08
X189.3Y-42.7
X189.3Y-45.08
X189.3Y-52.7
X189.3Y-55.08
X189.3Y-62.7
X189.3Y-65.08
X189.3Y-72.7
X203.0Y-35.0
X203.0Y-42.62
X203.3Y-25.08
X203.3Y-32.7
X203.3Y-45.08
X203.3Y-52.7
X203.3Y-55.08
X203.3Y-62.7
X203.3Y-65.08
X203.3Y-72.7
X208.0Y-108.38
X208.0Y-116.0
T3
X118.09Y-97.99
X118.09Y-100.53
X118.09Y-103.07
X118.09Y-105.61
X118.09Y-108.15
X118.09Y-110.69
X118.09Y-113.23
X118.09Y-115.77
X118.09Y-118.31
X120.92Y-98.0
X123.46Y-98.0
X126.0Y-98.0
X128.54Y-98.0
X131.08Y-98.0
X133.87Y-97.98
X133.87Y-100.52
X133.87Y-103.06
X133.87Y-105.6
X133.87Y-108.14
X133.87Y-110.68
X133.87Y-113.22
X133.87Y-115.76
X133.87Y-118.3
X167.0Y-81.92
X167.0Y-84.46
X167.0Y-87.0
X167.0Y-89.54
X167.0Y-92.08
X186.5Y-108.0
X186.5Y-110.5
X186.5Y-113.0
X201.0Y-108.0
X201.0Y-113.0
X204.0Y-83.46
X204.0Y-86.0
X204.0Y-88.54
T4
X117.26Y-26.68
X117.26Y-31.18
X117.26Y-36.84
X117.26Y-41.34
X117.26Y-47.0
X117.26Y-51.5
X117.26Y-57.16
X117.26Y-61.66
X117.26Y-67.32
X117.26Y-71.82
X123.76Y-26.68
X123.76Y-31.18
X123.76Y-36.84
X123.76Y-41.34
X123.76Y-47.0
X123.76Y-51.5
X123.76Y-57.16
X123.76Y-61.66
X123.76Y-67.32
X123.76Y-71.82
X132.5Y-26.735
X132.5Y-31.235
X132.5Y-36.84
X132.5Y-41.34
X132.5Y-47.0
X132.5Y-51.5
X132.5Y-57.16
X132.5Y-61.66
X132.5Y-67.32
X132.5Y-71.82
X139.0Y-26.735
X139.0Y-31.235
X139.0Y-36.84
X139.0Y-41.34
X139.0Y-47.0
X139.0Y-51.5
X139.0Y-57.16
X139.0Y-61.66
X139.0Y-67.32
X139.0Y-71.82
X147.74Y-26.68
X147.74Y-31.18
X147.74Y-36.84
X147.74Y-41.34
X147.74Y-47.0
X147.74Y-51.5
X147.74Y-57.16
X147.74Y-61.66
X147.74Y-67.32
X147.74Y-71.82
X154.24Y-26.68
X154.24Y-31.18
X154.24Y-36.84
X154.24Y-41.34
X154.24Y-47.0
X154.24Y-51.5
X154.24Y-57.16
X154.24Y-61.66
X154.24Y-67.32
X154.24Y-71.82
X162.98Y-26.68
X162.98Y-31.18
X162.98Y-36.84
X162.98Y-41.34
X162.98Y-47.0
X162.98Y-51.5
X162.98Y-57.16
X162.98Y-61.66
X162.98Y-67.32
X162.98Y-71.82
X169.48Y-26.68
X169.48Y-31.18
X169.48Y-36.84
X169.48Y-41.34
X169.48Y-47.0
X169.48Y-51.5
X169.48Y-57.16
X169.48Y-61.66
X169.48Y-67.32
X169.48Y-71.82
X178.22Y-26.68
X178.22Y-31.18
X178.22Y-36.84
X178.22Y-41.34
X178.22Y-47.0
X178.22Y-51.5
X178.22Y-57.16
X178.22Y-61.66
X178.22Y-67.32
X178.22Y-71.82
X184.72Y-26.68
X184.72Y-31.18
X184.72Y-36.84
X184.72Y-41.34
X184.72Y-47.0
X184.72Y-51.5
X184.72Y-57.16
X184.72Y-61.66
X184.72Y-67.32
X184.72Y-71.82
X193.46Y-26.68
X193.46Y-31.18
X193.46Y-36.84
X193.46Y-41.34
X193.46Y-47.0
X193.46Y-51.5
X193.46Y-57.16
X193.46Y-61.66
X193.46Y-67.32
X193.46Y-71.82
X199.96Y-26.68
X199.96Y-31.18
X199.96Y-36.84
X199.96Y-41.34
X199.96Y-47.0
X199.96Y-51.5
X199.96Y-57.16
X199.96Y-61.66
X199.96Y-67.32
X199.96Y-71.82
T5
G00X193.35Y-104.9
M15
G01X194.65Y-104.9
M16
G05
G00X193.35Y-116.1
M15
G01X194.65Y-116.1
M16
G05
M30
