M48
; DRILL file {KiCad 9.0.7} date 2026-02-20T03:41:38+0900
; FORMAT={-:-/ absolute / metric / decimal}
; #@! TF.CreationDate,2026-02-20T03:41:38+09:00
; #@! TF.GenerationSoftware,Kicad,Pcbnew,9.0.7
; #@! TF.FileFunction,Plated,1,4,PTH
FMAT,2
METRIC
; #@! TA.AperFunction,Plated,PTH,ViaDrill
T1C0.300
; #@! TA.AperFunction,Plated,PTH,ComponentDrill
T2C0.800
; #@! TA.AperFunction,Plated,PTH,ComponentDrill
T3C1.000
; #@! TA.AperFunction,Plated,PTH,ComponentDrill
T4C1.100
; #@! TA.AperFunction,Plated,PTH,ComponentDrill
T5C1.500
%
G90
G05
T1
X133.35Y-59.69
X133.44Y-39.04
X133.44Y-42.24
X133.53Y-56.49
X133.53Y-76.81
X133.53Y-80.01
X133.53Y-97.13
X133.53Y-100.33
X133.53Y-116.18
X133.53Y-119.38
X134.62Y-118.11
X135.028Y-82.55
X135.435Y-40.64
X135.435Y-58.42
X135.435Y-99.06
X136.345Y-118.11
X136.752Y-82.55
X137.16Y-40.64
X137.16Y-58.42
X137.16Y-99.06
X138.34Y-39.04
X138.34Y-42.24
X138.43Y-56.49
X138.43Y-59.69
X138.43Y-76.81
X138.43Y-80.01
X138.43Y-97.13
X138.43Y-100.33
X138.43Y-116.18
X138.43Y-119.38
X146.23Y-56.49
X146.23Y-59.69
X146.23Y-76.81
X146.23Y-80.01
X147.5Y-39.37
X147.5Y-42.57
X147.5Y-97.13
X147.5Y-100.33
X147.5Y-116.18
X147.5Y-119.38
X148.135Y-58.42
X148.135Y-78.74
X148.59Y-118.11
X149.405Y-40.64
X149.405Y-99.06
X149.86Y-58.42
X149.86Y-78.74
X150.315Y-118.11
X151.13Y-40.64
X151.13Y-56.49
X151.13Y-59.69
X151.13Y-76.81
X151.13Y-76.81
X151.13Y-80.01
X151.13Y-99.06
X152.4Y-39.37
X152.4Y-42.57
X152.4Y-97.13
X152.4Y-100.33
X152.4Y-116.18
X152.4Y-119.38
X158.93Y-76.81
X158.93Y-80.01
X158.93Y-116.18
X158.93Y-119.38
X160.2Y-38.71
X160.2Y-41.91
X160.2Y-56.49
X160.2Y-59.69
X160.2Y-97.13
X160.2Y-100.33
X160.427Y-118.11
X160.835Y-78.74
X162.105Y-40.64
X162.105Y-58.42
X162.105Y-99.06
X162.153Y-118.11
X162.56Y-78.74
X163.83Y-40.64
X163.83Y-58.42
X163.83Y-76.81
X163.83Y-80.01
X163.83Y-99.06
X163.83Y-116.18
X163.83Y-119.38
X165.1Y-38.71
X165.1Y-41.91
X165.1Y-56.49
X165.1Y-59.69
X165.1Y-97.13
X165.1Y-100.33
X171.54Y-97.13
X171.54Y-100.33
X171.63Y-76.81
X171.63Y-80.01
X172.9Y-38.71
X172.9Y-41.91
X172.9Y-56.49
X172.9Y-59.69
X172.9Y-116.18
X172.9Y-119.38
X173.535Y-78.74
X173.535Y-99.06
X173.99Y-118.11
X174.805Y-40.64
X174.805Y-58.42
X175.26Y-78.74
X175.26Y-99.06
X175.715Y-118.11
X176.44Y-97.13
X176.44Y-100.33
X176.53Y-40.64
X176.53Y-58.42
X176.53Y-76.81
X176.53Y-80.01
X177.8Y-38.71
X177.8Y-41.91
X177.8Y-56.49
X177.8Y-59.69
X177.8Y-116.18
X177.8Y-119.38
X184.33Y-38.71
X184.33Y-41.91
X184.33Y-76.81
X184.33Y-80.01
X184.33Y-116.18
X184.33Y-119.38
X185.42Y-118.11
X185.6Y-56.49
X185.6Y-59.69
X185.6Y-97.13
X185.6Y-100.33
X186.235Y-40.64
X186.235Y-78.74
X187.097Y-99.06
X187.145Y-118.11
X187.505Y-58.42
X187.96Y-40.64
X187.96Y-78.74
X188.822Y-99.06
X189.23Y-38.71
X189.23Y-41.91
X189.23Y-58.42
X189.23Y-76.81
X189.23Y-80.01
X189.23Y-116.18
X189.23Y-119.38
X190.5Y-56.49
X190.5Y-59.69
X190.5Y-97.13
X190.5Y-100.33
X194.49Y-116.18
X194.49Y-119.38
X195.987Y-118.11
X197.03Y-38.71
X197.03Y-41.91
X197.03Y-56.49
X197.03Y-59.69
X197.03Y-76.81
X197.03Y-80.01
X197.712Y-118.11
X198.3Y-97.13
X198.3Y-100.33
X198.935Y-40.64
X199.39Y-116.18
X199.39Y-119.38
X200.66Y-40.64
X200.66Y-40.64
X201.93Y-38.71
X201.93Y-41.91
X201.93Y-56.49
X201.93Y-59.69
X201.93Y-76.81
X201.93Y-80.01
X203.2Y-97.13
X203.2Y-100.33
X203.607Y-58.42
X204.877Y-77.47
X205.332Y-58.42
X206.147Y-97.79
X206.602Y-77.47
X207.06Y-105.04
X207.06Y-106.514
X207.86Y-106.53
X207.873Y-97.79
X209.93Y-40.97
X210.64Y-36.14
X225.14Y-38.64
X226.06Y-119.38
X226.06Y-121.92
T2
X139.14Y-72.68
X139.7Y-35.56
X139.7Y-53.34
X139.7Y-93.98
X139.7Y-113.03
X146.76Y-72.68
X147.32Y-35.56
X147.32Y-53.34
X147.32Y-93.98
X147.32Y-113.03
X152.4Y-35.56
X152.4Y-53.34
X152.4Y-72.68
X152.4Y-93.98
X152.4Y-113.03
X160.02Y-35.56
X160.02Y-53.34
X160.02Y-72.68
X160.02Y-93.98
X160.02Y-113.03
X164.54Y-72.68
X165.1Y-35.56
X165.1Y-53.34
X165.1Y-93.98
X165.1Y-113.03
X172.16Y-72.68
X172.72Y-35.56
X172.72Y-53.34
X172.72Y-93.98
X172.72Y-113.03
X177.24Y-72.68
X177.8Y-35.56
X177.8Y-53.34
X177.8Y-93.98
X177.8Y-113.03
X184.86Y-72.68
X185.42Y-35.56
X185.42Y-53.34
X185.42Y-93.98
X185.42Y-113.03
X187.96Y-35.56
X187.96Y-113.03
X189.94Y-72.68
X190.5Y-53.34
X190.5Y-93.98
X195.58Y-35.56
X195.58Y-113.03
X197.56Y-72.68
X198.12Y-35.56
X198.12Y-53.34
X198.12Y-93.98
X198.12Y-113.03
X200.1Y-72.68
X200.66Y-53.34
X200.66Y-93.98
X205.74Y-35.56
X205.74Y-113.03
X207.72Y-72.68
X208.28Y-53.34
X208.28Y-93.98
X224.79Y-45.72
X224.79Y-53.34
T3
X210.28Y-101.61
X210.28Y-104.15
X210.28Y-106.69
X210.28Y-109.23
X210.28Y-111.77
X210.28Y-114.31
X210.28Y-116.85
X210.28Y-119.39
X210.28Y-121.93
X210.64Y-33.64
X210.64Y-36.14
X210.64Y-38.64
X213.11Y-101.62
X215.65Y-101.62
X218.19Y-101.62
X220.73Y-101.62
X223.27Y-101.62
X225.14Y-33.64
X225.14Y-38.64
X226.06Y-101.6
X226.06Y-104.14
X226.06Y-106.68
X226.06Y-109.22
X226.06Y-111.76
X226.06Y-114.3
X226.06Y-116.84
X226.06Y-119.38
X226.06Y-121.92
T4
X132.64Y-65.06
X132.64Y-69.56
X133.2Y-45.72
X133.2Y-50.22
X133.2Y-85.67
X133.2Y-90.17
X133.2Y-104.72
X133.2Y-109.22
X133.35Y-27.94
X133.35Y-32.44
X139.14Y-65.06
X139.14Y-69.56
X139.7Y-45.72
X139.7Y-50.22
X139.7Y-85.67
X139.7Y-90.17
X139.7Y-104.72
X139.7Y-109.22
X139.85Y-27.94
X139.85Y-32.44
X145.49Y-65.06
X145.49Y-69.56
X145.9Y-45.72
X145.9Y-50.22
X145.9Y-85.67
X145.9Y-90.17
X146.05Y-27.94
X146.05Y-32.44
X146.05Y-104.72
X146.05Y-109.22
X151.99Y-65.06
X151.99Y-69.56
X152.4Y-45.72
X152.4Y-50.22
X152.4Y-85.67
X152.4Y-90.17
X152.55Y-27.94
X152.55Y-32.44
X152.55Y-104.72
X152.55Y-109.22
X158.04Y-65.06
X158.04Y-69.56
X158.6Y-27.94
X158.6Y-32.44
X158.6Y-45.72
X158.6Y-50.22
X158.6Y-85.67
X158.6Y-90.17
X158.6Y-104.72
X158.6Y-109.22
X164.54Y-65.06
X164.54Y-69.56
X165.1Y-27.94
X165.1Y-32.44
X165.1Y-45.72
X165.1Y-50.22
X165.1Y-85.67
X165.1Y-90.17
X165.1Y-104.72
X165.1Y-109.22
X170.74Y-65.06
X170.74Y-69.56
X171.3Y-27.94
X171.3Y-32.44
X171.3Y-45.72
X171.3Y-50.22
X171.3Y-85.67
X171.3Y-90.17
X171.3Y-104.72
X171.3Y-109.22
X177.24Y-65.06
X177.24Y-69.56
X177.8Y-27.94
X177.8Y-32.44
X177.8Y-45.72
X177.8Y-50.22
X177.8Y-85.67
X177.8Y-90.17
X177.8Y-104.72
X177.8Y-109.22
X183.44Y-65.06
X183.44Y-69.56
X184.0Y-27.94
X184.0Y-32.44
X184.0Y-85.67
X184.0Y-90.17
X184.0Y-104.72
X184.0Y-109.22
X184.15Y-45.72
X184.15Y-50.22
X189.94Y-65.06
X189.94Y-69.56
X190.5Y-27.94
X190.5Y-32.44
X190.5Y-85.67
X190.5Y-90.17
X190.5Y-104.72
X190.5Y-109.22
X190.65Y-45.72
X190.65Y-50.22
X196.14Y-65.06
X196.14Y-69.56
X196.7Y-27.94
X196.7Y-32.44
X196.7Y-45.72
X196.7Y-50.22
X196.7Y-104.72
X196.7Y-109.22
X196.85Y-85.67
X196.85Y-90.17
X202.64Y-65.06
X202.64Y-69.56
X203.2Y-27.94
X203.2Y-32.44
X203.2Y-45.72
X203.2Y-50.22
X203.2Y-104.72
X203.2Y-109.22
X203.35Y-85.67
X203.35Y-90.17
T5
G00X217.49Y-30.54
M15
G01X218.79Y-30.54
M16
G05
G00X217.49Y-41.74
M15
G01X218.79Y-41.74
M16
G05
M30
