M48
; DRILL file {KiCad 9.0.7} date 2026-02-23T23:42:02+0900
; FORMAT={-:-/ absolute / metric / decimal}
; #@! TF.CreationDate,2026-02-23T23:42:02+09:00
; #@! TF.GenerationSoftware,Kicad,Pcbnew,9.0.7
; #@! TF.FileFunction,Plated,1,2,PTH
FMAT,2
METRIC
; #@! TA.AperFunction,Plated,PTH,ViaDrill
T1C0.300
; #@! TA.AperFunction,Plated,PTH,ComponentDrill
T2C1.000
; #@! TA.AperFunction,Plated,PTH,ComponentDrill
T3C1.500
%
G90
G05
T1
X31.915Y-36.46
X31.915Y-55.96
X31.915Y-94.96
X31.915Y-114.46
X31.915Y-133.96
X51.415Y-36.46
X51.415Y-55.96
X51.415Y-94.96
X51.415Y-114.46
X51.415Y-133.96
X70.915Y-36.46
X70.915Y-55.96
X70.915Y-94.96
X70.915Y-114.46
X70.915Y-133.96
X109.915Y-36.46
X109.915Y-55.96
X109.915Y-94.96
X109.915Y-114.46
X109.915Y-133.96
X129.415Y-36.46
X129.415Y-55.96
X129.415Y-94.96
X129.415Y-114.46
X129.415Y-133.96
X148.915Y-36.46
X148.915Y-55.96
X148.915Y-94.96
X148.915Y-114.46
X148.915Y-133.96
X205.64Y-53.59
T2
X195.0Y-108.9
X195.0Y-111.4
X195.0Y-113.9
X209.5Y-108.9
X209.5Y-113.9
X223.22Y-27.5
X223.22Y-30.04
X223.22Y-32.58
X223.22Y-35.12
X223.22Y-37.66
X223.22Y-40.2
X223.22Y-42.74
X223.22Y-45.28
X223.22Y-47.82
X226.01Y-47.8
X228.55Y-47.8
X231.09Y-47.8
X233.63Y-47.8
X236.17Y-47.8
X239.0Y-27.49
X239.0Y-30.03
X239.0Y-32.57
X239.0Y-35.11
X239.0Y-37.65
X239.0Y-40.19
X239.0Y-42.73
X239.0Y-45.27
X239.0Y-47.81
T3
G00X201.85Y-105.8
M15
G01X203.15Y-105.8
M16
G05
G00X201.85Y-117.0
M15
G01X203.15Y-117.0
M16
G05
M30
