%TF.GenerationSoftware,KiCad,Pcbnew,9.0.7*%
%TF.CreationDate,2026-02-01T21:10:00+09:00*%
%TF.ProjectId,YMMkeyboard,594d4d6b-6579-4626-9f61-72642e6b6963,rev?*%
%TF.SameCoordinates,Original*%
%TF.FileFunction,Soldermask,Top*%
%TF.FilePolarity,Negative*%
%FSLAX46Y46*%
G04 Gerber Fmt 4.6, Leading zero omitted, Abs format (unit mm)*
G04 Created by KiCad (PCBNEW 9.0.7) date 2026-02-01 21:10:00*
%MOMM*%
%LPD*%
G01*
G04 APERTURE LIST*
G04 Aperture macros list*
%AMRoundRect*
0 Rectangle with rounded corners*
0 $1 Rounding radius*
0 $2 $3 $4 $5 $6 $7 $8 $9 X,Y pos of 4 corners*
0 Add a 4 corners polygon primitive as box body*
4,1,4,$2,$3,$4,$5,$6,$7,$8,$9,$2,$3,0*
0 Add four circle primitives for the rounded corners*
1,1,$1+$1,$2,$3*
1,1,$1+$1,$4,$5*
1,1,$1+$1,$6,$7*
1,1,$1+$1,$8,$9*
0 Add four rect primitives between the rounded corners*
20,1,$1+$1,$2,$3,$4,$5,0*
20,1,$1+$1,$4,$5,$6,$7,0*
20,1,$1+$1,$6,$7,$8,$9,0*
20,1,$1+$1,$8,$9,$2,$3,0*%
G04 Aperture macros list end*
%ADD10R,1.700000X1.700000*%
%ADD11C,1.700000*%
%ADD12RoundRect,0.250000X-0.550000X-0.550000X0.550000X-0.550000X0.550000X0.550000X-0.550000X0.550000X0*%
%ADD13C,1.600000*%
%ADD14C,3.000000*%
%ADD15RoundRect,0.250000X-0.550000X0.550000X-0.550000X-0.550000X0.550000X-0.550000X0.550000X0.550000X0*%
%ADD16R,2.000000X2.000000*%
%ADD17C,2.000000*%
%ADD18R,3.200000X2.000000*%
%ADD19RoundRect,0.250000X0.550000X-0.550000X0.550000X0.550000X-0.550000X0.550000X-0.550000X-0.550000X0*%
G04 APERTURE END LIST*
D10*
%TO.C,U1*%
X118090000Y-118310000D03*
D11*
X118090000Y-115770000D03*
X118090000Y-113230000D03*
X118090000Y-110690000D03*
X118090000Y-108150000D03*
X118090000Y-105610000D03*
X118090000Y-103070000D03*
X118090000Y-100530000D03*
X118090000Y-97990000D03*
X120920000Y-98000000D03*
X123460000Y-98000000D03*
X126000000Y-98000000D03*
X128540000Y-98000000D03*
D10*
X131080000Y-98000000D03*
D11*
X133870000Y-97980000D03*
X133870000Y-100520000D03*
X133870000Y-103060000D03*
X133870000Y-105600000D03*
X133870000Y-108140000D03*
X133870000Y-110680000D03*
X133870000Y-113220000D03*
X133870000Y-115760000D03*
D10*
X133870000Y-118300000D03*
%TD*%
D12*
%TO.C,D29*%
X175190000Y-92000000D03*
D13*
X182810000Y-92000000D03*
%TD*%
D11*
%TO.C,REF\u002A\u002A*%
X175920000Y-87000000D03*
D14*
X177190000Y-84460000D03*
X183540000Y-81920000D03*
D11*
X186080000Y-87000000D03*
%TD*%
D13*
%TO.C,D9*%
X143000000Y-42730000D03*
D15*
X143000000Y-35110000D03*
%TD*%
%TO.C,D13*%
X203000000Y-35000000D03*
D13*
X203000000Y-42620000D03*
%TD*%
%TO.C,D3*%
X143300000Y-32700000D03*
D15*
X143300000Y-25080000D03*
%TD*%
D13*
%TO.C,D15*%
X143300000Y-52700000D03*
D15*
X143300000Y-45080000D03*
%TD*%
D13*
%TO.C,D12*%
X189300000Y-42700000D03*
D15*
X189300000Y-35080000D03*
%TD*%
D13*
%TO.C,D2*%
X128300000Y-32700000D03*
D15*
X128300000Y-25080000D03*
%TD*%
D16*
%TO.C,SW32*%
X186500000Y-108000000D03*
D17*
X186500000Y-113000000D03*
X186500000Y-110500000D03*
D18*
X194000000Y-104900000D03*
X194000000Y-116100000D03*
D17*
X201000000Y-113000000D03*
X201000000Y-108000000D03*
%TD*%
%TO.C,SW31*%
X193460000Y-67320000D03*
X199960000Y-67320000D03*
X193460000Y-71820000D03*
X199960000Y-71820000D03*
%TD*%
%TO.C,SW30*%
X178220000Y-67320000D03*
X184720000Y-67320000D03*
X178220000Y-71820000D03*
X184720000Y-71820000D03*
%TD*%
%TO.C,SW29*%
X162980000Y-67320000D03*
X169480000Y-67320000D03*
X162980000Y-71820000D03*
X169480000Y-71820000D03*
%TD*%
%TO.C,SW28*%
X147740000Y-67320000D03*
X154240000Y-67320000D03*
X147740000Y-71820000D03*
X154240000Y-71820000D03*
%TD*%
%TO.C,SW27*%
X132500000Y-67320000D03*
X139000000Y-67320000D03*
X132500000Y-71820000D03*
X139000000Y-71820000D03*
%TD*%
%TO.C,SW26*%
X117260000Y-67320000D03*
X123760000Y-67320000D03*
X117260000Y-71820000D03*
X123760000Y-71820000D03*
%TD*%
%TO.C,SW25*%
X193460000Y-57160000D03*
X199960000Y-57160000D03*
X193460000Y-61660000D03*
X199960000Y-61660000D03*
%TD*%
%TO.C,SW24*%
X178220000Y-57160000D03*
X184720000Y-57160000D03*
X178220000Y-61660000D03*
X184720000Y-61660000D03*
%TD*%
%TO.C,SW23*%
X162980000Y-57160000D03*
X169480000Y-57160000D03*
X162980000Y-61660000D03*
X169480000Y-61660000D03*
%TD*%
%TO.C,SW22*%
X147740000Y-57160000D03*
X154240000Y-57160000D03*
X147740000Y-61660000D03*
X154240000Y-61660000D03*
%TD*%
%TO.C,SW21*%
X132500000Y-57160000D03*
X139000000Y-57160000D03*
X132500000Y-61660000D03*
X139000000Y-61660000D03*
%TD*%
%TO.C,SW20*%
X117260000Y-57160000D03*
X123760000Y-57160000D03*
X117260000Y-61660000D03*
X123760000Y-61660000D03*
%TD*%
%TO.C,SW19*%
X193460000Y-47000000D03*
X199960000Y-47000000D03*
X193460000Y-51500000D03*
X199960000Y-51500000D03*
%TD*%
%TO.C,SW18*%
X178220000Y-47000000D03*
X184720000Y-47000000D03*
X178220000Y-51500000D03*
X184720000Y-51500000D03*
%TD*%
%TO.C,SW17*%
X162980000Y-47000000D03*
X169480000Y-47000000D03*
X162980000Y-51500000D03*
X169480000Y-51500000D03*
%TD*%
%TO.C,SW16*%
X147740000Y-47000000D03*
X154240000Y-47000000D03*
X147740000Y-51500000D03*
X154240000Y-51500000D03*
%TD*%
%TO.C,SW15*%
X132500000Y-47000000D03*
X139000000Y-47000000D03*
X132500000Y-51500000D03*
X139000000Y-51500000D03*
%TD*%
%TO.C,SW14*%
X117260000Y-47000000D03*
X123760000Y-47000000D03*
X117260000Y-51500000D03*
X123760000Y-51500000D03*
%TD*%
%TO.C,SW13*%
X193460000Y-36840000D03*
X199960000Y-36840000D03*
X193460000Y-41340000D03*
X199960000Y-41340000D03*
%TD*%
%TO.C,SW12*%
X178220000Y-36840000D03*
X184720000Y-36840000D03*
X178220000Y-41340000D03*
X184720000Y-41340000D03*
%TD*%
%TO.C,SW11*%
X162980000Y-36840000D03*
X169480000Y-36840000D03*
X162980000Y-41340000D03*
X169480000Y-41340000D03*
%TD*%
%TO.C,SW10*%
X147740000Y-36840000D03*
X154240000Y-36840000D03*
X147740000Y-41340000D03*
X154240000Y-41340000D03*
%TD*%
%TO.C,SW9*%
X132500000Y-36840000D03*
X139000000Y-36840000D03*
X132500000Y-41340000D03*
X139000000Y-41340000D03*
%TD*%
%TO.C,SW8*%
X117260000Y-36840000D03*
X123760000Y-36840000D03*
X117260000Y-41340000D03*
X123760000Y-41340000D03*
%TD*%
%TO.C,SW7*%
X193460000Y-26680000D03*
X199960000Y-26680000D03*
X193460000Y-31180000D03*
X199960000Y-31180000D03*
%TD*%
%TO.C,SW6*%
X178220000Y-26680000D03*
X184720000Y-26680000D03*
X178220000Y-31180000D03*
X184720000Y-31180000D03*
%TD*%
%TO.C,SW5*%
X162980000Y-26680000D03*
X169480000Y-26680000D03*
X162980000Y-31180000D03*
X169480000Y-31180000D03*
%TD*%
%TO.C,SW4*%
X147740000Y-26680000D03*
X154240000Y-26680000D03*
X147740000Y-31180000D03*
X154240000Y-31180000D03*
%TD*%
%TO.C,SW3*%
X132500000Y-26735000D03*
X139000000Y-26735000D03*
X132500000Y-31235000D03*
X139000000Y-31235000D03*
%TD*%
%TO.C,SW2*%
X117260000Y-26680000D03*
X123760000Y-26680000D03*
X117260000Y-31180000D03*
X123760000Y-31180000D03*
%TD*%
D10*
%TO.C,J3*%
X204000000Y-83460000D03*
D11*
X204000000Y-86000000D03*
X204000000Y-88540000D03*
%TD*%
D10*
%TO.C,J1*%
X167000000Y-81920000D03*
D11*
X167000000Y-84460000D03*
X167000000Y-87000000D03*
X167000000Y-89540000D03*
X167000000Y-92080000D03*
%TD*%
D19*
%TO.C,D32*%
X208000000Y-116000000D03*
D13*
X208000000Y-108380000D03*
%TD*%
D15*
%TO.C,D31*%
X203300000Y-65080000D03*
D13*
X203300000Y-72700000D03*
%TD*%
D15*
%TO.C,D30*%
X189300000Y-65080000D03*
D13*
X189300000Y-72700000D03*
%TD*%
D15*
%TO.C,D29*%
X174300000Y-65080000D03*
D13*
X174300000Y-72700000D03*
%TD*%
D15*
%TO.C,D28*%
X158300000Y-65080000D03*
D13*
X158300000Y-72700000D03*
%TD*%
D15*
%TO.C,D27*%
X143300000Y-65080000D03*
D13*
X143300000Y-72700000D03*
%TD*%
D15*
%TO.C,D26*%
X128300000Y-65080000D03*
D13*
X128300000Y-72700000D03*
%TD*%
D15*
%TO.C,D25*%
X203300000Y-55080000D03*
D13*
X203300000Y-62700000D03*
%TD*%
D15*
%TO.C,D24*%
X189300000Y-55080000D03*
D13*
X189300000Y-62700000D03*
%TD*%
D15*
%TO.C,D23*%
X174300000Y-55080000D03*
D13*
X174300000Y-62700000D03*
%TD*%
D15*
%TO.C,D22*%
X158300000Y-55080000D03*
D13*
X158300000Y-62700000D03*
%TD*%
D15*
%TO.C,D21*%
X143300000Y-55080000D03*
D13*
X143300000Y-62700000D03*
%TD*%
D15*
%TO.C,D20*%
X128300000Y-55080000D03*
D13*
X128300000Y-62700000D03*
%TD*%
D15*
%TO.C,D19*%
X203300000Y-45080000D03*
D13*
X203300000Y-52700000D03*
%TD*%
D15*
%TO.C,D18*%
X189300000Y-45080000D03*
D13*
X189300000Y-52700000D03*
%TD*%
D15*
%TO.C,D17*%
X174300000Y-45080000D03*
D13*
X174300000Y-52700000D03*
%TD*%
D15*
%TO.C,D16*%
X158300000Y-45080000D03*
D13*
X158300000Y-52700000D03*
%TD*%
D15*
%TO.C,D14*%
X128300000Y-45080000D03*
D13*
X128300000Y-52700000D03*
%TD*%
D15*
%TO.C,D11*%
X174300000Y-35080000D03*
D13*
X174300000Y-42700000D03*
%TD*%
D15*
%TO.C,D10*%
X158300000Y-35080000D03*
D13*
X158300000Y-42700000D03*
%TD*%
D15*
%TO.C,D8*%
X128300000Y-35080000D03*
D13*
X128300000Y-42700000D03*
%TD*%
D15*
%TO.C,D7*%
X203300000Y-25080000D03*
D13*
X203300000Y-32700000D03*
%TD*%
D15*
%TO.C,D6*%
X189300000Y-25080000D03*
D13*
X189300000Y-32700000D03*
%TD*%
D15*
%TO.C,D5*%
X174300000Y-25080000D03*
D13*
X174300000Y-32700000D03*
%TD*%
D15*
%TO.C,D4*%
X158300000Y-25080000D03*
D13*
X158300000Y-32700000D03*
%TD*%
M02*
