%TF.GenerationSoftware,KiCad,Pcbnew,9.0.7*%
%TF.CreationDate,2026-02-01T21:09:59+09:00*%
%TF.ProjectId,YMMkeyboard,594d4d6b-6579-4626-9f61-72642e6b6963,rev?*%
%TF.SameCoordinates,Original*%
%TF.FileFunction,Legend,Top*%
%TF.FilePolarity,Positive*%
%FSLAX46Y46*%
G04 Gerber Fmt 4.6, Leading zero omitted, Abs format (unit mm)*
G04 Created by KiCad (PCBNEW 9.0.7) date 2026-02-01 21:09:59*
%MOMM*%
%LPD*%
G01*
G04 APERTURE LIST*
%ADD10C,0.150000*%
%ADD11C,0.120000*%
G04 APERTURE END LIST*
D10*
X177785714Y-90334819D02*
X177785714Y-89334819D01*
X177785714Y-89334819D02*
X178023809Y-89334819D01*
X178023809Y-89334819D02*
X178166666Y-89382438D01*
X178166666Y-89382438D02*
X178261904Y-89477676D01*
X178261904Y-89477676D02*
X178309523Y-89572914D01*
X178309523Y-89572914D02*
X178357142Y-89763390D01*
X178357142Y-89763390D02*
X178357142Y-89906247D01*
X178357142Y-89906247D02*
X178309523Y-90096723D01*
X178309523Y-90096723D02*
X178261904Y-90191961D01*
X178261904Y-90191961D02*
X178166666Y-90287200D01*
X178166666Y-90287200D02*
X178023809Y-90334819D01*
X178023809Y-90334819D02*
X177785714Y-90334819D01*
X178738095Y-89430057D02*
X178785714Y-89382438D01*
X178785714Y-89382438D02*
X178880952Y-89334819D01*
X178880952Y-89334819D02*
X179119047Y-89334819D01*
X179119047Y-89334819D02*
X179214285Y-89382438D01*
X179214285Y-89382438D02*
X179261904Y-89430057D01*
X179261904Y-89430057D02*
X179309523Y-89525295D01*
X179309523Y-89525295D02*
X179309523Y-89620533D01*
X179309523Y-89620533D02*
X179261904Y-89763390D01*
X179261904Y-89763390D02*
X178690476Y-90334819D01*
X178690476Y-90334819D02*
X179309523Y-90334819D01*
X179785714Y-90334819D02*
X179976190Y-90334819D01*
X179976190Y-90334819D02*
X180071428Y-90287200D01*
X180071428Y-90287200D02*
X180119047Y-90239580D01*
X180119047Y-90239580D02*
X180214285Y-90096723D01*
X180214285Y-90096723D02*
X180261904Y-89906247D01*
X180261904Y-89906247D02*
X180261904Y-89525295D01*
X180261904Y-89525295D02*
X180214285Y-89430057D01*
X180214285Y-89430057D02*
X180166666Y-89382438D01*
X180166666Y-89382438D02*
X180071428Y-89334819D01*
X180071428Y-89334819D02*
X179880952Y-89334819D01*
X179880952Y-89334819D02*
X179785714Y-89382438D01*
X179785714Y-89382438D02*
X179738095Y-89430057D01*
X179738095Y-89430057D02*
X179690476Y-89525295D01*
X179690476Y-89525295D02*
X179690476Y-89763390D01*
X179690476Y-89763390D02*
X179738095Y-89858628D01*
X179738095Y-89858628D02*
X179785714Y-89906247D01*
X179785714Y-89906247D02*
X179880952Y-89953866D01*
X179880952Y-89953866D02*
X180071428Y-89953866D01*
X180071428Y-89953866D02*
X180166666Y-89906247D01*
X180166666Y-89906247D02*
X180214285Y-89858628D01*
X180214285Y-89858628D02*
X180261904Y-89763390D01*
X174928095Y-90654819D02*
X174928095Y-89654819D01*
X175499523Y-90654819D02*
X175070952Y-90083390D01*
X175499523Y-89654819D02*
X174928095Y-90226247D01*
X145574819Y-39658094D02*
X144574819Y-39658094D01*
X144574819Y-39658094D02*
X144574819Y-39419999D01*
X144574819Y-39419999D02*
X144622438Y-39277142D01*
X144622438Y-39277142D02*
X144717676Y-39181904D01*
X144717676Y-39181904D02*
X144812914Y-39134285D01*
X144812914Y-39134285D02*
X145003390Y-39086666D01*
X145003390Y-39086666D02*
X145146247Y-39086666D01*
X145146247Y-39086666D02*
X145336723Y-39134285D01*
X145336723Y-39134285D02*
X145431961Y-39181904D01*
X145431961Y-39181904D02*
X145527200Y-39277142D01*
X145527200Y-39277142D02*
X145574819Y-39419999D01*
X145574819Y-39419999D02*
X145574819Y-39658094D01*
X145574819Y-38610475D02*
X145574819Y-38419999D01*
X145574819Y-38419999D02*
X145527200Y-38324761D01*
X145527200Y-38324761D02*
X145479580Y-38277142D01*
X145479580Y-38277142D02*
X145336723Y-38181904D01*
X145336723Y-38181904D02*
X145146247Y-38134285D01*
X145146247Y-38134285D02*
X144765295Y-38134285D01*
X144765295Y-38134285D02*
X144670057Y-38181904D01*
X144670057Y-38181904D02*
X144622438Y-38229523D01*
X144622438Y-38229523D02*
X144574819Y-38324761D01*
X144574819Y-38324761D02*
X144574819Y-38515237D01*
X144574819Y-38515237D02*
X144622438Y-38610475D01*
X144622438Y-38610475D02*
X144670057Y-38658094D01*
X144670057Y-38658094D02*
X144765295Y-38705713D01*
X144765295Y-38705713D02*
X145003390Y-38705713D01*
X145003390Y-38705713D02*
X145098628Y-38658094D01*
X145098628Y-38658094D02*
X145146247Y-38610475D01*
X145146247Y-38610475D02*
X145193866Y-38515237D01*
X145193866Y-38515237D02*
X145193866Y-38324761D01*
X145193866Y-38324761D02*
X145146247Y-38229523D01*
X145146247Y-38229523D02*
X145098628Y-38181904D01*
X145098628Y-38181904D02*
X145003390Y-38134285D01*
X145254819Y-35371904D02*
X144254819Y-35371904D01*
X145254819Y-34800476D02*
X144683390Y-35229047D01*
X144254819Y-34800476D02*
X144826247Y-35371904D01*
X205574819Y-40024285D02*
X204574819Y-40024285D01*
X204574819Y-40024285D02*
X204574819Y-39786190D01*
X204574819Y-39786190D02*
X204622438Y-39643333D01*
X204622438Y-39643333D02*
X204717676Y-39548095D01*
X204717676Y-39548095D02*
X204812914Y-39500476D01*
X204812914Y-39500476D02*
X205003390Y-39452857D01*
X205003390Y-39452857D02*
X205146247Y-39452857D01*
X205146247Y-39452857D02*
X205336723Y-39500476D01*
X205336723Y-39500476D02*
X205431961Y-39548095D01*
X205431961Y-39548095D02*
X205527200Y-39643333D01*
X205527200Y-39643333D02*
X205574819Y-39786190D01*
X205574819Y-39786190D02*
X205574819Y-40024285D01*
X205574819Y-38500476D02*
X205574819Y-39071904D01*
X205574819Y-38786190D02*
X204574819Y-38786190D01*
X204574819Y-38786190D02*
X204717676Y-38881428D01*
X204717676Y-38881428D02*
X204812914Y-38976666D01*
X204812914Y-38976666D02*
X204860533Y-39071904D01*
X204574819Y-38167142D02*
X204574819Y-37548095D01*
X204574819Y-37548095D02*
X204955771Y-37881428D01*
X204955771Y-37881428D02*
X204955771Y-37738571D01*
X204955771Y-37738571D02*
X205003390Y-37643333D01*
X205003390Y-37643333D02*
X205051009Y-37595714D01*
X205051009Y-37595714D02*
X205146247Y-37548095D01*
X205146247Y-37548095D02*
X205384342Y-37548095D01*
X205384342Y-37548095D02*
X205479580Y-37595714D01*
X205479580Y-37595714D02*
X205527200Y-37643333D01*
X205527200Y-37643333D02*
X205574819Y-37738571D01*
X205574819Y-37738571D02*
X205574819Y-38024285D01*
X205574819Y-38024285D02*
X205527200Y-38119523D01*
X205527200Y-38119523D02*
X205479580Y-38167142D01*
X205254819Y-35261904D02*
X204254819Y-35261904D01*
X205254819Y-34690476D02*
X204683390Y-35119047D01*
X204254819Y-34690476D02*
X204826247Y-35261904D01*
X145874819Y-29628094D02*
X144874819Y-29628094D01*
X144874819Y-29628094D02*
X144874819Y-29389999D01*
X144874819Y-29389999D02*
X144922438Y-29247142D01*
X144922438Y-29247142D02*
X145017676Y-29151904D01*
X145017676Y-29151904D02*
X145112914Y-29104285D01*
X145112914Y-29104285D02*
X145303390Y-29056666D01*
X145303390Y-29056666D02*
X145446247Y-29056666D01*
X145446247Y-29056666D02*
X145636723Y-29104285D01*
X145636723Y-29104285D02*
X145731961Y-29151904D01*
X145731961Y-29151904D02*
X145827200Y-29247142D01*
X145827200Y-29247142D02*
X145874819Y-29389999D01*
X145874819Y-29389999D02*
X145874819Y-29628094D01*
X144874819Y-28723332D02*
X144874819Y-28104285D01*
X144874819Y-28104285D02*
X145255771Y-28437618D01*
X145255771Y-28437618D02*
X145255771Y-28294761D01*
X145255771Y-28294761D02*
X145303390Y-28199523D01*
X145303390Y-28199523D02*
X145351009Y-28151904D01*
X145351009Y-28151904D02*
X145446247Y-28104285D01*
X145446247Y-28104285D02*
X145684342Y-28104285D01*
X145684342Y-28104285D02*
X145779580Y-28151904D01*
X145779580Y-28151904D02*
X145827200Y-28199523D01*
X145827200Y-28199523D02*
X145874819Y-28294761D01*
X145874819Y-28294761D02*
X145874819Y-28580475D01*
X145874819Y-28580475D02*
X145827200Y-28675713D01*
X145827200Y-28675713D02*
X145779580Y-28723332D01*
X145554819Y-25341904D02*
X144554819Y-25341904D01*
X145554819Y-24770476D02*
X144983390Y-25199047D01*
X144554819Y-24770476D02*
X145126247Y-25341904D01*
X145874819Y-50104285D02*
X144874819Y-50104285D01*
X144874819Y-50104285D02*
X144874819Y-49866190D01*
X144874819Y-49866190D02*
X144922438Y-49723333D01*
X144922438Y-49723333D02*
X145017676Y-49628095D01*
X145017676Y-49628095D02*
X145112914Y-49580476D01*
X145112914Y-49580476D02*
X145303390Y-49532857D01*
X145303390Y-49532857D02*
X145446247Y-49532857D01*
X145446247Y-49532857D02*
X145636723Y-49580476D01*
X145636723Y-49580476D02*
X145731961Y-49628095D01*
X145731961Y-49628095D02*
X145827200Y-49723333D01*
X145827200Y-49723333D02*
X145874819Y-49866190D01*
X145874819Y-49866190D02*
X145874819Y-50104285D01*
X145874819Y-48580476D02*
X145874819Y-49151904D01*
X145874819Y-48866190D02*
X144874819Y-48866190D01*
X144874819Y-48866190D02*
X145017676Y-48961428D01*
X145017676Y-48961428D02*
X145112914Y-49056666D01*
X145112914Y-49056666D02*
X145160533Y-49151904D01*
X144874819Y-47675714D02*
X144874819Y-48151904D01*
X144874819Y-48151904D02*
X145351009Y-48199523D01*
X145351009Y-48199523D02*
X145303390Y-48151904D01*
X145303390Y-48151904D02*
X145255771Y-48056666D01*
X145255771Y-48056666D02*
X145255771Y-47818571D01*
X145255771Y-47818571D02*
X145303390Y-47723333D01*
X145303390Y-47723333D02*
X145351009Y-47675714D01*
X145351009Y-47675714D02*
X145446247Y-47628095D01*
X145446247Y-47628095D02*
X145684342Y-47628095D01*
X145684342Y-47628095D02*
X145779580Y-47675714D01*
X145779580Y-47675714D02*
X145827200Y-47723333D01*
X145827200Y-47723333D02*
X145874819Y-47818571D01*
X145874819Y-47818571D02*
X145874819Y-48056666D01*
X145874819Y-48056666D02*
X145827200Y-48151904D01*
X145827200Y-48151904D02*
X145779580Y-48199523D01*
X145554819Y-45341904D02*
X144554819Y-45341904D01*
X145554819Y-44770476D02*
X144983390Y-45199047D01*
X144554819Y-44770476D02*
X145126247Y-45341904D01*
X191874819Y-40104285D02*
X190874819Y-40104285D01*
X190874819Y-40104285D02*
X190874819Y-39866190D01*
X190874819Y-39866190D02*
X190922438Y-39723333D01*
X190922438Y-39723333D02*
X191017676Y-39628095D01*
X191017676Y-39628095D02*
X191112914Y-39580476D01*
X191112914Y-39580476D02*
X191303390Y-39532857D01*
X191303390Y-39532857D02*
X191446247Y-39532857D01*
X191446247Y-39532857D02*
X191636723Y-39580476D01*
X191636723Y-39580476D02*
X191731961Y-39628095D01*
X191731961Y-39628095D02*
X191827200Y-39723333D01*
X191827200Y-39723333D02*
X191874819Y-39866190D01*
X191874819Y-39866190D02*
X191874819Y-40104285D01*
X191874819Y-38580476D02*
X191874819Y-39151904D01*
X191874819Y-38866190D02*
X190874819Y-38866190D01*
X190874819Y-38866190D02*
X191017676Y-38961428D01*
X191017676Y-38961428D02*
X191112914Y-39056666D01*
X191112914Y-39056666D02*
X191160533Y-39151904D01*
X190970057Y-38199523D02*
X190922438Y-38151904D01*
X190922438Y-38151904D02*
X190874819Y-38056666D01*
X190874819Y-38056666D02*
X190874819Y-37818571D01*
X190874819Y-37818571D02*
X190922438Y-37723333D01*
X190922438Y-37723333D02*
X190970057Y-37675714D01*
X190970057Y-37675714D02*
X191065295Y-37628095D01*
X191065295Y-37628095D02*
X191160533Y-37628095D01*
X191160533Y-37628095D02*
X191303390Y-37675714D01*
X191303390Y-37675714D02*
X191874819Y-38247142D01*
X191874819Y-38247142D02*
X191874819Y-37628095D01*
X191554819Y-35341904D02*
X190554819Y-35341904D01*
X191554819Y-34770476D02*
X190983390Y-35199047D01*
X190554819Y-34770476D02*
X191126247Y-35341904D01*
X130874819Y-29628094D02*
X129874819Y-29628094D01*
X129874819Y-29628094D02*
X129874819Y-29389999D01*
X129874819Y-29389999D02*
X129922438Y-29247142D01*
X129922438Y-29247142D02*
X130017676Y-29151904D01*
X130017676Y-29151904D02*
X130112914Y-29104285D01*
X130112914Y-29104285D02*
X130303390Y-29056666D01*
X130303390Y-29056666D02*
X130446247Y-29056666D01*
X130446247Y-29056666D02*
X130636723Y-29104285D01*
X130636723Y-29104285D02*
X130731961Y-29151904D01*
X130731961Y-29151904D02*
X130827200Y-29247142D01*
X130827200Y-29247142D02*
X130874819Y-29389999D01*
X130874819Y-29389999D02*
X130874819Y-29628094D01*
X129970057Y-28675713D02*
X129922438Y-28628094D01*
X129922438Y-28628094D02*
X129874819Y-28532856D01*
X129874819Y-28532856D02*
X129874819Y-28294761D01*
X129874819Y-28294761D02*
X129922438Y-28199523D01*
X129922438Y-28199523D02*
X129970057Y-28151904D01*
X129970057Y-28151904D02*
X130065295Y-28104285D01*
X130065295Y-28104285D02*
X130160533Y-28104285D01*
X130160533Y-28104285D02*
X130303390Y-28151904D01*
X130303390Y-28151904D02*
X130874819Y-28723332D01*
X130874819Y-28723332D02*
X130874819Y-28104285D01*
X130554819Y-25341904D02*
X129554819Y-25341904D01*
X130554819Y-24770476D02*
X129983390Y-25199047D01*
X129554819Y-24770476D02*
X130126247Y-25341904D01*
X187490476Y-103707200D02*
X187633333Y-103754819D01*
X187633333Y-103754819D02*
X187871428Y-103754819D01*
X187871428Y-103754819D02*
X187966666Y-103707200D01*
X187966666Y-103707200D02*
X188014285Y-103659580D01*
X188014285Y-103659580D02*
X188061904Y-103564342D01*
X188061904Y-103564342D02*
X188061904Y-103469104D01*
X188061904Y-103469104D02*
X188014285Y-103373866D01*
X188014285Y-103373866D02*
X187966666Y-103326247D01*
X187966666Y-103326247D02*
X187871428Y-103278628D01*
X187871428Y-103278628D02*
X187680952Y-103231009D01*
X187680952Y-103231009D02*
X187585714Y-103183390D01*
X187585714Y-103183390D02*
X187538095Y-103135771D01*
X187538095Y-103135771D02*
X187490476Y-103040533D01*
X187490476Y-103040533D02*
X187490476Y-102945295D01*
X187490476Y-102945295D02*
X187538095Y-102850057D01*
X187538095Y-102850057D02*
X187585714Y-102802438D01*
X187585714Y-102802438D02*
X187680952Y-102754819D01*
X187680952Y-102754819D02*
X187919047Y-102754819D01*
X187919047Y-102754819D02*
X188061904Y-102802438D01*
X188395238Y-102754819D02*
X188633333Y-103754819D01*
X188633333Y-103754819D02*
X188823809Y-103040533D01*
X188823809Y-103040533D02*
X189014285Y-103754819D01*
X189014285Y-103754819D02*
X189252381Y-102754819D01*
X189538095Y-102754819D02*
X190157142Y-102754819D01*
X190157142Y-102754819D02*
X189823809Y-103135771D01*
X189823809Y-103135771D02*
X189966666Y-103135771D01*
X189966666Y-103135771D02*
X190061904Y-103183390D01*
X190061904Y-103183390D02*
X190109523Y-103231009D01*
X190109523Y-103231009D02*
X190157142Y-103326247D01*
X190157142Y-103326247D02*
X190157142Y-103564342D01*
X190157142Y-103564342D02*
X190109523Y-103659580D01*
X190109523Y-103659580D02*
X190061904Y-103707200D01*
X190061904Y-103707200D02*
X189966666Y-103754819D01*
X189966666Y-103754819D02*
X189680952Y-103754819D01*
X189680952Y-103754819D02*
X189585714Y-103707200D01*
X189585714Y-103707200D02*
X189538095Y-103659580D01*
X190538095Y-102850057D02*
X190585714Y-102802438D01*
X190585714Y-102802438D02*
X190680952Y-102754819D01*
X190680952Y-102754819D02*
X190919047Y-102754819D01*
X190919047Y-102754819D02*
X191014285Y-102802438D01*
X191014285Y-102802438D02*
X191061904Y-102850057D01*
X191061904Y-102850057D02*
X191109523Y-102945295D01*
X191109523Y-102945295D02*
X191109523Y-103040533D01*
X191109523Y-103040533D02*
X191061904Y-103183390D01*
X191061904Y-103183390D02*
X190490476Y-103754819D01*
X190490476Y-103754819D02*
X191109523Y-103754819D01*
X194900476Y-65727200D02*
X195043333Y-65774819D01*
X195043333Y-65774819D02*
X195281428Y-65774819D01*
X195281428Y-65774819D02*
X195376666Y-65727200D01*
X195376666Y-65727200D02*
X195424285Y-65679580D01*
X195424285Y-65679580D02*
X195471904Y-65584342D01*
X195471904Y-65584342D02*
X195471904Y-65489104D01*
X195471904Y-65489104D02*
X195424285Y-65393866D01*
X195424285Y-65393866D02*
X195376666Y-65346247D01*
X195376666Y-65346247D02*
X195281428Y-65298628D01*
X195281428Y-65298628D02*
X195090952Y-65251009D01*
X195090952Y-65251009D02*
X194995714Y-65203390D01*
X194995714Y-65203390D02*
X194948095Y-65155771D01*
X194948095Y-65155771D02*
X194900476Y-65060533D01*
X194900476Y-65060533D02*
X194900476Y-64965295D01*
X194900476Y-64965295D02*
X194948095Y-64870057D01*
X194948095Y-64870057D02*
X194995714Y-64822438D01*
X194995714Y-64822438D02*
X195090952Y-64774819D01*
X195090952Y-64774819D02*
X195329047Y-64774819D01*
X195329047Y-64774819D02*
X195471904Y-64822438D01*
X195805238Y-64774819D02*
X196043333Y-65774819D01*
X196043333Y-65774819D02*
X196233809Y-65060533D01*
X196233809Y-65060533D02*
X196424285Y-65774819D01*
X196424285Y-65774819D02*
X196662381Y-64774819D01*
X196948095Y-64774819D02*
X197567142Y-64774819D01*
X197567142Y-64774819D02*
X197233809Y-65155771D01*
X197233809Y-65155771D02*
X197376666Y-65155771D01*
X197376666Y-65155771D02*
X197471904Y-65203390D01*
X197471904Y-65203390D02*
X197519523Y-65251009D01*
X197519523Y-65251009D02*
X197567142Y-65346247D01*
X197567142Y-65346247D02*
X197567142Y-65584342D01*
X197567142Y-65584342D02*
X197519523Y-65679580D01*
X197519523Y-65679580D02*
X197471904Y-65727200D01*
X197471904Y-65727200D02*
X197376666Y-65774819D01*
X197376666Y-65774819D02*
X197090952Y-65774819D01*
X197090952Y-65774819D02*
X196995714Y-65727200D01*
X196995714Y-65727200D02*
X196948095Y-65679580D01*
X198519523Y-65774819D02*
X197948095Y-65774819D01*
X198233809Y-65774819D02*
X198233809Y-64774819D01*
X198233809Y-64774819D02*
X198138571Y-64917676D01*
X198138571Y-64917676D02*
X198043333Y-65012914D01*
X198043333Y-65012914D02*
X197948095Y-65060533D01*
X179660476Y-65727200D02*
X179803333Y-65774819D01*
X179803333Y-65774819D02*
X180041428Y-65774819D01*
X180041428Y-65774819D02*
X180136666Y-65727200D01*
X180136666Y-65727200D02*
X180184285Y-65679580D01*
X180184285Y-65679580D02*
X180231904Y-65584342D01*
X180231904Y-65584342D02*
X180231904Y-65489104D01*
X180231904Y-65489104D02*
X180184285Y-65393866D01*
X180184285Y-65393866D02*
X180136666Y-65346247D01*
X180136666Y-65346247D02*
X180041428Y-65298628D01*
X180041428Y-65298628D02*
X179850952Y-65251009D01*
X179850952Y-65251009D02*
X179755714Y-65203390D01*
X179755714Y-65203390D02*
X179708095Y-65155771D01*
X179708095Y-65155771D02*
X179660476Y-65060533D01*
X179660476Y-65060533D02*
X179660476Y-64965295D01*
X179660476Y-64965295D02*
X179708095Y-64870057D01*
X179708095Y-64870057D02*
X179755714Y-64822438D01*
X179755714Y-64822438D02*
X179850952Y-64774819D01*
X179850952Y-64774819D02*
X180089047Y-64774819D01*
X180089047Y-64774819D02*
X180231904Y-64822438D01*
X180565238Y-64774819D02*
X180803333Y-65774819D01*
X180803333Y-65774819D02*
X180993809Y-65060533D01*
X180993809Y-65060533D02*
X181184285Y-65774819D01*
X181184285Y-65774819D02*
X181422381Y-64774819D01*
X181708095Y-64774819D02*
X182327142Y-64774819D01*
X182327142Y-64774819D02*
X181993809Y-65155771D01*
X181993809Y-65155771D02*
X182136666Y-65155771D01*
X182136666Y-65155771D02*
X182231904Y-65203390D01*
X182231904Y-65203390D02*
X182279523Y-65251009D01*
X182279523Y-65251009D02*
X182327142Y-65346247D01*
X182327142Y-65346247D02*
X182327142Y-65584342D01*
X182327142Y-65584342D02*
X182279523Y-65679580D01*
X182279523Y-65679580D02*
X182231904Y-65727200D01*
X182231904Y-65727200D02*
X182136666Y-65774819D01*
X182136666Y-65774819D02*
X181850952Y-65774819D01*
X181850952Y-65774819D02*
X181755714Y-65727200D01*
X181755714Y-65727200D02*
X181708095Y-65679580D01*
X182946190Y-64774819D02*
X183041428Y-64774819D01*
X183041428Y-64774819D02*
X183136666Y-64822438D01*
X183136666Y-64822438D02*
X183184285Y-64870057D01*
X183184285Y-64870057D02*
X183231904Y-64965295D01*
X183231904Y-64965295D02*
X183279523Y-65155771D01*
X183279523Y-65155771D02*
X183279523Y-65393866D01*
X183279523Y-65393866D02*
X183231904Y-65584342D01*
X183231904Y-65584342D02*
X183184285Y-65679580D01*
X183184285Y-65679580D02*
X183136666Y-65727200D01*
X183136666Y-65727200D02*
X183041428Y-65774819D01*
X183041428Y-65774819D02*
X182946190Y-65774819D01*
X182946190Y-65774819D02*
X182850952Y-65727200D01*
X182850952Y-65727200D02*
X182803333Y-65679580D01*
X182803333Y-65679580D02*
X182755714Y-65584342D01*
X182755714Y-65584342D02*
X182708095Y-65393866D01*
X182708095Y-65393866D02*
X182708095Y-65155771D01*
X182708095Y-65155771D02*
X182755714Y-64965295D01*
X182755714Y-64965295D02*
X182803333Y-64870057D01*
X182803333Y-64870057D02*
X182850952Y-64822438D01*
X182850952Y-64822438D02*
X182946190Y-64774819D01*
X164420476Y-65727200D02*
X164563333Y-65774819D01*
X164563333Y-65774819D02*
X164801428Y-65774819D01*
X164801428Y-65774819D02*
X164896666Y-65727200D01*
X164896666Y-65727200D02*
X164944285Y-65679580D01*
X164944285Y-65679580D02*
X164991904Y-65584342D01*
X164991904Y-65584342D02*
X164991904Y-65489104D01*
X164991904Y-65489104D02*
X164944285Y-65393866D01*
X164944285Y-65393866D02*
X164896666Y-65346247D01*
X164896666Y-65346247D02*
X164801428Y-65298628D01*
X164801428Y-65298628D02*
X164610952Y-65251009D01*
X164610952Y-65251009D02*
X164515714Y-65203390D01*
X164515714Y-65203390D02*
X164468095Y-65155771D01*
X164468095Y-65155771D02*
X164420476Y-65060533D01*
X164420476Y-65060533D02*
X164420476Y-64965295D01*
X164420476Y-64965295D02*
X164468095Y-64870057D01*
X164468095Y-64870057D02*
X164515714Y-64822438D01*
X164515714Y-64822438D02*
X164610952Y-64774819D01*
X164610952Y-64774819D02*
X164849047Y-64774819D01*
X164849047Y-64774819D02*
X164991904Y-64822438D01*
X165325238Y-64774819D02*
X165563333Y-65774819D01*
X165563333Y-65774819D02*
X165753809Y-65060533D01*
X165753809Y-65060533D02*
X165944285Y-65774819D01*
X165944285Y-65774819D02*
X166182381Y-64774819D01*
X166515714Y-64870057D02*
X166563333Y-64822438D01*
X166563333Y-64822438D02*
X166658571Y-64774819D01*
X166658571Y-64774819D02*
X166896666Y-64774819D01*
X166896666Y-64774819D02*
X166991904Y-64822438D01*
X166991904Y-64822438D02*
X167039523Y-64870057D01*
X167039523Y-64870057D02*
X167087142Y-64965295D01*
X167087142Y-64965295D02*
X167087142Y-65060533D01*
X167087142Y-65060533D02*
X167039523Y-65203390D01*
X167039523Y-65203390D02*
X166468095Y-65774819D01*
X166468095Y-65774819D02*
X167087142Y-65774819D01*
X167563333Y-65774819D02*
X167753809Y-65774819D01*
X167753809Y-65774819D02*
X167849047Y-65727200D01*
X167849047Y-65727200D02*
X167896666Y-65679580D01*
X167896666Y-65679580D02*
X167991904Y-65536723D01*
X167991904Y-65536723D02*
X168039523Y-65346247D01*
X168039523Y-65346247D02*
X168039523Y-64965295D01*
X168039523Y-64965295D02*
X167991904Y-64870057D01*
X167991904Y-64870057D02*
X167944285Y-64822438D01*
X167944285Y-64822438D02*
X167849047Y-64774819D01*
X167849047Y-64774819D02*
X167658571Y-64774819D01*
X167658571Y-64774819D02*
X167563333Y-64822438D01*
X167563333Y-64822438D02*
X167515714Y-64870057D01*
X167515714Y-64870057D02*
X167468095Y-64965295D01*
X167468095Y-64965295D02*
X167468095Y-65203390D01*
X167468095Y-65203390D02*
X167515714Y-65298628D01*
X167515714Y-65298628D02*
X167563333Y-65346247D01*
X167563333Y-65346247D02*
X167658571Y-65393866D01*
X167658571Y-65393866D02*
X167849047Y-65393866D01*
X167849047Y-65393866D02*
X167944285Y-65346247D01*
X167944285Y-65346247D02*
X167991904Y-65298628D01*
X167991904Y-65298628D02*
X168039523Y-65203390D01*
X149180476Y-65727200D02*
X149323333Y-65774819D01*
X149323333Y-65774819D02*
X149561428Y-65774819D01*
X149561428Y-65774819D02*
X149656666Y-65727200D01*
X149656666Y-65727200D02*
X149704285Y-65679580D01*
X149704285Y-65679580D02*
X149751904Y-65584342D01*
X149751904Y-65584342D02*
X149751904Y-65489104D01*
X149751904Y-65489104D02*
X149704285Y-65393866D01*
X149704285Y-65393866D02*
X149656666Y-65346247D01*
X149656666Y-65346247D02*
X149561428Y-65298628D01*
X149561428Y-65298628D02*
X149370952Y-65251009D01*
X149370952Y-65251009D02*
X149275714Y-65203390D01*
X149275714Y-65203390D02*
X149228095Y-65155771D01*
X149228095Y-65155771D02*
X149180476Y-65060533D01*
X149180476Y-65060533D02*
X149180476Y-64965295D01*
X149180476Y-64965295D02*
X149228095Y-64870057D01*
X149228095Y-64870057D02*
X149275714Y-64822438D01*
X149275714Y-64822438D02*
X149370952Y-64774819D01*
X149370952Y-64774819D02*
X149609047Y-64774819D01*
X149609047Y-64774819D02*
X149751904Y-64822438D01*
X150085238Y-64774819D02*
X150323333Y-65774819D01*
X150323333Y-65774819D02*
X150513809Y-65060533D01*
X150513809Y-65060533D02*
X150704285Y-65774819D01*
X150704285Y-65774819D02*
X150942381Y-64774819D01*
X151275714Y-64870057D02*
X151323333Y-64822438D01*
X151323333Y-64822438D02*
X151418571Y-64774819D01*
X151418571Y-64774819D02*
X151656666Y-64774819D01*
X151656666Y-64774819D02*
X151751904Y-64822438D01*
X151751904Y-64822438D02*
X151799523Y-64870057D01*
X151799523Y-64870057D02*
X151847142Y-64965295D01*
X151847142Y-64965295D02*
X151847142Y-65060533D01*
X151847142Y-65060533D02*
X151799523Y-65203390D01*
X151799523Y-65203390D02*
X151228095Y-65774819D01*
X151228095Y-65774819D02*
X151847142Y-65774819D01*
X152418571Y-65203390D02*
X152323333Y-65155771D01*
X152323333Y-65155771D02*
X152275714Y-65108152D01*
X152275714Y-65108152D02*
X152228095Y-65012914D01*
X152228095Y-65012914D02*
X152228095Y-64965295D01*
X152228095Y-64965295D02*
X152275714Y-64870057D01*
X152275714Y-64870057D02*
X152323333Y-64822438D01*
X152323333Y-64822438D02*
X152418571Y-64774819D01*
X152418571Y-64774819D02*
X152609047Y-64774819D01*
X152609047Y-64774819D02*
X152704285Y-64822438D01*
X152704285Y-64822438D02*
X152751904Y-64870057D01*
X152751904Y-64870057D02*
X152799523Y-64965295D01*
X152799523Y-64965295D02*
X152799523Y-65012914D01*
X152799523Y-65012914D02*
X152751904Y-65108152D01*
X152751904Y-65108152D02*
X152704285Y-65155771D01*
X152704285Y-65155771D02*
X152609047Y-65203390D01*
X152609047Y-65203390D02*
X152418571Y-65203390D01*
X152418571Y-65203390D02*
X152323333Y-65251009D01*
X152323333Y-65251009D02*
X152275714Y-65298628D01*
X152275714Y-65298628D02*
X152228095Y-65393866D01*
X152228095Y-65393866D02*
X152228095Y-65584342D01*
X152228095Y-65584342D02*
X152275714Y-65679580D01*
X152275714Y-65679580D02*
X152323333Y-65727200D01*
X152323333Y-65727200D02*
X152418571Y-65774819D01*
X152418571Y-65774819D02*
X152609047Y-65774819D01*
X152609047Y-65774819D02*
X152704285Y-65727200D01*
X152704285Y-65727200D02*
X152751904Y-65679580D01*
X152751904Y-65679580D02*
X152799523Y-65584342D01*
X152799523Y-65584342D02*
X152799523Y-65393866D01*
X152799523Y-65393866D02*
X152751904Y-65298628D01*
X152751904Y-65298628D02*
X152704285Y-65251009D01*
X152704285Y-65251009D02*
X152609047Y-65203390D01*
X133940476Y-65727200D02*
X134083333Y-65774819D01*
X134083333Y-65774819D02*
X134321428Y-65774819D01*
X134321428Y-65774819D02*
X134416666Y-65727200D01*
X134416666Y-65727200D02*
X134464285Y-65679580D01*
X134464285Y-65679580D02*
X134511904Y-65584342D01*
X134511904Y-65584342D02*
X134511904Y-65489104D01*
X134511904Y-65489104D02*
X134464285Y-65393866D01*
X134464285Y-65393866D02*
X134416666Y-65346247D01*
X134416666Y-65346247D02*
X134321428Y-65298628D01*
X134321428Y-65298628D02*
X134130952Y-65251009D01*
X134130952Y-65251009D02*
X134035714Y-65203390D01*
X134035714Y-65203390D02*
X133988095Y-65155771D01*
X133988095Y-65155771D02*
X133940476Y-65060533D01*
X133940476Y-65060533D02*
X133940476Y-64965295D01*
X133940476Y-64965295D02*
X133988095Y-64870057D01*
X133988095Y-64870057D02*
X134035714Y-64822438D01*
X134035714Y-64822438D02*
X134130952Y-64774819D01*
X134130952Y-64774819D02*
X134369047Y-64774819D01*
X134369047Y-64774819D02*
X134511904Y-64822438D01*
X134845238Y-64774819D02*
X135083333Y-65774819D01*
X135083333Y-65774819D02*
X135273809Y-65060533D01*
X135273809Y-65060533D02*
X135464285Y-65774819D01*
X135464285Y-65774819D02*
X135702381Y-64774819D01*
X136035714Y-64870057D02*
X136083333Y-64822438D01*
X136083333Y-64822438D02*
X136178571Y-64774819D01*
X136178571Y-64774819D02*
X136416666Y-64774819D01*
X136416666Y-64774819D02*
X136511904Y-64822438D01*
X136511904Y-64822438D02*
X136559523Y-64870057D01*
X136559523Y-64870057D02*
X136607142Y-64965295D01*
X136607142Y-64965295D02*
X136607142Y-65060533D01*
X136607142Y-65060533D02*
X136559523Y-65203390D01*
X136559523Y-65203390D02*
X135988095Y-65774819D01*
X135988095Y-65774819D02*
X136607142Y-65774819D01*
X136940476Y-64774819D02*
X137607142Y-64774819D01*
X137607142Y-64774819D02*
X137178571Y-65774819D01*
X118700476Y-65727200D02*
X118843333Y-65774819D01*
X118843333Y-65774819D02*
X119081428Y-65774819D01*
X119081428Y-65774819D02*
X119176666Y-65727200D01*
X119176666Y-65727200D02*
X119224285Y-65679580D01*
X119224285Y-65679580D02*
X119271904Y-65584342D01*
X119271904Y-65584342D02*
X119271904Y-65489104D01*
X119271904Y-65489104D02*
X119224285Y-65393866D01*
X119224285Y-65393866D02*
X119176666Y-65346247D01*
X119176666Y-65346247D02*
X119081428Y-65298628D01*
X119081428Y-65298628D02*
X118890952Y-65251009D01*
X118890952Y-65251009D02*
X118795714Y-65203390D01*
X118795714Y-65203390D02*
X118748095Y-65155771D01*
X118748095Y-65155771D02*
X118700476Y-65060533D01*
X118700476Y-65060533D02*
X118700476Y-64965295D01*
X118700476Y-64965295D02*
X118748095Y-64870057D01*
X118748095Y-64870057D02*
X118795714Y-64822438D01*
X118795714Y-64822438D02*
X118890952Y-64774819D01*
X118890952Y-64774819D02*
X119129047Y-64774819D01*
X119129047Y-64774819D02*
X119271904Y-64822438D01*
X119605238Y-64774819D02*
X119843333Y-65774819D01*
X119843333Y-65774819D02*
X120033809Y-65060533D01*
X120033809Y-65060533D02*
X120224285Y-65774819D01*
X120224285Y-65774819D02*
X120462381Y-64774819D01*
X120795714Y-64870057D02*
X120843333Y-64822438D01*
X120843333Y-64822438D02*
X120938571Y-64774819D01*
X120938571Y-64774819D02*
X121176666Y-64774819D01*
X121176666Y-64774819D02*
X121271904Y-64822438D01*
X121271904Y-64822438D02*
X121319523Y-64870057D01*
X121319523Y-64870057D02*
X121367142Y-64965295D01*
X121367142Y-64965295D02*
X121367142Y-65060533D01*
X121367142Y-65060533D02*
X121319523Y-65203390D01*
X121319523Y-65203390D02*
X120748095Y-65774819D01*
X120748095Y-65774819D02*
X121367142Y-65774819D01*
X122224285Y-64774819D02*
X122033809Y-64774819D01*
X122033809Y-64774819D02*
X121938571Y-64822438D01*
X121938571Y-64822438D02*
X121890952Y-64870057D01*
X121890952Y-64870057D02*
X121795714Y-65012914D01*
X121795714Y-65012914D02*
X121748095Y-65203390D01*
X121748095Y-65203390D02*
X121748095Y-65584342D01*
X121748095Y-65584342D02*
X121795714Y-65679580D01*
X121795714Y-65679580D02*
X121843333Y-65727200D01*
X121843333Y-65727200D02*
X121938571Y-65774819D01*
X121938571Y-65774819D02*
X122129047Y-65774819D01*
X122129047Y-65774819D02*
X122224285Y-65727200D01*
X122224285Y-65727200D02*
X122271904Y-65679580D01*
X122271904Y-65679580D02*
X122319523Y-65584342D01*
X122319523Y-65584342D02*
X122319523Y-65346247D01*
X122319523Y-65346247D02*
X122271904Y-65251009D01*
X122271904Y-65251009D02*
X122224285Y-65203390D01*
X122224285Y-65203390D02*
X122129047Y-65155771D01*
X122129047Y-65155771D02*
X121938571Y-65155771D01*
X121938571Y-65155771D02*
X121843333Y-65203390D01*
X121843333Y-65203390D02*
X121795714Y-65251009D01*
X121795714Y-65251009D02*
X121748095Y-65346247D01*
X194900476Y-55567200D02*
X195043333Y-55614819D01*
X195043333Y-55614819D02*
X195281428Y-55614819D01*
X195281428Y-55614819D02*
X195376666Y-55567200D01*
X195376666Y-55567200D02*
X195424285Y-55519580D01*
X195424285Y-55519580D02*
X195471904Y-55424342D01*
X195471904Y-55424342D02*
X195471904Y-55329104D01*
X195471904Y-55329104D02*
X195424285Y-55233866D01*
X195424285Y-55233866D02*
X195376666Y-55186247D01*
X195376666Y-55186247D02*
X195281428Y-55138628D01*
X195281428Y-55138628D02*
X195090952Y-55091009D01*
X195090952Y-55091009D02*
X194995714Y-55043390D01*
X194995714Y-55043390D02*
X194948095Y-54995771D01*
X194948095Y-54995771D02*
X194900476Y-54900533D01*
X194900476Y-54900533D02*
X194900476Y-54805295D01*
X194900476Y-54805295D02*
X194948095Y-54710057D01*
X194948095Y-54710057D02*
X194995714Y-54662438D01*
X194995714Y-54662438D02*
X195090952Y-54614819D01*
X195090952Y-54614819D02*
X195329047Y-54614819D01*
X195329047Y-54614819D02*
X195471904Y-54662438D01*
X195805238Y-54614819D02*
X196043333Y-55614819D01*
X196043333Y-55614819D02*
X196233809Y-54900533D01*
X196233809Y-54900533D02*
X196424285Y-55614819D01*
X196424285Y-55614819D02*
X196662381Y-54614819D01*
X196995714Y-54710057D02*
X197043333Y-54662438D01*
X197043333Y-54662438D02*
X197138571Y-54614819D01*
X197138571Y-54614819D02*
X197376666Y-54614819D01*
X197376666Y-54614819D02*
X197471904Y-54662438D01*
X197471904Y-54662438D02*
X197519523Y-54710057D01*
X197519523Y-54710057D02*
X197567142Y-54805295D01*
X197567142Y-54805295D02*
X197567142Y-54900533D01*
X197567142Y-54900533D02*
X197519523Y-55043390D01*
X197519523Y-55043390D02*
X196948095Y-55614819D01*
X196948095Y-55614819D02*
X197567142Y-55614819D01*
X198471904Y-54614819D02*
X197995714Y-54614819D01*
X197995714Y-54614819D02*
X197948095Y-55091009D01*
X197948095Y-55091009D02*
X197995714Y-55043390D01*
X197995714Y-55043390D02*
X198090952Y-54995771D01*
X198090952Y-54995771D02*
X198329047Y-54995771D01*
X198329047Y-54995771D02*
X198424285Y-55043390D01*
X198424285Y-55043390D02*
X198471904Y-55091009D01*
X198471904Y-55091009D02*
X198519523Y-55186247D01*
X198519523Y-55186247D02*
X198519523Y-55424342D01*
X198519523Y-55424342D02*
X198471904Y-55519580D01*
X198471904Y-55519580D02*
X198424285Y-55567200D01*
X198424285Y-55567200D02*
X198329047Y-55614819D01*
X198329047Y-55614819D02*
X198090952Y-55614819D01*
X198090952Y-55614819D02*
X197995714Y-55567200D01*
X197995714Y-55567200D02*
X197948095Y-55519580D01*
X179660476Y-55567200D02*
X179803333Y-55614819D01*
X179803333Y-55614819D02*
X180041428Y-55614819D01*
X180041428Y-55614819D02*
X180136666Y-55567200D01*
X180136666Y-55567200D02*
X180184285Y-55519580D01*
X180184285Y-55519580D02*
X180231904Y-55424342D01*
X180231904Y-55424342D02*
X180231904Y-55329104D01*
X180231904Y-55329104D02*
X180184285Y-55233866D01*
X180184285Y-55233866D02*
X180136666Y-55186247D01*
X180136666Y-55186247D02*
X180041428Y-55138628D01*
X180041428Y-55138628D02*
X179850952Y-55091009D01*
X179850952Y-55091009D02*
X179755714Y-55043390D01*
X179755714Y-55043390D02*
X179708095Y-54995771D01*
X179708095Y-54995771D02*
X179660476Y-54900533D01*
X179660476Y-54900533D02*
X179660476Y-54805295D01*
X179660476Y-54805295D02*
X179708095Y-54710057D01*
X179708095Y-54710057D02*
X179755714Y-54662438D01*
X179755714Y-54662438D02*
X179850952Y-54614819D01*
X179850952Y-54614819D02*
X180089047Y-54614819D01*
X180089047Y-54614819D02*
X180231904Y-54662438D01*
X180565238Y-54614819D02*
X180803333Y-55614819D01*
X180803333Y-55614819D02*
X180993809Y-54900533D01*
X180993809Y-54900533D02*
X181184285Y-55614819D01*
X181184285Y-55614819D02*
X181422381Y-54614819D01*
X181755714Y-54710057D02*
X181803333Y-54662438D01*
X181803333Y-54662438D02*
X181898571Y-54614819D01*
X181898571Y-54614819D02*
X182136666Y-54614819D01*
X182136666Y-54614819D02*
X182231904Y-54662438D01*
X182231904Y-54662438D02*
X182279523Y-54710057D01*
X182279523Y-54710057D02*
X182327142Y-54805295D01*
X182327142Y-54805295D02*
X182327142Y-54900533D01*
X182327142Y-54900533D02*
X182279523Y-55043390D01*
X182279523Y-55043390D02*
X181708095Y-55614819D01*
X181708095Y-55614819D02*
X182327142Y-55614819D01*
X183184285Y-54948152D02*
X183184285Y-55614819D01*
X182946190Y-54567200D02*
X182708095Y-55281485D01*
X182708095Y-55281485D02*
X183327142Y-55281485D01*
X164420476Y-55567200D02*
X164563333Y-55614819D01*
X164563333Y-55614819D02*
X164801428Y-55614819D01*
X164801428Y-55614819D02*
X164896666Y-55567200D01*
X164896666Y-55567200D02*
X164944285Y-55519580D01*
X164944285Y-55519580D02*
X164991904Y-55424342D01*
X164991904Y-55424342D02*
X164991904Y-55329104D01*
X164991904Y-55329104D02*
X164944285Y-55233866D01*
X164944285Y-55233866D02*
X164896666Y-55186247D01*
X164896666Y-55186247D02*
X164801428Y-55138628D01*
X164801428Y-55138628D02*
X164610952Y-55091009D01*
X164610952Y-55091009D02*
X164515714Y-55043390D01*
X164515714Y-55043390D02*
X164468095Y-54995771D01*
X164468095Y-54995771D02*
X164420476Y-54900533D01*
X164420476Y-54900533D02*
X164420476Y-54805295D01*
X164420476Y-54805295D02*
X164468095Y-54710057D01*
X164468095Y-54710057D02*
X164515714Y-54662438D01*
X164515714Y-54662438D02*
X164610952Y-54614819D01*
X164610952Y-54614819D02*
X164849047Y-54614819D01*
X164849047Y-54614819D02*
X164991904Y-54662438D01*
X165325238Y-54614819D02*
X165563333Y-55614819D01*
X165563333Y-55614819D02*
X165753809Y-54900533D01*
X165753809Y-54900533D02*
X165944285Y-55614819D01*
X165944285Y-55614819D02*
X166182381Y-54614819D01*
X166515714Y-54710057D02*
X166563333Y-54662438D01*
X166563333Y-54662438D02*
X166658571Y-54614819D01*
X166658571Y-54614819D02*
X166896666Y-54614819D01*
X166896666Y-54614819D02*
X166991904Y-54662438D01*
X166991904Y-54662438D02*
X167039523Y-54710057D01*
X167039523Y-54710057D02*
X167087142Y-54805295D01*
X167087142Y-54805295D02*
X167087142Y-54900533D01*
X167087142Y-54900533D02*
X167039523Y-55043390D01*
X167039523Y-55043390D02*
X166468095Y-55614819D01*
X166468095Y-55614819D02*
X167087142Y-55614819D01*
X167420476Y-54614819D02*
X168039523Y-54614819D01*
X168039523Y-54614819D02*
X167706190Y-54995771D01*
X167706190Y-54995771D02*
X167849047Y-54995771D01*
X167849047Y-54995771D02*
X167944285Y-55043390D01*
X167944285Y-55043390D02*
X167991904Y-55091009D01*
X167991904Y-55091009D02*
X168039523Y-55186247D01*
X168039523Y-55186247D02*
X168039523Y-55424342D01*
X168039523Y-55424342D02*
X167991904Y-55519580D01*
X167991904Y-55519580D02*
X167944285Y-55567200D01*
X167944285Y-55567200D02*
X167849047Y-55614819D01*
X167849047Y-55614819D02*
X167563333Y-55614819D01*
X167563333Y-55614819D02*
X167468095Y-55567200D01*
X167468095Y-55567200D02*
X167420476Y-55519580D01*
X149180476Y-55567200D02*
X149323333Y-55614819D01*
X149323333Y-55614819D02*
X149561428Y-55614819D01*
X149561428Y-55614819D02*
X149656666Y-55567200D01*
X149656666Y-55567200D02*
X149704285Y-55519580D01*
X149704285Y-55519580D02*
X149751904Y-55424342D01*
X149751904Y-55424342D02*
X149751904Y-55329104D01*
X149751904Y-55329104D02*
X149704285Y-55233866D01*
X149704285Y-55233866D02*
X149656666Y-55186247D01*
X149656666Y-55186247D02*
X149561428Y-55138628D01*
X149561428Y-55138628D02*
X149370952Y-55091009D01*
X149370952Y-55091009D02*
X149275714Y-55043390D01*
X149275714Y-55043390D02*
X149228095Y-54995771D01*
X149228095Y-54995771D02*
X149180476Y-54900533D01*
X149180476Y-54900533D02*
X149180476Y-54805295D01*
X149180476Y-54805295D02*
X149228095Y-54710057D01*
X149228095Y-54710057D02*
X149275714Y-54662438D01*
X149275714Y-54662438D02*
X149370952Y-54614819D01*
X149370952Y-54614819D02*
X149609047Y-54614819D01*
X149609047Y-54614819D02*
X149751904Y-54662438D01*
X150085238Y-54614819D02*
X150323333Y-55614819D01*
X150323333Y-55614819D02*
X150513809Y-54900533D01*
X150513809Y-54900533D02*
X150704285Y-55614819D01*
X150704285Y-55614819D02*
X150942381Y-54614819D01*
X151275714Y-54710057D02*
X151323333Y-54662438D01*
X151323333Y-54662438D02*
X151418571Y-54614819D01*
X151418571Y-54614819D02*
X151656666Y-54614819D01*
X151656666Y-54614819D02*
X151751904Y-54662438D01*
X151751904Y-54662438D02*
X151799523Y-54710057D01*
X151799523Y-54710057D02*
X151847142Y-54805295D01*
X151847142Y-54805295D02*
X151847142Y-54900533D01*
X151847142Y-54900533D02*
X151799523Y-55043390D01*
X151799523Y-55043390D02*
X151228095Y-55614819D01*
X151228095Y-55614819D02*
X151847142Y-55614819D01*
X152228095Y-54710057D02*
X152275714Y-54662438D01*
X152275714Y-54662438D02*
X152370952Y-54614819D01*
X152370952Y-54614819D02*
X152609047Y-54614819D01*
X152609047Y-54614819D02*
X152704285Y-54662438D01*
X152704285Y-54662438D02*
X152751904Y-54710057D01*
X152751904Y-54710057D02*
X152799523Y-54805295D01*
X152799523Y-54805295D02*
X152799523Y-54900533D01*
X152799523Y-54900533D02*
X152751904Y-55043390D01*
X152751904Y-55043390D02*
X152180476Y-55614819D01*
X152180476Y-55614819D02*
X152799523Y-55614819D01*
X133940476Y-55567200D02*
X134083333Y-55614819D01*
X134083333Y-55614819D02*
X134321428Y-55614819D01*
X134321428Y-55614819D02*
X134416666Y-55567200D01*
X134416666Y-55567200D02*
X134464285Y-55519580D01*
X134464285Y-55519580D02*
X134511904Y-55424342D01*
X134511904Y-55424342D02*
X134511904Y-55329104D01*
X134511904Y-55329104D02*
X134464285Y-55233866D01*
X134464285Y-55233866D02*
X134416666Y-55186247D01*
X134416666Y-55186247D02*
X134321428Y-55138628D01*
X134321428Y-55138628D02*
X134130952Y-55091009D01*
X134130952Y-55091009D02*
X134035714Y-55043390D01*
X134035714Y-55043390D02*
X133988095Y-54995771D01*
X133988095Y-54995771D02*
X133940476Y-54900533D01*
X133940476Y-54900533D02*
X133940476Y-54805295D01*
X133940476Y-54805295D02*
X133988095Y-54710057D01*
X133988095Y-54710057D02*
X134035714Y-54662438D01*
X134035714Y-54662438D02*
X134130952Y-54614819D01*
X134130952Y-54614819D02*
X134369047Y-54614819D01*
X134369047Y-54614819D02*
X134511904Y-54662438D01*
X134845238Y-54614819D02*
X135083333Y-55614819D01*
X135083333Y-55614819D02*
X135273809Y-54900533D01*
X135273809Y-54900533D02*
X135464285Y-55614819D01*
X135464285Y-55614819D02*
X135702381Y-54614819D01*
X136035714Y-54710057D02*
X136083333Y-54662438D01*
X136083333Y-54662438D02*
X136178571Y-54614819D01*
X136178571Y-54614819D02*
X136416666Y-54614819D01*
X136416666Y-54614819D02*
X136511904Y-54662438D01*
X136511904Y-54662438D02*
X136559523Y-54710057D01*
X136559523Y-54710057D02*
X136607142Y-54805295D01*
X136607142Y-54805295D02*
X136607142Y-54900533D01*
X136607142Y-54900533D02*
X136559523Y-55043390D01*
X136559523Y-55043390D02*
X135988095Y-55614819D01*
X135988095Y-55614819D02*
X136607142Y-55614819D01*
X137559523Y-55614819D02*
X136988095Y-55614819D01*
X137273809Y-55614819D02*
X137273809Y-54614819D01*
X137273809Y-54614819D02*
X137178571Y-54757676D01*
X137178571Y-54757676D02*
X137083333Y-54852914D01*
X137083333Y-54852914D02*
X136988095Y-54900533D01*
X118700476Y-55567200D02*
X118843333Y-55614819D01*
X118843333Y-55614819D02*
X119081428Y-55614819D01*
X119081428Y-55614819D02*
X119176666Y-55567200D01*
X119176666Y-55567200D02*
X119224285Y-55519580D01*
X119224285Y-55519580D02*
X119271904Y-55424342D01*
X119271904Y-55424342D02*
X119271904Y-55329104D01*
X119271904Y-55329104D02*
X119224285Y-55233866D01*
X119224285Y-55233866D02*
X119176666Y-55186247D01*
X119176666Y-55186247D02*
X119081428Y-55138628D01*
X119081428Y-55138628D02*
X118890952Y-55091009D01*
X118890952Y-55091009D02*
X118795714Y-55043390D01*
X118795714Y-55043390D02*
X118748095Y-54995771D01*
X118748095Y-54995771D02*
X118700476Y-54900533D01*
X118700476Y-54900533D02*
X118700476Y-54805295D01*
X118700476Y-54805295D02*
X118748095Y-54710057D01*
X118748095Y-54710057D02*
X118795714Y-54662438D01*
X118795714Y-54662438D02*
X118890952Y-54614819D01*
X118890952Y-54614819D02*
X119129047Y-54614819D01*
X119129047Y-54614819D02*
X119271904Y-54662438D01*
X119605238Y-54614819D02*
X119843333Y-55614819D01*
X119843333Y-55614819D02*
X120033809Y-54900533D01*
X120033809Y-54900533D02*
X120224285Y-55614819D01*
X120224285Y-55614819D02*
X120462381Y-54614819D01*
X120795714Y-54710057D02*
X120843333Y-54662438D01*
X120843333Y-54662438D02*
X120938571Y-54614819D01*
X120938571Y-54614819D02*
X121176666Y-54614819D01*
X121176666Y-54614819D02*
X121271904Y-54662438D01*
X121271904Y-54662438D02*
X121319523Y-54710057D01*
X121319523Y-54710057D02*
X121367142Y-54805295D01*
X121367142Y-54805295D02*
X121367142Y-54900533D01*
X121367142Y-54900533D02*
X121319523Y-55043390D01*
X121319523Y-55043390D02*
X120748095Y-55614819D01*
X120748095Y-55614819D02*
X121367142Y-55614819D01*
X121986190Y-54614819D02*
X122081428Y-54614819D01*
X122081428Y-54614819D02*
X122176666Y-54662438D01*
X122176666Y-54662438D02*
X122224285Y-54710057D01*
X122224285Y-54710057D02*
X122271904Y-54805295D01*
X122271904Y-54805295D02*
X122319523Y-54995771D01*
X122319523Y-54995771D02*
X122319523Y-55233866D01*
X122319523Y-55233866D02*
X122271904Y-55424342D01*
X122271904Y-55424342D02*
X122224285Y-55519580D01*
X122224285Y-55519580D02*
X122176666Y-55567200D01*
X122176666Y-55567200D02*
X122081428Y-55614819D01*
X122081428Y-55614819D02*
X121986190Y-55614819D01*
X121986190Y-55614819D02*
X121890952Y-55567200D01*
X121890952Y-55567200D02*
X121843333Y-55519580D01*
X121843333Y-55519580D02*
X121795714Y-55424342D01*
X121795714Y-55424342D02*
X121748095Y-55233866D01*
X121748095Y-55233866D02*
X121748095Y-54995771D01*
X121748095Y-54995771D02*
X121795714Y-54805295D01*
X121795714Y-54805295D02*
X121843333Y-54710057D01*
X121843333Y-54710057D02*
X121890952Y-54662438D01*
X121890952Y-54662438D02*
X121986190Y-54614819D01*
X194900476Y-45407200D02*
X195043333Y-45454819D01*
X195043333Y-45454819D02*
X195281428Y-45454819D01*
X195281428Y-45454819D02*
X195376666Y-45407200D01*
X195376666Y-45407200D02*
X195424285Y-45359580D01*
X195424285Y-45359580D02*
X195471904Y-45264342D01*
X195471904Y-45264342D02*
X195471904Y-45169104D01*
X195471904Y-45169104D02*
X195424285Y-45073866D01*
X195424285Y-45073866D02*
X195376666Y-45026247D01*
X195376666Y-45026247D02*
X195281428Y-44978628D01*
X195281428Y-44978628D02*
X195090952Y-44931009D01*
X195090952Y-44931009D02*
X194995714Y-44883390D01*
X194995714Y-44883390D02*
X194948095Y-44835771D01*
X194948095Y-44835771D02*
X194900476Y-44740533D01*
X194900476Y-44740533D02*
X194900476Y-44645295D01*
X194900476Y-44645295D02*
X194948095Y-44550057D01*
X194948095Y-44550057D02*
X194995714Y-44502438D01*
X194995714Y-44502438D02*
X195090952Y-44454819D01*
X195090952Y-44454819D02*
X195329047Y-44454819D01*
X195329047Y-44454819D02*
X195471904Y-44502438D01*
X195805238Y-44454819D02*
X196043333Y-45454819D01*
X196043333Y-45454819D02*
X196233809Y-44740533D01*
X196233809Y-44740533D02*
X196424285Y-45454819D01*
X196424285Y-45454819D02*
X196662381Y-44454819D01*
X197567142Y-45454819D02*
X196995714Y-45454819D01*
X197281428Y-45454819D02*
X197281428Y-44454819D01*
X197281428Y-44454819D02*
X197186190Y-44597676D01*
X197186190Y-44597676D02*
X197090952Y-44692914D01*
X197090952Y-44692914D02*
X196995714Y-44740533D01*
X198043333Y-45454819D02*
X198233809Y-45454819D01*
X198233809Y-45454819D02*
X198329047Y-45407200D01*
X198329047Y-45407200D02*
X198376666Y-45359580D01*
X198376666Y-45359580D02*
X198471904Y-45216723D01*
X198471904Y-45216723D02*
X198519523Y-45026247D01*
X198519523Y-45026247D02*
X198519523Y-44645295D01*
X198519523Y-44645295D02*
X198471904Y-44550057D01*
X198471904Y-44550057D02*
X198424285Y-44502438D01*
X198424285Y-44502438D02*
X198329047Y-44454819D01*
X198329047Y-44454819D02*
X198138571Y-44454819D01*
X198138571Y-44454819D02*
X198043333Y-44502438D01*
X198043333Y-44502438D02*
X197995714Y-44550057D01*
X197995714Y-44550057D02*
X197948095Y-44645295D01*
X197948095Y-44645295D02*
X197948095Y-44883390D01*
X197948095Y-44883390D02*
X197995714Y-44978628D01*
X197995714Y-44978628D02*
X198043333Y-45026247D01*
X198043333Y-45026247D02*
X198138571Y-45073866D01*
X198138571Y-45073866D02*
X198329047Y-45073866D01*
X198329047Y-45073866D02*
X198424285Y-45026247D01*
X198424285Y-45026247D02*
X198471904Y-44978628D01*
X198471904Y-44978628D02*
X198519523Y-44883390D01*
X179660476Y-45407200D02*
X179803333Y-45454819D01*
X179803333Y-45454819D02*
X180041428Y-45454819D01*
X180041428Y-45454819D02*
X180136666Y-45407200D01*
X180136666Y-45407200D02*
X180184285Y-45359580D01*
X180184285Y-45359580D02*
X180231904Y-45264342D01*
X180231904Y-45264342D02*
X180231904Y-45169104D01*
X180231904Y-45169104D02*
X180184285Y-45073866D01*
X180184285Y-45073866D02*
X180136666Y-45026247D01*
X180136666Y-45026247D02*
X180041428Y-44978628D01*
X180041428Y-44978628D02*
X179850952Y-44931009D01*
X179850952Y-44931009D02*
X179755714Y-44883390D01*
X179755714Y-44883390D02*
X179708095Y-44835771D01*
X179708095Y-44835771D02*
X179660476Y-44740533D01*
X179660476Y-44740533D02*
X179660476Y-44645295D01*
X179660476Y-44645295D02*
X179708095Y-44550057D01*
X179708095Y-44550057D02*
X179755714Y-44502438D01*
X179755714Y-44502438D02*
X179850952Y-44454819D01*
X179850952Y-44454819D02*
X180089047Y-44454819D01*
X180089047Y-44454819D02*
X180231904Y-44502438D01*
X180565238Y-44454819D02*
X180803333Y-45454819D01*
X180803333Y-45454819D02*
X180993809Y-44740533D01*
X180993809Y-44740533D02*
X181184285Y-45454819D01*
X181184285Y-45454819D02*
X181422381Y-44454819D01*
X182327142Y-45454819D02*
X181755714Y-45454819D01*
X182041428Y-45454819D02*
X182041428Y-44454819D01*
X182041428Y-44454819D02*
X181946190Y-44597676D01*
X181946190Y-44597676D02*
X181850952Y-44692914D01*
X181850952Y-44692914D02*
X181755714Y-44740533D01*
X182898571Y-44883390D02*
X182803333Y-44835771D01*
X182803333Y-44835771D02*
X182755714Y-44788152D01*
X182755714Y-44788152D02*
X182708095Y-44692914D01*
X182708095Y-44692914D02*
X182708095Y-44645295D01*
X182708095Y-44645295D02*
X182755714Y-44550057D01*
X182755714Y-44550057D02*
X182803333Y-44502438D01*
X182803333Y-44502438D02*
X182898571Y-44454819D01*
X182898571Y-44454819D02*
X183089047Y-44454819D01*
X183089047Y-44454819D02*
X183184285Y-44502438D01*
X183184285Y-44502438D02*
X183231904Y-44550057D01*
X183231904Y-44550057D02*
X183279523Y-44645295D01*
X183279523Y-44645295D02*
X183279523Y-44692914D01*
X183279523Y-44692914D02*
X183231904Y-44788152D01*
X183231904Y-44788152D02*
X183184285Y-44835771D01*
X183184285Y-44835771D02*
X183089047Y-44883390D01*
X183089047Y-44883390D02*
X182898571Y-44883390D01*
X182898571Y-44883390D02*
X182803333Y-44931009D01*
X182803333Y-44931009D02*
X182755714Y-44978628D01*
X182755714Y-44978628D02*
X182708095Y-45073866D01*
X182708095Y-45073866D02*
X182708095Y-45264342D01*
X182708095Y-45264342D02*
X182755714Y-45359580D01*
X182755714Y-45359580D02*
X182803333Y-45407200D01*
X182803333Y-45407200D02*
X182898571Y-45454819D01*
X182898571Y-45454819D02*
X183089047Y-45454819D01*
X183089047Y-45454819D02*
X183184285Y-45407200D01*
X183184285Y-45407200D02*
X183231904Y-45359580D01*
X183231904Y-45359580D02*
X183279523Y-45264342D01*
X183279523Y-45264342D02*
X183279523Y-45073866D01*
X183279523Y-45073866D02*
X183231904Y-44978628D01*
X183231904Y-44978628D02*
X183184285Y-44931009D01*
X183184285Y-44931009D02*
X183089047Y-44883390D01*
X164420476Y-45407200D02*
X164563333Y-45454819D01*
X164563333Y-45454819D02*
X164801428Y-45454819D01*
X164801428Y-45454819D02*
X164896666Y-45407200D01*
X164896666Y-45407200D02*
X164944285Y-45359580D01*
X164944285Y-45359580D02*
X164991904Y-45264342D01*
X164991904Y-45264342D02*
X164991904Y-45169104D01*
X164991904Y-45169104D02*
X164944285Y-45073866D01*
X164944285Y-45073866D02*
X164896666Y-45026247D01*
X164896666Y-45026247D02*
X164801428Y-44978628D01*
X164801428Y-44978628D02*
X164610952Y-44931009D01*
X164610952Y-44931009D02*
X164515714Y-44883390D01*
X164515714Y-44883390D02*
X164468095Y-44835771D01*
X164468095Y-44835771D02*
X164420476Y-44740533D01*
X164420476Y-44740533D02*
X164420476Y-44645295D01*
X164420476Y-44645295D02*
X164468095Y-44550057D01*
X164468095Y-44550057D02*
X164515714Y-44502438D01*
X164515714Y-44502438D02*
X164610952Y-44454819D01*
X164610952Y-44454819D02*
X164849047Y-44454819D01*
X164849047Y-44454819D02*
X164991904Y-44502438D01*
X165325238Y-44454819D02*
X165563333Y-45454819D01*
X165563333Y-45454819D02*
X165753809Y-44740533D01*
X165753809Y-44740533D02*
X165944285Y-45454819D01*
X165944285Y-45454819D02*
X166182381Y-44454819D01*
X167087142Y-45454819D02*
X166515714Y-45454819D01*
X166801428Y-45454819D02*
X166801428Y-44454819D01*
X166801428Y-44454819D02*
X166706190Y-44597676D01*
X166706190Y-44597676D02*
X166610952Y-44692914D01*
X166610952Y-44692914D02*
X166515714Y-44740533D01*
X167420476Y-44454819D02*
X168087142Y-44454819D01*
X168087142Y-44454819D02*
X167658571Y-45454819D01*
X149180476Y-45407200D02*
X149323333Y-45454819D01*
X149323333Y-45454819D02*
X149561428Y-45454819D01*
X149561428Y-45454819D02*
X149656666Y-45407200D01*
X149656666Y-45407200D02*
X149704285Y-45359580D01*
X149704285Y-45359580D02*
X149751904Y-45264342D01*
X149751904Y-45264342D02*
X149751904Y-45169104D01*
X149751904Y-45169104D02*
X149704285Y-45073866D01*
X149704285Y-45073866D02*
X149656666Y-45026247D01*
X149656666Y-45026247D02*
X149561428Y-44978628D01*
X149561428Y-44978628D02*
X149370952Y-44931009D01*
X149370952Y-44931009D02*
X149275714Y-44883390D01*
X149275714Y-44883390D02*
X149228095Y-44835771D01*
X149228095Y-44835771D02*
X149180476Y-44740533D01*
X149180476Y-44740533D02*
X149180476Y-44645295D01*
X149180476Y-44645295D02*
X149228095Y-44550057D01*
X149228095Y-44550057D02*
X149275714Y-44502438D01*
X149275714Y-44502438D02*
X149370952Y-44454819D01*
X149370952Y-44454819D02*
X149609047Y-44454819D01*
X149609047Y-44454819D02*
X149751904Y-44502438D01*
X150085238Y-44454819D02*
X150323333Y-45454819D01*
X150323333Y-45454819D02*
X150513809Y-44740533D01*
X150513809Y-44740533D02*
X150704285Y-45454819D01*
X150704285Y-45454819D02*
X150942381Y-44454819D01*
X151847142Y-45454819D02*
X151275714Y-45454819D01*
X151561428Y-45454819D02*
X151561428Y-44454819D01*
X151561428Y-44454819D02*
X151466190Y-44597676D01*
X151466190Y-44597676D02*
X151370952Y-44692914D01*
X151370952Y-44692914D02*
X151275714Y-44740533D01*
X152704285Y-44454819D02*
X152513809Y-44454819D01*
X152513809Y-44454819D02*
X152418571Y-44502438D01*
X152418571Y-44502438D02*
X152370952Y-44550057D01*
X152370952Y-44550057D02*
X152275714Y-44692914D01*
X152275714Y-44692914D02*
X152228095Y-44883390D01*
X152228095Y-44883390D02*
X152228095Y-45264342D01*
X152228095Y-45264342D02*
X152275714Y-45359580D01*
X152275714Y-45359580D02*
X152323333Y-45407200D01*
X152323333Y-45407200D02*
X152418571Y-45454819D01*
X152418571Y-45454819D02*
X152609047Y-45454819D01*
X152609047Y-45454819D02*
X152704285Y-45407200D01*
X152704285Y-45407200D02*
X152751904Y-45359580D01*
X152751904Y-45359580D02*
X152799523Y-45264342D01*
X152799523Y-45264342D02*
X152799523Y-45026247D01*
X152799523Y-45026247D02*
X152751904Y-44931009D01*
X152751904Y-44931009D02*
X152704285Y-44883390D01*
X152704285Y-44883390D02*
X152609047Y-44835771D01*
X152609047Y-44835771D02*
X152418571Y-44835771D01*
X152418571Y-44835771D02*
X152323333Y-44883390D01*
X152323333Y-44883390D02*
X152275714Y-44931009D01*
X152275714Y-44931009D02*
X152228095Y-45026247D01*
X133940476Y-45407200D02*
X134083333Y-45454819D01*
X134083333Y-45454819D02*
X134321428Y-45454819D01*
X134321428Y-45454819D02*
X134416666Y-45407200D01*
X134416666Y-45407200D02*
X134464285Y-45359580D01*
X134464285Y-45359580D02*
X134511904Y-45264342D01*
X134511904Y-45264342D02*
X134511904Y-45169104D01*
X134511904Y-45169104D02*
X134464285Y-45073866D01*
X134464285Y-45073866D02*
X134416666Y-45026247D01*
X134416666Y-45026247D02*
X134321428Y-44978628D01*
X134321428Y-44978628D02*
X134130952Y-44931009D01*
X134130952Y-44931009D02*
X134035714Y-44883390D01*
X134035714Y-44883390D02*
X133988095Y-44835771D01*
X133988095Y-44835771D02*
X133940476Y-44740533D01*
X133940476Y-44740533D02*
X133940476Y-44645295D01*
X133940476Y-44645295D02*
X133988095Y-44550057D01*
X133988095Y-44550057D02*
X134035714Y-44502438D01*
X134035714Y-44502438D02*
X134130952Y-44454819D01*
X134130952Y-44454819D02*
X134369047Y-44454819D01*
X134369047Y-44454819D02*
X134511904Y-44502438D01*
X134845238Y-44454819D02*
X135083333Y-45454819D01*
X135083333Y-45454819D02*
X135273809Y-44740533D01*
X135273809Y-44740533D02*
X135464285Y-45454819D01*
X135464285Y-45454819D02*
X135702381Y-44454819D01*
X136607142Y-45454819D02*
X136035714Y-45454819D01*
X136321428Y-45454819D02*
X136321428Y-44454819D01*
X136321428Y-44454819D02*
X136226190Y-44597676D01*
X136226190Y-44597676D02*
X136130952Y-44692914D01*
X136130952Y-44692914D02*
X136035714Y-44740533D01*
X137511904Y-44454819D02*
X137035714Y-44454819D01*
X137035714Y-44454819D02*
X136988095Y-44931009D01*
X136988095Y-44931009D02*
X137035714Y-44883390D01*
X137035714Y-44883390D02*
X137130952Y-44835771D01*
X137130952Y-44835771D02*
X137369047Y-44835771D01*
X137369047Y-44835771D02*
X137464285Y-44883390D01*
X137464285Y-44883390D02*
X137511904Y-44931009D01*
X137511904Y-44931009D02*
X137559523Y-45026247D01*
X137559523Y-45026247D02*
X137559523Y-45264342D01*
X137559523Y-45264342D02*
X137511904Y-45359580D01*
X137511904Y-45359580D02*
X137464285Y-45407200D01*
X137464285Y-45407200D02*
X137369047Y-45454819D01*
X137369047Y-45454819D02*
X137130952Y-45454819D01*
X137130952Y-45454819D02*
X137035714Y-45407200D01*
X137035714Y-45407200D02*
X136988095Y-45359580D01*
X118700476Y-45407200D02*
X118843333Y-45454819D01*
X118843333Y-45454819D02*
X119081428Y-45454819D01*
X119081428Y-45454819D02*
X119176666Y-45407200D01*
X119176666Y-45407200D02*
X119224285Y-45359580D01*
X119224285Y-45359580D02*
X119271904Y-45264342D01*
X119271904Y-45264342D02*
X119271904Y-45169104D01*
X119271904Y-45169104D02*
X119224285Y-45073866D01*
X119224285Y-45073866D02*
X119176666Y-45026247D01*
X119176666Y-45026247D02*
X119081428Y-44978628D01*
X119081428Y-44978628D02*
X118890952Y-44931009D01*
X118890952Y-44931009D02*
X118795714Y-44883390D01*
X118795714Y-44883390D02*
X118748095Y-44835771D01*
X118748095Y-44835771D02*
X118700476Y-44740533D01*
X118700476Y-44740533D02*
X118700476Y-44645295D01*
X118700476Y-44645295D02*
X118748095Y-44550057D01*
X118748095Y-44550057D02*
X118795714Y-44502438D01*
X118795714Y-44502438D02*
X118890952Y-44454819D01*
X118890952Y-44454819D02*
X119129047Y-44454819D01*
X119129047Y-44454819D02*
X119271904Y-44502438D01*
X119605238Y-44454819D02*
X119843333Y-45454819D01*
X119843333Y-45454819D02*
X120033809Y-44740533D01*
X120033809Y-44740533D02*
X120224285Y-45454819D01*
X120224285Y-45454819D02*
X120462381Y-44454819D01*
X121367142Y-45454819D02*
X120795714Y-45454819D01*
X121081428Y-45454819D02*
X121081428Y-44454819D01*
X121081428Y-44454819D02*
X120986190Y-44597676D01*
X120986190Y-44597676D02*
X120890952Y-44692914D01*
X120890952Y-44692914D02*
X120795714Y-44740533D01*
X122224285Y-44788152D02*
X122224285Y-45454819D01*
X121986190Y-44407200D02*
X121748095Y-45121485D01*
X121748095Y-45121485D02*
X122367142Y-45121485D01*
X194900476Y-35247200D02*
X195043333Y-35294819D01*
X195043333Y-35294819D02*
X195281428Y-35294819D01*
X195281428Y-35294819D02*
X195376666Y-35247200D01*
X195376666Y-35247200D02*
X195424285Y-35199580D01*
X195424285Y-35199580D02*
X195471904Y-35104342D01*
X195471904Y-35104342D02*
X195471904Y-35009104D01*
X195471904Y-35009104D02*
X195424285Y-34913866D01*
X195424285Y-34913866D02*
X195376666Y-34866247D01*
X195376666Y-34866247D02*
X195281428Y-34818628D01*
X195281428Y-34818628D02*
X195090952Y-34771009D01*
X195090952Y-34771009D02*
X194995714Y-34723390D01*
X194995714Y-34723390D02*
X194948095Y-34675771D01*
X194948095Y-34675771D02*
X194900476Y-34580533D01*
X194900476Y-34580533D02*
X194900476Y-34485295D01*
X194900476Y-34485295D02*
X194948095Y-34390057D01*
X194948095Y-34390057D02*
X194995714Y-34342438D01*
X194995714Y-34342438D02*
X195090952Y-34294819D01*
X195090952Y-34294819D02*
X195329047Y-34294819D01*
X195329047Y-34294819D02*
X195471904Y-34342438D01*
X195805238Y-34294819D02*
X196043333Y-35294819D01*
X196043333Y-35294819D02*
X196233809Y-34580533D01*
X196233809Y-34580533D02*
X196424285Y-35294819D01*
X196424285Y-35294819D02*
X196662381Y-34294819D01*
X197567142Y-35294819D02*
X196995714Y-35294819D01*
X197281428Y-35294819D02*
X197281428Y-34294819D01*
X197281428Y-34294819D02*
X197186190Y-34437676D01*
X197186190Y-34437676D02*
X197090952Y-34532914D01*
X197090952Y-34532914D02*
X196995714Y-34580533D01*
X197900476Y-34294819D02*
X198519523Y-34294819D01*
X198519523Y-34294819D02*
X198186190Y-34675771D01*
X198186190Y-34675771D02*
X198329047Y-34675771D01*
X198329047Y-34675771D02*
X198424285Y-34723390D01*
X198424285Y-34723390D02*
X198471904Y-34771009D01*
X198471904Y-34771009D02*
X198519523Y-34866247D01*
X198519523Y-34866247D02*
X198519523Y-35104342D01*
X198519523Y-35104342D02*
X198471904Y-35199580D01*
X198471904Y-35199580D02*
X198424285Y-35247200D01*
X198424285Y-35247200D02*
X198329047Y-35294819D01*
X198329047Y-35294819D02*
X198043333Y-35294819D01*
X198043333Y-35294819D02*
X197948095Y-35247200D01*
X197948095Y-35247200D02*
X197900476Y-35199580D01*
X179660476Y-35247200D02*
X179803333Y-35294819D01*
X179803333Y-35294819D02*
X180041428Y-35294819D01*
X180041428Y-35294819D02*
X180136666Y-35247200D01*
X180136666Y-35247200D02*
X180184285Y-35199580D01*
X180184285Y-35199580D02*
X180231904Y-35104342D01*
X180231904Y-35104342D02*
X180231904Y-35009104D01*
X180231904Y-35009104D02*
X180184285Y-34913866D01*
X180184285Y-34913866D02*
X180136666Y-34866247D01*
X180136666Y-34866247D02*
X180041428Y-34818628D01*
X180041428Y-34818628D02*
X179850952Y-34771009D01*
X179850952Y-34771009D02*
X179755714Y-34723390D01*
X179755714Y-34723390D02*
X179708095Y-34675771D01*
X179708095Y-34675771D02*
X179660476Y-34580533D01*
X179660476Y-34580533D02*
X179660476Y-34485295D01*
X179660476Y-34485295D02*
X179708095Y-34390057D01*
X179708095Y-34390057D02*
X179755714Y-34342438D01*
X179755714Y-34342438D02*
X179850952Y-34294819D01*
X179850952Y-34294819D02*
X180089047Y-34294819D01*
X180089047Y-34294819D02*
X180231904Y-34342438D01*
X180565238Y-34294819D02*
X180803333Y-35294819D01*
X180803333Y-35294819D02*
X180993809Y-34580533D01*
X180993809Y-34580533D02*
X181184285Y-35294819D01*
X181184285Y-35294819D02*
X181422381Y-34294819D01*
X182327142Y-35294819D02*
X181755714Y-35294819D01*
X182041428Y-35294819D02*
X182041428Y-34294819D01*
X182041428Y-34294819D02*
X181946190Y-34437676D01*
X181946190Y-34437676D02*
X181850952Y-34532914D01*
X181850952Y-34532914D02*
X181755714Y-34580533D01*
X182708095Y-34390057D02*
X182755714Y-34342438D01*
X182755714Y-34342438D02*
X182850952Y-34294819D01*
X182850952Y-34294819D02*
X183089047Y-34294819D01*
X183089047Y-34294819D02*
X183184285Y-34342438D01*
X183184285Y-34342438D02*
X183231904Y-34390057D01*
X183231904Y-34390057D02*
X183279523Y-34485295D01*
X183279523Y-34485295D02*
X183279523Y-34580533D01*
X183279523Y-34580533D02*
X183231904Y-34723390D01*
X183231904Y-34723390D02*
X182660476Y-35294819D01*
X182660476Y-35294819D02*
X183279523Y-35294819D01*
X164420476Y-35247200D02*
X164563333Y-35294819D01*
X164563333Y-35294819D02*
X164801428Y-35294819D01*
X164801428Y-35294819D02*
X164896666Y-35247200D01*
X164896666Y-35247200D02*
X164944285Y-35199580D01*
X164944285Y-35199580D02*
X164991904Y-35104342D01*
X164991904Y-35104342D02*
X164991904Y-35009104D01*
X164991904Y-35009104D02*
X164944285Y-34913866D01*
X164944285Y-34913866D02*
X164896666Y-34866247D01*
X164896666Y-34866247D02*
X164801428Y-34818628D01*
X164801428Y-34818628D02*
X164610952Y-34771009D01*
X164610952Y-34771009D02*
X164515714Y-34723390D01*
X164515714Y-34723390D02*
X164468095Y-34675771D01*
X164468095Y-34675771D02*
X164420476Y-34580533D01*
X164420476Y-34580533D02*
X164420476Y-34485295D01*
X164420476Y-34485295D02*
X164468095Y-34390057D01*
X164468095Y-34390057D02*
X164515714Y-34342438D01*
X164515714Y-34342438D02*
X164610952Y-34294819D01*
X164610952Y-34294819D02*
X164849047Y-34294819D01*
X164849047Y-34294819D02*
X164991904Y-34342438D01*
X165325238Y-34294819D02*
X165563333Y-35294819D01*
X165563333Y-35294819D02*
X165753809Y-34580533D01*
X165753809Y-34580533D02*
X165944285Y-35294819D01*
X165944285Y-35294819D02*
X166182381Y-34294819D01*
X167087142Y-35294819D02*
X166515714Y-35294819D01*
X166801428Y-35294819D02*
X166801428Y-34294819D01*
X166801428Y-34294819D02*
X166706190Y-34437676D01*
X166706190Y-34437676D02*
X166610952Y-34532914D01*
X166610952Y-34532914D02*
X166515714Y-34580533D01*
X168039523Y-35294819D02*
X167468095Y-35294819D01*
X167753809Y-35294819D02*
X167753809Y-34294819D01*
X167753809Y-34294819D02*
X167658571Y-34437676D01*
X167658571Y-34437676D02*
X167563333Y-34532914D01*
X167563333Y-34532914D02*
X167468095Y-34580533D01*
X149180476Y-35247200D02*
X149323333Y-35294819D01*
X149323333Y-35294819D02*
X149561428Y-35294819D01*
X149561428Y-35294819D02*
X149656666Y-35247200D01*
X149656666Y-35247200D02*
X149704285Y-35199580D01*
X149704285Y-35199580D02*
X149751904Y-35104342D01*
X149751904Y-35104342D02*
X149751904Y-35009104D01*
X149751904Y-35009104D02*
X149704285Y-34913866D01*
X149704285Y-34913866D02*
X149656666Y-34866247D01*
X149656666Y-34866247D02*
X149561428Y-34818628D01*
X149561428Y-34818628D02*
X149370952Y-34771009D01*
X149370952Y-34771009D02*
X149275714Y-34723390D01*
X149275714Y-34723390D02*
X149228095Y-34675771D01*
X149228095Y-34675771D02*
X149180476Y-34580533D01*
X149180476Y-34580533D02*
X149180476Y-34485295D01*
X149180476Y-34485295D02*
X149228095Y-34390057D01*
X149228095Y-34390057D02*
X149275714Y-34342438D01*
X149275714Y-34342438D02*
X149370952Y-34294819D01*
X149370952Y-34294819D02*
X149609047Y-34294819D01*
X149609047Y-34294819D02*
X149751904Y-34342438D01*
X150085238Y-34294819D02*
X150323333Y-35294819D01*
X150323333Y-35294819D02*
X150513809Y-34580533D01*
X150513809Y-34580533D02*
X150704285Y-35294819D01*
X150704285Y-35294819D02*
X150942381Y-34294819D01*
X151847142Y-35294819D02*
X151275714Y-35294819D01*
X151561428Y-35294819D02*
X151561428Y-34294819D01*
X151561428Y-34294819D02*
X151466190Y-34437676D01*
X151466190Y-34437676D02*
X151370952Y-34532914D01*
X151370952Y-34532914D02*
X151275714Y-34580533D01*
X152466190Y-34294819D02*
X152561428Y-34294819D01*
X152561428Y-34294819D02*
X152656666Y-34342438D01*
X152656666Y-34342438D02*
X152704285Y-34390057D01*
X152704285Y-34390057D02*
X152751904Y-34485295D01*
X152751904Y-34485295D02*
X152799523Y-34675771D01*
X152799523Y-34675771D02*
X152799523Y-34913866D01*
X152799523Y-34913866D02*
X152751904Y-35104342D01*
X152751904Y-35104342D02*
X152704285Y-35199580D01*
X152704285Y-35199580D02*
X152656666Y-35247200D01*
X152656666Y-35247200D02*
X152561428Y-35294819D01*
X152561428Y-35294819D02*
X152466190Y-35294819D01*
X152466190Y-35294819D02*
X152370952Y-35247200D01*
X152370952Y-35247200D02*
X152323333Y-35199580D01*
X152323333Y-35199580D02*
X152275714Y-35104342D01*
X152275714Y-35104342D02*
X152228095Y-34913866D01*
X152228095Y-34913866D02*
X152228095Y-34675771D01*
X152228095Y-34675771D02*
X152275714Y-34485295D01*
X152275714Y-34485295D02*
X152323333Y-34390057D01*
X152323333Y-34390057D02*
X152370952Y-34342438D01*
X152370952Y-34342438D02*
X152466190Y-34294819D01*
X134416667Y-35247200D02*
X134559524Y-35294819D01*
X134559524Y-35294819D02*
X134797619Y-35294819D01*
X134797619Y-35294819D02*
X134892857Y-35247200D01*
X134892857Y-35247200D02*
X134940476Y-35199580D01*
X134940476Y-35199580D02*
X134988095Y-35104342D01*
X134988095Y-35104342D02*
X134988095Y-35009104D01*
X134988095Y-35009104D02*
X134940476Y-34913866D01*
X134940476Y-34913866D02*
X134892857Y-34866247D01*
X134892857Y-34866247D02*
X134797619Y-34818628D01*
X134797619Y-34818628D02*
X134607143Y-34771009D01*
X134607143Y-34771009D02*
X134511905Y-34723390D01*
X134511905Y-34723390D02*
X134464286Y-34675771D01*
X134464286Y-34675771D02*
X134416667Y-34580533D01*
X134416667Y-34580533D02*
X134416667Y-34485295D01*
X134416667Y-34485295D02*
X134464286Y-34390057D01*
X134464286Y-34390057D02*
X134511905Y-34342438D01*
X134511905Y-34342438D02*
X134607143Y-34294819D01*
X134607143Y-34294819D02*
X134845238Y-34294819D01*
X134845238Y-34294819D02*
X134988095Y-34342438D01*
X135321429Y-34294819D02*
X135559524Y-35294819D01*
X135559524Y-35294819D02*
X135750000Y-34580533D01*
X135750000Y-34580533D02*
X135940476Y-35294819D01*
X135940476Y-35294819D02*
X136178572Y-34294819D01*
X136607143Y-35294819D02*
X136797619Y-35294819D01*
X136797619Y-35294819D02*
X136892857Y-35247200D01*
X136892857Y-35247200D02*
X136940476Y-35199580D01*
X136940476Y-35199580D02*
X137035714Y-35056723D01*
X137035714Y-35056723D02*
X137083333Y-34866247D01*
X137083333Y-34866247D02*
X137083333Y-34485295D01*
X137083333Y-34485295D02*
X137035714Y-34390057D01*
X137035714Y-34390057D02*
X136988095Y-34342438D01*
X136988095Y-34342438D02*
X136892857Y-34294819D01*
X136892857Y-34294819D02*
X136702381Y-34294819D01*
X136702381Y-34294819D02*
X136607143Y-34342438D01*
X136607143Y-34342438D02*
X136559524Y-34390057D01*
X136559524Y-34390057D02*
X136511905Y-34485295D01*
X136511905Y-34485295D02*
X136511905Y-34723390D01*
X136511905Y-34723390D02*
X136559524Y-34818628D01*
X136559524Y-34818628D02*
X136607143Y-34866247D01*
X136607143Y-34866247D02*
X136702381Y-34913866D01*
X136702381Y-34913866D02*
X136892857Y-34913866D01*
X136892857Y-34913866D02*
X136988095Y-34866247D01*
X136988095Y-34866247D02*
X137035714Y-34818628D01*
X137035714Y-34818628D02*
X137083333Y-34723390D01*
X119176667Y-35247200D02*
X119319524Y-35294819D01*
X119319524Y-35294819D02*
X119557619Y-35294819D01*
X119557619Y-35294819D02*
X119652857Y-35247200D01*
X119652857Y-35247200D02*
X119700476Y-35199580D01*
X119700476Y-35199580D02*
X119748095Y-35104342D01*
X119748095Y-35104342D02*
X119748095Y-35009104D01*
X119748095Y-35009104D02*
X119700476Y-34913866D01*
X119700476Y-34913866D02*
X119652857Y-34866247D01*
X119652857Y-34866247D02*
X119557619Y-34818628D01*
X119557619Y-34818628D02*
X119367143Y-34771009D01*
X119367143Y-34771009D02*
X119271905Y-34723390D01*
X119271905Y-34723390D02*
X119224286Y-34675771D01*
X119224286Y-34675771D02*
X119176667Y-34580533D01*
X119176667Y-34580533D02*
X119176667Y-34485295D01*
X119176667Y-34485295D02*
X119224286Y-34390057D01*
X119224286Y-34390057D02*
X119271905Y-34342438D01*
X119271905Y-34342438D02*
X119367143Y-34294819D01*
X119367143Y-34294819D02*
X119605238Y-34294819D01*
X119605238Y-34294819D02*
X119748095Y-34342438D01*
X120081429Y-34294819D02*
X120319524Y-35294819D01*
X120319524Y-35294819D02*
X120510000Y-34580533D01*
X120510000Y-34580533D02*
X120700476Y-35294819D01*
X120700476Y-35294819D02*
X120938572Y-34294819D01*
X121462381Y-34723390D02*
X121367143Y-34675771D01*
X121367143Y-34675771D02*
X121319524Y-34628152D01*
X121319524Y-34628152D02*
X121271905Y-34532914D01*
X121271905Y-34532914D02*
X121271905Y-34485295D01*
X121271905Y-34485295D02*
X121319524Y-34390057D01*
X121319524Y-34390057D02*
X121367143Y-34342438D01*
X121367143Y-34342438D02*
X121462381Y-34294819D01*
X121462381Y-34294819D02*
X121652857Y-34294819D01*
X121652857Y-34294819D02*
X121748095Y-34342438D01*
X121748095Y-34342438D02*
X121795714Y-34390057D01*
X121795714Y-34390057D02*
X121843333Y-34485295D01*
X121843333Y-34485295D02*
X121843333Y-34532914D01*
X121843333Y-34532914D02*
X121795714Y-34628152D01*
X121795714Y-34628152D02*
X121748095Y-34675771D01*
X121748095Y-34675771D02*
X121652857Y-34723390D01*
X121652857Y-34723390D02*
X121462381Y-34723390D01*
X121462381Y-34723390D02*
X121367143Y-34771009D01*
X121367143Y-34771009D02*
X121319524Y-34818628D01*
X121319524Y-34818628D02*
X121271905Y-34913866D01*
X121271905Y-34913866D02*
X121271905Y-35104342D01*
X121271905Y-35104342D02*
X121319524Y-35199580D01*
X121319524Y-35199580D02*
X121367143Y-35247200D01*
X121367143Y-35247200D02*
X121462381Y-35294819D01*
X121462381Y-35294819D02*
X121652857Y-35294819D01*
X121652857Y-35294819D02*
X121748095Y-35247200D01*
X121748095Y-35247200D02*
X121795714Y-35199580D01*
X121795714Y-35199580D02*
X121843333Y-35104342D01*
X121843333Y-35104342D02*
X121843333Y-34913866D01*
X121843333Y-34913866D02*
X121795714Y-34818628D01*
X121795714Y-34818628D02*
X121748095Y-34771009D01*
X121748095Y-34771009D02*
X121652857Y-34723390D01*
X195376667Y-25087200D02*
X195519524Y-25134819D01*
X195519524Y-25134819D02*
X195757619Y-25134819D01*
X195757619Y-25134819D02*
X195852857Y-25087200D01*
X195852857Y-25087200D02*
X195900476Y-25039580D01*
X195900476Y-25039580D02*
X195948095Y-24944342D01*
X195948095Y-24944342D02*
X195948095Y-24849104D01*
X195948095Y-24849104D02*
X195900476Y-24753866D01*
X195900476Y-24753866D02*
X195852857Y-24706247D01*
X195852857Y-24706247D02*
X195757619Y-24658628D01*
X195757619Y-24658628D02*
X195567143Y-24611009D01*
X195567143Y-24611009D02*
X195471905Y-24563390D01*
X195471905Y-24563390D02*
X195424286Y-24515771D01*
X195424286Y-24515771D02*
X195376667Y-24420533D01*
X195376667Y-24420533D02*
X195376667Y-24325295D01*
X195376667Y-24325295D02*
X195424286Y-24230057D01*
X195424286Y-24230057D02*
X195471905Y-24182438D01*
X195471905Y-24182438D02*
X195567143Y-24134819D01*
X195567143Y-24134819D02*
X195805238Y-24134819D01*
X195805238Y-24134819D02*
X195948095Y-24182438D01*
X196281429Y-24134819D02*
X196519524Y-25134819D01*
X196519524Y-25134819D02*
X196710000Y-24420533D01*
X196710000Y-24420533D02*
X196900476Y-25134819D01*
X196900476Y-25134819D02*
X197138572Y-24134819D01*
X197424286Y-24134819D02*
X198090952Y-24134819D01*
X198090952Y-24134819D02*
X197662381Y-25134819D01*
X180136667Y-25087200D02*
X180279524Y-25134819D01*
X180279524Y-25134819D02*
X180517619Y-25134819D01*
X180517619Y-25134819D02*
X180612857Y-25087200D01*
X180612857Y-25087200D02*
X180660476Y-25039580D01*
X180660476Y-25039580D02*
X180708095Y-24944342D01*
X180708095Y-24944342D02*
X180708095Y-24849104D01*
X180708095Y-24849104D02*
X180660476Y-24753866D01*
X180660476Y-24753866D02*
X180612857Y-24706247D01*
X180612857Y-24706247D02*
X180517619Y-24658628D01*
X180517619Y-24658628D02*
X180327143Y-24611009D01*
X180327143Y-24611009D02*
X180231905Y-24563390D01*
X180231905Y-24563390D02*
X180184286Y-24515771D01*
X180184286Y-24515771D02*
X180136667Y-24420533D01*
X180136667Y-24420533D02*
X180136667Y-24325295D01*
X180136667Y-24325295D02*
X180184286Y-24230057D01*
X180184286Y-24230057D02*
X180231905Y-24182438D01*
X180231905Y-24182438D02*
X180327143Y-24134819D01*
X180327143Y-24134819D02*
X180565238Y-24134819D01*
X180565238Y-24134819D02*
X180708095Y-24182438D01*
X181041429Y-24134819D02*
X181279524Y-25134819D01*
X181279524Y-25134819D02*
X181470000Y-24420533D01*
X181470000Y-24420533D02*
X181660476Y-25134819D01*
X181660476Y-25134819D02*
X181898572Y-24134819D01*
X182708095Y-24134819D02*
X182517619Y-24134819D01*
X182517619Y-24134819D02*
X182422381Y-24182438D01*
X182422381Y-24182438D02*
X182374762Y-24230057D01*
X182374762Y-24230057D02*
X182279524Y-24372914D01*
X182279524Y-24372914D02*
X182231905Y-24563390D01*
X182231905Y-24563390D02*
X182231905Y-24944342D01*
X182231905Y-24944342D02*
X182279524Y-25039580D01*
X182279524Y-25039580D02*
X182327143Y-25087200D01*
X182327143Y-25087200D02*
X182422381Y-25134819D01*
X182422381Y-25134819D02*
X182612857Y-25134819D01*
X182612857Y-25134819D02*
X182708095Y-25087200D01*
X182708095Y-25087200D02*
X182755714Y-25039580D01*
X182755714Y-25039580D02*
X182803333Y-24944342D01*
X182803333Y-24944342D02*
X182803333Y-24706247D01*
X182803333Y-24706247D02*
X182755714Y-24611009D01*
X182755714Y-24611009D02*
X182708095Y-24563390D01*
X182708095Y-24563390D02*
X182612857Y-24515771D01*
X182612857Y-24515771D02*
X182422381Y-24515771D01*
X182422381Y-24515771D02*
X182327143Y-24563390D01*
X182327143Y-24563390D02*
X182279524Y-24611009D01*
X182279524Y-24611009D02*
X182231905Y-24706247D01*
X164896667Y-25087200D02*
X165039524Y-25134819D01*
X165039524Y-25134819D02*
X165277619Y-25134819D01*
X165277619Y-25134819D02*
X165372857Y-25087200D01*
X165372857Y-25087200D02*
X165420476Y-25039580D01*
X165420476Y-25039580D02*
X165468095Y-24944342D01*
X165468095Y-24944342D02*
X165468095Y-24849104D01*
X165468095Y-24849104D02*
X165420476Y-24753866D01*
X165420476Y-24753866D02*
X165372857Y-24706247D01*
X165372857Y-24706247D02*
X165277619Y-24658628D01*
X165277619Y-24658628D02*
X165087143Y-24611009D01*
X165087143Y-24611009D02*
X164991905Y-24563390D01*
X164991905Y-24563390D02*
X164944286Y-24515771D01*
X164944286Y-24515771D02*
X164896667Y-24420533D01*
X164896667Y-24420533D02*
X164896667Y-24325295D01*
X164896667Y-24325295D02*
X164944286Y-24230057D01*
X164944286Y-24230057D02*
X164991905Y-24182438D01*
X164991905Y-24182438D02*
X165087143Y-24134819D01*
X165087143Y-24134819D02*
X165325238Y-24134819D01*
X165325238Y-24134819D02*
X165468095Y-24182438D01*
X165801429Y-24134819D02*
X166039524Y-25134819D01*
X166039524Y-25134819D02*
X166230000Y-24420533D01*
X166230000Y-24420533D02*
X166420476Y-25134819D01*
X166420476Y-25134819D02*
X166658572Y-24134819D01*
X167515714Y-24134819D02*
X167039524Y-24134819D01*
X167039524Y-24134819D02*
X166991905Y-24611009D01*
X166991905Y-24611009D02*
X167039524Y-24563390D01*
X167039524Y-24563390D02*
X167134762Y-24515771D01*
X167134762Y-24515771D02*
X167372857Y-24515771D01*
X167372857Y-24515771D02*
X167468095Y-24563390D01*
X167468095Y-24563390D02*
X167515714Y-24611009D01*
X167515714Y-24611009D02*
X167563333Y-24706247D01*
X167563333Y-24706247D02*
X167563333Y-24944342D01*
X167563333Y-24944342D02*
X167515714Y-25039580D01*
X167515714Y-25039580D02*
X167468095Y-25087200D01*
X167468095Y-25087200D02*
X167372857Y-25134819D01*
X167372857Y-25134819D02*
X167134762Y-25134819D01*
X167134762Y-25134819D02*
X167039524Y-25087200D01*
X167039524Y-25087200D02*
X166991905Y-25039580D01*
X149656667Y-25087200D02*
X149799524Y-25134819D01*
X149799524Y-25134819D02*
X150037619Y-25134819D01*
X150037619Y-25134819D02*
X150132857Y-25087200D01*
X150132857Y-25087200D02*
X150180476Y-25039580D01*
X150180476Y-25039580D02*
X150228095Y-24944342D01*
X150228095Y-24944342D02*
X150228095Y-24849104D01*
X150228095Y-24849104D02*
X150180476Y-24753866D01*
X150180476Y-24753866D02*
X150132857Y-24706247D01*
X150132857Y-24706247D02*
X150037619Y-24658628D01*
X150037619Y-24658628D02*
X149847143Y-24611009D01*
X149847143Y-24611009D02*
X149751905Y-24563390D01*
X149751905Y-24563390D02*
X149704286Y-24515771D01*
X149704286Y-24515771D02*
X149656667Y-24420533D01*
X149656667Y-24420533D02*
X149656667Y-24325295D01*
X149656667Y-24325295D02*
X149704286Y-24230057D01*
X149704286Y-24230057D02*
X149751905Y-24182438D01*
X149751905Y-24182438D02*
X149847143Y-24134819D01*
X149847143Y-24134819D02*
X150085238Y-24134819D01*
X150085238Y-24134819D02*
X150228095Y-24182438D01*
X150561429Y-24134819D02*
X150799524Y-25134819D01*
X150799524Y-25134819D02*
X150990000Y-24420533D01*
X150990000Y-24420533D02*
X151180476Y-25134819D01*
X151180476Y-25134819D02*
X151418572Y-24134819D01*
X152228095Y-24468152D02*
X152228095Y-25134819D01*
X151990000Y-24087200D02*
X151751905Y-24801485D01*
X151751905Y-24801485D02*
X152370952Y-24801485D01*
X134416667Y-25142200D02*
X134559524Y-25189819D01*
X134559524Y-25189819D02*
X134797619Y-25189819D01*
X134797619Y-25189819D02*
X134892857Y-25142200D01*
X134892857Y-25142200D02*
X134940476Y-25094580D01*
X134940476Y-25094580D02*
X134988095Y-24999342D01*
X134988095Y-24999342D02*
X134988095Y-24904104D01*
X134988095Y-24904104D02*
X134940476Y-24808866D01*
X134940476Y-24808866D02*
X134892857Y-24761247D01*
X134892857Y-24761247D02*
X134797619Y-24713628D01*
X134797619Y-24713628D02*
X134607143Y-24666009D01*
X134607143Y-24666009D02*
X134511905Y-24618390D01*
X134511905Y-24618390D02*
X134464286Y-24570771D01*
X134464286Y-24570771D02*
X134416667Y-24475533D01*
X134416667Y-24475533D02*
X134416667Y-24380295D01*
X134416667Y-24380295D02*
X134464286Y-24285057D01*
X134464286Y-24285057D02*
X134511905Y-24237438D01*
X134511905Y-24237438D02*
X134607143Y-24189819D01*
X134607143Y-24189819D02*
X134845238Y-24189819D01*
X134845238Y-24189819D02*
X134988095Y-24237438D01*
X135321429Y-24189819D02*
X135559524Y-25189819D01*
X135559524Y-25189819D02*
X135750000Y-24475533D01*
X135750000Y-24475533D02*
X135940476Y-25189819D01*
X135940476Y-25189819D02*
X136178572Y-24189819D01*
X136464286Y-24189819D02*
X137083333Y-24189819D01*
X137083333Y-24189819D02*
X136750000Y-24570771D01*
X136750000Y-24570771D02*
X136892857Y-24570771D01*
X136892857Y-24570771D02*
X136988095Y-24618390D01*
X136988095Y-24618390D02*
X137035714Y-24666009D01*
X137035714Y-24666009D02*
X137083333Y-24761247D01*
X137083333Y-24761247D02*
X137083333Y-24999342D01*
X137083333Y-24999342D02*
X137035714Y-25094580D01*
X137035714Y-25094580D02*
X136988095Y-25142200D01*
X136988095Y-25142200D02*
X136892857Y-25189819D01*
X136892857Y-25189819D02*
X136607143Y-25189819D01*
X136607143Y-25189819D02*
X136511905Y-25142200D01*
X136511905Y-25142200D02*
X136464286Y-25094580D01*
X119176667Y-25087200D02*
X119319524Y-25134819D01*
X119319524Y-25134819D02*
X119557619Y-25134819D01*
X119557619Y-25134819D02*
X119652857Y-25087200D01*
X119652857Y-25087200D02*
X119700476Y-25039580D01*
X119700476Y-25039580D02*
X119748095Y-24944342D01*
X119748095Y-24944342D02*
X119748095Y-24849104D01*
X119748095Y-24849104D02*
X119700476Y-24753866D01*
X119700476Y-24753866D02*
X119652857Y-24706247D01*
X119652857Y-24706247D02*
X119557619Y-24658628D01*
X119557619Y-24658628D02*
X119367143Y-24611009D01*
X119367143Y-24611009D02*
X119271905Y-24563390D01*
X119271905Y-24563390D02*
X119224286Y-24515771D01*
X119224286Y-24515771D02*
X119176667Y-24420533D01*
X119176667Y-24420533D02*
X119176667Y-24325295D01*
X119176667Y-24325295D02*
X119224286Y-24230057D01*
X119224286Y-24230057D02*
X119271905Y-24182438D01*
X119271905Y-24182438D02*
X119367143Y-24134819D01*
X119367143Y-24134819D02*
X119605238Y-24134819D01*
X119605238Y-24134819D02*
X119748095Y-24182438D01*
X120081429Y-24134819D02*
X120319524Y-25134819D01*
X120319524Y-25134819D02*
X120510000Y-24420533D01*
X120510000Y-24420533D02*
X120700476Y-25134819D01*
X120700476Y-25134819D02*
X120938572Y-24134819D01*
X121271905Y-24230057D02*
X121319524Y-24182438D01*
X121319524Y-24182438D02*
X121414762Y-24134819D01*
X121414762Y-24134819D02*
X121652857Y-24134819D01*
X121652857Y-24134819D02*
X121748095Y-24182438D01*
X121748095Y-24182438D02*
X121795714Y-24230057D01*
X121795714Y-24230057D02*
X121843333Y-24325295D01*
X121843333Y-24325295D02*
X121843333Y-24420533D01*
X121843333Y-24420533D02*
X121795714Y-24563390D01*
X121795714Y-24563390D02*
X121224286Y-25134819D01*
X121224286Y-25134819D02*
X121843333Y-25134819D01*
X203666666Y-80144819D02*
X203666666Y-80859104D01*
X203666666Y-80859104D02*
X203619047Y-81001961D01*
X203619047Y-81001961D02*
X203523809Y-81097200D01*
X203523809Y-81097200D02*
X203380952Y-81144819D01*
X203380952Y-81144819D02*
X203285714Y-81144819D01*
X204047619Y-80144819D02*
X204666666Y-80144819D01*
X204666666Y-80144819D02*
X204333333Y-80525771D01*
X204333333Y-80525771D02*
X204476190Y-80525771D01*
X204476190Y-80525771D02*
X204571428Y-80573390D01*
X204571428Y-80573390D02*
X204619047Y-80621009D01*
X204619047Y-80621009D02*
X204666666Y-80716247D01*
X204666666Y-80716247D02*
X204666666Y-80954342D01*
X204666666Y-80954342D02*
X204619047Y-81049580D01*
X204619047Y-81049580D02*
X204571428Y-81097200D01*
X204571428Y-81097200D02*
X204476190Y-81144819D01*
X204476190Y-81144819D02*
X204190476Y-81144819D01*
X204190476Y-81144819D02*
X204095238Y-81097200D01*
X204095238Y-81097200D02*
X204047619Y-81049580D01*
X166666666Y-78604819D02*
X166666666Y-79319104D01*
X166666666Y-79319104D02*
X166619047Y-79461961D01*
X166619047Y-79461961D02*
X166523809Y-79557200D01*
X166523809Y-79557200D02*
X166380952Y-79604819D01*
X166380952Y-79604819D02*
X166285714Y-79604819D01*
X167666666Y-79604819D02*
X167095238Y-79604819D01*
X167380952Y-79604819D02*
X167380952Y-78604819D01*
X167380952Y-78604819D02*
X167285714Y-78747676D01*
X167285714Y-78747676D02*
X167190476Y-78842914D01*
X167190476Y-78842914D02*
X167095238Y-78890533D01*
X206334819Y-113404285D02*
X205334819Y-113404285D01*
X205334819Y-113404285D02*
X205334819Y-113166190D01*
X205334819Y-113166190D02*
X205382438Y-113023333D01*
X205382438Y-113023333D02*
X205477676Y-112928095D01*
X205477676Y-112928095D02*
X205572914Y-112880476D01*
X205572914Y-112880476D02*
X205763390Y-112832857D01*
X205763390Y-112832857D02*
X205906247Y-112832857D01*
X205906247Y-112832857D02*
X206096723Y-112880476D01*
X206096723Y-112880476D02*
X206191961Y-112928095D01*
X206191961Y-112928095D02*
X206287200Y-113023333D01*
X206287200Y-113023333D02*
X206334819Y-113166190D01*
X206334819Y-113166190D02*
X206334819Y-113404285D01*
X205334819Y-112499523D02*
X205334819Y-111880476D01*
X205334819Y-111880476D02*
X205715771Y-112213809D01*
X205715771Y-112213809D02*
X205715771Y-112070952D01*
X205715771Y-112070952D02*
X205763390Y-111975714D01*
X205763390Y-111975714D02*
X205811009Y-111928095D01*
X205811009Y-111928095D02*
X205906247Y-111880476D01*
X205906247Y-111880476D02*
X206144342Y-111880476D01*
X206144342Y-111880476D02*
X206239580Y-111928095D01*
X206239580Y-111928095D02*
X206287200Y-111975714D01*
X206287200Y-111975714D02*
X206334819Y-112070952D01*
X206334819Y-112070952D02*
X206334819Y-112356666D01*
X206334819Y-112356666D02*
X206287200Y-112451904D01*
X206287200Y-112451904D02*
X206239580Y-112499523D01*
X205430057Y-111499523D02*
X205382438Y-111451904D01*
X205382438Y-111451904D02*
X205334819Y-111356666D01*
X205334819Y-111356666D02*
X205334819Y-111118571D01*
X205334819Y-111118571D02*
X205382438Y-111023333D01*
X205382438Y-111023333D02*
X205430057Y-110975714D01*
X205430057Y-110975714D02*
X205525295Y-110928095D01*
X205525295Y-110928095D02*
X205620533Y-110928095D01*
X205620533Y-110928095D02*
X205763390Y-110975714D01*
X205763390Y-110975714D02*
X206334819Y-111547142D01*
X206334819Y-111547142D02*
X206334819Y-110928095D01*
X206654819Y-116261904D02*
X205654819Y-116261904D01*
X206654819Y-115690476D02*
X206083390Y-116119047D01*
X205654819Y-115690476D02*
X206226247Y-116261904D01*
X205874819Y-70104285D02*
X204874819Y-70104285D01*
X204874819Y-70104285D02*
X204874819Y-69866190D01*
X204874819Y-69866190D02*
X204922438Y-69723333D01*
X204922438Y-69723333D02*
X205017676Y-69628095D01*
X205017676Y-69628095D02*
X205112914Y-69580476D01*
X205112914Y-69580476D02*
X205303390Y-69532857D01*
X205303390Y-69532857D02*
X205446247Y-69532857D01*
X205446247Y-69532857D02*
X205636723Y-69580476D01*
X205636723Y-69580476D02*
X205731961Y-69628095D01*
X205731961Y-69628095D02*
X205827200Y-69723333D01*
X205827200Y-69723333D02*
X205874819Y-69866190D01*
X205874819Y-69866190D02*
X205874819Y-70104285D01*
X204874819Y-69199523D02*
X204874819Y-68580476D01*
X204874819Y-68580476D02*
X205255771Y-68913809D01*
X205255771Y-68913809D02*
X205255771Y-68770952D01*
X205255771Y-68770952D02*
X205303390Y-68675714D01*
X205303390Y-68675714D02*
X205351009Y-68628095D01*
X205351009Y-68628095D02*
X205446247Y-68580476D01*
X205446247Y-68580476D02*
X205684342Y-68580476D01*
X205684342Y-68580476D02*
X205779580Y-68628095D01*
X205779580Y-68628095D02*
X205827200Y-68675714D01*
X205827200Y-68675714D02*
X205874819Y-68770952D01*
X205874819Y-68770952D02*
X205874819Y-69056666D01*
X205874819Y-69056666D02*
X205827200Y-69151904D01*
X205827200Y-69151904D02*
X205779580Y-69199523D01*
X205874819Y-67628095D02*
X205874819Y-68199523D01*
X205874819Y-67913809D02*
X204874819Y-67913809D01*
X204874819Y-67913809D02*
X205017676Y-68009047D01*
X205017676Y-68009047D02*
X205112914Y-68104285D01*
X205112914Y-68104285D02*
X205160533Y-68199523D01*
X205554819Y-65341904D02*
X204554819Y-65341904D01*
X205554819Y-64770476D02*
X204983390Y-65199047D01*
X204554819Y-64770476D02*
X205126247Y-65341904D01*
X191874819Y-70104285D02*
X190874819Y-70104285D01*
X190874819Y-70104285D02*
X190874819Y-69866190D01*
X190874819Y-69866190D02*
X190922438Y-69723333D01*
X190922438Y-69723333D02*
X191017676Y-69628095D01*
X191017676Y-69628095D02*
X191112914Y-69580476D01*
X191112914Y-69580476D02*
X191303390Y-69532857D01*
X191303390Y-69532857D02*
X191446247Y-69532857D01*
X191446247Y-69532857D02*
X191636723Y-69580476D01*
X191636723Y-69580476D02*
X191731961Y-69628095D01*
X191731961Y-69628095D02*
X191827200Y-69723333D01*
X191827200Y-69723333D02*
X191874819Y-69866190D01*
X191874819Y-69866190D02*
X191874819Y-70104285D01*
X190874819Y-69199523D02*
X190874819Y-68580476D01*
X190874819Y-68580476D02*
X191255771Y-68913809D01*
X191255771Y-68913809D02*
X191255771Y-68770952D01*
X191255771Y-68770952D02*
X191303390Y-68675714D01*
X191303390Y-68675714D02*
X191351009Y-68628095D01*
X191351009Y-68628095D02*
X191446247Y-68580476D01*
X191446247Y-68580476D02*
X191684342Y-68580476D01*
X191684342Y-68580476D02*
X191779580Y-68628095D01*
X191779580Y-68628095D02*
X191827200Y-68675714D01*
X191827200Y-68675714D02*
X191874819Y-68770952D01*
X191874819Y-68770952D02*
X191874819Y-69056666D01*
X191874819Y-69056666D02*
X191827200Y-69151904D01*
X191827200Y-69151904D02*
X191779580Y-69199523D01*
X190874819Y-67961428D02*
X190874819Y-67866190D01*
X190874819Y-67866190D02*
X190922438Y-67770952D01*
X190922438Y-67770952D02*
X190970057Y-67723333D01*
X190970057Y-67723333D02*
X191065295Y-67675714D01*
X191065295Y-67675714D02*
X191255771Y-67628095D01*
X191255771Y-67628095D02*
X191493866Y-67628095D01*
X191493866Y-67628095D02*
X191684342Y-67675714D01*
X191684342Y-67675714D02*
X191779580Y-67723333D01*
X191779580Y-67723333D02*
X191827200Y-67770952D01*
X191827200Y-67770952D02*
X191874819Y-67866190D01*
X191874819Y-67866190D02*
X191874819Y-67961428D01*
X191874819Y-67961428D02*
X191827200Y-68056666D01*
X191827200Y-68056666D02*
X191779580Y-68104285D01*
X191779580Y-68104285D02*
X191684342Y-68151904D01*
X191684342Y-68151904D02*
X191493866Y-68199523D01*
X191493866Y-68199523D02*
X191255771Y-68199523D01*
X191255771Y-68199523D02*
X191065295Y-68151904D01*
X191065295Y-68151904D02*
X190970057Y-68104285D01*
X190970057Y-68104285D02*
X190922438Y-68056666D01*
X190922438Y-68056666D02*
X190874819Y-67961428D01*
X191554819Y-65341904D02*
X190554819Y-65341904D01*
X191554819Y-64770476D02*
X190983390Y-65199047D01*
X190554819Y-64770476D02*
X191126247Y-65341904D01*
X176874819Y-70104285D02*
X175874819Y-70104285D01*
X175874819Y-70104285D02*
X175874819Y-69866190D01*
X175874819Y-69866190D02*
X175922438Y-69723333D01*
X175922438Y-69723333D02*
X176017676Y-69628095D01*
X176017676Y-69628095D02*
X176112914Y-69580476D01*
X176112914Y-69580476D02*
X176303390Y-69532857D01*
X176303390Y-69532857D02*
X176446247Y-69532857D01*
X176446247Y-69532857D02*
X176636723Y-69580476D01*
X176636723Y-69580476D02*
X176731961Y-69628095D01*
X176731961Y-69628095D02*
X176827200Y-69723333D01*
X176827200Y-69723333D02*
X176874819Y-69866190D01*
X176874819Y-69866190D02*
X176874819Y-70104285D01*
X175970057Y-69151904D02*
X175922438Y-69104285D01*
X175922438Y-69104285D02*
X175874819Y-69009047D01*
X175874819Y-69009047D02*
X175874819Y-68770952D01*
X175874819Y-68770952D02*
X175922438Y-68675714D01*
X175922438Y-68675714D02*
X175970057Y-68628095D01*
X175970057Y-68628095D02*
X176065295Y-68580476D01*
X176065295Y-68580476D02*
X176160533Y-68580476D01*
X176160533Y-68580476D02*
X176303390Y-68628095D01*
X176303390Y-68628095D02*
X176874819Y-69199523D01*
X176874819Y-69199523D02*
X176874819Y-68580476D01*
X176874819Y-68104285D02*
X176874819Y-67913809D01*
X176874819Y-67913809D02*
X176827200Y-67818571D01*
X176827200Y-67818571D02*
X176779580Y-67770952D01*
X176779580Y-67770952D02*
X176636723Y-67675714D01*
X176636723Y-67675714D02*
X176446247Y-67628095D01*
X176446247Y-67628095D02*
X176065295Y-67628095D01*
X176065295Y-67628095D02*
X175970057Y-67675714D01*
X175970057Y-67675714D02*
X175922438Y-67723333D01*
X175922438Y-67723333D02*
X175874819Y-67818571D01*
X175874819Y-67818571D02*
X175874819Y-68009047D01*
X175874819Y-68009047D02*
X175922438Y-68104285D01*
X175922438Y-68104285D02*
X175970057Y-68151904D01*
X175970057Y-68151904D02*
X176065295Y-68199523D01*
X176065295Y-68199523D02*
X176303390Y-68199523D01*
X176303390Y-68199523D02*
X176398628Y-68151904D01*
X176398628Y-68151904D02*
X176446247Y-68104285D01*
X176446247Y-68104285D02*
X176493866Y-68009047D01*
X176493866Y-68009047D02*
X176493866Y-67818571D01*
X176493866Y-67818571D02*
X176446247Y-67723333D01*
X176446247Y-67723333D02*
X176398628Y-67675714D01*
X176398628Y-67675714D02*
X176303390Y-67628095D01*
X176554819Y-65341904D02*
X175554819Y-65341904D01*
X176554819Y-64770476D02*
X175983390Y-65199047D01*
X175554819Y-64770476D02*
X176126247Y-65341904D01*
X160874819Y-70104285D02*
X159874819Y-70104285D01*
X159874819Y-70104285D02*
X159874819Y-69866190D01*
X159874819Y-69866190D02*
X159922438Y-69723333D01*
X159922438Y-69723333D02*
X160017676Y-69628095D01*
X160017676Y-69628095D02*
X160112914Y-69580476D01*
X160112914Y-69580476D02*
X160303390Y-69532857D01*
X160303390Y-69532857D02*
X160446247Y-69532857D01*
X160446247Y-69532857D02*
X160636723Y-69580476D01*
X160636723Y-69580476D02*
X160731961Y-69628095D01*
X160731961Y-69628095D02*
X160827200Y-69723333D01*
X160827200Y-69723333D02*
X160874819Y-69866190D01*
X160874819Y-69866190D02*
X160874819Y-70104285D01*
X159970057Y-69151904D02*
X159922438Y-69104285D01*
X159922438Y-69104285D02*
X159874819Y-69009047D01*
X159874819Y-69009047D02*
X159874819Y-68770952D01*
X159874819Y-68770952D02*
X159922438Y-68675714D01*
X159922438Y-68675714D02*
X159970057Y-68628095D01*
X159970057Y-68628095D02*
X160065295Y-68580476D01*
X160065295Y-68580476D02*
X160160533Y-68580476D01*
X160160533Y-68580476D02*
X160303390Y-68628095D01*
X160303390Y-68628095D02*
X160874819Y-69199523D01*
X160874819Y-69199523D02*
X160874819Y-68580476D01*
X160303390Y-68009047D02*
X160255771Y-68104285D01*
X160255771Y-68104285D02*
X160208152Y-68151904D01*
X160208152Y-68151904D02*
X160112914Y-68199523D01*
X160112914Y-68199523D02*
X160065295Y-68199523D01*
X160065295Y-68199523D02*
X159970057Y-68151904D01*
X159970057Y-68151904D02*
X159922438Y-68104285D01*
X159922438Y-68104285D02*
X159874819Y-68009047D01*
X159874819Y-68009047D02*
X159874819Y-67818571D01*
X159874819Y-67818571D02*
X159922438Y-67723333D01*
X159922438Y-67723333D02*
X159970057Y-67675714D01*
X159970057Y-67675714D02*
X160065295Y-67628095D01*
X160065295Y-67628095D02*
X160112914Y-67628095D01*
X160112914Y-67628095D02*
X160208152Y-67675714D01*
X160208152Y-67675714D02*
X160255771Y-67723333D01*
X160255771Y-67723333D02*
X160303390Y-67818571D01*
X160303390Y-67818571D02*
X160303390Y-68009047D01*
X160303390Y-68009047D02*
X160351009Y-68104285D01*
X160351009Y-68104285D02*
X160398628Y-68151904D01*
X160398628Y-68151904D02*
X160493866Y-68199523D01*
X160493866Y-68199523D02*
X160684342Y-68199523D01*
X160684342Y-68199523D02*
X160779580Y-68151904D01*
X160779580Y-68151904D02*
X160827200Y-68104285D01*
X160827200Y-68104285D02*
X160874819Y-68009047D01*
X160874819Y-68009047D02*
X160874819Y-67818571D01*
X160874819Y-67818571D02*
X160827200Y-67723333D01*
X160827200Y-67723333D02*
X160779580Y-67675714D01*
X160779580Y-67675714D02*
X160684342Y-67628095D01*
X160684342Y-67628095D02*
X160493866Y-67628095D01*
X160493866Y-67628095D02*
X160398628Y-67675714D01*
X160398628Y-67675714D02*
X160351009Y-67723333D01*
X160351009Y-67723333D02*
X160303390Y-67818571D01*
X160554819Y-65341904D02*
X159554819Y-65341904D01*
X160554819Y-64770476D02*
X159983390Y-65199047D01*
X159554819Y-64770476D02*
X160126247Y-65341904D01*
X145874819Y-70104285D02*
X144874819Y-70104285D01*
X144874819Y-70104285D02*
X144874819Y-69866190D01*
X144874819Y-69866190D02*
X144922438Y-69723333D01*
X144922438Y-69723333D02*
X145017676Y-69628095D01*
X145017676Y-69628095D02*
X145112914Y-69580476D01*
X145112914Y-69580476D02*
X145303390Y-69532857D01*
X145303390Y-69532857D02*
X145446247Y-69532857D01*
X145446247Y-69532857D02*
X145636723Y-69580476D01*
X145636723Y-69580476D02*
X145731961Y-69628095D01*
X145731961Y-69628095D02*
X145827200Y-69723333D01*
X145827200Y-69723333D02*
X145874819Y-69866190D01*
X145874819Y-69866190D02*
X145874819Y-70104285D01*
X144970057Y-69151904D02*
X144922438Y-69104285D01*
X144922438Y-69104285D02*
X144874819Y-69009047D01*
X144874819Y-69009047D02*
X144874819Y-68770952D01*
X144874819Y-68770952D02*
X144922438Y-68675714D01*
X144922438Y-68675714D02*
X144970057Y-68628095D01*
X144970057Y-68628095D02*
X145065295Y-68580476D01*
X145065295Y-68580476D02*
X145160533Y-68580476D01*
X145160533Y-68580476D02*
X145303390Y-68628095D01*
X145303390Y-68628095D02*
X145874819Y-69199523D01*
X145874819Y-69199523D02*
X145874819Y-68580476D01*
X144874819Y-68247142D02*
X144874819Y-67580476D01*
X144874819Y-67580476D02*
X145874819Y-68009047D01*
X145554819Y-65341904D02*
X144554819Y-65341904D01*
X145554819Y-64770476D02*
X144983390Y-65199047D01*
X144554819Y-64770476D02*
X145126247Y-65341904D01*
X130874819Y-70104285D02*
X129874819Y-70104285D01*
X129874819Y-70104285D02*
X129874819Y-69866190D01*
X129874819Y-69866190D02*
X129922438Y-69723333D01*
X129922438Y-69723333D02*
X130017676Y-69628095D01*
X130017676Y-69628095D02*
X130112914Y-69580476D01*
X130112914Y-69580476D02*
X130303390Y-69532857D01*
X130303390Y-69532857D02*
X130446247Y-69532857D01*
X130446247Y-69532857D02*
X130636723Y-69580476D01*
X130636723Y-69580476D02*
X130731961Y-69628095D01*
X130731961Y-69628095D02*
X130827200Y-69723333D01*
X130827200Y-69723333D02*
X130874819Y-69866190D01*
X130874819Y-69866190D02*
X130874819Y-70104285D01*
X129970057Y-69151904D02*
X129922438Y-69104285D01*
X129922438Y-69104285D02*
X129874819Y-69009047D01*
X129874819Y-69009047D02*
X129874819Y-68770952D01*
X129874819Y-68770952D02*
X129922438Y-68675714D01*
X129922438Y-68675714D02*
X129970057Y-68628095D01*
X129970057Y-68628095D02*
X130065295Y-68580476D01*
X130065295Y-68580476D02*
X130160533Y-68580476D01*
X130160533Y-68580476D02*
X130303390Y-68628095D01*
X130303390Y-68628095D02*
X130874819Y-69199523D01*
X130874819Y-69199523D02*
X130874819Y-68580476D01*
X129874819Y-67723333D02*
X129874819Y-67913809D01*
X129874819Y-67913809D02*
X129922438Y-68009047D01*
X129922438Y-68009047D02*
X129970057Y-68056666D01*
X129970057Y-68056666D02*
X130112914Y-68151904D01*
X130112914Y-68151904D02*
X130303390Y-68199523D01*
X130303390Y-68199523D02*
X130684342Y-68199523D01*
X130684342Y-68199523D02*
X130779580Y-68151904D01*
X130779580Y-68151904D02*
X130827200Y-68104285D01*
X130827200Y-68104285D02*
X130874819Y-68009047D01*
X130874819Y-68009047D02*
X130874819Y-67818571D01*
X130874819Y-67818571D02*
X130827200Y-67723333D01*
X130827200Y-67723333D02*
X130779580Y-67675714D01*
X130779580Y-67675714D02*
X130684342Y-67628095D01*
X130684342Y-67628095D02*
X130446247Y-67628095D01*
X130446247Y-67628095D02*
X130351009Y-67675714D01*
X130351009Y-67675714D02*
X130303390Y-67723333D01*
X130303390Y-67723333D02*
X130255771Y-67818571D01*
X130255771Y-67818571D02*
X130255771Y-68009047D01*
X130255771Y-68009047D02*
X130303390Y-68104285D01*
X130303390Y-68104285D02*
X130351009Y-68151904D01*
X130351009Y-68151904D02*
X130446247Y-68199523D01*
X130554819Y-65341904D02*
X129554819Y-65341904D01*
X130554819Y-64770476D02*
X129983390Y-65199047D01*
X129554819Y-64770476D02*
X130126247Y-65341904D01*
X205874819Y-60104285D02*
X204874819Y-60104285D01*
X204874819Y-60104285D02*
X204874819Y-59866190D01*
X204874819Y-59866190D02*
X204922438Y-59723333D01*
X204922438Y-59723333D02*
X205017676Y-59628095D01*
X205017676Y-59628095D02*
X205112914Y-59580476D01*
X205112914Y-59580476D02*
X205303390Y-59532857D01*
X205303390Y-59532857D02*
X205446247Y-59532857D01*
X205446247Y-59532857D02*
X205636723Y-59580476D01*
X205636723Y-59580476D02*
X205731961Y-59628095D01*
X205731961Y-59628095D02*
X205827200Y-59723333D01*
X205827200Y-59723333D02*
X205874819Y-59866190D01*
X205874819Y-59866190D02*
X205874819Y-60104285D01*
X204970057Y-59151904D02*
X204922438Y-59104285D01*
X204922438Y-59104285D02*
X204874819Y-59009047D01*
X204874819Y-59009047D02*
X204874819Y-58770952D01*
X204874819Y-58770952D02*
X204922438Y-58675714D01*
X204922438Y-58675714D02*
X204970057Y-58628095D01*
X204970057Y-58628095D02*
X205065295Y-58580476D01*
X205065295Y-58580476D02*
X205160533Y-58580476D01*
X205160533Y-58580476D02*
X205303390Y-58628095D01*
X205303390Y-58628095D02*
X205874819Y-59199523D01*
X205874819Y-59199523D02*
X205874819Y-58580476D01*
X204874819Y-57675714D02*
X204874819Y-58151904D01*
X204874819Y-58151904D02*
X205351009Y-58199523D01*
X205351009Y-58199523D02*
X205303390Y-58151904D01*
X205303390Y-58151904D02*
X205255771Y-58056666D01*
X205255771Y-58056666D02*
X205255771Y-57818571D01*
X205255771Y-57818571D02*
X205303390Y-57723333D01*
X205303390Y-57723333D02*
X205351009Y-57675714D01*
X205351009Y-57675714D02*
X205446247Y-57628095D01*
X205446247Y-57628095D02*
X205684342Y-57628095D01*
X205684342Y-57628095D02*
X205779580Y-57675714D01*
X205779580Y-57675714D02*
X205827200Y-57723333D01*
X205827200Y-57723333D02*
X205874819Y-57818571D01*
X205874819Y-57818571D02*
X205874819Y-58056666D01*
X205874819Y-58056666D02*
X205827200Y-58151904D01*
X205827200Y-58151904D02*
X205779580Y-58199523D01*
X205554819Y-55341904D02*
X204554819Y-55341904D01*
X205554819Y-54770476D02*
X204983390Y-55199047D01*
X204554819Y-54770476D02*
X205126247Y-55341904D01*
X191874819Y-60104285D02*
X190874819Y-60104285D01*
X190874819Y-60104285D02*
X190874819Y-59866190D01*
X190874819Y-59866190D02*
X190922438Y-59723333D01*
X190922438Y-59723333D02*
X191017676Y-59628095D01*
X191017676Y-59628095D02*
X191112914Y-59580476D01*
X191112914Y-59580476D02*
X191303390Y-59532857D01*
X191303390Y-59532857D02*
X191446247Y-59532857D01*
X191446247Y-59532857D02*
X191636723Y-59580476D01*
X191636723Y-59580476D02*
X191731961Y-59628095D01*
X191731961Y-59628095D02*
X191827200Y-59723333D01*
X191827200Y-59723333D02*
X191874819Y-59866190D01*
X191874819Y-59866190D02*
X191874819Y-60104285D01*
X190970057Y-59151904D02*
X190922438Y-59104285D01*
X190922438Y-59104285D02*
X190874819Y-59009047D01*
X190874819Y-59009047D02*
X190874819Y-58770952D01*
X190874819Y-58770952D02*
X190922438Y-58675714D01*
X190922438Y-58675714D02*
X190970057Y-58628095D01*
X190970057Y-58628095D02*
X191065295Y-58580476D01*
X191065295Y-58580476D02*
X191160533Y-58580476D01*
X191160533Y-58580476D02*
X191303390Y-58628095D01*
X191303390Y-58628095D02*
X191874819Y-59199523D01*
X191874819Y-59199523D02*
X191874819Y-58580476D01*
X191208152Y-57723333D02*
X191874819Y-57723333D01*
X190827200Y-57961428D02*
X191541485Y-58199523D01*
X191541485Y-58199523D02*
X191541485Y-57580476D01*
X191554819Y-55341904D02*
X190554819Y-55341904D01*
X191554819Y-54770476D02*
X190983390Y-55199047D01*
X190554819Y-54770476D02*
X191126247Y-55341904D01*
X176874819Y-60104285D02*
X175874819Y-60104285D01*
X175874819Y-60104285D02*
X175874819Y-59866190D01*
X175874819Y-59866190D02*
X175922438Y-59723333D01*
X175922438Y-59723333D02*
X176017676Y-59628095D01*
X176017676Y-59628095D02*
X176112914Y-59580476D01*
X176112914Y-59580476D02*
X176303390Y-59532857D01*
X176303390Y-59532857D02*
X176446247Y-59532857D01*
X176446247Y-59532857D02*
X176636723Y-59580476D01*
X176636723Y-59580476D02*
X176731961Y-59628095D01*
X176731961Y-59628095D02*
X176827200Y-59723333D01*
X176827200Y-59723333D02*
X176874819Y-59866190D01*
X176874819Y-59866190D02*
X176874819Y-60104285D01*
X175970057Y-59151904D02*
X175922438Y-59104285D01*
X175922438Y-59104285D02*
X175874819Y-59009047D01*
X175874819Y-59009047D02*
X175874819Y-58770952D01*
X175874819Y-58770952D02*
X175922438Y-58675714D01*
X175922438Y-58675714D02*
X175970057Y-58628095D01*
X175970057Y-58628095D02*
X176065295Y-58580476D01*
X176065295Y-58580476D02*
X176160533Y-58580476D01*
X176160533Y-58580476D02*
X176303390Y-58628095D01*
X176303390Y-58628095D02*
X176874819Y-59199523D01*
X176874819Y-59199523D02*
X176874819Y-58580476D01*
X175874819Y-58247142D02*
X175874819Y-57628095D01*
X175874819Y-57628095D02*
X176255771Y-57961428D01*
X176255771Y-57961428D02*
X176255771Y-57818571D01*
X176255771Y-57818571D02*
X176303390Y-57723333D01*
X176303390Y-57723333D02*
X176351009Y-57675714D01*
X176351009Y-57675714D02*
X176446247Y-57628095D01*
X176446247Y-57628095D02*
X176684342Y-57628095D01*
X176684342Y-57628095D02*
X176779580Y-57675714D01*
X176779580Y-57675714D02*
X176827200Y-57723333D01*
X176827200Y-57723333D02*
X176874819Y-57818571D01*
X176874819Y-57818571D02*
X176874819Y-58104285D01*
X176874819Y-58104285D02*
X176827200Y-58199523D01*
X176827200Y-58199523D02*
X176779580Y-58247142D01*
X176554819Y-55341904D02*
X175554819Y-55341904D01*
X176554819Y-54770476D02*
X175983390Y-55199047D01*
X175554819Y-54770476D02*
X176126247Y-55341904D01*
X160874819Y-60104285D02*
X159874819Y-60104285D01*
X159874819Y-60104285D02*
X159874819Y-59866190D01*
X159874819Y-59866190D02*
X159922438Y-59723333D01*
X159922438Y-59723333D02*
X160017676Y-59628095D01*
X160017676Y-59628095D02*
X160112914Y-59580476D01*
X160112914Y-59580476D02*
X160303390Y-59532857D01*
X160303390Y-59532857D02*
X160446247Y-59532857D01*
X160446247Y-59532857D02*
X160636723Y-59580476D01*
X160636723Y-59580476D02*
X160731961Y-59628095D01*
X160731961Y-59628095D02*
X160827200Y-59723333D01*
X160827200Y-59723333D02*
X160874819Y-59866190D01*
X160874819Y-59866190D02*
X160874819Y-60104285D01*
X159970057Y-59151904D02*
X159922438Y-59104285D01*
X159922438Y-59104285D02*
X159874819Y-59009047D01*
X159874819Y-59009047D02*
X159874819Y-58770952D01*
X159874819Y-58770952D02*
X159922438Y-58675714D01*
X159922438Y-58675714D02*
X159970057Y-58628095D01*
X159970057Y-58628095D02*
X160065295Y-58580476D01*
X160065295Y-58580476D02*
X160160533Y-58580476D01*
X160160533Y-58580476D02*
X160303390Y-58628095D01*
X160303390Y-58628095D02*
X160874819Y-59199523D01*
X160874819Y-59199523D02*
X160874819Y-58580476D01*
X159970057Y-58199523D02*
X159922438Y-58151904D01*
X159922438Y-58151904D02*
X159874819Y-58056666D01*
X159874819Y-58056666D02*
X159874819Y-57818571D01*
X159874819Y-57818571D02*
X159922438Y-57723333D01*
X159922438Y-57723333D02*
X159970057Y-57675714D01*
X159970057Y-57675714D02*
X160065295Y-57628095D01*
X160065295Y-57628095D02*
X160160533Y-57628095D01*
X160160533Y-57628095D02*
X160303390Y-57675714D01*
X160303390Y-57675714D02*
X160874819Y-58247142D01*
X160874819Y-58247142D02*
X160874819Y-57628095D01*
X160554819Y-55341904D02*
X159554819Y-55341904D01*
X160554819Y-54770476D02*
X159983390Y-55199047D01*
X159554819Y-54770476D02*
X160126247Y-55341904D01*
X145874819Y-60104285D02*
X144874819Y-60104285D01*
X144874819Y-60104285D02*
X144874819Y-59866190D01*
X144874819Y-59866190D02*
X144922438Y-59723333D01*
X144922438Y-59723333D02*
X145017676Y-59628095D01*
X145017676Y-59628095D02*
X145112914Y-59580476D01*
X145112914Y-59580476D02*
X145303390Y-59532857D01*
X145303390Y-59532857D02*
X145446247Y-59532857D01*
X145446247Y-59532857D02*
X145636723Y-59580476D01*
X145636723Y-59580476D02*
X145731961Y-59628095D01*
X145731961Y-59628095D02*
X145827200Y-59723333D01*
X145827200Y-59723333D02*
X145874819Y-59866190D01*
X145874819Y-59866190D02*
X145874819Y-60104285D01*
X144970057Y-59151904D02*
X144922438Y-59104285D01*
X144922438Y-59104285D02*
X144874819Y-59009047D01*
X144874819Y-59009047D02*
X144874819Y-58770952D01*
X144874819Y-58770952D02*
X144922438Y-58675714D01*
X144922438Y-58675714D02*
X144970057Y-58628095D01*
X144970057Y-58628095D02*
X145065295Y-58580476D01*
X145065295Y-58580476D02*
X145160533Y-58580476D01*
X145160533Y-58580476D02*
X145303390Y-58628095D01*
X145303390Y-58628095D02*
X145874819Y-59199523D01*
X145874819Y-59199523D02*
X145874819Y-58580476D01*
X145874819Y-57628095D02*
X145874819Y-58199523D01*
X145874819Y-57913809D02*
X144874819Y-57913809D01*
X144874819Y-57913809D02*
X145017676Y-58009047D01*
X145017676Y-58009047D02*
X145112914Y-58104285D01*
X145112914Y-58104285D02*
X145160533Y-58199523D01*
X145554819Y-55341904D02*
X144554819Y-55341904D01*
X145554819Y-54770476D02*
X144983390Y-55199047D01*
X144554819Y-54770476D02*
X145126247Y-55341904D01*
X130874819Y-60104285D02*
X129874819Y-60104285D01*
X129874819Y-60104285D02*
X129874819Y-59866190D01*
X129874819Y-59866190D02*
X129922438Y-59723333D01*
X129922438Y-59723333D02*
X130017676Y-59628095D01*
X130017676Y-59628095D02*
X130112914Y-59580476D01*
X130112914Y-59580476D02*
X130303390Y-59532857D01*
X130303390Y-59532857D02*
X130446247Y-59532857D01*
X130446247Y-59532857D02*
X130636723Y-59580476D01*
X130636723Y-59580476D02*
X130731961Y-59628095D01*
X130731961Y-59628095D02*
X130827200Y-59723333D01*
X130827200Y-59723333D02*
X130874819Y-59866190D01*
X130874819Y-59866190D02*
X130874819Y-60104285D01*
X129970057Y-59151904D02*
X129922438Y-59104285D01*
X129922438Y-59104285D02*
X129874819Y-59009047D01*
X129874819Y-59009047D02*
X129874819Y-58770952D01*
X129874819Y-58770952D02*
X129922438Y-58675714D01*
X129922438Y-58675714D02*
X129970057Y-58628095D01*
X129970057Y-58628095D02*
X130065295Y-58580476D01*
X130065295Y-58580476D02*
X130160533Y-58580476D01*
X130160533Y-58580476D02*
X130303390Y-58628095D01*
X130303390Y-58628095D02*
X130874819Y-59199523D01*
X130874819Y-59199523D02*
X130874819Y-58580476D01*
X129874819Y-57961428D02*
X129874819Y-57866190D01*
X129874819Y-57866190D02*
X129922438Y-57770952D01*
X129922438Y-57770952D02*
X129970057Y-57723333D01*
X129970057Y-57723333D02*
X130065295Y-57675714D01*
X130065295Y-57675714D02*
X130255771Y-57628095D01*
X130255771Y-57628095D02*
X130493866Y-57628095D01*
X130493866Y-57628095D02*
X130684342Y-57675714D01*
X130684342Y-57675714D02*
X130779580Y-57723333D01*
X130779580Y-57723333D02*
X130827200Y-57770952D01*
X130827200Y-57770952D02*
X130874819Y-57866190D01*
X130874819Y-57866190D02*
X130874819Y-57961428D01*
X130874819Y-57961428D02*
X130827200Y-58056666D01*
X130827200Y-58056666D02*
X130779580Y-58104285D01*
X130779580Y-58104285D02*
X130684342Y-58151904D01*
X130684342Y-58151904D02*
X130493866Y-58199523D01*
X130493866Y-58199523D02*
X130255771Y-58199523D01*
X130255771Y-58199523D02*
X130065295Y-58151904D01*
X130065295Y-58151904D02*
X129970057Y-58104285D01*
X129970057Y-58104285D02*
X129922438Y-58056666D01*
X129922438Y-58056666D02*
X129874819Y-57961428D01*
X130554819Y-55341904D02*
X129554819Y-55341904D01*
X130554819Y-54770476D02*
X129983390Y-55199047D01*
X129554819Y-54770476D02*
X130126247Y-55341904D01*
X205874819Y-50104285D02*
X204874819Y-50104285D01*
X204874819Y-50104285D02*
X204874819Y-49866190D01*
X204874819Y-49866190D02*
X204922438Y-49723333D01*
X204922438Y-49723333D02*
X205017676Y-49628095D01*
X205017676Y-49628095D02*
X205112914Y-49580476D01*
X205112914Y-49580476D02*
X205303390Y-49532857D01*
X205303390Y-49532857D02*
X205446247Y-49532857D01*
X205446247Y-49532857D02*
X205636723Y-49580476D01*
X205636723Y-49580476D02*
X205731961Y-49628095D01*
X205731961Y-49628095D02*
X205827200Y-49723333D01*
X205827200Y-49723333D02*
X205874819Y-49866190D01*
X205874819Y-49866190D02*
X205874819Y-50104285D01*
X205874819Y-48580476D02*
X205874819Y-49151904D01*
X205874819Y-48866190D02*
X204874819Y-48866190D01*
X204874819Y-48866190D02*
X205017676Y-48961428D01*
X205017676Y-48961428D02*
X205112914Y-49056666D01*
X205112914Y-49056666D02*
X205160533Y-49151904D01*
X205874819Y-48104285D02*
X205874819Y-47913809D01*
X205874819Y-47913809D02*
X205827200Y-47818571D01*
X205827200Y-47818571D02*
X205779580Y-47770952D01*
X205779580Y-47770952D02*
X205636723Y-47675714D01*
X205636723Y-47675714D02*
X205446247Y-47628095D01*
X205446247Y-47628095D02*
X205065295Y-47628095D01*
X205065295Y-47628095D02*
X204970057Y-47675714D01*
X204970057Y-47675714D02*
X204922438Y-47723333D01*
X204922438Y-47723333D02*
X204874819Y-47818571D01*
X204874819Y-47818571D02*
X204874819Y-48009047D01*
X204874819Y-48009047D02*
X204922438Y-48104285D01*
X204922438Y-48104285D02*
X204970057Y-48151904D01*
X204970057Y-48151904D02*
X205065295Y-48199523D01*
X205065295Y-48199523D02*
X205303390Y-48199523D01*
X205303390Y-48199523D02*
X205398628Y-48151904D01*
X205398628Y-48151904D02*
X205446247Y-48104285D01*
X205446247Y-48104285D02*
X205493866Y-48009047D01*
X205493866Y-48009047D02*
X205493866Y-47818571D01*
X205493866Y-47818571D02*
X205446247Y-47723333D01*
X205446247Y-47723333D02*
X205398628Y-47675714D01*
X205398628Y-47675714D02*
X205303390Y-47628095D01*
X205554819Y-45341904D02*
X204554819Y-45341904D01*
X205554819Y-44770476D02*
X204983390Y-45199047D01*
X204554819Y-44770476D02*
X205126247Y-45341904D01*
X191874819Y-50104285D02*
X190874819Y-50104285D01*
X190874819Y-50104285D02*
X190874819Y-49866190D01*
X190874819Y-49866190D02*
X190922438Y-49723333D01*
X190922438Y-49723333D02*
X191017676Y-49628095D01*
X191017676Y-49628095D02*
X191112914Y-49580476D01*
X191112914Y-49580476D02*
X191303390Y-49532857D01*
X191303390Y-49532857D02*
X191446247Y-49532857D01*
X191446247Y-49532857D02*
X191636723Y-49580476D01*
X191636723Y-49580476D02*
X191731961Y-49628095D01*
X191731961Y-49628095D02*
X191827200Y-49723333D01*
X191827200Y-49723333D02*
X191874819Y-49866190D01*
X191874819Y-49866190D02*
X191874819Y-50104285D01*
X191874819Y-48580476D02*
X191874819Y-49151904D01*
X191874819Y-48866190D02*
X190874819Y-48866190D01*
X190874819Y-48866190D02*
X191017676Y-48961428D01*
X191017676Y-48961428D02*
X191112914Y-49056666D01*
X191112914Y-49056666D02*
X191160533Y-49151904D01*
X191303390Y-48009047D02*
X191255771Y-48104285D01*
X191255771Y-48104285D02*
X191208152Y-48151904D01*
X191208152Y-48151904D02*
X191112914Y-48199523D01*
X191112914Y-48199523D02*
X191065295Y-48199523D01*
X191065295Y-48199523D02*
X190970057Y-48151904D01*
X190970057Y-48151904D02*
X190922438Y-48104285D01*
X190922438Y-48104285D02*
X190874819Y-48009047D01*
X190874819Y-48009047D02*
X190874819Y-47818571D01*
X190874819Y-47818571D02*
X190922438Y-47723333D01*
X190922438Y-47723333D02*
X190970057Y-47675714D01*
X190970057Y-47675714D02*
X191065295Y-47628095D01*
X191065295Y-47628095D02*
X191112914Y-47628095D01*
X191112914Y-47628095D02*
X191208152Y-47675714D01*
X191208152Y-47675714D02*
X191255771Y-47723333D01*
X191255771Y-47723333D02*
X191303390Y-47818571D01*
X191303390Y-47818571D02*
X191303390Y-48009047D01*
X191303390Y-48009047D02*
X191351009Y-48104285D01*
X191351009Y-48104285D02*
X191398628Y-48151904D01*
X191398628Y-48151904D02*
X191493866Y-48199523D01*
X191493866Y-48199523D02*
X191684342Y-48199523D01*
X191684342Y-48199523D02*
X191779580Y-48151904D01*
X191779580Y-48151904D02*
X191827200Y-48104285D01*
X191827200Y-48104285D02*
X191874819Y-48009047D01*
X191874819Y-48009047D02*
X191874819Y-47818571D01*
X191874819Y-47818571D02*
X191827200Y-47723333D01*
X191827200Y-47723333D02*
X191779580Y-47675714D01*
X191779580Y-47675714D02*
X191684342Y-47628095D01*
X191684342Y-47628095D02*
X191493866Y-47628095D01*
X191493866Y-47628095D02*
X191398628Y-47675714D01*
X191398628Y-47675714D02*
X191351009Y-47723333D01*
X191351009Y-47723333D02*
X191303390Y-47818571D01*
X191554819Y-45341904D02*
X190554819Y-45341904D01*
X191554819Y-44770476D02*
X190983390Y-45199047D01*
X190554819Y-44770476D02*
X191126247Y-45341904D01*
X176874819Y-50104285D02*
X175874819Y-50104285D01*
X175874819Y-50104285D02*
X175874819Y-49866190D01*
X175874819Y-49866190D02*
X175922438Y-49723333D01*
X175922438Y-49723333D02*
X176017676Y-49628095D01*
X176017676Y-49628095D02*
X176112914Y-49580476D01*
X176112914Y-49580476D02*
X176303390Y-49532857D01*
X176303390Y-49532857D02*
X176446247Y-49532857D01*
X176446247Y-49532857D02*
X176636723Y-49580476D01*
X176636723Y-49580476D02*
X176731961Y-49628095D01*
X176731961Y-49628095D02*
X176827200Y-49723333D01*
X176827200Y-49723333D02*
X176874819Y-49866190D01*
X176874819Y-49866190D02*
X176874819Y-50104285D01*
X176874819Y-48580476D02*
X176874819Y-49151904D01*
X176874819Y-48866190D02*
X175874819Y-48866190D01*
X175874819Y-48866190D02*
X176017676Y-48961428D01*
X176017676Y-48961428D02*
X176112914Y-49056666D01*
X176112914Y-49056666D02*
X176160533Y-49151904D01*
X175874819Y-48247142D02*
X175874819Y-47580476D01*
X175874819Y-47580476D02*
X176874819Y-48009047D01*
X176554819Y-45341904D02*
X175554819Y-45341904D01*
X176554819Y-44770476D02*
X175983390Y-45199047D01*
X175554819Y-44770476D02*
X176126247Y-45341904D01*
X160874819Y-50104285D02*
X159874819Y-50104285D01*
X159874819Y-50104285D02*
X159874819Y-49866190D01*
X159874819Y-49866190D02*
X159922438Y-49723333D01*
X159922438Y-49723333D02*
X160017676Y-49628095D01*
X160017676Y-49628095D02*
X160112914Y-49580476D01*
X160112914Y-49580476D02*
X160303390Y-49532857D01*
X160303390Y-49532857D02*
X160446247Y-49532857D01*
X160446247Y-49532857D02*
X160636723Y-49580476D01*
X160636723Y-49580476D02*
X160731961Y-49628095D01*
X160731961Y-49628095D02*
X160827200Y-49723333D01*
X160827200Y-49723333D02*
X160874819Y-49866190D01*
X160874819Y-49866190D02*
X160874819Y-50104285D01*
X160874819Y-48580476D02*
X160874819Y-49151904D01*
X160874819Y-48866190D02*
X159874819Y-48866190D01*
X159874819Y-48866190D02*
X160017676Y-48961428D01*
X160017676Y-48961428D02*
X160112914Y-49056666D01*
X160112914Y-49056666D02*
X160160533Y-49151904D01*
X159874819Y-47723333D02*
X159874819Y-47913809D01*
X159874819Y-47913809D02*
X159922438Y-48009047D01*
X159922438Y-48009047D02*
X159970057Y-48056666D01*
X159970057Y-48056666D02*
X160112914Y-48151904D01*
X160112914Y-48151904D02*
X160303390Y-48199523D01*
X160303390Y-48199523D02*
X160684342Y-48199523D01*
X160684342Y-48199523D02*
X160779580Y-48151904D01*
X160779580Y-48151904D02*
X160827200Y-48104285D01*
X160827200Y-48104285D02*
X160874819Y-48009047D01*
X160874819Y-48009047D02*
X160874819Y-47818571D01*
X160874819Y-47818571D02*
X160827200Y-47723333D01*
X160827200Y-47723333D02*
X160779580Y-47675714D01*
X160779580Y-47675714D02*
X160684342Y-47628095D01*
X160684342Y-47628095D02*
X160446247Y-47628095D01*
X160446247Y-47628095D02*
X160351009Y-47675714D01*
X160351009Y-47675714D02*
X160303390Y-47723333D01*
X160303390Y-47723333D02*
X160255771Y-47818571D01*
X160255771Y-47818571D02*
X160255771Y-48009047D01*
X160255771Y-48009047D02*
X160303390Y-48104285D01*
X160303390Y-48104285D02*
X160351009Y-48151904D01*
X160351009Y-48151904D02*
X160446247Y-48199523D01*
X160554819Y-45341904D02*
X159554819Y-45341904D01*
X160554819Y-44770476D02*
X159983390Y-45199047D01*
X159554819Y-44770476D02*
X160126247Y-45341904D01*
X130874819Y-50104285D02*
X129874819Y-50104285D01*
X129874819Y-50104285D02*
X129874819Y-49866190D01*
X129874819Y-49866190D02*
X129922438Y-49723333D01*
X129922438Y-49723333D02*
X130017676Y-49628095D01*
X130017676Y-49628095D02*
X130112914Y-49580476D01*
X130112914Y-49580476D02*
X130303390Y-49532857D01*
X130303390Y-49532857D02*
X130446247Y-49532857D01*
X130446247Y-49532857D02*
X130636723Y-49580476D01*
X130636723Y-49580476D02*
X130731961Y-49628095D01*
X130731961Y-49628095D02*
X130827200Y-49723333D01*
X130827200Y-49723333D02*
X130874819Y-49866190D01*
X130874819Y-49866190D02*
X130874819Y-50104285D01*
X130874819Y-48580476D02*
X130874819Y-49151904D01*
X130874819Y-48866190D02*
X129874819Y-48866190D01*
X129874819Y-48866190D02*
X130017676Y-48961428D01*
X130017676Y-48961428D02*
X130112914Y-49056666D01*
X130112914Y-49056666D02*
X130160533Y-49151904D01*
X130208152Y-47723333D02*
X130874819Y-47723333D01*
X129827200Y-47961428D02*
X130541485Y-48199523D01*
X130541485Y-48199523D02*
X130541485Y-47580476D01*
X130554819Y-45341904D02*
X129554819Y-45341904D01*
X130554819Y-44770476D02*
X129983390Y-45199047D01*
X129554819Y-44770476D02*
X130126247Y-45341904D01*
X176874819Y-40104285D02*
X175874819Y-40104285D01*
X175874819Y-40104285D02*
X175874819Y-39866190D01*
X175874819Y-39866190D02*
X175922438Y-39723333D01*
X175922438Y-39723333D02*
X176017676Y-39628095D01*
X176017676Y-39628095D02*
X176112914Y-39580476D01*
X176112914Y-39580476D02*
X176303390Y-39532857D01*
X176303390Y-39532857D02*
X176446247Y-39532857D01*
X176446247Y-39532857D02*
X176636723Y-39580476D01*
X176636723Y-39580476D02*
X176731961Y-39628095D01*
X176731961Y-39628095D02*
X176827200Y-39723333D01*
X176827200Y-39723333D02*
X176874819Y-39866190D01*
X176874819Y-39866190D02*
X176874819Y-40104285D01*
X176874819Y-38580476D02*
X176874819Y-39151904D01*
X176874819Y-38866190D02*
X175874819Y-38866190D01*
X175874819Y-38866190D02*
X176017676Y-38961428D01*
X176017676Y-38961428D02*
X176112914Y-39056666D01*
X176112914Y-39056666D02*
X176160533Y-39151904D01*
X176874819Y-37628095D02*
X176874819Y-38199523D01*
X176874819Y-37913809D02*
X175874819Y-37913809D01*
X175874819Y-37913809D02*
X176017676Y-38009047D01*
X176017676Y-38009047D02*
X176112914Y-38104285D01*
X176112914Y-38104285D02*
X176160533Y-38199523D01*
X176554819Y-35341904D02*
X175554819Y-35341904D01*
X176554819Y-34770476D02*
X175983390Y-35199047D01*
X175554819Y-34770476D02*
X176126247Y-35341904D01*
X160874819Y-40104285D02*
X159874819Y-40104285D01*
X159874819Y-40104285D02*
X159874819Y-39866190D01*
X159874819Y-39866190D02*
X159922438Y-39723333D01*
X159922438Y-39723333D02*
X160017676Y-39628095D01*
X160017676Y-39628095D02*
X160112914Y-39580476D01*
X160112914Y-39580476D02*
X160303390Y-39532857D01*
X160303390Y-39532857D02*
X160446247Y-39532857D01*
X160446247Y-39532857D02*
X160636723Y-39580476D01*
X160636723Y-39580476D02*
X160731961Y-39628095D01*
X160731961Y-39628095D02*
X160827200Y-39723333D01*
X160827200Y-39723333D02*
X160874819Y-39866190D01*
X160874819Y-39866190D02*
X160874819Y-40104285D01*
X160874819Y-38580476D02*
X160874819Y-39151904D01*
X160874819Y-38866190D02*
X159874819Y-38866190D01*
X159874819Y-38866190D02*
X160017676Y-38961428D01*
X160017676Y-38961428D02*
X160112914Y-39056666D01*
X160112914Y-39056666D02*
X160160533Y-39151904D01*
X159874819Y-37961428D02*
X159874819Y-37866190D01*
X159874819Y-37866190D02*
X159922438Y-37770952D01*
X159922438Y-37770952D02*
X159970057Y-37723333D01*
X159970057Y-37723333D02*
X160065295Y-37675714D01*
X160065295Y-37675714D02*
X160255771Y-37628095D01*
X160255771Y-37628095D02*
X160493866Y-37628095D01*
X160493866Y-37628095D02*
X160684342Y-37675714D01*
X160684342Y-37675714D02*
X160779580Y-37723333D01*
X160779580Y-37723333D02*
X160827200Y-37770952D01*
X160827200Y-37770952D02*
X160874819Y-37866190D01*
X160874819Y-37866190D02*
X160874819Y-37961428D01*
X160874819Y-37961428D02*
X160827200Y-38056666D01*
X160827200Y-38056666D02*
X160779580Y-38104285D01*
X160779580Y-38104285D02*
X160684342Y-38151904D01*
X160684342Y-38151904D02*
X160493866Y-38199523D01*
X160493866Y-38199523D02*
X160255771Y-38199523D01*
X160255771Y-38199523D02*
X160065295Y-38151904D01*
X160065295Y-38151904D02*
X159970057Y-38104285D01*
X159970057Y-38104285D02*
X159922438Y-38056666D01*
X159922438Y-38056666D02*
X159874819Y-37961428D01*
X160554819Y-35341904D02*
X159554819Y-35341904D01*
X160554819Y-34770476D02*
X159983390Y-35199047D01*
X159554819Y-34770476D02*
X160126247Y-35341904D01*
X130874819Y-39628094D02*
X129874819Y-39628094D01*
X129874819Y-39628094D02*
X129874819Y-39389999D01*
X129874819Y-39389999D02*
X129922438Y-39247142D01*
X129922438Y-39247142D02*
X130017676Y-39151904D01*
X130017676Y-39151904D02*
X130112914Y-39104285D01*
X130112914Y-39104285D02*
X130303390Y-39056666D01*
X130303390Y-39056666D02*
X130446247Y-39056666D01*
X130446247Y-39056666D02*
X130636723Y-39104285D01*
X130636723Y-39104285D02*
X130731961Y-39151904D01*
X130731961Y-39151904D02*
X130827200Y-39247142D01*
X130827200Y-39247142D02*
X130874819Y-39389999D01*
X130874819Y-39389999D02*
X130874819Y-39628094D01*
X130303390Y-38485237D02*
X130255771Y-38580475D01*
X130255771Y-38580475D02*
X130208152Y-38628094D01*
X130208152Y-38628094D02*
X130112914Y-38675713D01*
X130112914Y-38675713D02*
X130065295Y-38675713D01*
X130065295Y-38675713D02*
X129970057Y-38628094D01*
X129970057Y-38628094D02*
X129922438Y-38580475D01*
X129922438Y-38580475D02*
X129874819Y-38485237D01*
X129874819Y-38485237D02*
X129874819Y-38294761D01*
X129874819Y-38294761D02*
X129922438Y-38199523D01*
X129922438Y-38199523D02*
X129970057Y-38151904D01*
X129970057Y-38151904D02*
X130065295Y-38104285D01*
X130065295Y-38104285D02*
X130112914Y-38104285D01*
X130112914Y-38104285D02*
X130208152Y-38151904D01*
X130208152Y-38151904D02*
X130255771Y-38199523D01*
X130255771Y-38199523D02*
X130303390Y-38294761D01*
X130303390Y-38294761D02*
X130303390Y-38485237D01*
X130303390Y-38485237D02*
X130351009Y-38580475D01*
X130351009Y-38580475D02*
X130398628Y-38628094D01*
X130398628Y-38628094D02*
X130493866Y-38675713D01*
X130493866Y-38675713D02*
X130684342Y-38675713D01*
X130684342Y-38675713D02*
X130779580Y-38628094D01*
X130779580Y-38628094D02*
X130827200Y-38580475D01*
X130827200Y-38580475D02*
X130874819Y-38485237D01*
X130874819Y-38485237D02*
X130874819Y-38294761D01*
X130874819Y-38294761D02*
X130827200Y-38199523D01*
X130827200Y-38199523D02*
X130779580Y-38151904D01*
X130779580Y-38151904D02*
X130684342Y-38104285D01*
X130684342Y-38104285D02*
X130493866Y-38104285D01*
X130493866Y-38104285D02*
X130398628Y-38151904D01*
X130398628Y-38151904D02*
X130351009Y-38199523D01*
X130351009Y-38199523D02*
X130303390Y-38294761D01*
X130554819Y-35341904D02*
X129554819Y-35341904D01*
X130554819Y-34770476D02*
X129983390Y-35199047D01*
X129554819Y-34770476D02*
X130126247Y-35341904D01*
X205874819Y-29628094D02*
X204874819Y-29628094D01*
X204874819Y-29628094D02*
X204874819Y-29389999D01*
X204874819Y-29389999D02*
X204922438Y-29247142D01*
X204922438Y-29247142D02*
X205017676Y-29151904D01*
X205017676Y-29151904D02*
X205112914Y-29104285D01*
X205112914Y-29104285D02*
X205303390Y-29056666D01*
X205303390Y-29056666D02*
X205446247Y-29056666D01*
X205446247Y-29056666D02*
X205636723Y-29104285D01*
X205636723Y-29104285D02*
X205731961Y-29151904D01*
X205731961Y-29151904D02*
X205827200Y-29247142D01*
X205827200Y-29247142D02*
X205874819Y-29389999D01*
X205874819Y-29389999D02*
X205874819Y-29628094D01*
X204874819Y-28723332D02*
X204874819Y-28056666D01*
X204874819Y-28056666D02*
X205874819Y-28485237D01*
X205554819Y-25341904D02*
X204554819Y-25341904D01*
X205554819Y-24770476D02*
X204983390Y-25199047D01*
X204554819Y-24770476D02*
X205126247Y-25341904D01*
X191874819Y-29628094D02*
X190874819Y-29628094D01*
X190874819Y-29628094D02*
X190874819Y-29389999D01*
X190874819Y-29389999D02*
X190922438Y-29247142D01*
X190922438Y-29247142D02*
X191017676Y-29151904D01*
X191017676Y-29151904D02*
X191112914Y-29104285D01*
X191112914Y-29104285D02*
X191303390Y-29056666D01*
X191303390Y-29056666D02*
X191446247Y-29056666D01*
X191446247Y-29056666D02*
X191636723Y-29104285D01*
X191636723Y-29104285D02*
X191731961Y-29151904D01*
X191731961Y-29151904D02*
X191827200Y-29247142D01*
X191827200Y-29247142D02*
X191874819Y-29389999D01*
X191874819Y-29389999D02*
X191874819Y-29628094D01*
X190874819Y-28199523D02*
X190874819Y-28389999D01*
X190874819Y-28389999D02*
X190922438Y-28485237D01*
X190922438Y-28485237D02*
X190970057Y-28532856D01*
X190970057Y-28532856D02*
X191112914Y-28628094D01*
X191112914Y-28628094D02*
X191303390Y-28675713D01*
X191303390Y-28675713D02*
X191684342Y-28675713D01*
X191684342Y-28675713D02*
X191779580Y-28628094D01*
X191779580Y-28628094D02*
X191827200Y-28580475D01*
X191827200Y-28580475D02*
X191874819Y-28485237D01*
X191874819Y-28485237D02*
X191874819Y-28294761D01*
X191874819Y-28294761D02*
X191827200Y-28199523D01*
X191827200Y-28199523D02*
X191779580Y-28151904D01*
X191779580Y-28151904D02*
X191684342Y-28104285D01*
X191684342Y-28104285D02*
X191446247Y-28104285D01*
X191446247Y-28104285D02*
X191351009Y-28151904D01*
X191351009Y-28151904D02*
X191303390Y-28199523D01*
X191303390Y-28199523D02*
X191255771Y-28294761D01*
X191255771Y-28294761D02*
X191255771Y-28485237D01*
X191255771Y-28485237D02*
X191303390Y-28580475D01*
X191303390Y-28580475D02*
X191351009Y-28628094D01*
X191351009Y-28628094D02*
X191446247Y-28675713D01*
X191554819Y-25341904D02*
X190554819Y-25341904D01*
X191554819Y-24770476D02*
X190983390Y-25199047D01*
X190554819Y-24770476D02*
X191126247Y-25341904D01*
X176874819Y-29628094D02*
X175874819Y-29628094D01*
X175874819Y-29628094D02*
X175874819Y-29389999D01*
X175874819Y-29389999D02*
X175922438Y-29247142D01*
X175922438Y-29247142D02*
X176017676Y-29151904D01*
X176017676Y-29151904D02*
X176112914Y-29104285D01*
X176112914Y-29104285D02*
X176303390Y-29056666D01*
X176303390Y-29056666D02*
X176446247Y-29056666D01*
X176446247Y-29056666D02*
X176636723Y-29104285D01*
X176636723Y-29104285D02*
X176731961Y-29151904D01*
X176731961Y-29151904D02*
X176827200Y-29247142D01*
X176827200Y-29247142D02*
X176874819Y-29389999D01*
X176874819Y-29389999D02*
X176874819Y-29628094D01*
X175874819Y-28151904D02*
X175874819Y-28628094D01*
X175874819Y-28628094D02*
X176351009Y-28675713D01*
X176351009Y-28675713D02*
X176303390Y-28628094D01*
X176303390Y-28628094D02*
X176255771Y-28532856D01*
X176255771Y-28532856D02*
X176255771Y-28294761D01*
X176255771Y-28294761D02*
X176303390Y-28199523D01*
X176303390Y-28199523D02*
X176351009Y-28151904D01*
X176351009Y-28151904D02*
X176446247Y-28104285D01*
X176446247Y-28104285D02*
X176684342Y-28104285D01*
X176684342Y-28104285D02*
X176779580Y-28151904D01*
X176779580Y-28151904D02*
X176827200Y-28199523D01*
X176827200Y-28199523D02*
X176874819Y-28294761D01*
X176874819Y-28294761D02*
X176874819Y-28532856D01*
X176874819Y-28532856D02*
X176827200Y-28628094D01*
X176827200Y-28628094D02*
X176779580Y-28675713D01*
X176554819Y-25341904D02*
X175554819Y-25341904D01*
X176554819Y-24770476D02*
X175983390Y-25199047D01*
X175554819Y-24770476D02*
X176126247Y-25341904D01*
X160874819Y-29628094D02*
X159874819Y-29628094D01*
X159874819Y-29628094D02*
X159874819Y-29389999D01*
X159874819Y-29389999D02*
X159922438Y-29247142D01*
X159922438Y-29247142D02*
X160017676Y-29151904D01*
X160017676Y-29151904D02*
X160112914Y-29104285D01*
X160112914Y-29104285D02*
X160303390Y-29056666D01*
X160303390Y-29056666D02*
X160446247Y-29056666D01*
X160446247Y-29056666D02*
X160636723Y-29104285D01*
X160636723Y-29104285D02*
X160731961Y-29151904D01*
X160731961Y-29151904D02*
X160827200Y-29247142D01*
X160827200Y-29247142D02*
X160874819Y-29389999D01*
X160874819Y-29389999D02*
X160874819Y-29628094D01*
X160208152Y-28199523D02*
X160874819Y-28199523D01*
X159827200Y-28437618D02*
X160541485Y-28675713D01*
X160541485Y-28675713D02*
X160541485Y-28056666D01*
X160554819Y-25341904D02*
X159554819Y-25341904D01*
X160554819Y-24770476D02*
X159983390Y-25199047D01*
X159554819Y-24770476D02*
X160126247Y-25341904D01*
D11*
%TO.C,U1*%
X135200000Y-117030000D02*
X135200000Y-96650000D01*
X135200000Y-117030000D02*
X132540000Y-117030000D01*
X135200000Y-96650000D02*
X132540000Y-96650000D01*
X133870000Y-119630000D02*
X132540000Y-119630000D01*
X132540000Y-119630000D02*
X132540000Y-118300000D01*
X132540000Y-117030000D02*
X132540000Y-96650000D01*
X132410000Y-99330000D02*
X131080000Y-99330000D01*
X132410000Y-98000000D02*
X132410000Y-99330000D01*
X129810000Y-99330000D02*
X119590000Y-99330000D01*
X129810000Y-96670000D02*
X129810000Y-99330000D01*
X129810000Y-96670000D02*
X119590000Y-96670000D01*
X119590000Y-96670000D02*
X119590000Y-99330000D01*
X119420000Y-117040000D02*
X119420000Y-96660000D01*
X119420000Y-117040000D02*
X116760000Y-117040000D01*
X119420000Y-96660000D02*
X116760000Y-96660000D01*
X118090000Y-119640000D02*
X116760000Y-119640000D01*
X116760000Y-119640000D02*
X116760000Y-118310000D01*
X116760000Y-117040000D02*
X116760000Y-96660000D01*
%TO.C,D29*%
X176230000Y-92000000D02*
X176880000Y-92000000D01*
X181770000Y-92000000D02*
X181120000Y-92000000D01*
X177480000Y-90880000D02*
X177480000Y-93120000D01*
X177600000Y-90880000D02*
X177600000Y-93120000D01*
X177720000Y-90880000D02*
X177720000Y-93120000D01*
X176880000Y-90880000D02*
X181120000Y-90880000D01*
X181120000Y-93120000D01*
X176880000Y-93120000D01*
X176880000Y-90880000D01*
%TO.C,D9*%
X144120000Y-36800000D02*
X141880000Y-36800000D01*
X141880000Y-41040000D01*
X144120000Y-41040000D01*
X144120000Y-36800000D01*
X143000000Y-41690000D02*
X143000000Y-41040000D01*
X144120000Y-37640000D02*
X141880000Y-37640000D01*
X144120000Y-37520000D02*
X141880000Y-37520000D01*
X144120000Y-37400000D02*
X141880000Y-37400000D01*
X143000000Y-36150000D02*
X143000000Y-36800000D01*
%TO.C,D13*%
X203000000Y-36040000D02*
X203000000Y-36690000D01*
X204120000Y-37290000D02*
X201880000Y-37290000D01*
X204120000Y-37410000D02*
X201880000Y-37410000D01*
X204120000Y-37530000D02*
X201880000Y-37530000D01*
X203000000Y-41580000D02*
X203000000Y-40930000D01*
X204120000Y-36690000D02*
X201880000Y-36690000D01*
X201880000Y-40930000D01*
X204120000Y-40930000D01*
X204120000Y-36690000D01*
%TO.C,D3*%
X144420000Y-26770000D02*
X142180000Y-26770000D01*
X142180000Y-31010000D01*
X144420000Y-31010000D01*
X144420000Y-26770000D01*
X143300000Y-31660000D02*
X143300000Y-31010000D01*
X144420000Y-27610000D02*
X142180000Y-27610000D01*
X144420000Y-27490000D02*
X142180000Y-27490000D01*
X144420000Y-27370000D02*
X142180000Y-27370000D01*
X143300000Y-26120000D02*
X143300000Y-26770000D01*
%TO.C,D15*%
X144420000Y-46770000D02*
X142180000Y-46770000D01*
X142180000Y-51010000D01*
X144420000Y-51010000D01*
X144420000Y-46770000D01*
X143300000Y-51660000D02*
X143300000Y-51010000D01*
X144420000Y-47610000D02*
X142180000Y-47610000D01*
X144420000Y-47490000D02*
X142180000Y-47490000D01*
X144420000Y-47370000D02*
X142180000Y-47370000D01*
X143300000Y-46120000D02*
X143300000Y-46770000D01*
%TO.C,D12*%
X190420000Y-36770000D02*
X188180000Y-36770000D01*
X188180000Y-41010000D01*
X190420000Y-41010000D01*
X190420000Y-36770000D01*
X189300000Y-41660000D02*
X189300000Y-41010000D01*
X190420000Y-37610000D02*
X188180000Y-37610000D01*
X190420000Y-37490000D02*
X188180000Y-37490000D01*
X190420000Y-37370000D02*
X188180000Y-37370000D01*
X189300000Y-36120000D02*
X189300000Y-36770000D01*
%TO.C,D2*%
X129420000Y-26770000D02*
X127180000Y-26770000D01*
X127180000Y-31010000D01*
X129420000Y-31010000D01*
X129420000Y-26770000D01*
X128300000Y-31660000D02*
X128300000Y-31010000D01*
X129420000Y-27610000D02*
X127180000Y-27610000D01*
X129420000Y-27490000D02*
X127180000Y-27490000D01*
X129420000Y-27370000D02*
X127180000Y-27370000D01*
X128300000Y-26120000D02*
X128300000Y-26770000D01*
%TO.C,SW32*%
X186200000Y-106400000D02*
X186800000Y-106400000D01*
X186500000Y-106700000D02*
X186200000Y-106400000D01*
X186800000Y-106400000D02*
X186500000Y-106700000D01*
X187900000Y-104600000D02*
X187900000Y-116400000D01*
X192000000Y-104600000D02*
X187900000Y-104600000D01*
X192000000Y-116400000D02*
X187900000Y-116400000D01*
X193500000Y-110500000D02*
X194500000Y-110500000D01*
X194000000Y-110000000D02*
X194000000Y-111000000D01*
X196000000Y-104600000D02*
X200100000Y-104600000D01*
X200100000Y-104600000D02*
X200100000Y-107000000D01*
X200100000Y-109200000D02*
X200100000Y-111800000D01*
X200100000Y-114000000D02*
X200100000Y-116400000D01*
X200100000Y-116400000D02*
X196000000Y-116400000D01*
X197000000Y-110500000D02*
G75*
G02*
X191000000Y-110500000I-3000000J0D01*
G01*
X191000000Y-110500000D02*
G75*
G02*
X197000000Y-110500000I3000000J0D01*
G01*
%TO.C,SW31*%
X193210000Y-68820000D02*
X193210000Y-70320000D01*
X194460000Y-72820000D02*
X198960000Y-72820000D01*
X198960000Y-66320000D02*
X194460000Y-66320000D01*
X200210000Y-70320000D02*
X200210000Y-68820000D01*
%TO.C,SW30*%
X177970000Y-68820000D02*
X177970000Y-70320000D01*
X179220000Y-72820000D02*
X183720000Y-72820000D01*
X183720000Y-66320000D02*
X179220000Y-66320000D01*
X184970000Y-70320000D02*
X184970000Y-68820000D01*
%TO.C,SW29*%
X162730000Y-68820000D02*
X162730000Y-70320000D01*
X163980000Y-72820000D02*
X168480000Y-72820000D01*
X168480000Y-66320000D02*
X163980000Y-66320000D01*
X169730000Y-70320000D02*
X169730000Y-68820000D01*
%TO.C,SW28*%
X147490000Y-68820000D02*
X147490000Y-70320000D01*
X148740000Y-72820000D02*
X153240000Y-72820000D01*
X153240000Y-66320000D02*
X148740000Y-66320000D01*
X154490000Y-70320000D02*
X154490000Y-68820000D01*
%TO.C,SW27*%
X132250000Y-68820000D02*
X132250000Y-70320000D01*
X133500000Y-72820000D02*
X138000000Y-72820000D01*
X138000000Y-66320000D02*
X133500000Y-66320000D01*
X139250000Y-70320000D02*
X139250000Y-68820000D01*
%TO.C,SW26*%
X117010000Y-68820000D02*
X117010000Y-70320000D01*
X118260000Y-72820000D02*
X122760000Y-72820000D01*
X122760000Y-66320000D02*
X118260000Y-66320000D01*
X124010000Y-70320000D02*
X124010000Y-68820000D01*
%TO.C,SW25*%
X193210000Y-58660000D02*
X193210000Y-60160000D01*
X194460000Y-62660000D02*
X198960000Y-62660000D01*
X198960000Y-56160000D02*
X194460000Y-56160000D01*
X200210000Y-60160000D02*
X200210000Y-58660000D01*
%TO.C,SW24*%
X177970000Y-58660000D02*
X177970000Y-60160000D01*
X179220000Y-62660000D02*
X183720000Y-62660000D01*
X183720000Y-56160000D02*
X179220000Y-56160000D01*
X184970000Y-60160000D02*
X184970000Y-58660000D01*
%TO.C,SW23*%
X162730000Y-58660000D02*
X162730000Y-60160000D01*
X163980000Y-62660000D02*
X168480000Y-62660000D01*
X168480000Y-56160000D02*
X163980000Y-56160000D01*
X169730000Y-60160000D02*
X169730000Y-58660000D01*
%TO.C,SW22*%
X147490000Y-58660000D02*
X147490000Y-60160000D01*
X148740000Y-62660000D02*
X153240000Y-62660000D01*
X153240000Y-56160000D02*
X148740000Y-56160000D01*
X154490000Y-60160000D02*
X154490000Y-58660000D01*
%TO.C,SW21*%
X132250000Y-58660000D02*
X132250000Y-60160000D01*
X133500000Y-62660000D02*
X138000000Y-62660000D01*
X138000000Y-56160000D02*
X133500000Y-56160000D01*
X139250000Y-60160000D02*
X139250000Y-58660000D01*
%TO.C,SW20*%
X117010000Y-58660000D02*
X117010000Y-60160000D01*
X118260000Y-62660000D02*
X122760000Y-62660000D01*
X122760000Y-56160000D02*
X118260000Y-56160000D01*
X124010000Y-60160000D02*
X124010000Y-58660000D01*
%TO.C,SW19*%
X193210000Y-48500000D02*
X193210000Y-50000000D01*
X194460000Y-52500000D02*
X198960000Y-52500000D01*
X198960000Y-46000000D02*
X194460000Y-46000000D01*
X200210000Y-50000000D02*
X200210000Y-48500000D01*
%TO.C,SW18*%
X177970000Y-48500000D02*
X177970000Y-50000000D01*
X179220000Y-52500000D02*
X183720000Y-52500000D01*
X183720000Y-46000000D02*
X179220000Y-46000000D01*
X184970000Y-50000000D02*
X184970000Y-48500000D01*
%TO.C,SW17*%
X162730000Y-48500000D02*
X162730000Y-50000000D01*
X163980000Y-52500000D02*
X168480000Y-52500000D01*
X168480000Y-46000000D02*
X163980000Y-46000000D01*
X169730000Y-50000000D02*
X169730000Y-48500000D01*
%TO.C,SW16*%
X147490000Y-48500000D02*
X147490000Y-50000000D01*
X148740000Y-52500000D02*
X153240000Y-52500000D01*
X153240000Y-46000000D02*
X148740000Y-46000000D01*
X154490000Y-50000000D02*
X154490000Y-48500000D01*
%TO.C,SW15*%
X132250000Y-48500000D02*
X132250000Y-50000000D01*
X133500000Y-52500000D02*
X138000000Y-52500000D01*
X138000000Y-46000000D02*
X133500000Y-46000000D01*
X139250000Y-50000000D02*
X139250000Y-48500000D01*
%TO.C,SW14*%
X117010000Y-48500000D02*
X117010000Y-50000000D01*
X118260000Y-52500000D02*
X122760000Y-52500000D01*
X122760000Y-46000000D02*
X118260000Y-46000000D01*
X124010000Y-50000000D02*
X124010000Y-48500000D01*
%TO.C,SW13*%
X193210000Y-38340000D02*
X193210000Y-39840000D01*
X194460000Y-42340000D02*
X198960000Y-42340000D01*
X198960000Y-35840000D02*
X194460000Y-35840000D01*
X200210000Y-39840000D02*
X200210000Y-38340000D01*
%TO.C,SW12*%
X177970000Y-38340000D02*
X177970000Y-39840000D01*
X179220000Y-42340000D02*
X183720000Y-42340000D01*
X183720000Y-35840000D02*
X179220000Y-35840000D01*
X184970000Y-39840000D02*
X184970000Y-38340000D01*
%TO.C,SW11*%
X162730000Y-38340000D02*
X162730000Y-39840000D01*
X163980000Y-42340000D02*
X168480000Y-42340000D01*
X168480000Y-35840000D02*
X163980000Y-35840000D01*
X169730000Y-39840000D02*
X169730000Y-38340000D01*
%TO.C,SW10*%
X147490000Y-38340000D02*
X147490000Y-39840000D01*
X148740000Y-42340000D02*
X153240000Y-42340000D01*
X153240000Y-35840000D02*
X148740000Y-35840000D01*
X154490000Y-39840000D02*
X154490000Y-38340000D01*
%TO.C,SW9*%
X132250000Y-38340000D02*
X132250000Y-39840000D01*
X133500000Y-42340000D02*
X138000000Y-42340000D01*
X138000000Y-35840000D02*
X133500000Y-35840000D01*
X139250000Y-39840000D02*
X139250000Y-38340000D01*
%TO.C,SW8*%
X117010000Y-38340000D02*
X117010000Y-39840000D01*
X118260000Y-42340000D02*
X122760000Y-42340000D01*
X122760000Y-35840000D02*
X118260000Y-35840000D01*
X124010000Y-39840000D02*
X124010000Y-38340000D01*
%TO.C,SW7*%
X193210000Y-28180000D02*
X193210000Y-29680000D01*
X194460000Y-32180000D02*
X198960000Y-32180000D01*
X198960000Y-25680000D02*
X194460000Y-25680000D01*
X200210000Y-29680000D02*
X200210000Y-28180000D01*
%TO.C,SW6*%
X177970000Y-28180000D02*
X177970000Y-29680000D01*
X179220000Y-32180000D02*
X183720000Y-32180000D01*
X183720000Y-25680000D02*
X179220000Y-25680000D01*
X184970000Y-29680000D02*
X184970000Y-28180000D01*
%TO.C,SW5*%
X162730000Y-28180000D02*
X162730000Y-29680000D01*
X163980000Y-32180000D02*
X168480000Y-32180000D01*
X168480000Y-25680000D02*
X163980000Y-25680000D01*
X169730000Y-29680000D02*
X169730000Y-28180000D01*
%TO.C,SW4*%
X147490000Y-28180000D02*
X147490000Y-29680000D01*
X148740000Y-32180000D02*
X153240000Y-32180000D01*
X153240000Y-25680000D02*
X148740000Y-25680000D01*
X154490000Y-29680000D02*
X154490000Y-28180000D01*
%TO.C,SW3*%
X132250000Y-28235000D02*
X132250000Y-29735000D01*
X133500000Y-32235000D02*
X138000000Y-32235000D01*
X138000000Y-25735000D02*
X133500000Y-25735000D01*
X139250000Y-29735000D02*
X139250000Y-28235000D01*
%TO.C,SW2*%
X117010000Y-28180000D02*
X117010000Y-29680000D01*
X118260000Y-32180000D02*
X122760000Y-32180000D01*
X122760000Y-25680000D02*
X118260000Y-25680000D01*
X124010000Y-29680000D02*
X124010000Y-28180000D01*
%TO.C,J3*%
X202670000Y-84730000D02*
X202670000Y-89870000D01*
X202670000Y-84730000D02*
X205330000Y-84730000D01*
X202670000Y-89870000D02*
X205330000Y-89870000D01*
X204000000Y-82130000D02*
X205330000Y-82130000D01*
X205330000Y-82130000D02*
X205330000Y-83460000D01*
X205330000Y-84730000D02*
X205330000Y-89870000D01*
%TO.C,J1*%
X165670000Y-83190000D02*
X165670000Y-93410000D01*
X165670000Y-83190000D02*
X168330000Y-83190000D01*
X165670000Y-93410000D02*
X168330000Y-93410000D01*
X167000000Y-80590000D02*
X168330000Y-80590000D01*
X168330000Y-80590000D02*
X168330000Y-81920000D01*
X168330000Y-83190000D02*
X168330000Y-93410000D01*
%TO.C,D32*%
X208000000Y-114960000D02*
X208000000Y-114310000D01*
X206880000Y-113710000D02*
X209120000Y-113710000D01*
X206880000Y-113590000D02*
X209120000Y-113590000D01*
X206880000Y-113470000D02*
X209120000Y-113470000D01*
X208000000Y-109420000D02*
X208000000Y-110070000D01*
X206880000Y-114310000D02*
X209120000Y-114310000D01*
X209120000Y-110070000D01*
X206880000Y-110070000D01*
X206880000Y-114310000D01*
%TO.C,D31*%
X203300000Y-66120000D02*
X203300000Y-66770000D01*
X204420000Y-67370000D02*
X202180000Y-67370000D01*
X204420000Y-67490000D02*
X202180000Y-67490000D01*
X204420000Y-67610000D02*
X202180000Y-67610000D01*
X203300000Y-71660000D02*
X203300000Y-71010000D01*
X204420000Y-66770000D02*
X202180000Y-66770000D01*
X202180000Y-71010000D01*
X204420000Y-71010000D01*
X204420000Y-66770000D01*
%TO.C,D30*%
X189300000Y-66120000D02*
X189300000Y-66770000D01*
X190420000Y-67370000D02*
X188180000Y-67370000D01*
X190420000Y-67490000D02*
X188180000Y-67490000D01*
X190420000Y-67610000D02*
X188180000Y-67610000D01*
X189300000Y-71660000D02*
X189300000Y-71010000D01*
X190420000Y-66770000D02*
X188180000Y-66770000D01*
X188180000Y-71010000D01*
X190420000Y-71010000D01*
X190420000Y-66770000D01*
%TO.C,D29*%
X174300000Y-66120000D02*
X174300000Y-66770000D01*
X175420000Y-67370000D02*
X173180000Y-67370000D01*
X175420000Y-67490000D02*
X173180000Y-67490000D01*
X175420000Y-67610000D02*
X173180000Y-67610000D01*
X174300000Y-71660000D02*
X174300000Y-71010000D01*
X175420000Y-66770000D02*
X173180000Y-66770000D01*
X173180000Y-71010000D01*
X175420000Y-71010000D01*
X175420000Y-66770000D01*
%TO.C,D28*%
X158300000Y-66120000D02*
X158300000Y-66770000D01*
X159420000Y-67370000D02*
X157180000Y-67370000D01*
X159420000Y-67490000D02*
X157180000Y-67490000D01*
X159420000Y-67610000D02*
X157180000Y-67610000D01*
X158300000Y-71660000D02*
X158300000Y-71010000D01*
X159420000Y-66770000D02*
X157180000Y-66770000D01*
X157180000Y-71010000D01*
X159420000Y-71010000D01*
X159420000Y-66770000D01*
%TO.C,D27*%
X143300000Y-66120000D02*
X143300000Y-66770000D01*
X144420000Y-67370000D02*
X142180000Y-67370000D01*
X144420000Y-67490000D02*
X142180000Y-67490000D01*
X144420000Y-67610000D02*
X142180000Y-67610000D01*
X143300000Y-71660000D02*
X143300000Y-71010000D01*
X144420000Y-66770000D02*
X142180000Y-66770000D01*
X142180000Y-71010000D01*
X144420000Y-71010000D01*
X144420000Y-66770000D01*
%TO.C,D26*%
X128300000Y-66120000D02*
X128300000Y-66770000D01*
X129420000Y-67370000D02*
X127180000Y-67370000D01*
X129420000Y-67490000D02*
X127180000Y-67490000D01*
X129420000Y-67610000D02*
X127180000Y-67610000D01*
X128300000Y-71660000D02*
X128300000Y-71010000D01*
X129420000Y-66770000D02*
X127180000Y-66770000D01*
X127180000Y-71010000D01*
X129420000Y-71010000D01*
X129420000Y-66770000D01*
%TO.C,D25*%
X203300000Y-56120000D02*
X203300000Y-56770000D01*
X204420000Y-57370000D02*
X202180000Y-57370000D01*
X204420000Y-57490000D02*
X202180000Y-57490000D01*
X204420000Y-57610000D02*
X202180000Y-57610000D01*
X203300000Y-61660000D02*
X203300000Y-61010000D01*
X204420000Y-56770000D02*
X202180000Y-56770000D01*
X202180000Y-61010000D01*
X204420000Y-61010000D01*
X204420000Y-56770000D01*
%TO.C,D24*%
X189300000Y-56120000D02*
X189300000Y-56770000D01*
X190420000Y-57370000D02*
X188180000Y-57370000D01*
X190420000Y-57490000D02*
X188180000Y-57490000D01*
X190420000Y-57610000D02*
X188180000Y-57610000D01*
X189300000Y-61660000D02*
X189300000Y-61010000D01*
X190420000Y-56770000D02*
X188180000Y-56770000D01*
X188180000Y-61010000D01*
X190420000Y-61010000D01*
X190420000Y-56770000D01*
%TO.C,D23*%
X174300000Y-56120000D02*
X174300000Y-56770000D01*
X175420000Y-57370000D02*
X173180000Y-57370000D01*
X175420000Y-57490000D02*
X173180000Y-57490000D01*
X175420000Y-57610000D02*
X173180000Y-57610000D01*
X174300000Y-61660000D02*
X174300000Y-61010000D01*
X175420000Y-56770000D02*
X173180000Y-56770000D01*
X173180000Y-61010000D01*
X175420000Y-61010000D01*
X175420000Y-56770000D01*
%TO.C,D22*%
X158300000Y-56120000D02*
X158300000Y-56770000D01*
X159420000Y-57370000D02*
X157180000Y-57370000D01*
X159420000Y-57490000D02*
X157180000Y-57490000D01*
X159420000Y-57610000D02*
X157180000Y-57610000D01*
X158300000Y-61660000D02*
X158300000Y-61010000D01*
X159420000Y-56770000D02*
X157180000Y-56770000D01*
X157180000Y-61010000D01*
X159420000Y-61010000D01*
X159420000Y-56770000D01*
%TO.C,D21*%
X143300000Y-56120000D02*
X143300000Y-56770000D01*
X144420000Y-57370000D02*
X142180000Y-57370000D01*
X144420000Y-57490000D02*
X142180000Y-57490000D01*
X144420000Y-57610000D02*
X142180000Y-57610000D01*
X143300000Y-61660000D02*
X143300000Y-61010000D01*
X144420000Y-56770000D02*
X142180000Y-56770000D01*
X142180000Y-61010000D01*
X144420000Y-61010000D01*
X144420000Y-56770000D01*
%TO.C,D20*%
X128300000Y-56120000D02*
X128300000Y-56770000D01*
X129420000Y-57370000D02*
X127180000Y-57370000D01*
X129420000Y-57490000D02*
X127180000Y-57490000D01*
X129420000Y-57610000D02*
X127180000Y-57610000D01*
X128300000Y-61660000D02*
X128300000Y-61010000D01*
X129420000Y-56770000D02*
X127180000Y-56770000D01*
X127180000Y-61010000D01*
X129420000Y-61010000D01*
X129420000Y-56770000D01*
%TO.C,D19*%
X203300000Y-46120000D02*
X203300000Y-46770000D01*
X204420000Y-47370000D02*
X202180000Y-47370000D01*
X204420000Y-47490000D02*
X202180000Y-47490000D01*
X204420000Y-47610000D02*
X202180000Y-47610000D01*
X203300000Y-51660000D02*
X203300000Y-51010000D01*
X204420000Y-46770000D02*
X202180000Y-46770000D01*
X202180000Y-51010000D01*
X204420000Y-51010000D01*
X204420000Y-46770000D01*
%TO.C,D18*%
X189300000Y-46120000D02*
X189300000Y-46770000D01*
X190420000Y-47370000D02*
X188180000Y-47370000D01*
X190420000Y-47490000D02*
X188180000Y-47490000D01*
X190420000Y-47610000D02*
X188180000Y-47610000D01*
X189300000Y-51660000D02*
X189300000Y-51010000D01*
X190420000Y-46770000D02*
X188180000Y-46770000D01*
X188180000Y-51010000D01*
X190420000Y-51010000D01*
X190420000Y-46770000D01*
%TO.C,D17*%
X174300000Y-46120000D02*
X174300000Y-46770000D01*
X175420000Y-47370000D02*
X173180000Y-47370000D01*
X175420000Y-47490000D02*
X173180000Y-47490000D01*
X175420000Y-47610000D02*
X173180000Y-47610000D01*
X174300000Y-51660000D02*
X174300000Y-51010000D01*
X175420000Y-46770000D02*
X173180000Y-46770000D01*
X173180000Y-51010000D01*
X175420000Y-51010000D01*
X175420000Y-46770000D01*
%TO.C,D16*%
X158300000Y-46120000D02*
X158300000Y-46770000D01*
X159420000Y-47370000D02*
X157180000Y-47370000D01*
X159420000Y-47490000D02*
X157180000Y-47490000D01*
X159420000Y-47610000D02*
X157180000Y-47610000D01*
X158300000Y-51660000D02*
X158300000Y-51010000D01*
X159420000Y-46770000D02*
X157180000Y-46770000D01*
X157180000Y-51010000D01*
X159420000Y-51010000D01*
X159420000Y-46770000D01*
%TO.C,D14*%
X128300000Y-46120000D02*
X128300000Y-46770000D01*
X129420000Y-47370000D02*
X127180000Y-47370000D01*
X129420000Y-47490000D02*
X127180000Y-47490000D01*
X129420000Y-47610000D02*
X127180000Y-47610000D01*
X128300000Y-51660000D02*
X128300000Y-51010000D01*
X129420000Y-46770000D02*
X127180000Y-46770000D01*
X127180000Y-51010000D01*
X129420000Y-51010000D01*
X129420000Y-46770000D01*
%TO.C,D11*%
X174300000Y-36120000D02*
X174300000Y-36770000D01*
X175420000Y-37370000D02*
X173180000Y-37370000D01*
X175420000Y-37490000D02*
X173180000Y-37490000D01*
X175420000Y-37610000D02*
X173180000Y-37610000D01*
X174300000Y-41660000D02*
X174300000Y-41010000D01*
X175420000Y-36770000D02*
X173180000Y-36770000D01*
X173180000Y-41010000D01*
X175420000Y-41010000D01*
X175420000Y-36770000D01*
%TO.C,D10*%
X158300000Y-36120000D02*
X158300000Y-36770000D01*
X159420000Y-37370000D02*
X157180000Y-37370000D01*
X159420000Y-37490000D02*
X157180000Y-37490000D01*
X159420000Y-37610000D02*
X157180000Y-37610000D01*
X158300000Y-41660000D02*
X158300000Y-41010000D01*
X159420000Y-36770000D02*
X157180000Y-36770000D01*
X157180000Y-41010000D01*
X159420000Y-41010000D01*
X159420000Y-36770000D01*
%TO.C,D8*%
X128300000Y-36120000D02*
X128300000Y-36770000D01*
X129420000Y-37370000D02*
X127180000Y-37370000D01*
X129420000Y-37490000D02*
X127180000Y-37490000D01*
X129420000Y-37610000D02*
X127180000Y-37610000D01*
X128300000Y-41660000D02*
X128300000Y-41010000D01*
X129420000Y-36770000D02*
X127180000Y-36770000D01*
X127180000Y-41010000D01*
X129420000Y-41010000D01*
X129420000Y-36770000D01*
%TO.C,D7*%
X203300000Y-26120000D02*
X203300000Y-26770000D01*
X204420000Y-27370000D02*
X202180000Y-27370000D01*
X204420000Y-27490000D02*
X202180000Y-27490000D01*
X204420000Y-27610000D02*
X202180000Y-27610000D01*
X203300000Y-31660000D02*
X203300000Y-31010000D01*
X204420000Y-26770000D02*
X202180000Y-26770000D01*
X202180000Y-31010000D01*
X204420000Y-31010000D01*
X204420000Y-26770000D01*
%TO.C,D6*%
X189300000Y-26120000D02*
X189300000Y-26770000D01*
X190420000Y-27370000D02*
X188180000Y-27370000D01*
X190420000Y-27490000D02*
X188180000Y-27490000D01*
X190420000Y-27610000D02*
X188180000Y-27610000D01*
X189300000Y-31660000D02*
X189300000Y-31010000D01*
X190420000Y-26770000D02*
X188180000Y-26770000D01*
X188180000Y-31010000D01*
X190420000Y-31010000D01*
X190420000Y-26770000D01*
%TO.C,D5*%
X174300000Y-26120000D02*
X174300000Y-26770000D01*
X175420000Y-27370000D02*
X173180000Y-27370000D01*
X175420000Y-27490000D02*
X173180000Y-27490000D01*
X175420000Y-27610000D02*
X173180000Y-27610000D01*
X174300000Y-31660000D02*
X174300000Y-31010000D01*
X175420000Y-26770000D02*
X173180000Y-26770000D01*
X173180000Y-31010000D01*
X175420000Y-31010000D01*
X175420000Y-26770000D01*
%TO.C,D4*%
X158300000Y-26120000D02*
X158300000Y-26770000D01*
X159420000Y-27370000D02*
X157180000Y-27370000D01*
X159420000Y-27490000D02*
X157180000Y-27490000D01*
X159420000Y-27610000D02*
X157180000Y-27610000D01*
X158300000Y-31660000D02*
X158300000Y-31010000D01*
X159420000Y-26770000D02*
X157180000Y-26770000D01*
X157180000Y-31010000D01*
X159420000Y-31010000D01*
X159420000Y-26770000D01*
%TD*%
M02*
