%TF.GenerationSoftware,KiCad,Pcbnew,9.0.7*%
%TF.CreationDate,2026-02-01T21:10:00+09:00*%
%TF.ProjectId,YMMkeyboard,594d4d6b-6579-4626-9f61-72642e6b6963,rev?*%
%TF.SameCoordinates,Original*%
%TF.FileFunction,Legend,Bot*%
%TF.FilePolarity,Positive*%
%FSLAX46Y46*%
G04 Gerber Fmt 4.6, Leading zero omitted, Abs format (unit mm)*
G04 Created by KiCad (PCBNEW 9.0.7) date 2026-02-01 21:10:00*
%MOMM*%
%LPD*%
G01*
G04 APERTURE LIST*
%ADD10C,0.150000*%
%ADD11C,0.000000*%
G04 APERTURE END LIST*
D10*
X186733333Y-89954819D02*
X187066666Y-89478628D01*
X187304761Y-89954819D02*
X187304761Y-88954819D01*
X187304761Y-88954819D02*
X186923809Y-88954819D01*
X186923809Y-88954819D02*
X186828571Y-89002438D01*
X186828571Y-89002438D02*
X186780952Y-89050057D01*
X186780952Y-89050057D02*
X186733333Y-89145295D01*
X186733333Y-89145295D02*
X186733333Y-89288152D01*
X186733333Y-89288152D02*
X186780952Y-89383390D01*
X186780952Y-89383390D02*
X186828571Y-89431009D01*
X186828571Y-89431009D02*
X186923809Y-89478628D01*
X186923809Y-89478628D02*
X187304761Y-89478628D01*
X186304761Y-89431009D02*
X185971428Y-89431009D01*
X185828571Y-89954819D02*
X186304761Y-89954819D01*
X186304761Y-89954819D02*
X186304761Y-88954819D01*
X186304761Y-88954819D02*
X185828571Y-88954819D01*
X185066666Y-89431009D02*
X185399999Y-89431009D01*
X185399999Y-89954819D02*
X185399999Y-88954819D01*
X185399999Y-88954819D02*
X184923809Y-88954819D01*
X184399999Y-88954819D02*
X184399999Y-89192914D01*
X184638094Y-89097676D02*
X184399999Y-89192914D01*
X184399999Y-89192914D02*
X184161904Y-89097676D01*
X184542856Y-89383390D02*
X184399999Y-89192914D01*
X184399999Y-89192914D02*
X184257142Y-89383390D01*
X183638094Y-88954819D02*
X183638094Y-89192914D01*
X183876189Y-89097676D02*
X183638094Y-89192914D01*
X183638094Y-89192914D02*
X183399999Y-89097676D01*
X183780951Y-89383390D02*
X183638094Y-89192914D01*
X183638094Y-89192914D02*
X183495237Y-89383390D01*
D11*
%TO.C,REF\u002A\u002A*%
G36*
X185806789Y-80480595D02*
G01*
X185567269Y-80480595D01*
X185567269Y-83360078D01*
X185806789Y-83360078D01*
X185806789Y-83698018D01*
X185806190Y-83727664D01*
X185804405Y-83756733D01*
X185801450Y-83785201D01*
X185797342Y-83813044D01*
X185792097Y-83840238D01*
X185785733Y-83866759D01*
X185778266Y-83892584D01*
X185769713Y-83917687D01*
X185760090Y-83942047D01*
X185749415Y-83965638D01*
X185737704Y-83988438D01*
X185724974Y-84010421D01*
X185711241Y-84031565D01*
X185696522Y-84051845D01*
X185680834Y-84071237D01*
X185664194Y-84089718D01*
X185646618Y-84107264D01*
X185628123Y-84123851D01*
X185608727Y-84139455D01*
X185588444Y-84154052D01*
X185567293Y-84167618D01*
X185545290Y-84180130D01*
X185522452Y-84191563D01*
X185498795Y-84201895D01*
X185474336Y-84211100D01*
X185449092Y-84219155D01*
X185423080Y-84226036D01*
X185396316Y-84231720D01*
X185368818Y-84236182D01*
X185340601Y-84239399D01*
X185311682Y-84241347D01*
X185282079Y-84242001D01*
X180664726Y-84242001D01*
X180554633Y-84245017D01*
X180445717Y-84253257D01*
X180337952Y-84266888D01*
X180231313Y-84286078D01*
X180125776Y-84310994D01*
X180021316Y-84341803D01*
X179917908Y-84378671D01*
X179815528Y-84421766D01*
X179714152Y-84471254D01*
X179613753Y-84527304D01*
X179514308Y-84590081D01*
X179415792Y-84659753D01*
X179318180Y-84736486D01*
X179221448Y-84820449D01*
X179125570Y-84911807D01*
X179030523Y-85010729D01*
X178996297Y-85043007D01*
X178963142Y-85078024D01*
X178931057Y-85115576D01*
X178900042Y-85155464D01*
X178870096Y-85197484D01*
X178841220Y-85241436D01*
X178813413Y-85287117D01*
X178786675Y-85334327D01*
X178761006Y-85382863D01*
X178736405Y-85432524D01*
X178712873Y-85483109D01*
X178690409Y-85534414D01*
X178669014Y-85586240D01*
X178648686Y-85638385D01*
X178629426Y-85690646D01*
X178611233Y-85742822D01*
X178606709Y-85762213D01*
X178601163Y-85781431D01*
X178594626Y-85800449D01*
X178587129Y-85819236D01*
X178578705Y-85837763D01*
X178569384Y-85856002D01*
X178559198Y-85873924D01*
X178548178Y-85891499D01*
X178536355Y-85908698D01*
X178523762Y-85925492D01*
X178510428Y-85941853D01*
X178496385Y-85957750D01*
X178481666Y-85973156D01*
X178466300Y-85988040D01*
X178450320Y-86002374D01*
X178433757Y-86016129D01*
X178416642Y-86029275D01*
X178399007Y-86041784D01*
X178380882Y-86053627D01*
X178362300Y-86064774D01*
X178343291Y-86075196D01*
X178323887Y-86084865D01*
X178304119Y-86093750D01*
X178284019Y-86101824D01*
X178263617Y-86109057D01*
X178242946Y-86115420D01*
X178222037Y-86120884D01*
X178200920Y-86125419D01*
X178179628Y-86128997D01*
X178158191Y-86131589D01*
X178136642Y-86133166D01*
X178115010Y-86133698D01*
X176164290Y-86133698D01*
X176135155Y-86125950D01*
X176105519Y-86119205D01*
X176075416Y-86113471D01*
X176044877Y-86108759D01*
X176013936Y-86105076D01*
X175982624Y-86102435D01*
X175950975Y-86100842D01*
X175919021Y-86100310D01*
X175888005Y-86100842D01*
X175857060Y-86102435D01*
X175826254Y-86105076D01*
X175795651Y-86108759D01*
X175765318Y-86113471D01*
X175735320Y-86119205D01*
X175705723Y-86125950D01*
X175676594Y-86133698D01*
X174929417Y-86133698D01*
X174929417Y-85900799D01*
X175188897Y-85900799D01*
X175188897Y-84460245D01*
X175639516Y-84460245D01*
X175641538Y-84539920D01*
X175647540Y-84618557D01*
X175657422Y-84696058D01*
X175671088Y-84772326D01*
X175688439Y-84847262D01*
X175709376Y-84920770D01*
X175733801Y-84992750D01*
X175761616Y-85063106D01*
X175792724Y-85131739D01*
X175827025Y-85198552D01*
X175864422Y-85263447D01*
X175904817Y-85326326D01*
X175948111Y-85387091D01*
X175994205Y-85445644D01*
X176043003Y-85501888D01*
X176094406Y-85555725D01*
X176148315Y-85607057D01*
X176204632Y-85655786D01*
X176263260Y-85701814D01*
X176324099Y-85745044D01*
X176387052Y-85785377D01*
X176452021Y-85822717D01*
X176518908Y-85856964D01*
X176587614Y-85888022D01*
X176658040Y-85915792D01*
X176730090Y-85940177D01*
X176803665Y-85961079D01*
X176878666Y-85978400D01*
X176954995Y-85992041D01*
X177032555Y-86001907D01*
X177111246Y-86007898D01*
X177190971Y-86009917D01*
X177270694Y-86007898D01*
X177349368Y-86001907D01*
X177426894Y-85992041D01*
X177503176Y-85978400D01*
X177578117Y-85961079D01*
X177651620Y-85940177D01*
X177723587Y-85915792D01*
X177793922Y-85888022D01*
X177862527Y-85856964D01*
X177929306Y-85822717D01*
X177994160Y-85785377D01*
X178056993Y-85745044D01*
X178117708Y-85701814D01*
X178176208Y-85655786D01*
X178232395Y-85607057D01*
X178286173Y-85555725D01*
X178337443Y-85501888D01*
X178386110Y-85445644D01*
X178432076Y-85387091D01*
X178475244Y-85326326D01*
X178515517Y-85263447D01*
X178552797Y-85198552D01*
X178586988Y-85131739D01*
X178617992Y-85063106D01*
X178645712Y-84992750D01*
X178670051Y-84920770D01*
X178690913Y-84847262D01*
X178708199Y-84772326D01*
X178721813Y-84696058D01*
X178731657Y-84618557D01*
X178737635Y-84539920D01*
X178739649Y-84460245D01*
X178737635Y-84380496D01*
X178731657Y-84301790D01*
X178721813Y-84224224D01*
X178708199Y-84147895D01*
X178690913Y-84072902D01*
X178670051Y-83999342D01*
X178645712Y-83927313D01*
X178617992Y-83856912D01*
X178586988Y-83788237D01*
X178552797Y-83721386D01*
X178515517Y-83656456D01*
X178475244Y-83593546D01*
X178432076Y-83532752D01*
X178386110Y-83474173D01*
X178337443Y-83417905D01*
X178286173Y-83364048D01*
X178232395Y-83312698D01*
X178176208Y-83263953D01*
X178117708Y-83217911D01*
X178056993Y-83174669D01*
X177994160Y-83134325D01*
X177929306Y-83096977D01*
X177862527Y-83062722D01*
X177793922Y-83031659D01*
X177723587Y-83003884D01*
X177651620Y-82979496D01*
X177578117Y-82958592D01*
X177503176Y-82941269D01*
X177426894Y-82927626D01*
X177349368Y-82917760D01*
X177270694Y-82911769D01*
X177190971Y-82909750D01*
X177111246Y-82911769D01*
X177032555Y-82917760D01*
X176954995Y-82927626D01*
X176878666Y-82941269D01*
X176803665Y-82958592D01*
X176730090Y-82979496D01*
X176658040Y-83003884D01*
X176587614Y-83031659D01*
X176518908Y-83062722D01*
X176452021Y-83096977D01*
X176387052Y-83134325D01*
X176324099Y-83174669D01*
X176263260Y-83217911D01*
X176204632Y-83263953D01*
X176148315Y-83312698D01*
X176094406Y-83364048D01*
X176043003Y-83417905D01*
X175994205Y-83474173D01*
X175948111Y-83532752D01*
X175904817Y-83593546D01*
X175864422Y-83656456D01*
X175827025Y-83721386D01*
X175792724Y-83788237D01*
X175761616Y-83856912D01*
X175733801Y-83927313D01*
X175709376Y-83999342D01*
X175688439Y-84072902D01*
X175671088Y-84147895D01*
X175657422Y-84224224D01*
X175647540Y-84301790D01*
X175641538Y-84380496D01*
X175639516Y-84460245D01*
X175188897Y-84460245D01*
X175188897Y-83020499D01*
X174929417Y-83020499D01*
X174929417Y-82221630D01*
X174932376Y-82112785D01*
X174941124Y-82006172D01*
X174952929Y-81920333D01*
X181990872Y-81920333D01*
X181992886Y-82000007D01*
X181998864Y-82078644D01*
X182008708Y-82156146D01*
X182022322Y-82232414D01*
X182039608Y-82307350D01*
X182060469Y-82380858D01*
X182084809Y-82452839D01*
X182112528Y-82523195D01*
X182143532Y-82591828D01*
X182177722Y-82658641D01*
X182215002Y-82723537D01*
X182255274Y-82786416D01*
X182298441Y-82847181D01*
X182344406Y-82905735D01*
X182393071Y-82961979D01*
X182444341Y-83015816D01*
X182498117Y-83067149D01*
X182554302Y-83115878D01*
X182612800Y-83161906D01*
X182673512Y-83205137D01*
X182736343Y-83245470D01*
X182801195Y-83282810D01*
X182867970Y-83317058D01*
X182936572Y-83348116D01*
X183006903Y-83375887D01*
X183078867Y-83400272D01*
X183152365Y-83421174D01*
X183227302Y-83438495D01*
X183303579Y-83452137D01*
X183381101Y-83462002D01*
X183459768Y-83467993D01*
X183539485Y-83470012D01*
X183619211Y-83467993D01*
X183697902Y-83462002D01*
X183775462Y-83452137D01*
X183851791Y-83438495D01*
X183926792Y-83421174D01*
X184000367Y-83400272D01*
X184072416Y-83375887D01*
X184142843Y-83348116D01*
X184211549Y-83317058D01*
X184278435Y-83282810D01*
X184343404Y-83245470D01*
X184406358Y-83205137D01*
X184467197Y-83161906D01*
X184525825Y-83115878D01*
X184582142Y-83067149D01*
X184636051Y-83015816D01*
X184687454Y-82961979D01*
X184736251Y-82905735D01*
X184782346Y-82847181D01*
X184825640Y-82786416D01*
X184866034Y-82723537D01*
X184903431Y-82658641D01*
X184937733Y-82591828D01*
X184968840Y-82523195D01*
X184996656Y-82452839D01*
X185021081Y-82380858D01*
X185042018Y-82307350D01*
X185059368Y-82232414D01*
X185073034Y-82156146D01*
X185082917Y-82078644D01*
X185088919Y-82000007D01*
X185090941Y-81920333D01*
X185088919Y-81840584D01*
X185082917Y-81761877D01*
X185073034Y-81684311D01*
X185059368Y-81607982D01*
X185042018Y-81532989D01*
X185021081Y-81459429D01*
X184996656Y-81387400D01*
X184968840Y-81316999D01*
X184937733Y-81248324D01*
X184903431Y-81181473D01*
X184866034Y-81116544D01*
X184825640Y-81053633D01*
X184782346Y-80992839D01*
X184736251Y-80934260D01*
X184687454Y-80877993D01*
X184636051Y-80824135D01*
X184582142Y-80772785D01*
X184525825Y-80724040D01*
X184467197Y-80677998D01*
X184406358Y-80634756D01*
X184343404Y-80594412D01*
X184278435Y-80557064D01*
X184211549Y-80522810D01*
X184142843Y-80491746D01*
X184072416Y-80463972D01*
X184000367Y-80439583D01*
X183926792Y-80418679D01*
X183851791Y-80401357D01*
X183775462Y-80387714D01*
X183697902Y-80377848D01*
X183619211Y-80371857D01*
X183539485Y-80369838D01*
X183459768Y-80371857D01*
X183381101Y-80377848D01*
X183303579Y-80387714D01*
X183227302Y-80401357D01*
X183152365Y-80418679D01*
X183078867Y-80439583D01*
X183006903Y-80463972D01*
X182936572Y-80491746D01*
X182867970Y-80522810D01*
X182801195Y-80557064D01*
X182736343Y-80594412D01*
X182673512Y-80634756D01*
X182612800Y-80677998D01*
X182554302Y-80724040D01*
X182498117Y-80772785D01*
X182444341Y-80824135D01*
X182393071Y-80877993D01*
X182344406Y-80934260D01*
X182298441Y-80992839D01*
X182255274Y-81053633D01*
X182215002Y-81116544D01*
X182177722Y-81181473D01*
X182143532Y-81248324D01*
X182112528Y-81316999D01*
X182084809Y-81387400D01*
X182060469Y-81459429D01*
X182039608Y-81532989D01*
X182022322Y-81607982D01*
X182008708Y-81684311D01*
X181998864Y-81761877D01*
X181992886Y-81840584D01*
X181990872Y-81920333D01*
X174952929Y-81920333D01*
X174955468Y-81901871D01*
X174975215Y-81799963D01*
X175000172Y-81700528D01*
X175030144Y-81603645D01*
X175064940Y-81509396D01*
X175104366Y-81417861D01*
X175148228Y-81329119D01*
X175196334Y-81243250D01*
X175248490Y-81160336D01*
X175304503Y-81080457D01*
X175364180Y-81003692D01*
X175427327Y-80930121D01*
X175493752Y-80859826D01*
X175563261Y-80792886D01*
X175635660Y-80729382D01*
X175710758Y-80669393D01*
X175788360Y-80613000D01*
X175868273Y-80560283D01*
X175950304Y-80511322D01*
X176034260Y-80466198D01*
X176119947Y-80424991D01*
X176207173Y-80387781D01*
X176295744Y-80354648D01*
X176385467Y-80325672D01*
X176476149Y-80300934D01*
X176567596Y-80280514D01*
X176659616Y-80264493D01*
X176752014Y-80252949D01*
X176844598Y-80245964D01*
X176937175Y-80243618D01*
X185806789Y-80243618D01*
X185806789Y-80480595D01*
G37*
%TD*%
M02*
