%TF.GenerationSoftware,KiCad,Pcbnew,9.0.7*%
%TF.CreationDate,2026-01-24T03:10:21+09:00*%
%TF.ProjectId,YmmKeyboardMX,596d6d4b-6579-4626-9f61-72644d582e6b,rev?*%
%TF.SameCoordinates,Original*%
%TF.FileFunction,Soldermask,Top*%
%TF.FilePolarity,Negative*%
%FSLAX46Y46*%
G04 Gerber Fmt 4.6, Leading zero omitted, Abs format (unit mm)*
G04 Created by KiCad (PCBNEW 9.0.7) date 2026-01-24 03:10:21*
%MOMM*%
%LPD*%
G01*
G04 APERTURE LIST*
G04 Aperture macros list*
%AMRoundRect*
0 Rectangle with rounded corners*
0 $1 Rounding radius*
0 $2 $3 $4 $5 $6 $7 $8 $9 X,Y pos of 4 corners*
0 Add a 4 corners polygon primitive as box body*
4,1,4,$2,$3,$4,$5,$6,$7,$8,$9,$2,$3,0*
0 Add four circle primitives for the rounded corners*
1,1,$1+$1,$2,$3*
1,1,$1+$1,$4,$5*
1,1,$1+$1,$6,$7*
1,1,$1+$1,$8,$9*
0 Add four rect primitives between the rounded corners*
20,1,$1+$1,$2,$3,$4,$5,0*
20,1,$1+$1,$4,$5,$6,$7,0*
20,1,$1+$1,$6,$7,$8,$9,0*
20,1,$1+$1,$8,$9,$2,$3,0*%
G04 Aperture macros list end*
%ADD10C,1.700000*%
%ADD11C,3.000000*%
%ADD12C,2.000000*%
%ADD13R,3.200000X2.000000*%
%ADD14R,2.000000X2.000000*%
%ADD15RoundRect,0.250000X0.550000X0.550000X-0.550000X0.550000X-0.550000X-0.550000X0.550000X-0.550000X0*%
%ADD16C,1.600000*%
%ADD17R,1.700000X1.700000*%
%ADD18RoundRect,0.250000X-0.550000X0.550000X-0.550000X-0.550000X0.550000X-0.550000X0.550000X0.550000X0*%
G04 APERTURE END LIST*
D10*
%TO.C,211*%
X64080000Y-108510000D03*
D11*
X61540000Y-103430000D03*
X55190000Y-105970000D03*
D10*
X53920000Y-108510000D03*
%TD*%
%TO.C,SW00*%
X44580000Y-50010000D03*
D11*
X42040000Y-44930000D03*
X35690000Y-47470000D03*
D10*
X34420000Y-50010000D03*
%TD*%
%TO.C,SW01*%
X64080000Y-50010000D03*
D11*
X61540000Y-44930000D03*
X55190000Y-47470000D03*
D10*
X53920000Y-50010000D03*
%TD*%
%TO.C,SW02*%
X83580000Y-50010000D03*
D11*
X81040000Y-44930000D03*
X74690000Y-47470000D03*
D10*
X73420000Y-50010000D03*
%TD*%
%TO.C,SW03*%
X122580000Y-50010000D03*
D11*
X120040000Y-44930000D03*
X113690000Y-47470000D03*
D10*
X112420000Y-50010000D03*
%TD*%
%TO.C,SW04*%
X142080000Y-50010000D03*
D11*
X139540000Y-44930000D03*
X133190000Y-47470000D03*
D10*
X131920000Y-50010000D03*
%TD*%
%TO.C,SW05*%
X161580000Y-50010000D03*
D11*
X159040000Y-44930000D03*
X152690000Y-47470000D03*
D10*
X151420000Y-50010000D03*
%TD*%
%TO.C,SW10*%
X44580000Y-69510000D03*
D11*
X42040000Y-64430000D03*
X35690000Y-66970000D03*
D10*
X34420000Y-69510000D03*
%TD*%
%TO.C,SW11*%
X64080000Y-69510000D03*
D11*
X61540000Y-64430000D03*
X55190000Y-66970000D03*
D10*
X53920000Y-69510000D03*
%TD*%
%TO.C,SW12*%
X83580000Y-69510000D03*
D11*
X81040000Y-64430000D03*
X74690000Y-66970000D03*
D10*
X73420000Y-69510000D03*
%TD*%
%TO.C,SW13*%
X122580000Y-69510000D03*
D11*
X120040000Y-64430000D03*
X113690000Y-66970000D03*
D10*
X112420000Y-69510000D03*
%TD*%
%TO.C,SW14*%
X142080000Y-69510000D03*
D11*
X139540000Y-64430000D03*
X133190000Y-66970000D03*
D10*
X131920000Y-69510000D03*
%TD*%
%TO.C,SW15*%
X161580000Y-69510000D03*
D11*
X159040000Y-64430000D03*
X152690000Y-66970000D03*
D10*
X151420000Y-69510000D03*
%TD*%
%TO.C,SW20*%
X44580000Y-108510000D03*
D11*
X42040000Y-103430000D03*
X35690000Y-105970000D03*
D10*
X34420000Y-108510000D03*
%TD*%
%TO.C,SW22*%
X83580000Y-108510000D03*
D11*
X81040000Y-103430000D03*
X74690000Y-105970000D03*
D10*
X73420000Y-108510000D03*
%TD*%
%TO.C,SW23*%
X122580000Y-108510000D03*
D11*
X120040000Y-103430000D03*
X113690000Y-105970000D03*
D10*
X112420000Y-108510000D03*
%TD*%
%TO.C,SW24*%
X142080000Y-108510000D03*
D11*
X139540000Y-103430000D03*
X133190000Y-105970000D03*
D10*
X131920000Y-108510000D03*
%TD*%
%TO.C,SW25*%
X161580000Y-108510000D03*
D11*
X159040000Y-103430000D03*
X152690000Y-105970000D03*
D10*
X151420000Y-108510000D03*
%TD*%
%TO.C,SW30*%
X44580000Y-128010000D03*
D11*
X42040000Y-122930000D03*
X35690000Y-125470000D03*
D10*
X34420000Y-128010000D03*
%TD*%
%TO.C,SW31*%
X64080000Y-128010000D03*
D11*
X61540000Y-122930000D03*
X55190000Y-125470000D03*
D10*
X53920000Y-128010000D03*
%TD*%
%TO.C,SW32*%
X83580000Y-128010000D03*
D11*
X81040000Y-122930000D03*
X74690000Y-125470000D03*
D10*
X73420000Y-128010000D03*
%TD*%
%TO.C,SW33*%
X122580000Y-128010000D03*
D11*
X120040000Y-122930000D03*
X113690000Y-125470000D03*
D10*
X112420000Y-128010000D03*
%TD*%
%TO.C,SW34*%
X142080000Y-128010000D03*
D11*
X139540000Y-122930000D03*
X133190000Y-125470000D03*
D10*
X131920000Y-128010000D03*
%TD*%
%TO.C,SW35*%
X161580000Y-128010000D03*
D11*
X159040000Y-122930000D03*
X152690000Y-125470000D03*
D10*
X151420000Y-128010000D03*
%TD*%
%TO.C,SW40*%
X44580000Y-147510000D03*
D11*
X42040000Y-142430000D03*
X35690000Y-144970000D03*
D10*
X34420000Y-147510000D03*
%TD*%
%TO.C,SW41*%
X64080000Y-147510000D03*
D11*
X61540000Y-142430000D03*
X55190000Y-144970000D03*
D10*
X53920000Y-147510000D03*
%TD*%
%TO.C,SW42*%
X83580000Y-147510000D03*
D11*
X81040000Y-142430000D03*
X74690000Y-144970000D03*
D10*
X73420000Y-147510000D03*
%TD*%
%TO.C,SW43*%
X122580000Y-147510000D03*
D11*
X120040000Y-142430000D03*
X113690000Y-144970000D03*
D10*
X112420000Y-147510000D03*
%TD*%
%TO.C,SW44*%
X142080000Y-147510000D03*
D11*
X139540000Y-142430000D03*
X133190000Y-144970000D03*
D10*
X131920000Y-147510000D03*
%TD*%
%TO.C,SW45*%
X161580000Y-147510000D03*
D11*
X159040000Y-142430000D03*
X152690000Y-144970000D03*
D10*
X151420000Y-147510000D03*
%TD*%
D12*
%TO.C,SW56*%
X222700000Y-106504000D03*
X222700000Y-111504000D03*
D13*
X215700000Y-114604000D03*
X215700000Y-103404000D03*
D12*
X208200000Y-109004000D03*
X208200000Y-111504000D03*
D14*
X208200000Y-106504000D03*
%TD*%
D15*
%TO.C,D3*%
X64760000Y-55600000D03*
D16*
X57140000Y-55600000D03*
%TD*%
%TO.C,D13*%
X154440000Y-75020000D03*
D15*
X162060000Y-75020000D03*
%TD*%
D16*
%TO.C,D27*%
X57030000Y-153080000D03*
D15*
X64650000Y-153080000D03*
%TD*%
D16*
%TO.C,D8*%
X37640000Y-75100000D03*
D15*
X45260000Y-75100000D03*
%TD*%
D16*
%TO.C,D17*%
X115430000Y-114070000D03*
D15*
X123050000Y-114070000D03*
%TD*%
D16*
%TO.C,D2*%
X37710000Y-55820000D03*
D15*
X45330000Y-55820000D03*
%TD*%
D16*
%TO.C,D18*%
X135050000Y-113960000D03*
D15*
X142670000Y-113960000D03*
%TD*%
D16*
%TO.C,D19*%
X155000000Y-114300000D03*
D15*
X162620000Y-114300000D03*
%TD*%
D16*
%TO.C,D24*%
X135160000Y-133460000D03*
D15*
X142780000Y-133460000D03*
%TD*%
D16*
%TO.C,D16*%
X76540000Y-114070000D03*
D15*
X84160000Y-114070000D03*
%TD*%
D16*
%TO.C,D7*%
X154660000Y-55450000D03*
D15*
X162280000Y-55450000D03*
%TD*%
D16*
%TO.C,D31*%
X154660000Y-153080000D03*
D15*
X162280000Y-153080000D03*
%TD*%
D16*
%TO.C,D30*%
X135050000Y-153080000D03*
D15*
X142670000Y-153080000D03*
%TD*%
D16*
%TO.C,D21*%
X57370000Y-133690000D03*
D15*
X64990000Y-133690000D03*
%TD*%
D16*
%TO.C,D25*%
X154780000Y-133460000D03*
D15*
X162400000Y-133460000D03*
%TD*%
D16*
%TO.C,D29*%
X115660000Y-153190000D03*
D15*
X123280000Y-153190000D03*
%TD*%
D16*
%TO.C,D26*%
X37750000Y-153190000D03*
D15*
X45370000Y-153190000D03*
%TD*%
D16*
%TO.C,D20*%
X37530000Y-133460000D03*
D15*
X45150000Y-133460000D03*
%TD*%
D16*
%TO.C,D5*%
X115500000Y-55600000D03*
D15*
X123120000Y-55600000D03*
%TD*%
D16*
%TO.C,D14*%
X37530000Y-113960000D03*
D15*
X45150000Y-113960000D03*
%TD*%
D16*
%TO.C,D12*%
X134780000Y-75020000D03*
D15*
X142400000Y-75020000D03*
%TD*%
D16*
%TO.C,D11*%
X115650000Y-74800000D03*
D15*
X123270000Y-74800000D03*
%TD*%
D16*
%TO.C,D15*%
X57370000Y-114070000D03*
D15*
X64990000Y-114070000D03*
%TD*%
D16*
%TO.C,D9*%
X56990000Y-75170000D03*
D15*
X64610000Y-75170000D03*
%TD*%
D16*
%TO.C,D6*%
X135010000Y-55600000D03*
D15*
X142630000Y-55600000D03*
%TD*%
D16*
%TO.C,D28*%
X76990000Y-153080000D03*
D15*
X84610000Y-153080000D03*
%TD*%
D16*
%TO.C,D23*%
X115660000Y-133350000D03*
D15*
X123280000Y-133350000D03*
%TD*%
D16*
%TO.C,D22*%
X76540000Y-133580000D03*
D15*
X84160000Y-133580000D03*
%TD*%
D16*
%TO.C,D10*%
X76270000Y-75250000D03*
D15*
X83890000Y-75250000D03*
%TD*%
D10*
%TO.C,J5*%
X260335000Y-92165000D03*
X260335000Y-89625000D03*
D17*
X260335000Y-87085000D03*
%TD*%
%TO.C,J4*%
X179700000Y-43980000D03*
D10*
X179700000Y-46520000D03*
X179700000Y-49060000D03*
X179700000Y-51600000D03*
%TD*%
D17*
%TO.C,J6*%
X267500000Y-82260000D03*
D10*
X267500000Y-84800000D03*
X267500000Y-87340000D03*
X267500000Y-89880000D03*
X267500000Y-92420000D03*
%TD*%
D15*
%TO.C,D4*%
X84340000Y-55520000D03*
D16*
X76720000Y-55520000D03*
%TD*%
%TO.C,D32*%
X228120000Y-106650000D03*
D18*
X228120000Y-99030000D03*
%TD*%
D17*
%TO.C,U1*%
X249450000Y-42650000D03*
D10*
X249450000Y-45190000D03*
X249450000Y-47730000D03*
X249450000Y-50270000D03*
X249450000Y-52810000D03*
X249450000Y-55350000D03*
X249450000Y-57890000D03*
X249450000Y-60430000D03*
X249450000Y-62970000D03*
D17*
X252040000Y-62970000D03*
D10*
X254580000Y-62970000D03*
X257120000Y-62970000D03*
X259660000Y-62970000D03*
X262200000Y-62970000D03*
X264690000Y-62970000D03*
X264690000Y-60430000D03*
X264690000Y-57890000D03*
X264690000Y-55350000D03*
X264690000Y-52810000D03*
X264690000Y-50270000D03*
X264690000Y-47730000D03*
X264690000Y-45190000D03*
D17*
X264690000Y-42650000D03*
%TD*%
M02*
