M48
; DRILL file {KiCad 9.0.7} date 2026-01-24T03:10:24+0900
; FORMAT={-:-/ absolute / metric / decimal}
; #@! TF.CreationDate,2026-01-24T03:10:24+09:00
; #@! TF.GenerationSoftware,Kicad,Pcbnew,9.0.7
; #@! TF.FileFunction,NonPlated,1,2,NPTH
FMAT,2
METRIC
; #@! TA.AperFunction,NonPlated,NPTH,ComponentDrill
T1C1.700
; #@! TA.AperFunction,NonPlated,NPTH,ComponentDrill
T2C3.000
; #@! TA.AperFunction,NonPlated,NPTH,ComponentDrill
T3C4.000
%
G90
G05
T1
X34.42Y-50.01
X34.42Y-69.51
X34.42Y-108.51
X34.42Y-128.01
X34.42Y-147.51
X44.58Y-50.01
X44.58Y-69.51
X44.58Y-108.51
X44.58Y-128.01
X44.58Y-147.51
X53.92Y-50.01
X53.92Y-69.51
X53.92Y-108.51
X53.92Y-128.01
X53.92Y-147.51
X64.08Y-50.01
X64.08Y-69.51
X64.08Y-108.51
X64.08Y-128.01
X64.08Y-147.51
X73.42Y-50.01
X73.42Y-69.51
X73.42Y-108.51
X73.42Y-128.01
X73.42Y-147.51
X83.58Y-50.01
X83.58Y-69.51
X83.58Y-108.51
X83.58Y-128.01
X83.58Y-147.51
X112.42Y-50.01
X112.42Y-69.51
X112.42Y-108.51
X112.42Y-128.01
X112.42Y-147.51
X122.58Y-50.01
X122.58Y-69.51
X122.58Y-108.51
X122.58Y-128.01
X122.58Y-147.51
X131.92Y-50.01
X131.92Y-69.51
X131.92Y-108.51
X131.92Y-128.01
X131.92Y-147.51
X142.08Y-50.01
X142.08Y-69.51
X142.08Y-108.51
X142.08Y-128.01
X142.08Y-147.51
X151.42Y-50.01
X151.42Y-69.51
X151.42Y-108.51
X151.42Y-128.01
X151.42Y-147.51
X161.58Y-50.01
X161.58Y-69.51
X161.58Y-108.51
X161.58Y-128.01
X161.58Y-147.51
T2
X35.69Y-47.47
X35.69Y-66.97
X35.69Y-105.97
X35.69Y-125.47
X35.69Y-144.97
X42.04Y-44.93
X42.04Y-64.43
X42.04Y-103.43
X42.04Y-122.93
X42.04Y-142.43
X55.19Y-47.47
X55.19Y-66.97
X55.19Y-105.97
X55.19Y-125.47
X55.19Y-144.97
X61.54Y-44.93
X61.54Y-64.43
X61.54Y-103.43
X61.54Y-122.93
X61.54Y-142.43
X74.69Y-47.47
X74.69Y-66.97
X74.69Y-105.97
X74.69Y-125.47
X74.69Y-144.97
X81.04Y-44.93
X81.04Y-64.43
X81.04Y-103.43
X81.04Y-122.93
X81.04Y-142.43
X113.69Y-47.47
X113.69Y-66.97
X113.69Y-105.97
X113.69Y-125.47
X113.69Y-144.97
X120.04Y-44.93
X120.04Y-64.43
X120.04Y-103.43
X120.04Y-122.93
X120.04Y-142.43
X133.19Y-47.47
X133.19Y-66.97
X133.19Y-105.97
X133.19Y-125.47
X133.19Y-144.97
X139.54Y-44.93
X139.54Y-64.43
X139.54Y-103.43
X139.54Y-122.93
X139.54Y-142.43
X152.69Y-47.47
X152.69Y-66.97
X152.69Y-105.97
X152.69Y-125.47
X152.69Y-144.97
X159.04Y-44.93
X159.04Y-64.43
X159.04Y-103.43
X159.04Y-122.93
X159.04Y-142.43
T3
X39.5Y-50.01
X39.5Y-69.51
X39.5Y-108.51
X39.5Y-128.01
X39.5Y-147.51
X59.0Y-50.01
X59.0Y-69.51
X59.0Y-108.51
X59.0Y-128.01
X59.0Y-147.51
X78.5Y-50.01
X78.5Y-69.51
X78.5Y-108.51
X78.5Y-128.01
X78.5Y-147.51
X117.5Y-50.01
X117.5Y-69.51
X117.5Y-108.51
X117.5Y-128.01
X117.5Y-147.51
X137.0Y-50.01
X137.0Y-69.51
X137.0Y-108.51
X137.0Y-128.01
X137.0Y-147.51
X156.5Y-50.01
X156.5Y-69.51
X156.5Y-108.51
X156.5Y-128.01
X156.5Y-147.51
M30
