M48
; DRILL file {KiCad 9.0.7} date 2026-01-24T03:10:24+0900
; FORMAT={-:-/ absolute / metric / decimal}
; #@! TF.CreationDate,2026-01-24T03:10:24+09:00
; #@! TF.GenerationSoftware,Kicad,Pcbnew,9.0.7
; #@! TF.FileFunction,Plated,1,2,PTH
FMAT,2
METRIC
; #@! TA.AperFunction,Plated,PTH,ViaDrill
T1C0.300
; #@! TA.AperFunction,Plated,PTH,ComponentDrill
T2C0.800
; #@! TA.AperFunction,Plated,PTH,ComponentDrill
T3C1.000
; #@! TA.AperFunction,Plated,PTH,ComponentDrill
T4C1.500
%
G90
G05
T1
X231.96Y-57.95
X231.96Y-65.57
X234.5Y-57.95
X234.5Y-65.57
X234.5Y-80.81
X237.04Y-57.95
X237.04Y-65.57
X242.12Y-45.25
X244.66Y-70.65
T2
X37.53Y-113.96
X37.53Y-133.46
X37.64Y-75.1
X37.71Y-55.82
X37.75Y-153.19
X45.15Y-113.96
X45.15Y-133.46
X45.26Y-75.1
X45.33Y-55.82
X45.37Y-153.19
X56.99Y-75.17
X57.03Y-153.08
X57.14Y-55.6
X57.37Y-114.07
X57.37Y-133.69
X64.61Y-75.17
X64.65Y-153.08
X64.76Y-55.6
X64.99Y-114.07
X64.99Y-133.69
X76.27Y-75.25
X76.54Y-114.07
X76.54Y-133.58
X76.72Y-55.52
X76.99Y-153.08
X83.89Y-75.25
X84.16Y-114.07
X84.16Y-133.58
X84.34Y-55.52
X84.61Y-153.08
X115.43Y-114.07
X115.5Y-55.6
X115.65Y-74.8
X115.66Y-133.35
X115.66Y-153.19
X123.05Y-114.07
X123.12Y-55.6
X123.27Y-74.8
X123.28Y-133.35
X123.28Y-153.19
X134.78Y-75.02
X135.01Y-55.6
X135.05Y-113.96
X135.05Y-153.08
X135.16Y-133.46
X142.4Y-75.02
X142.63Y-55.6
X142.67Y-113.96
X142.67Y-153.08
X142.78Y-133.46
X154.44Y-75.02
X154.66Y-55.45
X154.66Y-153.08
X154.78Y-133.46
X155.0Y-114.3
X162.06Y-75.02
X162.28Y-55.45
X162.28Y-153.08
X162.4Y-133.46
X162.62Y-114.3
X228.12Y-99.03
X228.12Y-106.65
T3
X179.7Y-43.98
X179.7Y-46.52
X179.7Y-49.06
X179.7Y-51.6
X208.2Y-106.504
X208.2Y-109.004
X208.2Y-111.504
X222.7Y-106.504
X222.7Y-111.504
X249.45Y-42.65
X249.45Y-45.19
X249.45Y-47.73
X249.45Y-50.27
X249.45Y-52.81
X249.45Y-55.35
X249.45Y-57.89
X249.45Y-60.43
X249.45Y-62.97
X252.04Y-62.97
X254.58Y-62.97
X257.12Y-62.97
X259.66Y-62.97
X260.335Y-87.085
X260.335Y-89.625
X260.335Y-92.165
X262.2Y-62.97
X264.69Y-42.65
X264.69Y-45.19
X264.69Y-47.73
X264.69Y-50.27
X264.69Y-52.81
X264.69Y-55.35
X264.69Y-57.89
X264.69Y-60.43
X264.69Y-62.97
X267.5Y-82.26
X267.5Y-84.8
X267.5Y-87.34
X267.5Y-89.88
X267.5Y-92.42
T4
G00X215.05Y-103.404
M15
G01X216.35Y-103.404
M16
G05
G00X215.05Y-114.604
M15
G01X216.35Y-114.604
M16
G05
M30
