%TF.GenerationSoftware,KiCad,Pcbnew,9.0.7*%
%TF.CreationDate,2026-01-24T03:10:21+09:00*%
%TF.ProjectId,YmmKeyboardMX,596d6d4b-6579-4626-9f61-72644d582e6b,rev?*%
%TF.SameCoordinates,Original*%
%TF.FileFunction,Copper,L1,Top*%
%TF.FilePolarity,Positive*%
%FSLAX46Y46*%
G04 Gerber Fmt 4.6, Leading zero omitted, Abs format (unit mm)*
G04 Created by KiCad (PCBNEW 9.0.7) date 2026-01-24 03:10:21*
%MOMM*%
%LPD*%
G01*
G04 APERTURE LIST*
G04 Aperture macros list*
%AMRoundRect*
0 Rectangle with rounded corners*
0 $1 Rounding radius*
0 $2 $3 $4 $5 $6 $7 $8 $9 X,Y pos of 4 corners*
0 Add a 4 corners polygon primitive as box body*
4,1,4,$2,$3,$4,$5,$6,$7,$8,$9,$2,$3,0*
0 Add four circle primitives for the rounded corners*
1,1,$1+$1,$2,$3*
1,1,$1+$1,$4,$5*
1,1,$1+$1,$6,$7*
1,1,$1+$1,$8,$9*
0 Add four rect primitives between the rounded corners*
20,1,$1+$1,$2,$3,$4,$5,0*
20,1,$1+$1,$4,$5,$6,$7,0*
20,1,$1+$1,$6,$7,$8,$9,0*
20,1,$1+$1,$8,$9,$2,$3,0*%
G04 Aperture macros list end*
%TA.AperFunction,ComponentPad*%
%ADD10C,2.000000*%
%TD*%
%TA.AperFunction,ComponentPad*%
%ADD11R,3.200000X2.000000*%
%TD*%
%TA.AperFunction,ComponentPad*%
%ADD12R,2.000000X2.000000*%
%TD*%
%TA.AperFunction,ComponentPad*%
%ADD13RoundRect,0.250000X0.550000X0.550000X-0.550000X0.550000X-0.550000X-0.550000X0.550000X-0.550000X0*%
%TD*%
%TA.AperFunction,ComponentPad*%
%ADD14C,1.600000*%
%TD*%
%TA.AperFunction,ComponentPad*%
%ADD15C,1.700000*%
%TD*%
%TA.AperFunction,ComponentPad*%
%ADD16R,1.700000X1.700000*%
%TD*%
%TA.AperFunction,ComponentPad*%
%ADD17RoundRect,0.250000X-0.550000X0.550000X-0.550000X-0.550000X0.550000X-0.550000X0.550000X0.550000X0*%
%TD*%
%TA.AperFunction,ViaPad*%
%ADD18C,0.600000*%
%TD*%
%TA.AperFunction,Conductor*%
%ADD19C,0.200000*%
%TD*%
G04 APERTURE END LIST*
D10*
%TO.P,SW56,S2,S2*%
%TO.N,Net-(D32-A)*%
X222700000Y-106504000D03*
%TO.P,SW56,S1,S1*%
%TO.N,Net-(SW56-PadS1)*%
X222700000Y-111504000D03*
D11*
%TO.P,SW56,MP*%
%TO.N,N/C*%
X215700000Y-114604000D03*
X215700000Y-103404000D03*
D10*
%TO.P,SW56,C,C*%
%TO.N,Net-(J4-Pin_2)*%
X208200000Y-109004000D03*
%TO.P,SW56,B,B*%
%TO.N,Net-(SW56-PadB)*%
X208200000Y-111504000D03*
D12*
%TO.P,SW56,A,A*%
%TO.N,Net-(SW56-PadA)*%
X208200000Y-106504000D03*
%TD*%
D13*
%TO.P,D3,1,K*%
%TO.N,Net-(D3-K)*%
X64760000Y-55600000D03*
D14*
%TO.P,D3,2,A*%
%TO.N,Net-(D2-K)*%
X57140000Y-55600000D03*
%TD*%
%TO.P,D13,2,A*%
%TO.N,Net-(D12-K)*%
X154440000Y-75020000D03*
D13*
%TO.P,D13,1,K*%
%TO.N,Net-(D13-K)*%
X162060000Y-75020000D03*
%TD*%
D14*
%TO.P,D27,2,A*%
%TO.N,Net-(D26-K)*%
X57030000Y-153080000D03*
D13*
%TO.P,D27,1,K*%
%TO.N,Net-(D27-K)*%
X64650000Y-153080000D03*
%TD*%
D14*
%TO.P,D8,2,A*%
%TO.N,Net-(D8-A)*%
X37640000Y-75100000D03*
D13*
%TO.P,D8,1,K*%
%TO.N,Net-(D8-K)*%
X45260000Y-75100000D03*
%TD*%
D14*
%TO.P,D17,2,A*%
%TO.N,Net-(D16-K)*%
X115430000Y-114070000D03*
D13*
%TO.P,D17,1,K*%
%TO.N,Net-(D17-K)*%
X123050000Y-114070000D03*
%TD*%
D14*
%TO.P,D2,2,A*%
%TO.N,Net-(D2-A)*%
X37710000Y-55820000D03*
D13*
%TO.P,D2,1,K*%
%TO.N,Net-(D2-K)*%
X45330000Y-55820000D03*
%TD*%
D14*
%TO.P,D18,2,A*%
%TO.N,Net-(D17-K)*%
X135050000Y-113960000D03*
D13*
%TO.P,D18,1,K*%
%TO.N,Net-(D18-K)*%
X142670000Y-113960000D03*
%TD*%
D14*
%TO.P,D19,2,A*%
%TO.N,Net-(D18-K)*%
X155000000Y-114300000D03*
D13*
%TO.P,D19,1,K*%
%TO.N,Net-(D19-K)*%
X162620000Y-114300000D03*
%TD*%
D14*
%TO.P,D24,2,A*%
%TO.N,Net-(D23-K)*%
X135160000Y-133460000D03*
D13*
%TO.P,D24,1,K*%
%TO.N,Net-(D24-K)*%
X142780000Y-133460000D03*
%TD*%
D14*
%TO.P,D16,2,A*%
%TO.N,Net-(D15-K)*%
X76540000Y-114070000D03*
D13*
%TO.P,D16,1,K*%
%TO.N,Net-(D16-K)*%
X84160000Y-114070000D03*
%TD*%
D14*
%TO.P,D7,2,A*%
%TO.N,Net-(D6-K)*%
X154660000Y-55450000D03*
D13*
%TO.P,D7,1,K*%
%TO.N,Net-(D7-K)*%
X162280000Y-55450000D03*
%TD*%
D14*
%TO.P,D31,2,A*%
%TO.N,Net-(D30-K)*%
X154660000Y-153080000D03*
D13*
%TO.P,D31,1,K*%
%TO.N,Net-(D31-K)*%
X162280000Y-153080000D03*
%TD*%
D14*
%TO.P,D30,2,A*%
%TO.N,Net-(D29-K)*%
X135050000Y-153080000D03*
D13*
%TO.P,D30,1,K*%
%TO.N,Net-(D30-K)*%
X142670000Y-153080000D03*
%TD*%
D14*
%TO.P,D21,2,A*%
%TO.N,Net-(D20-K)*%
X57370000Y-133690000D03*
D13*
%TO.P,D21,1,K*%
%TO.N,Net-(D21-K)*%
X64990000Y-133690000D03*
%TD*%
D14*
%TO.P,D25,2,A*%
%TO.N,Net-(D24-K)*%
X154780000Y-133460000D03*
D13*
%TO.P,D25,1,K*%
%TO.N,Net-(D25-K)*%
X162400000Y-133460000D03*
%TD*%
D14*
%TO.P,D29,2,A*%
%TO.N,Net-(D28-K)*%
X115660000Y-153190000D03*
D13*
%TO.P,D29,1,K*%
%TO.N,Net-(D29-K)*%
X123280000Y-153190000D03*
%TD*%
D14*
%TO.P,D26,2,A*%
%TO.N,Net-(D26-A)*%
X37750000Y-153190000D03*
D13*
%TO.P,D26,1,K*%
%TO.N,Net-(D26-K)*%
X45370000Y-153190000D03*
%TD*%
D14*
%TO.P,D20,2,A*%
%TO.N,Net-(D20-A)*%
X37530000Y-133460000D03*
D13*
%TO.P,D20,1,K*%
%TO.N,Net-(D20-K)*%
X45150000Y-133460000D03*
%TD*%
D14*
%TO.P,D5,2,A*%
%TO.N,Net-(D4-K)*%
X115500000Y-55600000D03*
D13*
%TO.P,D5,1,K*%
%TO.N,Net-(D5-K)*%
X123120000Y-55600000D03*
%TD*%
D14*
%TO.P,D14,2,A*%
%TO.N,Net-(D14-A)*%
X37530000Y-113960000D03*
D13*
%TO.P,D14,1,K*%
%TO.N,Net-(D14-K)*%
X45150000Y-113960000D03*
%TD*%
D14*
%TO.P,D12,2,A*%
%TO.N,Net-(D11-K)*%
X134780000Y-75020000D03*
D13*
%TO.P,D12,1,K*%
%TO.N,Net-(D12-K)*%
X142400000Y-75020000D03*
%TD*%
D14*
%TO.P,D11,2,A*%
%TO.N,Net-(D10-K)*%
X115650000Y-74800000D03*
D13*
%TO.P,D11,1,K*%
%TO.N,Net-(D11-K)*%
X123270000Y-74800000D03*
%TD*%
D14*
%TO.P,D15,2,A*%
%TO.N,Net-(D14-K)*%
X57370000Y-114070000D03*
D13*
%TO.P,D15,1,K*%
%TO.N,Net-(D15-K)*%
X64990000Y-114070000D03*
%TD*%
D14*
%TO.P,D9,2,A*%
%TO.N,Net-(D8-K)*%
X56990000Y-75170000D03*
D13*
%TO.P,D9,1,K*%
%TO.N,Net-(D10-A)*%
X64610000Y-75170000D03*
%TD*%
D14*
%TO.P,D6,2,A*%
%TO.N,Net-(D5-K)*%
X135010000Y-55600000D03*
D13*
%TO.P,D6,1,K*%
%TO.N,Net-(D6-K)*%
X142630000Y-55600000D03*
%TD*%
D14*
%TO.P,D28,2,A*%
%TO.N,Net-(D27-K)*%
X76990000Y-153080000D03*
D13*
%TO.P,D28,1,K*%
%TO.N,Net-(D28-K)*%
X84610000Y-153080000D03*
%TD*%
D14*
%TO.P,D23,2,A*%
%TO.N,Net-(D22-K)*%
X115660000Y-133350000D03*
D13*
%TO.P,D23,1,K*%
%TO.N,Net-(D23-K)*%
X123280000Y-133350000D03*
%TD*%
D14*
%TO.P,D22,2,A*%
%TO.N,Net-(D21-K)*%
X76540000Y-133580000D03*
D13*
%TO.P,D22,1,K*%
%TO.N,Net-(D22-K)*%
X84160000Y-133580000D03*
%TD*%
D14*
%TO.P,D10,2,A*%
%TO.N,Net-(D10-A)*%
X76270000Y-75250000D03*
D13*
%TO.P,D10,1,K*%
%TO.N,Net-(D10-K)*%
X83890000Y-75250000D03*
%TD*%
D15*
%TO.P,J5,3,Pin_3*%
%TO.N,Net-(J5-Pin_3)*%
X260335000Y-92165000D03*
%TO.P,J5,2,Pin_2*%
%TO.N,Net-(J4-Pin_2)*%
X260335000Y-89625000D03*
D16*
%TO.P,J5,1,Pin_1*%
%TO.N,Net-(J5-Pin_1)*%
X260335000Y-87085000D03*
%TD*%
%TO.P,J4,1,Pin_1*%
%TO.N,Net-(J4-Pin_1)*%
X179700000Y-43980000D03*
D15*
%TO.P,J4,2,Pin_2*%
%TO.N,Net-(J4-Pin_2)*%
X179700000Y-46520000D03*
%TO.P,J4,3,Pin_3*%
%TO.N,Net-(J4-Pin_3)*%
X179700000Y-49060000D03*
%TO.P,J4,4,Pin_4*%
%TO.N,Net-(J4-Pin_4)*%
X179700000Y-51600000D03*
%TD*%
D16*
%TO.P,J6,1,Pin_1*%
%TO.N,Net-(J5-Pin_1)*%
X267500000Y-82260000D03*
D15*
%TO.P,J6,2,Pin_2*%
%TO.N,Net-(J4-Pin_1)*%
X267500000Y-84800000D03*
%TO.P,J6,3,Pin_3*%
%TO.N,Net-(J4-Pin_2)*%
X267500000Y-87340000D03*
%TO.P,J6,4,Pin_4*%
%TO.N,Net-(J6-Pin_4)*%
X267500000Y-89880000D03*
%TO.P,J6,5,Pin_5*%
%TO.N,Net-(J6-Pin_5)*%
X267500000Y-92420000D03*
%TD*%
D13*
%TO.P,D4,1,K*%
%TO.N,Net-(D4-K)*%
X84340000Y-55520000D03*
D14*
%TO.P,D4,2,A*%
%TO.N,Net-(D3-K)*%
X76720000Y-55520000D03*
%TD*%
%TO.P,D32,2,A*%
%TO.N,Net-(D32-A)*%
X228120000Y-106650000D03*
D17*
%TO.P,D32,1,K*%
%TO.N,Net-(D32-K)*%
X228120000Y-99030000D03*
%TD*%
D16*
%TO.P,U1,32,5V*%
%TO.N,Net-(J5-Pin_1)*%
X249450000Y-42650000D03*
D15*
%TO.P,U1,31,GND*%
%TO.N,Net-(J4-Pin_2)*%
X249450000Y-45190000D03*
%TO.P,U1,30,3V3*%
%TO.N,Net-(J4-Pin_1)*%
X249450000Y-47730000D03*
%TO.P,U1,29,29*%
%TO.N,Net-(D32-K)*%
X249450000Y-50270000D03*
%TO.P,U1,28,28*%
%TO.N,Net-(D7-K)*%
X249450000Y-52810000D03*
%TO.P,U1,27,27*%
%TO.N,Net-(D13-K)*%
X249450000Y-55350000D03*
%TO.P,U1,26,26*%
%TO.N,Net-(D19-K)*%
X249450000Y-57890000D03*
%TO.P,U1,15,15*%
%TO.N,Net-(D25-K)*%
X249450000Y-60430000D03*
%TO.P,U1,14,14*%
%TO.N,Net-(D31-K)*%
X249450000Y-62970000D03*
D16*
%TO.P,U1,13,13*%
%TO.N,Net-(J4-Pin_4)*%
X252040000Y-62970000D03*
D15*
%TO.P,U1,12,12*%
%TO.N,Net-(J4-Pin_3)*%
X254580000Y-62970000D03*
%TO.P,U1,11,11*%
%TO.N,Net-(J6-Pin_5)*%
X257120000Y-62970000D03*
%TO.P,U1,10,10*%
%TO.N,Net-(J6-Pin_4)*%
X259660000Y-62970000D03*
%TO.P,U1,9,9*%
%TO.N,Net-(J5-Pin_3)*%
X262200000Y-62970000D03*
%TO.P,U1,8,8*%
%TO.N,Net-(SW00-Pad1)*%
X264690000Y-62970000D03*
%TO.P,U1,7,7*%
%TO.N,Net-(211-Pad1)*%
X264690000Y-60430000D03*
%TO.P,U1,6,6*%
%TO.N,Net-(SW02-Pad1)*%
X264690000Y-57890000D03*
%TO.P,U1,5,5*%
%TO.N,Net-(SW03-Pad1)*%
X264690000Y-55350000D03*
%TO.P,U1,4,4*%
%TO.N,Net-(SW04-Pad1)*%
X264690000Y-52810000D03*
%TO.P,U1,3,3*%
%TO.N,Net-(SW05-Pad1)*%
X264690000Y-50270000D03*
%TO.P,U1,2,2*%
%TO.N,Net-(SW56-PadS1)*%
X264690000Y-47730000D03*
%TO.P,U1,1,1*%
%TO.N,Net-(SW56-PadB)*%
X264690000Y-45190000D03*
D16*
%TO.P,U1,0,0*%
%TO.N,Net-(SW56-PadA)*%
X264690000Y-42650000D03*
%TD*%
D18*
%TO.N,Net-(J4-Pin_2)*%
X242120000Y-45250000D03*
X231960000Y-57950000D03*
X231960000Y-65570000D03*
%TO.N,Net-(SW56-PadA)*%
X237040000Y-57950000D03*
%TO.N,Net-(D32-K)*%
X234500000Y-57950000D03*
X234500000Y-65570000D03*
%TO.N,Net-(SW56-PadA)*%
X237040000Y-65570000D03*
X244660000Y-70650000D03*
%TO.N,Net-(D32-K)*%
X234500000Y-80810000D03*
%TD*%
D19*
%TO.N,Net-(D31-K)*%
X247981000Y-64121000D02*
X162280000Y-149822000D01*
X248299000Y-64121000D02*
X247981000Y-64121000D01*
X162280000Y-149822000D02*
X162280000Y-153080000D01*
X249450000Y-62970000D02*
X248299000Y-64121000D01*
%TO.N,Net-(J4-Pin_1)*%
X249450000Y-47730000D02*
X248920000Y-48260000D01*
%TO.N,Net-(J4-Pin_2)*%
X163065160Y-154181000D02*
X208200000Y-109046160D01*
X161494840Y-154181000D02*
X163065160Y-154181000D01*
X161179000Y-153865160D02*
X161494840Y-154181000D01*
X163185160Y-148127740D02*
X161179000Y-150133900D01*
X163185160Y-136131320D02*
X163185160Y-148127740D01*
X161299000Y-134245160D02*
X163185160Y-136131320D01*
X161299000Y-132674840D02*
X161299000Y-134245160D01*
X208200000Y-109046160D02*
X208200000Y-109004000D01*
X163405160Y-116971320D02*
X163405160Y-130568680D01*
X161519000Y-115085160D02*
X163405160Y-116971320D01*
X161519000Y-113514840D02*
X161519000Y-115085160D01*
X162845160Y-112188680D02*
X161519000Y-113514840D01*
X163405160Y-130568680D02*
X161299000Y-132674840D01*
X161179000Y-150133900D02*
X161179000Y-153865160D01*
X162845160Y-77691320D02*
X162845160Y-112188680D01*
X160959000Y-75805160D02*
X162845160Y-77691320D01*
X160959000Y-74234840D02*
X160959000Y-75805160D01*
X163065160Y-58121320D02*
X163065160Y-72128680D01*
X161179000Y-54664840D02*
X161179000Y-56235160D01*
X161179000Y-56235160D02*
X163065160Y-58121320D01*
X169483840Y-46360000D02*
X161179000Y-54664840D01*
X163065160Y-72128680D02*
X160959000Y-74234840D01*
X179540000Y-46360000D02*
X169483840Y-46360000D01*
X179700000Y-46520000D02*
X179540000Y-46360000D01*
X249049000Y-44789000D02*
X249166450Y-44906450D01*
X242120000Y-45250000D02*
X242581000Y-44789000D01*
X242581000Y-44789000D02*
X249049000Y-44789000D01*
X231960000Y-65570000D02*
X231960000Y-57950000D01*
%TO.N,Net-(SW56-PadA)*%
X237040000Y-65570000D02*
X237040000Y-57950000D01*
%TO.N,Net-(D32-K)*%
X234500000Y-65570000D02*
X234500000Y-57950000D01*
%TO.N,Net-(SW56-PadA)*%
X242120000Y-73190000D02*
X244660000Y-70650000D01*
X242120000Y-83350000D02*
X242120000Y-73190000D01*
X242120000Y-86916160D02*
X242120000Y-83350000D01*
X228905160Y-100131000D02*
X242120000Y-86916160D01*
X214573000Y-100131000D02*
X228905160Y-100131000D01*
X208200000Y-106504000D02*
X214573000Y-100131000D01*
%TO.N,Net-(SW56-PadB)*%
X245249240Y-112805000D02*
X267023240Y-91031000D01*
X269453000Y-89554760D02*
X269453000Y-49953000D01*
X209501000Y-112805000D02*
X245249240Y-112805000D01*
X267976760Y-91031000D02*
X269453000Y-89554760D01*
X269453000Y-49953000D02*
X264690000Y-45190000D01*
X208200000Y-111504000D02*
X209501000Y-112805000D01*
X267023240Y-91031000D02*
X267976760Y-91031000D01*
%TO.N,Net-(SW56-PadS1)*%
X269052000Y-52092000D02*
X264690000Y-47730000D01*
X269052000Y-87415760D02*
X269052000Y-52092000D01*
X267976760Y-88491000D02*
X269052000Y-87415760D01*
X267023240Y-88491000D02*
X267976760Y-88491000D01*
X244010240Y-111504000D02*
X267023240Y-88491000D01*
X222700000Y-111504000D02*
X244010240Y-111504000D01*
%TO.N,Net-(D32-K)*%
X228120000Y-87190000D02*
X234500000Y-80810000D01*
X228120000Y-99030000D02*
X228120000Y-87190000D01*
%TO.N,Net-(J5-Pin_1)*%
X267976760Y-85951000D02*
X268651000Y-85276760D01*
X261469000Y-85951000D02*
X267976760Y-85951000D01*
X268651000Y-83411000D02*
X267500000Y-82260000D01*
X260335000Y-87085000D02*
X261469000Y-85951000D01*
X268651000Y-85276760D02*
X268651000Y-83411000D01*
%TO.N,Net-(D25-K)*%
X176420000Y-133460000D02*
X249450000Y-60430000D01*
X162400000Y-133460000D02*
X176420000Y-133460000D01*
%TO.N,Net-(D19-K)*%
X193040000Y-114300000D02*
X249450000Y-57890000D01*
X162620000Y-114300000D02*
X193040000Y-114300000D01*
%TO.N,Net-(D13-K)*%
X229780000Y-75020000D02*
X249450000Y-55350000D01*
X162060000Y-75020000D02*
X229780000Y-75020000D01*
%TO.N,Net-(D7-K)*%
X246810000Y-55450000D02*
X249450000Y-52810000D01*
X162280000Y-55450000D02*
X246810000Y-55450000D01*
%TO.N,Net-(D30-K)*%
X142670000Y-153080000D02*
X154660000Y-153080000D01*
%TO.N,Net-(D29-K)*%
X134940000Y-153190000D02*
X135050000Y-153080000D01*
X123280000Y-153190000D02*
X134940000Y-153190000D01*
%TO.N,Net-(D23-K)*%
X135050000Y-133350000D02*
X135160000Y-133460000D01*
X123280000Y-133350000D02*
X135050000Y-133350000D01*
%TO.N,Net-(D24-K)*%
X142780000Y-133460000D02*
X154780000Y-133460000D01*
%TO.N,Net-(D18-K)*%
X154660000Y-113960000D02*
X155000000Y-114300000D01*
X142670000Y-113960000D02*
X154660000Y-113960000D01*
%TO.N,Net-(D17-K)*%
X134940000Y-114070000D02*
X135050000Y-113960000D01*
X123050000Y-114070000D02*
X134940000Y-114070000D01*
%TO.N,Net-(D28-K)*%
X115550000Y-153080000D02*
X115660000Y-153190000D01*
X84610000Y-153080000D02*
X115550000Y-153080000D01*
%TO.N,Net-(D27-K)*%
X64650000Y-153080000D02*
X76990000Y-153080000D01*
%TO.N,Net-(D26-K)*%
X56920000Y-153190000D02*
X57030000Y-153080000D01*
X45370000Y-153190000D02*
X56920000Y-153190000D01*
%TO.N,Net-(D22-K)*%
X115430000Y-133580000D02*
X115660000Y-133350000D01*
X84160000Y-133580000D02*
X115430000Y-133580000D01*
%TO.N,Net-(D21-K)*%
X76430000Y-133690000D02*
X76540000Y-133580000D01*
X64990000Y-133690000D02*
X76430000Y-133690000D01*
%TO.N,Net-(D20-K)*%
X57140000Y-133460000D02*
X57370000Y-133690000D01*
X45150000Y-133460000D02*
X57140000Y-133460000D01*
%TO.N,Net-(D16-K)*%
X84160000Y-114070000D02*
X115430000Y-114070000D01*
%TO.N,Net-(D15-K)*%
X64990000Y-114070000D02*
X76540000Y-114070000D01*
%TO.N,Net-(D14-K)*%
X45150000Y-113960000D02*
X57260000Y-113960000D01*
X57260000Y-113960000D02*
X57370000Y-114070000D01*
%TO.N,Net-(D12-K)*%
X142400000Y-75020000D02*
X154440000Y-75020000D01*
%TO.N,Net-(D11-K)*%
X134560000Y-74800000D02*
X134780000Y-75020000D01*
X123270000Y-74800000D02*
X134560000Y-74800000D01*
%TO.N,Net-(D10-K)*%
X115200000Y-75250000D02*
X115650000Y-74800000D01*
X83890000Y-75250000D02*
X115200000Y-75250000D01*
%TO.N,Net-(D10-A)*%
X76190000Y-75170000D02*
X76270000Y-75250000D01*
X64610000Y-75170000D02*
X76190000Y-75170000D01*
%TO.N,Net-(D8-K)*%
X56920000Y-75100000D02*
X56990000Y-75170000D01*
X45260000Y-75100000D02*
X56920000Y-75100000D01*
%TO.N,Net-(D6-K)*%
X154510000Y-55600000D02*
X154660000Y-55450000D01*
X142630000Y-55600000D02*
X154510000Y-55600000D01*
%TO.N,Net-(D5-K)*%
X123120000Y-55600000D02*
X135010000Y-55600000D01*
%TO.N,Net-(D4-K)*%
X84420000Y-55600000D02*
X115500000Y-55600000D01*
X84340000Y-55520000D02*
X84420000Y-55600000D01*
%TO.N,Net-(D3-K)*%
X64760000Y-55600000D02*
X76640000Y-55600000D01*
X76640000Y-55600000D02*
X76720000Y-55520000D01*
%TO.N,Net-(D2-K)*%
X45550000Y-55600000D02*
X57140000Y-55600000D01*
X45330000Y-55820000D02*
X45550000Y-55600000D01*
%TO.N,Net-(J4-Pin_2)*%
X208200000Y-109004000D02*
X240956000Y-109004000D01*
X240956000Y-109004000D02*
X260051450Y-89908550D01*
%TO.N,Net-(D32-A)*%
X222700000Y-106504000D02*
X227974000Y-106504000D01*
X227974000Y-106504000D02*
X228120000Y-106650000D01*
%TD*%
M02*
