%TF.GenerationSoftware,KiCad,Pcbnew,9.0.7*%
%TF.CreationDate,2026-01-24T03:10:21+09:00*%
%TF.ProjectId,YmmKeyboardMX,596d6d4b-6579-4626-9f61-72644d582e6b,rev?*%
%TF.SameCoordinates,Original*%
%TF.FileFunction,Legend,Top*%
%TF.FilePolarity,Positive*%
%FSLAX46Y46*%
G04 Gerber Fmt 4.6, Leading zero omitted, Abs format (unit mm)*
G04 Created by KiCad (PCBNEW 9.0.7) date 2026-01-24 03:10:21*
%MOMM*%
%LPD*%
G01*
G04 APERTURE LIST*
%ADD10C,0.150000*%
%ADD11C,0.120000*%
G04 APERTURE END LIST*
D10*
X209190476Y-102211200D02*
X209333333Y-102258819D01*
X209333333Y-102258819D02*
X209571428Y-102258819D01*
X209571428Y-102258819D02*
X209666666Y-102211200D01*
X209666666Y-102211200D02*
X209714285Y-102163580D01*
X209714285Y-102163580D02*
X209761904Y-102068342D01*
X209761904Y-102068342D02*
X209761904Y-101973104D01*
X209761904Y-101973104D02*
X209714285Y-101877866D01*
X209714285Y-101877866D02*
X209666666Y-101830247D01*
X209666666Y-101830247D02*
X209571428Y-101782628D01*
X209571428Y-101782628D02*
X209380952Y-101735009D01*
X209380952Y-101735009D02*
X209285714Y-101687390D01*
X209285714Y-101687390D02*
X209238095Y-101639771D01*
X209238095Y-101639771D02*
X209190476Y-101544533D01*
X209190476Y-101544533D02*
X209190476Y-101449295D01*
X209190476Y-101449295D02*
X209238095Y-101354057D01*
X209238095Y-101354057D02*
X209285714Y-101306438D01*
X209285714Y-101306438D02*
X209380952Y-101258819D01*
X209380952Y-101258819D02*
X209619047Y-101258819D01*
X209619047Y-101258819D02*
X209761904Y-101306438D01*
X210095238Y-101258819D02*
X210333333Y-102258819D01*
X210333333Y-102258819D02*
X210523809Y-101544533D01*
X210523809Y-101544533D02*
X210714285Y-102258819D01*
X210714285Y-102258819D02*
X210952381Y-101258819D01*
X211809523Y-101258819D02*
X211333333Y-101258819D01*
X211333333Y-101258819D02*
X211285714Y-101735009D01*
X211285714Y-101735009D02*
X211333333Y-101687390D01*
X211333333Y-101687390D02*
X211428571Y-101639771D01*
X211428571Y-101639771D02*
X211666666Y-101639771D01*
X211666666Y-101639771D02*
X211761904Y-101687390D01*
X211761904Y-101687390D02*
X211809523Y-101735009D01*
X211809523Y-101735009D02*
X211857142Y-101830247D01*
X211857142Y-101830247D02*
X211857142Y-102068342D01*
X211857142Y-102068342D02*
X211809523Y-102163580D01*
X211809523Y-102163580D02*
X211761904Y-102211200D01*
X211761904Y-102211200D02*
X211666666Y-102258819D01*
X211666666Y-102258819D02*
X211428571Y-102258819D01*
X211428571Y-102258819D02*
X211333333Y-102211200D01*
X211333333Y-102211200D02*
X211285714Y-102163580D01*
X212714285Y-101258819D02*
X212523809Y-101258819D01*
X212523809Y-101258819D02*
X212428571Y-101306438D01*
X212428571Y-101306438D02*
X212380952Y-101354057D01*
X212380952Y-101354057D02*
X212285714Y-101496914D01*
X212285714Y-101496914D02*
X212238095Y-101687390D01*
X212238095Y-101687390D02*
X212238095Y-102068342D01*
X212238095Y-102068342D02*
X212285714Y-102163580D01*
X212285714Y-102163580D02*
X212333333Y-102211200D01*
X212333333Y-102211200D02*
X212428571Y-102258819D01*
X212428571Y-102258819D02*
X212619047Y-102258819D01*
X212619047Y-102258819D02*
X212714285Y-102211200D01*
X212714285Y-102211200D02*
X212761904Y-102163580D01*
X212761904Y-102163580D02*
X212809523Y-102068342D01*
X212809523Y-102068342D02*
X212809523Y-101830247D01*
X212809523Y-101830247D02*
X212761904Y-101735009D01*
X212761904Y-101735009D02*
X212714285Y-101687390D01*
X212714285Y-101687390D02*
X212619047Y-101639771D01*
X212619047Y-101639771D02*
X212428571Y-101639771D01*
X212428571Y-101639771D02*
X212333333Y-101687390D01*
X212333333Y-101687390D02*
X212285714Y-101735009D01*
X212285714Y-101735009D02*
X212238095Y-101830247D01*
X260001666Y-83769819D02*
X260001666Y-84484104D01*
X260001666Y-84484104D02*
X259954047Y-84626961D01*
X259954047Y-84626961D02*
X259858809Y-84722200D01*
X259858809Y-84722200D02*
X259715952Y-84769819D01*
X259715952Y-84769819D02*
X259620714Y-84769819D01*
X260954047Y-83769819D02*
X260477857Y-83769819D01*
X260477857Y-83769819D02*
X260430238Y-84246009D01*
X260430238Y-84246009D02*
X260477857Y-84198390D01*
X260477857Y-84198390D02*
X260573095Y-84150771D01*
X260573095Y-84150771D02*
X260811190Y-84150771D01*
X260811190Y-84150771D02*
X260906428Y-84198390D01*
X260906428Y-84198390D02*
X260954047Y-84246009D01*
X260954047Y-84246009D02*
X261001666Y-84341247D01*
X261001666Y-84341247D02*
X261001666Y-84579342D01*
X261001666Y-84579342D02*
X260954047Y-84674580D01*
X260954047Y-84674580D02*
X260906428Y-84722200D01*
X260906428Y-84722200D02*
X260811190Y-84769819D01*
X260811190Y-84769819D02*
X260573095Y-84769819D01*
X260573095Y-84769819D02*
X260477857Y-84722200D01*
X260477857Y-84722200D02*
X260430238Y-84674580D01*
X179366666Y-40664819D02*
X179366666Y-41379104D01*
X179366666Y-41379104D02*
X179319047Y-41521961D01*
X179319047Y-41521961D02*
X179223809Y-41617200D01*
X179223809Y-41617200D02*
X179080952Y-41664819D01*
X179080952Y-41664819D02*
X178985714Y-41664819D01*
X180271428Y-40998152D02*
X180271428Y-41664819D01*
X180033333Y-40617200D02*
X179795238Y-41331485D01*
X179795238Y-41331485D02*
X180414285Y-41331485D01*
X267166666Y-78944819D02*
X267166666Y-79659104D01*
X267166666Y-79659104D02*
X267119047Y-79801961D01*
X267119047Y-79801961D02*
X267023809Y-79897200D01*
X267023809Y-79897200D02*
X266880952Y-79944819D01*
X266880952Y-79944819D02*
X266785714Y-79944819D01*
X268071428Y-78944819D02*
X267880952Y-78944819D01*
X267880952Y-78944819D02*
X267785714Y-78992438D01*
X267785714Y-78992438D02*
X267738095Y-79040057D01*
X267738095Y-79040057D02*
X267642857Y-79182914D01*
X267642857Y-79182914D02*
X267595238Y-79373390D01*
X267595238Y-79373390D02*
X267595238Y-79754342D01*
X267595238Y-79754342D02*
X267642857Y-79849580D01*
X267642857Y-79849580D02*
X267690476Y-79897200D01*
X267690476Y-79897200D02*
X267785714Y-79944819D01*
X267785714Y-79944819D02*
X267976190Y-79944819D01*
X267976190Y-79944819D02*
X268071428Y-79897200D01*
X268071428Y-79897200D02*
X268119047Y-79849580D01*
X268119047Y-79849580D02*
X268166666Y-79754342D01*
X268166666Y-79754342D02*
X268166666Y-79516247D01*
X268166666Y-79516247D02*
X268119047Y-79421009D01*
X268119047Y-79421009D02*
X268071428Y-79373390D01*
X268071428Y-79373390D02*
X267976190Y-79325771D01*
X267976190Y-79325771D02*
X267785714Y-79325771D01*
X267785714Y-79325771D02*
X267690476Y-79373390D01*
X267690476Y-79373390D02*
X267642857Y-79421009D01*
X267642857Y-79421009D02*
X267595238Y-79516247D01*
D11*
%TO.C,SW56*%
X218700000Y-109004000D02*
G75*
G02*
X212700000Y-109004000I-3000000J0D01*
G01*
X212700000Y-109004000D02*
G75*
G02*
X218700000Y-109004000I3000000J0D01*
G01*
X221800000Y-114904000D02*
X217700000Y-114904000D01*
X221800000Y-112504000D02*
X221800000Y-114904000D01*
X221800000Y-107704000D02*
X221800000Y-110304000D01*
X221800000Y-103104000D02*
X221800000Y-105504000D01*
X217700000Y-103104000D02*
X221800000Y-103104000D01*
X215700000Y-108504000D02*
X215700000Y-109504000D01*
X215200000Y-109004000D02*
X216200000Y-109004000D01*
X213700000Y-114904000D02*
X209600000Y-114904000D01*
X213700000Y-103104000D02*
X209600000Y-103104000D01*
X209600000Y-103104000D02*
X209600000Y-114904000D01*
X208500000Y-104904000D02*
X208200000Y-105204000D01*
X208200000Y-105204000D02*
X207900000Y-104904000D01*
X207900000Y-104904000D02*
X208500000Y-104904000D01*
%TO.C,J5*%
X261665000Y-88355000D02*
X261665000Y-93495000D01*
X261665000Y-85755000D02*
X261665000Y-87085000D01*
X260335000Y-85755000D02*
X261665000Y-85755000D01*
X259005000Y-93495000D02*
X261665000Y-93495000D01*
X259005000Y-88355000D02*
X261665000Y-88355000D01*
X259005000Y-88355000D02*
X259005000Y-93495000D01*
%TO.C,J4*%
X178370000Y-45250000D02*
X178370000Y-52930000D01*
X178370000Y-45250000D02*
X181030000Y-45250000D01*
X178370000Y-52930000D02*
X181030000Y-52930000D01*
X179700000Y-42650000D02*
X181030000Y-42650000D01*
X181030000Y-42650000D02*
X181030000Y-43980000D01*
X181030000Y-45250000D02*
X181030000Y-52930000D01*
%TO.C,J6*%
X266170000Y-83530000D02*
X266170000Y-93750000D01*
X266170000Y-83530000D02*
X268830000Y-83530000D01*
X266170000Y-93750000D02*
X268830000Y-93750000D01*
X267500000Y-80930000D02*
X268830000Y-80930000D01*
X268830000Y-80930000D02*
X268830000Y-82260000D01*
X268830000Y-83530000D02*
X268830000Y-93750000D01*
%TO.C,U1*%
X266020000Y-43920000D02*
X266020000Y-64300000D01*
X266020000Y-41320000D02*
X266020000Y-42650000D01*
X264690000Y-41320000D02*
X266020000Y-41320000D01*
X263530000Y-64300000D02*
X263530000Y-61640000D01*
X263360000Y-64300000D02*
X266020000Y-64300000D01*
X263360000Y-43920000D02*
X266020000Y-43920000D01*
X263360000Y-43920000D02*
X263360000Y-64300000D01*
X253310000Y-64300000D02*
X263530000Y-64300000D01*
X253310000Y-64300000D02*
X253310000Y-61640000D01*
X253310000Y-61640000D02*
X263530000Y-61640000D01*
X250780000Y-43920000D02*
X250780000Y-64300000D01*
X250780000Y-41320000D02*
X250780000Y-42650000D01*
X250710000Y-62970000D02*
X250710000Y-61640000D01*
X250710000Y-61640000D02*
X252040000Y-61640000D01*
X249450000Y-41320000D02*
X250780000Y-41320000D01*
X248120000Y-64300000D02*
X250780000Y-64300000D01*
X248120000Y-43920000D02*
X250780000Y-43920000D01*
X248120000Y-43920000D02*
X248120000Y-64300000D01*
%TD*%
M02*
