%TF.GenerationSoftware,KiCad,Pcbnew,9.0.7*%
%TF.CreationDate,2026-01-24T03:10:21+09:00*%
%TF.ProjectId,YmmKeyboardMX,596d6d4b-6579-4626-9f61-72644d582e6b,rev?*%
%TF.SameCoordinates,Original*%
%TF.FileFunction,Paste,Bot*%
%TF.FilePolarity,Positive*%
%FSLAX46Y46*%
G04 Gerber Fmt 4.6, Leading zero omitted, Abs format (unit mm)*
G04 Created by KiCad (PCBNEW 9.0.7) date 2026-01-24 03:10:21*
%MOMM*%
%LPD*%
G01*
G04 APERTURE LIST*
%ADD10R,3.200000X2.780000*%
G04 APERTURE END LIST*
D10*
%TO.C,211*%
X65220000Y-103430000D03*
X51537000Y-105970000D03*
%TD*%
%TO.C,SW00*%
X45720000Y-44930000D03*
X32037000Y-47470000D03*
%TD*%
%TO.C,SW01*%
X65220000Y-44930000D03*
X51537000Y-47470000D03*
%TD*%
%TO.C,SW02*%
X84720000Y-44930000D03*
X71037000Y-47470000D03*
%TD*%
%TO.C,SW03*%
X123720000Y-44930000D03*
X110037000Y-47470000D03*
%TD*%
%TO.C,SW04*%
X143220000Y-44930000D03*
X129537000Y-47470000D03*
%TD*%
%TO.C,SW05*%
X162720000Y-44930000D03*
X149037000Y-47470000D03*
%TD*%
%TO.C,SW10*%
X45720000Y-64430000D03*
X32037000Y-66970000D03*
%TD*%
%TO.C,SW11*%
X65220000Y-64430000D03*
X51537000Y-66970000D03*
%TD*%
%TO.C,SW12*%
X84720000Y-64430000D03*
X71037000Y-66970000D03*
%TD*%
%TO.C,SW13*%
X123720000Y-64430000D03*
X110037000Y-66970000D03*
%TD*%
%TO.C,SW14*%
X143220000Y-64430000D03*
X129537000Y-66970000D03*
%TD*%
%TO.C,SW15*%
X162720000Y-64430000D03*
X149037000Y-66970000D03*
%TD*%
%TO.C,SW20*%
X45720000Y-103430000D03*
X32037000Y-105970000D03*
%TD*%
%TO.C,SW22*%
X84720000Y-103430000D03*
X71037000Y-105970000D03*
%TD*%
%TO.C,SW23*%
X123720000Y-103430000D03*
X110037000Y-105970000D03*
%TD*%
%TO.C,SW24*%
X143220000Y-103430000D03*
X129537000Y-105970000D03*
%TD*%
%TO.C,SW25*%
X162720000Y-103430000D03*
X149037000Y-105970000D03*
%TD*%
%TO.C,SW30*%
X45720000Y-122930000D03*
X32037000Y-125470000D03*
%TD*%
%TO.C,SW31*%
X65220000Y-122930000D03*
X51537000Y-125470000D03*
%TD*%
%TO.C,SW32*%
X84720000Y-122930000D03*
X71037000Y-125470000D03*
%TD*%
%TO.C,SW33*%
X123720000Y-122930000D03*
X110037000Y-125470000D03*
%TD*%
%TO.C,SW34*%
X143220000Y-122930000D03*
X129537000Y-125470000D03*
%TD*%
%TO.C,SW35*%
X162720000Y-122930000D03*
X149037000Y-125470000D03*
%TD*%
%TO.C,SW40*%
X45720000Y-142430000D03*
X32037000Y-144970000D03*
%TD*%
%TO.C,SW41*%
X65220000Y-142430000D03*
X51537000Y-144970000D03*
%TD*%
%TO.C,SW42*%
X84720000Y-142430000D03*
X71037000Y-144970000D03*
%TD*%
%TO.C,SW43*%
X123720000Y-142430000D03*
X110037000Y-144970000D03*
%TD*%
%TO.C,SW44*%
X143220000Y-142430000D03*
X129537000Y-144970000D03*
%TD*%
%TO.C,SW45*%
X162720000Y-142430000D03*
X149037000Y-144970000D03*
%TD*%
M02*
