M48
; DRILL file {KiCad 9.0.7} date 2026-01-22T21:08:32+0900
; FORMAT={-:-/ absolute / metric / decimal}
; #@! TF.CreationDate,2026-01-22T21:08:32+09:00
; #@! TF.GenerationSoftware,Kicad,Pcbnew,9.0.7
; #@! TF.FileFunction,Plated,1,2,PTH
FMAT,2
METRIC
; #@! TA.AperFunction,Plated,PTH,ViaDrill
T1C0.300
; #@! TA.AperFunction,Plated,PTH,ComponentDrill
T2C0.800
; #@! TA.AperFunction,Plated,PTH,ComponentDrill
T3C1.000
; #@! TA.AperFunction,Plated,PTH,ComponentDrill
T4C1.100
; #@! TA.AperFunction,Plated,PTH,ComponentDrill
T5C1.500
%
G90
G05
T1
X41.0Y-90.0
X72.0Y-78.0
X77.0Y-97.0
X80.0Y-100.0
X86.0Y-116.899
X96.5Y-88.0
X96.5Y-90.0
T2
X41.5Y-54.69
X41.5Y-62.31
X41.5Y-65.0
X41.5Y-72.62
X41.5Y-75.19
X41.5Y-82.81
X42.0Y-29.38
X42.0Y-37.0
X42.0Y-39.19
X42.0Y-46.81
X50.0Y-113.25
X56.5Y-29.19
X56.5Y-36.81
X56.5Y-39.19
X56.5Y-46.81
X56.5Y-54.69
X56.5Y-62.31
X56.5Y-65.0
X56.5Y-72.62
X56.5Y-75.19
X56.5Y-82.81
X57.62Y-113.25
X75.0Y-29.19
X75.0Y-36.81
X75.0Y-39.19
X75.0Y-46.81
X75.0Y-55.19
X75.0Y-62.81
X75.0Y-65.5
X75.0Y-73.12
X75.0Y-75.69
X75.0Y-83.31
X91.5Y-29.69
X91.5Y-37.31
X91.5Y-39.69
X91.5Y-47.31
X92.0Y-54.69
X92.0Y-62.31
X92.0Y-64.69
X92.0Y-72.31
X92.0Y-74.88
X92.0Y-82.5
X106.5Y-29.38
X106.5Y-37.0
X106.5Y-39.69
X106.5Y-47.31
X106.5Y-54.69
X106.5Y-62.31
X106.5Y-64.69
X106.5Y-72.31
X106.5Y-74.69
X106.5Y-82.31
X122.5Y-29.19
X122.5Y-36.81
X122.5Y-39.69
X122.5Y-47.31
X122.5Y-54.0
X122.5Y-61.62
X122.5Y-64.69
X122.5Y-72.31
X122.5Y-74.5
X122.5Y-82.12
T3
X45.0Y-94.5
X45.0Y-109.0
X47.5Y-94.5
X50.0Y-94.5
X50.0Y-109.0
X68.36Y-108.0
X68.4Y-93.0
X70.9Y-108.0
X70.94Y-93.0
X73.44Y-108.0
X73.48Y-93.0
X75.98Y-108.0
X76.02Y-93.0
X78.52Y-108.0
X78.56Y-93.0
X81.06Y-108.0
X81.1Y-93.0
X83.6Y-108.0
X83.64Y-93.0
X86.14Y-108.0
X86.18Y-93.0
X88.68Y-108.0
X88.72Y-93.0
X91.22Y-108.0
X91.26Y-93.0
T4
X30.75Y-65.75
X30.75Y-70.25
X31.0Y-31.0
X31.0Y-35.5
X31.0Y-41.0
X31.0Y-45.5
X31.0Y-56.0
X31.0Y-60.5
X31.0Y-76.0
X31.0Y-80.5
X37.25Y-65.75
X37.25Y-70.25
X37.5Y-31.0
X37.5Y-35.5
X37.5Y-41.0
X37.5Y-45.5
X37.5Y-56.0
X37.5Y-60.5
X37.5Y-76.0
X37.5Y-80.5
X45.95Y-41.0
X45.95Y-45.5
X46.0Y-31.0
X46.0Y-35.5
X46.0Y-56.0
X46.0Y-60.5
X46.0Y-66.0
X46.0Y-70.5
X46.0Y-76.0
X46.0Y-80.5
X52.45Y-41.0
X52.45Y-45.5
X52.5Y-31.0
X52.5Y-35.5
X52.5Y-56.0
X52.5Y-60.5
X52.5Y-66.0
X52.5Y-70.5
X52.5Y-76.0
X52.5Y-80.5
X61.0Y-31.0
X61.0Y-35.5
X61.0Y-41.0
X61.0Y-45.5
X61.0Y-56.0
X61.0Y-60.5
X61.0Y-66.0
X61.0Y-70.5
X61.0Y-76.0
X61.0Y-80.5
X67.5Y-31.0
X67.5Y-35.5
X67.5Y-41.0
X67.5Y-45.5
X67.5Y-56.0
X67.5Y-60.5
X67.5Y-66.0
X67.5Y-70.5
X67.5Y-76.0
X67.5Y-80.5
X80.75Y-40.75
X80.75Y-45.25
X81.0Y-31.0
X81.0Y-35.5
X81.0Y-66.0
X81.0Y-70.5
X81.0Y-76.0
X81.0Y-80.5
X81.25Y-56.25
X81.25Y-60.75
X87.25Y-40.75
X87.25Y-45.25
X87.5Y-31.0
X87.5Y-35.5
X87.5Y-66.0
X87.5Y-70.5
X87.5Y-76.0
X87.5Y-80.5
X87.75Y-56.25
X87.75Y-60.75
X95.75Y-65.75
X95.75Y-70.25
X96.0Y-31.0
X96.0Y-35.5
X96.0Y-41.0
X96.0Y-45.5
X96.0Y-56.0
X96.0Y-60.5
X96.0Y-76.0
X96.0Y-80.5
X102.25Y-65.75
X102.25Y-70.25
X102.5Y-31.0
X102.5Y-35.5
X102.5Y-41.0
X102.5Y-45.5
X102.5Y-56.0
X102.5Y-60.5
X102.5Y-76.0
X102.5Y-80.5
X111.0Y-31.0
X111.0Y-35.5
X111.0Y-41.0
X111.0Y-45.5
X111.0Y-56.0
X111.0Y-60.5
X111.0Y-66.0
X111.0Y-70.5
X111.0Y-76.0
X111.0Y-80.5
X117.5Y-31.0
X117.5Y-35.5
X117.5Y-41.0
X117.5Y-45.5
X117.5Y-56.0
X117.5Y-60.5
X117.5Y-66.0
X117.5Y-70.5
X117.5Y-76.0
X117.5Y-80.5
T5
G00X41.9Y-101.35
M15
G01X41.9Y-102.65
M16
G05
G00X53.1Y-101.35
M15
G01X53.1Y-102.65
M16
G05
M30
