%TF.GenerationSoftware,KiCad,Pcbnew,9.0.7*%
%TF.CreationDate,2026-02-20T03:41:17+09:00*%
%TF.ProjectId,YmmKeyboardMX,596d6d4b-6579-4626-9f61-72644d582e6b,rev?*%
%TF.SameCoordinates,Original*%
%TF.FileFunction,Paste,Bot*%
%TF.FilePolarity,Positive*%
%FSLAX46Y46*%
G04 Gerber Fmt 4.6, Leading zero omitted, Abs format (unit mm)*
G04 Created by KiCad (PCBNEW 9.0.7) date 2026-02-20 03:41:17*
%MOMM*%
%LPD*%
G01*
G04 APERTURE LIST*
G04 Aperture macros list*
%AMRoundRect*
0 Rectangle with rounded corners*
0 $1 Rounding radius*
0 $2 $3 $4 $5 $6 $7 $8 $9 X,Y pos of 4 corners*
0 Add a 4 corners polygon primitive as box body*
4,1,4,$2,$3,$4,$5,$6,$7,$8,$9,$2,$3,0*
0 Add four circle primitives for the rounded corners*
1,1,$1+$1,$2,$3*
1,1,$1+$1,$4,$5*
1,1,$1+$1,$6,$7*
1,1,$1+$1,$8,$9*
0 Add four rect primitives between the rounded corners*
20,1,$1+$1,$2,$3,$4,$5,0*
20,1,$1+$1,$4,$5,$6,$7,0*
20,1,$1+$1,$6,$7,$8,$9,0*
20,1,$1+$1,$8,$9,$2,$3,0*%
G04 Aperture macros list end*
%ADD10RoundRect,0.237500X0.300000X0.237500X-0.300000X0.237500X-0.300000X-0.237500X0.300000X-0.237500X0*%
G04 APERTURE END LIST*
D10*
%TO.C,C12*%
X205332500Y-58420000D03*
X203607500Y-58420000D03*
%TD*%
%TO.C,C11*%
X189230000Y-58420000D03*
X187505000Y-58420000D03*
%TD*%
%TO.C,C13*%
X136752500Y-82550000D03*
X135027500Y-82550000D03*
%TD*%
%TO.C,C14*%
X149860000Y-78740000D03*
X148135000Y-78740000D03*
%TD*%
%TO.C,C25*%
X136345000Y-118110000D03*
X134620000Y-118110000D03*
%TD*%
%TO.C,C23*%
X188822500Y-99060000D03*
X187097500Y-99060000D03*
%TD*%
%TO.C,C15*%
X162560000Y-78740000D03*
X160835000Y-78740000D03*
%TD*%
%TO.C,C9*%
X163830000Y-58420000D03*
X162105000Y-58420000D03*
%TD*%
%TO.C,C29*%
X187145000Y-118110000D03*
X185420000Y-118110000D03*
%TD*%
%TO.C,C27*%
X162152500Y-118110000D03*
X160427500Y-118110000D03*
%TD*%
%TO.C,C22*%
X175260000Y-99060000D03*
X173535000Y-99060000D03*
%TD*%
%TO.C,C7*%
X137160000Y-58420000D03*
X135435000Y-58420000D03*
%TD*%
%TO.C,C28*%
X175715000Y-118110000D03*
X173990000Y-118110000D03*
%TD*%
%TO.C,C16*%
X175260000Y-78740000D03*
X173535000Y-78740000D03*
%TD*%
%TO.C,C8*%
X149860000Y-58420000D03*
X148135000Y-58420000D03*
%TD*%
%TO.C,C19*%
X137160000Y-99060000D03*
X135435000Y-99060000D03*
%TD*%
%TO.C,C3*%
X163830000Y-40640000D03*
X162105000Y-40640000D03*
%TD*%
%TO.C,C2*%
X151130000Y-40640000D03*
X149405000Y-40640000D03*
%TD*%
%TO.C,C30*%
X197712500Y-118110000D03*
X195987500Y-118110000D03*
%TD*%
%TO.C,C21*%
X163830000Y-99060000D03*
X162105000Y-99060000D03*
%TD*%
%TO.C,C20*%
X151130000Y-99060000D03*
X149405000Y-99060000D03*
%TD*%
%TO.C,C6*%
X200660000Y-40640000D03*
X198935000Y-40640000D03*
%TD*%
%TO.C,C4*%
X176530000Y-40640000D03*
X174805000Y-40640000D03*
%TD*%
%TO.C,C24*%
X207872500Y-97790000D03*
X206147500Y-97790000D03*
%TD*%
%TO.C,C1*%
X137160000Y-40640000D03*
X135435000Y-40640000D03*
%TD*%
%TO.C,C26*%
X150315000Y-118110000D03*
X148590000Y-118110000D03*
%TD*%
%TO.C,C18*%
X206602500Y-77470000D03*
X204877500Y-77470000D03*
%TD*%
%TO.C,C5*%
X187960000Y-40640000D03*
X186235000Y-40640000D03*
%TD*%
%TO.C,C17*%
X187960000Y-78740000D03*
X186235000Y-78740000D03*
%TD*%
%TO.C,C10*%
X176530000Y-58420000D03*
X174805000Y-58420000D03*
%TD*%
M02*
