%TF.GenerationSoftware,KiCad,Pcbnew,9.0.7*%
%TF.CreationDate,2026-02-20T03:41:17+09:00*%
%TF.ProjectId,YmmKeyboardMX,596d6d4b-6579-4626-9f61-72644d582e6b,rev?*%
%TF.SameCoordinates,Original*%
%TF.FileFunction,Soldermask,Top*%
%TF.FilePolarity,Negative*%
%FSLAX46Y46*%
G04 Gerber Fmt 4.6, Leading zero omitted, Abs format (unit mm)*
G04 Created by KiCad (PCBNEW 9.0.7) date 2026-02-20 03:41:17*
%MOMM*%
%LPD*%
G01*
G04 APERTURE LIST*
G04 Aperture macros list*
%AMRoundRect*
0 Rectangle with rounded corners*
0 $1 Rounding radius*
0 $2 $3 $4 $5 $6 $7 $8 $9 X,Y pos of 4 corners*
0 Add a 4 corners polygon primitive as box body*
4,1,4,$2,$3,$4,$5,$6,$7,$8,$9,$2,$3,0*
0 Add four circle primitives for the rounded corners*
1,1,$1+$1,$2,$3*
1,1,$1+$1,$4,$5*
1,1,$1+$1,$6,$7*
1,1,$1+$1,$8,$9*
0 Add four rect primitives between the rounded corners*
20,1,$1+$1,$2,$3,$4,$5,0*
20,1,$1+$1,$4,$5,$6,$7,0*
20,1,$1+$1,$6,$7,$8,$9,0*
20,1,$1+$1,$8,$9,$2,$3,0*%
G04 Aperture macros list end*
%ADD10RoundRect,0.250000X0.550000X0.550000X-0.550000X0.550000X-0.550000X-0.550000X0.550000X-0.550000X0*%
%ADD11C,1.600000*%
%ADD12R,1.500000X1.000000*%
%ADD13C,2.000000*%
%ADD14RoundRect,0.250000X0.550000X-0.550000X0.550000X0.550000X-0.550000X0.550000X-0.550000X-0.550000X0*%
%ADD15R,2.000000X2.000000*%
%ADD16R,3.200000X2.000000*%
%ADD17R,1.700000X1.700000*%
%ADD18C,1.700000*%
G04 APERTURE END LIST*
D10*
%TO.C,D5*%
X185420000Y-35560000D03*
D11*
X177800000Y-35560000D03*
%TD*%
D12*
%TO.C,D44*%
X133530000Y-76810000D03*
X133530000Y-80010000D03*
X138430000Y-80010000D03*
X138430000Y-76810000D03*
%TD*%
D10*
%TO.C,D19*%
X207720000Y-72680000D03*
D11*
X200100000Y-72680000D03*
%TD*%
D13*
%TO.C,SW18*%
X183440000Y-65060000D03*
X189940000Y-65060000D03*
X183440000Y-69560000D03*
X189940000Y-69560000D03*
%TD*%
D10*
%TO.C,D31*%
X205740000Y-113030000D03*
D11*
X198120000Y-113030000D03*
%TD*%
D13*
%TO.C,SW19*%
X196140000Y-65060000D03*
X202640000Y-65060000D03*
X196140000Y-69560000D03*
X202640000Y-69560000D03*
%TD*%
D12*
%TO.C,D46*%
X158930000Y-76810000D03*
X158930000Y-80010000D03*
X163830000Y-80010000D03*
X163830000Y-76810000D03*
%TD*%
D13*
%TO.C,SW31*%
X196700000Y-104720000D03*
X203200000Y-104720000D03*
X196700000Y-109220000D03*
X203200000Y-109220000D03*
%TD*%
D12*
%TO.C,D49*%
X197030000Y-76810000D03*
X197030000Y-80010000D03*
X201930000Y-80010000D03*
X201930000Y-76810000D03*
%TD*%
D10*
%TO.C,D3*%
X160020000Y-35560000D03*
D11*
X152400000Y-35560000D03*
%TD*%
D10*
%TO.C,D18*%
X197560000Y-72680000D03*
D11*
X189940000Y-72680000D03*
%TD*%
D12*
%TO.C,D35*%
X172900000Y-38710000D03*
X172900000Y-41910000D03*
X177800000Y-41910000D03*
X177800000Y-38710000D03*
%TD*%
D10*
%TO.C,D26*%
X147320000Y-113030000D03*
D11*
X139700000Y-113030000D03*
%TD*%
D13*
%TO.C,SW7*%
X196700000Y-27940000D03*
X203200000Y-27940000D03*
X196700000Y-32440000D03*
X203200000Y-32440000D03*
%TD*%
D10*
%TO.C,D6*%
X195580000Y-35560000D03*
D11*
X187960000Y-35560000D03*
%TD*%
D12*
%TO.C,D1*%
X133440000Y-39040000D03*
X133440000Y-42240000D03*
X138340000Y-42240000D03*
X138340000Y-39040000D03*
%TD*%
D10*
%TO.C,D27*%
X160020000Y-113030000D03*
D11*
X152400000Y-113030000D03*
%TD*%
D12*
%TO.C,D56*%
X133530000Y-116180000D03*
X133530000Y-119380000D03*
X138430000Y-119380000D03*
X138430000Y-116180000D03*
%TD*%
D10*
%TO.C,D15*%
X160020000Y-72680000D03*
D11*
X152400000Y-72680000D03*
%TD*%
D13*
%TO.C,SW22*%
X158600000Y-85670000D03*
X165100000Y-85670000D03*
X158600000Y-90170000D03*
X165100000Y-90170000D03*
%TD*%
D12*
%TO.C,D33*%
X147500000Y-39370000D03*
X147500000Y-42570000D03*
X152400000Y-42570000D03*
X152400000Y-39370000D03*
%TD*%
D13*
%TO.C,SW29*%
X171300000Y-104720000D03*
X177800000Y-104720000D03*
X171300000Y-109220000D03*
X177800000Y-109220000D03*
%TD*%
D10*
%TO.C,D28*%
X172720000Y-113030000D03*
D11*
X165100000Y-113030000D03*
%TD*%
D13*
%TO.C,SW4*%
X158600000Y-27940000D03*
X165100000Y-27940000D03*
X158600000Y-32440000D03*
X165100000Y-32440000D03*
%TD*%
D10*
%TO.C,D13*%
X208280000Y-53340000D03*
D11*
X200660000Y-53340000D03*
%TD*%
D13*
%TO.C,SW16*%
X158040000Y-65060000D03*
X164540000Y-65060000D03*
X158040000Y-69560000D03*
X164540000Y-69560000D03*
%TD*%
D10*
%TO.C,D8*%
X147320000Y-53340000D03*
D11*
X139700000Y-53340000D03*
%TD*%
D12*
%TO.C,D50*%
X133530000Y-97130000D03*
X133530000Y-100330000D03*
X138430000Y-100330000D03*
X138430000Y-97130000D03*
%TD*%
D10*
%TO.C,D4*%
X172720000Y-35560000D03*
D11*
X165100000Y-35560000D03*
%TD*%
D10*
%TO.C,D16*%
X172160000Y-72680000D03*
D11*
X164540000Y-72680000D03*
%TD*%
D10*
%TO.C,D11*%
X185420000Y-53340000D03*
D11*
X177800000Y-53340000D03*
%TD*%
D13*
%TO.C,SW27*%
X146050000Y-104720000D03*
X152550000Y-104720000D03*
X146050000Y-109220000D03*
X152550000Y-109220000D03*
%TD*%
D12*
%TO.C,D48*%
X184330000Y-76810000D03*
X184330000Y-80010000D03*
X189230000Y-80010000D03*
X189230000Y-76810000D03*
%TD*%
D13*
%TO.C,SW24*%
X184000000Y-85670000D03*
X190500000Y-85670000D03*
X184000000Y-90170000D03*
X190500000Y-90170000D03*
%TD*%
D12*
%TO.C,D45*%
X146230000Y-76810000D03*
X146230000Y-80010000D03*
X151130000Y-80010000D03*
X151130000Y-76810000D03*
%TD*%
D10*
%TO.C,D25*%
X208280000Y-93980000D03*
D11*
X200660000Y-93980000D03*
%TD*%
D13*
%TO.C,SW10*%
X158600000Y-45720000D03*
X165100000Y-45720000D03*
X158600000Y-50220000D03*
X165100000Y-50220000D03*
%TD*%
D12*
%TO.C,D57*%
X147500000Y-116180000D03*
X147500000Y-119380000D03*
X152400000Y-119380000D03*
X152400000Y-116180000D03*
%TD*%
D13*
%TO.C,SW8*%
X133200000Y-45720000D03*
X139700000Y-45720000D03*
X133200000Y-50220000D03*
X139700000Y-50220000D03*
%TD*%
%TO.C,SW6*%
X184000000Y-27940000D03*
X190500000Y-27940000D03*
X184000000Y-32440000D03*
X190500000Y-32440000D03*
%TD*%
D12*
%TO.C,D34*%
X160200000Y-38710000D03*
X160200000Y-41910000D03*
X165100000Y-41910000D03*
X165100000Y-38710000D03*
%TD*%
%TO.C,D55*%
X198300000Y-97130000D03*
X198300000Y-100330000D03*
X203200000Y-100330000D03*
X203200000Y-97130000D03*
%TD*%
D10*
%TO.C,D2*%
X147320000Y-35560000D03*
D11*
X139700000Y-35560000D03*
%TD*%
D12*
%TO.C,D40*%
X160200000Y-56490000D03*
X160200000Y-59690000D03*
X165100000Y-59690000D03*
X165100000Y-56490000D03*
%TD*%
D13*
%TO.C,SW28*%
X158600000Y-104720000D03*
X165100000Y-104720000D03*
X158600000Y-109220000D03*
X165100000Y-109220000D03*
%TD*%
D10*
%TO.C,D9*%
X160020000Y-53340000D03*
D11*
X152400000Y-53340000D03*
%TD*%
D10*
%TO.C,D12*%
X198120000Y-53340000D03*
D11*
X190500000Y-53340000D03*
%TD*%
D13*
%TO.C,SW9*%
X145900000Y-45720000D03*
X152400000Y-45720000D03*
X145900000Y-50220000D03*
X152400000Y-50220000D03*
%TD*%
D12*
%TO.C,D54*%
X185600000Y-97130000D03*
X185600000Y-100330000D03*
X190500000Y-100330000D03*
X190500000Y-97130000D03*
%TD*%
%TO.C,D47*%
X171630000Y-76810000D03*
X171630000Y-80010000D03*
X176530000Y-80010000D03*
X176530000Y-76810000D03*
%TD*%
D10*
%TO.C,D17*%
X184860000Y-72680000D03*
D11*
X177240000Y-72680000D03*
%TD*%
D10*
%TO.C,D29*%
X185420000Y-113030000D03*
D11*
X177800000Y-113030000D03*
%TD*%
D10*
%TO.C,D30*%
X195580000Y-113030000D03*
D11*
X187960000Y-113030000D03*
%TD*%
D14*
%TO.C,D32*%
X224790000Y-53340000D03*
D11*
X224790000Y-45720000D03*
%TD*%
D12*
%TO.C,D36*%
X184330000Y-38710000D03*
X184330000Y-41910000D03*
X189230000Y-41910000D03*
X189230000Y-38710000D03*
%TD*%
%TO.C,D60*%
X184330000Y-116180000D03*
X184330000Y-119380000D03*
X189230000Y-119380000D03*
X189230000Y-116180000D03*
%TD*%
%TO.C,D61*%
X194490000Y-116180000D03*
X194490000Y-119380000D03*
X199390000Y-119380000D03*
X199390000Y-116180000D03*
%TD*%
D13*
%TO.C,SW25*%
X196850000Y-85670000D03*
X203350000Y-85670000D03*
X196850000Y-90170000D03*
X203350000Y-90170000D03*
%TD*%
D12*
%TO.C,D51*%
X147500000Y-97130000D03*
X147500000Y-100330000D03*
X152400000Y-100330000D03*
X152400000Y-97130000D03*
%TD*%
%TO.C,D41*%
X172900000Y-56490000D03*
X172900000Y-59690000D03*
X177800000Y-59690000D03*
X177800000Y-56490000D03*
%TD*%
%TO.C,D53*%
X171540000Y-97130000D03*
X171540000Y-100330000D03*
X176440000Y-100330000D03*
X176440000Y-97130000D03*
%TD*%
%TO.C,D42*%
X185600000Y-56490000D03*
X185600000Y-59690000D03*
X190500000Y-59690000D03*
X190500000Y-56490000D03*
%TD*%
D10*
%TO.C,D22*%
X172720000Y-93980000D03*
D11*
X165100000Y-93980000D03*
%TD*%
D15*
%TO.C,SW32*%
X210640000Y-33640000D03*
D13*
X210640000Y-38640000D03*
X210640000Y-36140000D03*
D16*
X218140000Y-30540000D03*
X218140000Y-41740000D03*
D13*
X225140000Y-38640000D03*
X225140000Y-33640000D03*
%TD*%
%TO.C,SW3*%
X146050000Y-27940000D03*
X152550000Y-27940000D03*
X146050000Y-32440000D03*
X152550000Y-32440000D03*
%TD*%
D12*
%TO.C,D52*%
X160200000Y-97130000D03*
X160200000Y-100330000D03*
X165100000Y-100330000D03*
X165100000Y-97130000D03*
%TD*%
D13*
%TO.C,SW13*%
X196700000Y-45720000D03*
X203200000Y-45720000D03*
X196700000Y-50220000D03*
X203200000Y-50220000D03*
%TD*%
D12*
%TO.C,D58*%
X158930000Y-116180000D03*
X158930000Y-119380000D03*
X163830000Y-119380000D03*
X163830000Y-116180000D03*
%TD*%
D13*
%TO.C,SW14*%
X132640000Y-65060000D03*
X139140000Y-65060000D03*
X132640000Y-69560000D03*
X139140000Y-69560000D03*
%TD*%
%TO.C,SW30*%
X184000000Y-104720000D03*
X190500000Y-104720000D03*
X184000000Y-109220000D03*
X190500000Y-109220000D03*
%TD*%
%TO.C,SW11*%
X171300000Y-45720000D03*
X177800000Y-45720000D03*
X171300000Y-50220000D03*
X177800000Y-50220000D03*
%TD*%
%TO.C,SW12*%
X184150000Y-45720000D03*
X190650000Y-45720000D03*
X184150000Y-50220000D03*
X190650000Y-50220000D03*
%TD*%
%TO.C,SW21*%
X145900000Y-85670000D03*
X152400000Y-85670000D03*
X145900000Y-90170000D03*
X152400000Y-90170000D03*
%TD*%
D10*
%TO.C,D20*%
X147320000Y-93980000D03*
D11*
X139700000Y-93980000D03*
%TD*%
D10*
%TO.C,D21*%
X160020000Y-93980000D03*
D11*
X152400000Y-93980000D03*
%TD*%
D13*
%TO.C,SW17*%
X170740000Y-65060000D03*
X177240000Y-65060000D03*
X170740000Y-69560000D03*
X177240000Y-69560000D03*
%TD*%
D10*
%TO.C,D14*%
X146760000Y-72680000D03*
D11*
X139140000Y-72680000D03*
%TD*%
D13*
%TO.C,SW15*%
X145490000Y-65060000D03*
X151990000Y-65060000D03*
X145490000Y-69560000D03*
X151990000Y-69560000D03*
%TD*%
D12*
%TO.C,D59*%
X172900000Y-116180000D03*
X172900000Y-119380000D03*
X177800000Y-119380000D03*
X177800000Y-116180000D03*
%TD*%
%TO.C,D37*%
X197030000Y-38710000D03*
X197030000Y-41910000D03*
X201930000Y-41910000D03*
X201930000Y-38710000D03*
%TD*%
D13*
%TO.C,SW23*%
X171300000Y-85670000D03*
X177800000Y-85670000D03*
X171300000Y-90170000D03*
X177800000Y-90170000D03*
%TD*%
D12*
%TO.C,D43*%
X197030000Y-56490000D03*
X197030000Y-59690000D03*
X201930000Y-59690000D03*
X201930000Y-56490000D03*
%TD*%
D10*
%TO.C,D24*%
X198120000Y-93980000D03*
D11*
X190500000Y-93980000D03*
%TD*%
D10*
%TO.C,D10*%
X172720000Y-53340000D03*
D11*
X165100000Y-53340000D03*
%TD*%
D13*
%TO.C,SW20*%
X133200000Y-85670000D03*
X139700000Y-85670000D03*
X133200000Y-90170000D03*
X139700000Y-90170000D03*
%TD*%
D10*
%TO.C,D23*%
X185420000Y-93980000D03*
D11*
X177800000Y-93980000D03*
%TD*%
D13*
%TO.C,SW2*%
X133350000Y-27940000D03*
X139850000Y-27940000D03*
X133350000Y-32440000D03*
X139850000Y-32440000D03*
%TD*%
%TO.C,SW26*%
X133200000Y-104720000D03*
X139700000Y-104720000D03*
X133200000Y-109220000D03*
X139700000Y-109220000D03*
%TD*%
D12*
%TO.C,D38*%
X133530000Y-56490000D03*
X133530000Y-59690000D03*
X138430000Y-59690000D03*
X138430000Y-56490000D03*
%TD*%
D17*
%TO.C,U1*%
X210280000Y-121930000D03*
D18*
X210280000Y-119390000D03*
X210280000Y-116850000D03*
X210280000Y-114310000D03*
X210280000Y-111770000D03*
X210280000Y-109230000D03*
X210280000Y-106690000D03*
X210280000Y-104150000D03*
X210280000Y-101610000D03*
X213110000Y-101620000D03*
X215650000Y-101620000D03*
X218190000Y-101620000D03*
X220730000Y-101620000D03*
D17*
X223270000Y-101620000D03*
D18*
X226060000Y-101600000D03*
X226060000Y-104140000D03*
X226060000Y-106680000D03*
X226060000Y-109220000D03*
X226060000Y-111760000D03*
X226060000Y-114300000D03*
X226060000Y-116840000D03*
X226060000Y-119380000D03*
D17*
X226060000Y-121920000D03*
%TD*%
D12*
%TO.C,D39*%
X146230000Y-56490000D03*
X146230000Y-59690000D03*
X151130000Y-59690000D03*
X151130000Y-56490000D03*
%TD*%
D13*
%TO.C,SW5*%
X171300000Y-27940000D03*
X177800000Y-27940000D03*
X171300000Y-32440000D03*
X177800000Y-32440000D03*
%TD*%
D10*
%TO.C,D7*%
X205740000Y-35560000D03*
D11*
X198120000Y-35560000D03*
%TD*%
M02*
