%TF.GenerationSoftware,KiCad,Pcbnew,9.0.7*%
%TF.CreationDate,2026-01-22T21:08:17+09:00*%
%TF.ProjectId,YMMkeyboard,594d4d6b-6579-4626-9f61-72642e6b6963,rev?*%
%TF.SameCoordinates,Original*%
%TF.FileFunction,Copper,L2,Bot*%
%TF.FilePolarity,Positive*%
%FSLAX46Y46*%
G04 Gerber Fmt 4.6, Leading zero omitted, Abs format (unit mm)*
G04 Created by KiCad (PCBNEW 9.0.7) date 2026-01-22 21:08:17*
%MOMM*%
%LPD*%
G01*
G04 APERTURE LIST*
G04 Aperture macros list*
%AMRoundRect*
0 Rectangle with rounded corners*
0 $1 Rounding radius*
0 $2 $3 $4 $5 $6 $7 $8 $9 X,Y pos of 4 corners*
0 Add a 4 corners polygon primitive as box body*
4,1,4,$2,$3,$4,$5,$6,$7,$8,$9,$2,$3,0*
0 Add four circle primitives for the rounded corners*
1,1,$1+$1,$2,$3*
1,1,$1+$1,$4,$5*
1,1,$1+$1,$6,$7*
1,1,$1+$1,$8,$9*
0 Add four rect primitives between the rounded corners*
20,1,$1+$1,$2,$3,$4,$5,0*
20,1,$1+$1,$4,$5,$6,$7,0*
20,1,$1+$1,$6,$7,$8,$9,0*
20,1,$1+$1,$8,$9,$2,$3,0*%
G04 Aperture macros list end*
%TA.AperFunction,ComponentPad*%
%ADD10RoundRect,0.250000X0.550000X0.550000X-0.550000X0.550000X-0.550000X-0.550000X0.550000X-0.550000X0*%
%TD*%
%TA.AperFunction,ComponentPad*%
%ADD11C,1.600000*%
%TD*%
%TA.AperFunction,ComponentPad*%
%ADD12C,2.000000*%
%TD*%
%TA.AperFunction,ComponentPad*%
%ADD13RoundRect,0.250000X0.550000X-0.550000X0.550000X0.550000X-0.550000X0.550000X-0.550000X-0.550000X0*%
%TD*%
%TA.AperFunction,ComponentPad*%
%ADD14R,1.700000X1.700000*%
%TD*%
%TA.AperFunction,ComponentPad*%
%ADD15C,1.700000*%
%TD*%
%TA.AperFunction,ComponentPad*%
%ADD16R,2.000000X2.000000*%
%TD*%
%TA.AperFunction,ComponentPad*%
%ADD17R,2.000000X3.200000*%
%TD*%
%TA.AperFunction,ViaPad*%
%ADD18C,0.600000*%
%TD*%
%TA.AperFunction,Conductor*%
%ADD19C,0.200000*%
%TD*%
G04 APERTURE END LIST*
D10*
%TO.P,D32,1,K*%
%TO.N,Net-(D32-K)*%
X57620000Y-113250000D03*
D11*
%TO.P,D32,2,A*%
%TO.N,Net-(D32-A)*%
X50000000Y-113250000D03*
%TD*%
D12*
%TO.P,SW13,1,1*%
%TO.N,Net-(J3-Pin_6)*%
X111000000Y-41000000D03*
X117500000Y-41000000D03*
%TO.P,SW13,2,2*%
%TO.N,Net-(D12-K)*%
X111000000Y-45500000D03*
X117500000Y-45500000D03*
%TD*%
%TO.P,SW12,1,1*%
%TO.N,Net-(J3-Pin_5)*%
X96000000Y-41000000D03*
X102500000Y-41000000D03*
%TO.P,SW12,2,2*%
%TO.N,Net-(D11-K)*%
X96000000Y-45500000D03*
X102500000Y-45500000D03*
%TD*%
%TO.P,SW30,1,1*%
%TO.N,Net-(J3-Pin_5)*%
X96000000Y-76000000D03*
X102500000Y-76000000D03*
%TO.P,SW30,2,2*%
%TO.N,Net-(D29-K)*%
X96000000Y-80500000D03*
X102500000Y-80500000D03*
%TD*%
%TO.P,SW5,1,1*%
%TO.N,Net-(J3-Pin_4)*%
X81000000Y-31000000D03*
X87500000Y-31000000D03*
%TO.P,SW5,2,2*%
%TO.N,Net-(D4-K)*%
X81000000Y-35500000D03*
X87500000Y-35500000D03*
%TD*%
D13*
%TO.P,D21,1,K*%
%TO.N,Net-(D21-K)*%
X56500000Y-72620000D03*
D11*
%TO.P,D21,2,A*%
%TO.N,Net-(D20-K)*%
X56500000Y-65000000D03*
%TD*%
D13*
%TO.P,D14,1,K*%
%TO.N,Net-(D14-K)*%
X41500000Y-62310000D03*
D11*
%TO.P,D14,2,A*%
%TO.N,Net-(D14-A)*%
X41500000Y-54690000D03*
%TD*%
D13*
%TO.P,D9,1,K*%
%TO.N,Net-(D10-A)*%
X56500000Y-46810000D03*
D11*
%TO.P,D9,2,A*%
%TO.N,Net-(D8-K)*%
X56500000Y-39190000D03*
%TD*%
D14*
%TO.P,J3,1,Pin_1*%
%TO.N,Net-(J3-Pin_1)*%
X91220000Y-108000000D03*
D15*
%TO.P,J3,2,Pin_2*%
%TO.N,Net-(J3-Pin_2)*%
X88680000Y-108000000D03*
%TO.P,J3,3,Pin_3*%
%TO.N,Net-(J3-Pin_3)*%
X86140000Y-108000000D03*
%TO.P,J3,4,Pin_4*%
%TO.N,Net-(J3-Pin_4)*%
X83600000Y-108000000D03*
%TO.P,J3,5,Pin_5*%
%TO.N,Net-(J3-Pin_5)*%
X81060000Y-108000000D03*
%TO.P,J3,6,Pin_6*%
%TO.N,Net-(J3-Pin_6)*%
X78520000Y-108000000D03*
%TO.P,J3,7,Pin_7*%
%TO.N,Net-(J3-Pin_7)*%
X75980000Y-108000000D03*
%TO.P,J3,8,Pin_8*%
%TO.N,Net-(J3-Pin_8)*%
X73440000Y-108000000D03*
%TO.P,J3,9,Pin_9*%
%TO.N,Net-(J3-Pin_9)*%
X70900000Y-108000000D03*
%TO.P,J3,10*%
%TO.N,N/C*%
X68360000Y-108000000D03*
%TD*%
D13*
%TO.P,D2,1,K*%
%TO.N,Net-(D2-K)*%
X42000000Y-37000000D03*
D11*
%TO.P,D2,2,A*%
%TO.N,Net-(D2-A)*%
X42000000Y-29380000D03*
%TD*%
D12*
%TO.P,SW17,1,1*%
%TO.N,Net-(J3-Pin_4)*%
X81250000Y-56250000D03*
X87750000Y-56250000D03*
%TO.P,SW17,2,2*%
%TO.N,Net-(D16-K)*%
X81250000Y-60750000D03*
X87750000Y-60750000D03*
%TD*%
D13*
%TO.P,D6,1,K*%
%TO.N,Net-(D6-K)*%
X106500000Y-37000000D03*
D11*
%TO.P,D6,2,A*%
%TO.N,Net-(D5-K)*%
X106500000Y-29380000D03*
%TD*%
D14*
%TO.P,J2,1,Pin_1*%
%TO.N,Net-(J2-Pin_1)*%
X91260000Y-93000000D03*
D15*
%TO.P,J2,2,Pin_2*%
%TO.N,Net-(J2-Pin_2)*%
X88720000Y-93000000D03*
%TO.P,J2,3,Pin_3*%
%TO.N,Net-(J2-Pin_3)*%
X86180000Y-93000000D03*
%TO.P,J2,4,Pin_4*%
%TO.N,Net-(D32-K)*%
X83640000Y-93000000D03*
%TO.P,J2,5,Pin_5*%
%TO.N,Net-(D7-K)*%
X81100000Y-93000000D03*
%TO.P,J2,6,Pin_6*%
%TO.N,Net-(D13-K)*%
X78560000Y-93000000D03*
%TO.P,J2,7,Pin_7*%
%TO.N,Net-(D19-K)*%
X76020000Y-93000000D03*
%TO.P,J2,8,Pin_8*%
%TO.N,Net-(D25-K)*%
X73480000Y-93000000D03*
%TO.P,J2,9,Pin_9*%
%TO.N,Net-(D31-K)*%
X70940000Y-93000000D03*
%TO.P,J2,10*%
%TO.N,N/C*%
X68400000Y-93000000D03*
%TD*%
D13*
%TO.P,D30,1,K*%
%TO.N,Net-(D30-K)*%
X106500000Y-82310000D03*
D11*
%TO.P,D30,2,A*%
%TO.N,Net-(D29-K)*%
X106500000Y-74690000D03*
%TD*%
D13*
%TO.P,D10,1,K*%
%TO.N,Net-(D10-K)*%
X75000000Y-46810000D03*
D11*
%TO.P,D10,2,A*%
%TO.N,Net-(D10-A)*%
X75000000Y-39190000D03*
%TD*%
D12*
%TO.P,SW7,1,1*%
%TO.N,Net-(J3-Pin_6)*%
X111000000Y-31000000D03*
X117500000Y-31000000D03*
%TO.P,SW7,2,2*%
%TO.N,Net-(D6-K)*%
X111000000Y-35500000D03*
X117500000Y-35500000D03*
%TD*%
%TO.P,SW28,1,1*%
%TO.N,Net-(J3-Pin_3)*%
X61000000Y-76000000D03*
X67500000Y-76000000D03*
%TO.P,SW28,2,2*%
%TO.N,Net-(D27-K)*%
X61000000Y-80500000D03*
X67500000Y-80500000D03*
%TD*%
D13*
%TO.P,D12,1,K*%
%TO.N,Net-(D12-K)*%
X106500000Y-47310000D03*
D11*
%TO.P,D12,2,A*%
%TO.N,Net-(D11-K)*%
X106500000Y-39690000D03*
%TD*%
D13*
%TO.P,D20,1,K*%
%TO.N,Net-(D20-K)*%
X41500000Y-72620000D03*
D11*
%TO.P,D20,2,A*%
%TO.N,Net-(D20-A)*%
X41500000Y-65000000D03*
%TD*%
D13*
%TO.P,D31,1,K*%
%TO.N,Net-(D31-K)*%
X122500000Y-82120000D03*
D11*
%TO.P,D31,2,A*%
%TO.N,Net-(D30-K)*%
X122500000Y-74500000D03*
%TD*%
D12*
%TO.P,SW20,1,1*%
%TO.N,Net-(J3-Pin_1)*%
X30750000Y-65750000D03*
X37250000Y-65750000D03*
%TO.P,SW20,2,2*%
%TO.N,Net-(D20-A)*%
X30750000Y-70250000D03*
X37250000Y-70250000D03*
%TD*%
D13*
%TO.P,D18,1,K*%
%TO.N,Net-(D18-K)*%
X106500000Y-62310000D03*
D11*
%TO.P,D18,2,A*%
%TO.N,Net-(D17-K)*%
X106500000Y-54690000D03*
%TD*%
D12*
%TO.P,SW26,1,1*%
%TO.N,Net-(J3-Pin_1)*%
X31000000Y-76000000D03*
X37500000Y-76000000D03*
%TO.P,SW26,2,2*%
%TO.N,Net-(D26-A)*%
X31000000Y-80500000D03*
X37500000Y-80500000D03*
%TD*%
D13*
%TO.P,D7,1,K*%
%TO.N,Net-(D7-K)*%
X122500000Y-36810000D03*
D11*
%TO.P,D7,2,A*%
%TO.N,Net-(D6-K)*%
X122500000Y-29190000D03*
%TD*%
D13*
%TO.P,D28,1,K*%
%TO.N,Net-(D28-K)*%
X75000000Y-83310000D03*
D11*
%TO.P,D28,2,A*%
%TO.N,Net-(D27-K)*%
X75000000Y-75690000D03*
%TD*%
D13*
%TO.P,D19,1,K*%
%TO.N,Net-(D19-K)*%
X122500000Y-61620000D03*
D11*
%TO.P,D19,2,A*%
%TO.N,Net-(D18-K)*%
X122500000Y-54000000D03*
%TD*%
D12*
%TO.P,SW21,1,1*%
%TO.N,Net-(J3-Pin_2)*%
X46000000Y-66000000D03*
X52500000Y-66000000D03*
%TO.P,SW21,2,2*%
%TO.N,Net-(D20-K)*%
X46000000Y-70500000D03*
X52500000Y-70500000D03*
%TD*%
D13*
%TO.P,D13,1,K*%
%TO.N,Net-(D13-K)*%
X122500000Y-47310000D03*
D11*
%TO.P,D13,2,A*%
%TO.N,Net-(D12-K)*%
X122500000Y-39690000D03*
%TD*%
D12*
%TO.P,SW16,1,1*%
%TO.N,Net-(J3-Pin_3)*%
X61000000Y-56000000D03*
X67500000Y-56000000D03*
%TO.P,SW16,2,2*%
%TO.N,Net-(D15-K)*%
X61000000Y-60500000D03*
X67500000Y-60500000D03*
%TD*%
%TO.P,SW29,1,1*%
%TO.N,Net-(J3-Pin_4)*%
X81000000Y-76000000D03*
X87500000Y-76000000D03*
%TO.P,SW29,2,2*%
%TO.N,Net-(D28-K)*%
X81000000Y-80500000D03*
X87500000Y-80500000D03*
%TD*%
%TO.P,SW14,1,1*%
%TO.N,Net-(J3-Pin_1)*%
X31000000Y-56000000D03*
X37500000Y-56000000D03*
%TO.P,SW14,2,2*%
%TO.N,Net-(D14-A)*%
X31000000Y-60500000D03*
X37500000Y-60500000D03*
%TD*%
%TO.P,SW15,1,1*%
%TO.N,Net-(J3-Pin_2)*%
X46000000Y-56000000D03*
X52500000Y-56000000D03*
%TO.P,SW15,2,2*%
%TO.N,Net-(D14-K)*%
X46000000Y-60500000D03*
X52500000Y-60500000D03*
%TD*%
D13*
%TO.P,D23,1,K*%
%TO.N,Net-(D23-K)*%
X92000000Y-72310000D03*
D11*
%TO.P,D23,2,A*%
%TO.N,Net-(D22-K)*%
X92000000Y-64690000D03*
%TD*%
D13*
%TO.P,D3,1,K*%
%TO.N,Net-(D3-K)*%
X56500000Y-36810000D03*
D11*
%TO.P,D3,2,A*%
%TO.N,Net-(D2-K)*%
X56500000Y-29190000D03*
%TD*%
D13*
%TO.P,D27,1,K*%
%TO.N,Net-(D27-K)*%
X56500000Y-82810000D03*
D11*
%TO.P,D27,2,A*%
%TO.N,Net-(D26-K)*%
X56500000Y-75190000D03*
%TD*%
D12*
%TO.P,SW18,1,1*%
%TO.N,Net-(J3-Pin_5)*%
X96000000Y-56000000D03*
X102500000Y-56000000D03*
%TO.P,SW18,2,2*%
%TO.N,Net-(D17-K)*%
X96000000Y-60500000D03*
X102500000Y-60500000D03*
%TD*%
%TO.P,SW11,1,1*%
%TO.N,Net-(J3-Pin_4)*%
X80750000Y-40750000D03*
X87250000Y-40750000D03*
%TO.P,SW11,2,2*%
%TO.N,Net-(D10-K)*%
X80750000Y-45250000D03*
X87250000Y-45250000D03*
%TD*%
D13*
%TO.P,D29,1,K*%
%TO.N,Net-(D29-K)*%
X92000000Y-82500000D03*
D11*
%TO.P,D29,2,A*%
%TO.N,Net-(D28-K)*%
X92000000Y-74880000D03*
%TD*%
D12*
%TO.P,SW24,1,1*%
%TO.N,Net-(J3-Pin_5)*%
X95750000Y-65750000D03*
X102250000Y-65750000D03*
%TO.P,SW24,2,2*%
%TO.N,Net-(D23-K)*%
X95750000Y-70250000D03*
X102250000Y-70250000D03*
%TD*%
D13*
%TO.P,D26,1,K*%
%TO.N,Net-(D26-K)*%
X41500000Y-82810000D03*
D11*
%TO.P,D26,2,A*%
%TO.N,Net-(D26-A)*%
X41500000Y-75190000D03*
%TD*%
D12*
%TO.P,SW31,1,1*%
%TO.N,Net-(J3-Pin_6)*%
X111000000Y-76000000D03*
X117500000Y-76000000D03*
%TO.P,SW31,2,2*%
%TO.N,Net-(D30-K)*%
X111000000Y-80500000D03*
X117500000Y-80500000D03*
%TD*%
D13*
%TO.P,D5,1,K*%
%TO.N,Net-(D5-K)*%
X91500000Y-37310000D03*
D11*
%TO.P,D5,2,A*%
%TO.N,Net-(D4-K)*%
X91500000Y-29690000D03*
%TD*%
D13*
%TO.P,D4,1,K*%
%TO.N,Net-(D4-K)*%
X75000000Y-36810000D03*
D11*
%TO.P,D4,2,A*%
%TO.N,Net-(D3-K)*%
X75000000Y-29190000D03*
%TD*%
D12*
%TO.P,SW27,1,1*%
%TO.N,Net-(J3-Pin_2)*%
X46000000Y-76000000D03*
X52500000Y-76000000D03*
%TO.P,SW27,2,2*%
%TO.N,Net-(D26-K)*%
X46000000Y-80500000D03*
X52500000Y-80500000D03*
%TD*%
D13*
%TO.P,D24,1,K*%
%TO.N,Net-(D24-K)*%
X106500000Y-72310000D03*
D11*
%TO.P,D24,2,A*%
%TO.N,Net-(D23-K)*%
X106500000Y-64690000D03*
%TD*%
D13*
%TO.P,D17,1,K*%
%TO.N,Net-(D17-K)*%
X92000000Y-62310000D03*
D11*
%TO.P,D17,2,A*%
%TO.N,Net-(D16-K)*%
X92000000Y-54690000D03*
%TD*%
D12*
%TO.P,SW2,1,1*%
%TO.N,Net-(J3-Pin_1)*%
X31000000Y-31000000D03*
X37500000Y-31000000D03*
%TO.P,SW2,2,2*%
%TO.N,Net-(D2-A)*%
X31000000Y-35500000D03*
X37500000Y-35500000D03*
%TD*%
D13*
%TO.P,D8,1,K*%
%TO.N,Net-(D8-K)*%
X42000000Y-46810000D03*
D11*
%TO.P,D8,2,A*%
%TO.N,Net-(D8-A)*%
X42000000Y-39190000D03*
%TD*%
D13*
%TO.P,D15,1,K*%
%TO.N,Net-(D15-K)*%
X56500000Y-62310000D03*
D11*
%TO.P,D15,2,A*%
%TO.N,Net-(D14-K)*%
X56500000Y-54690000D03*
%TD*%
D12*
%TO.P,SW25,1,1*%
%TO.N,Net-(J3-Pin_6)*%
X111000000Y-66000000D03*
X117500000Y-66000000D03*
%TO.P,SW25,2,2*%
%TO.N,Net-(D24-K)*%
X111000000Y-70500000D03*
X117500000Y-70500000D03*
%TD*%
%TO.P,SW10,1,1*%
%TO.N,Net-(J3-Pin_3)*%
X61000000Y-41000000D03*
X67500000Y-41000000D03*
%TO.P,SW10,2,2*%
%TO.N,Net-(D10-A)*%
X61000000Y-45500000D03*
X67500000Y-45500000D03*
%TD*%
%TO.P,SW23,1,1*%
%TO.N,Net-(J3-Pin_4)*%
X81000000Y-66000000D03*
X87500000Y-66000000D03*
%TO.P,SW23,2,2*%
%TO.N,Net-(D22-K)*%
X81000000Y-70500000D03*
X87500000Y-70500000D03*
%TD*%
%TO.P,SW8,1,1*%
%TO.N,Net-(J3-Pin_1)*%
X31000000Y-41000000D03*
X37500000Y-41000000D03*
%TO.P,SW8,2,2*%
%TO.N,Net-(D8-A)*%
X31000000Y-45500000D03*
X37500000Y-45500000D03*
%TD*%
D13*
%TO.P,D22,1,K*%
%TO.N,Net-(D22-K)*%
X75000000Y-73120000D03*
D11*
%TO.P,D22,2,A*%
%TO.N,Net-(D21-K)*%
X75000000Y-65500000D03*
%TD*%
D12*
%TO.P,SW4,1,1*%
%TO.N,Net-(J3-Pin_3)*%
X61000000Y-31000000D03*
X67500000Y-31000000D03*
%TO.P,SW4,2,2*%
%TO.N,Net-(D3-K)*%
X61000000Y-35500000D03*
X67500000Y-35500000D03*
%TD*%
D13*
%TO.P,D16,1,K*%
%TO.N,Net-(D16-K)*%
X75000000Y-62810000D03*
D11*
%TO.P,D16,2,A*%
%TO.N,Net-(D15-K)*%
X75000000Y-55190000D03*
%TD*%
D12*
%TO.P,SW6,1,1*%
%TO.N,Net-(J3-Pin_5)*%
X96000000Y-31000000D03*
X102500000Y-31000000D03*
%TO.P,SW6,2,2*%
%TO.N,Net-(D5-K)*%
X96000000Y-35500000D03*
X102500000Y-35500000D03*
%TD*%
%TO.P,SW22,1,1*%
%TO.N,Net-(J3-Pin_3)*%
X61000000Y-66000000D03*
X67500000Y-66000000D03*
%TO.P,SW22,2,2*%
%TO.N,Net-(D21-K)*%
X61000000Y-70500000D03*
X67500000Y-70500000D03*
%TD*%
D13*
%TO.P,D11,1,K*%
%TO.N,Net-(D11-K)*%
X91500000Y-47310000D03*
D11*
%TO.P,D11,2,A*%
%TO.N,Net-(D10-K)*%
X91500000Y-39690000D03*
%TD*%
D13*
%TO.P,D25,1,K*%
%TO.N,Net-(D25-K)*%
X122500000Y-72310000D03*
D11*
%TO.P,D25,2,A*%
%TO.N,Net-(D24-K)*%
X122500000Y-64690000D03*
%TD*%
D12*
%TO.P,SW9,1,1*%
%TO.N,Net-(J3-Pin_2)*%
X45950000Y-41000000D03*
X52450000Y-41000000D03*
%TO.P,SW9,2,2*%
%TO.N,Net-(D8-K)*%
X45950000Y-45500000D03*
X52450000Y-45500000D03*
%TD*%
D16*
%TO.P,SW32,A,A*%
%TO.N,Net-(J3-Pin_9)*%
X50000000Y-94500000D03*
D12*
%TO.P,SW32,B,B*%
%TO.N,Net-(J3-Pin_8)*%
X45000000Y-94500000D03*
%TO.P,SW32,C,C*%
%TO.N,Net-(J2-Pin_2)*%
X47500000Y-94500000D03*
D17*
%TO.P,SW32,MP*%
%TO.N,N/C*%
X53100000Y-102000000D03*
X41900000Y-102000000D03*
D12*
%TO.P,SW32,S1,S1*%
%TO.N,Net-(J3-Pin_7)*%
X45000000Y-109000000D03*
%TO.P,SW32,S2,S2*%
%TO.N,Net-(D32-A)*%
X50000000Y-109000000D03*
%TD*%
%TO.P,SW3,1,1*%
%TO.N,Net-(J3-Pin_2)*%
X46000000Y-31000000D03*
X52500000Y-31000000D03*
%TO.P,SW3,2,2*%
%TO.N,Net-(D2-K)*%
X46000000Y-35500000D03*
X52500000Y-35500000D03*
%TD*%
%TO.P,SW19,1,1*%
%TO.N,Net-(J3-Pin_6)*%
X111000000Y-56000000D03*
X117500000Y-56000000D03*
%TO.P,SW19,2,2*%
%TO.N,Net-(D18-K)*%
X111000000Y-60500000D03*
X117500000Y-60500000D03*
%TD*%
D18*
%TO.N,Net-(D19-K)*%
X96500000Y-90000000D03*
%TO.N,Net-(D25-K)*%
X96500000Y-88000000D03*
%TO.N,Net-(J3-Pin_2)*%
X41000000Y-90000000D03*
X86000000Y-116899000D03*
%TO.N,Net-(J3-Pin_3)*%
X80000000Y-100000000D03*
X72000000Y-78000000D03*
X77000000Y-97000000D03*
%TD*%
D19*
%TO.N,Net-(D19-K)*%
X76020000Y-93000000D02*
X79020000Y-90000000D01*
X79020000Y-90000000D02*
X96500000Y-90000000D01*
%TO.N,Net-(D25-K)*%
X73480000Y-93000000D02*
X78480000Y-88000000D01*
X78480000Y-88000000D02*
X96500000Y-88000000D01*
%TO.N,Net-(D32-A)*%
X50000000Y-109000000D02*
X50000000Y-113250000D01*
%TO.N,Net-(J3-Pin_1)*%
X37500000Y-31000000D02*
X31000000Y-31000000D01*
X29699000Y-42301000D02*
X29699000Y-54699000D01*
X29449000Y-67051000D02*
X29449000Y-74449000D01*
X31000000Y-41000000D02*
X29699000Y-42301000D01*
X38801000Y-77301000D02*
X37500000Y-76000000D01*
X37250000Y-65750000D02*
X30750000Y-65750000D01*
X37500000Y-56000000D02*
X31000000Y-56000000D01*
X29699000Y-64699000D02*
X30750000Y-65750000D01*
X37500000Y-76000000D02*
X31000000Y-76000000D01*
X38801000Y-105349413D02*
X38801000Y-77301000D01*
X37500000Y-41000000D02*
X31000000Y-41000000D01*
X29500000Y-32500000D02*
X29500000Y-39500000D01*
X29699000Y-54699000D02*
X31000000Y-56000000D01*
X30750000Y-65750000D02*
X29449000Y-67051000D01*
X29699000Y-57301000D02*
X29699000Y-64699000D01*
X29449000Y-74449000D02*
X31000000Y-76000000D01*
X31000000Y-56000000D02*
X29699000Y-57301000D01*
X91220000Y-108000000D02*
X84067000Y-115153000D01*
X48604587Y-115153000D02*
X38801000Y-105349413D01*
X84067000Y-115153000D02*
X48604587Y-115153000D01*
X29500000Y-39500000D02*
X31000000Y-41000000D01*
X31000000Y-31000000D02*
X29500000Y-32500000D01*
%TO.N,Net-(J3-Pin_2)*%
X44699000Y-67301000D02*
X44699000Y-74699000D01*
X44699000Y-74699000D02*
X46000000Y-76000000D01*
X46000000Y-56000000D02*
X44699000Y-57301000D01*
X52500000Y-56000000D02*
X46000000Y-56000000D01*
X97816100Y-106849000D02*
X89831000Y-106849000D01*
X52500000Y-66000000D02*
X46000000Y-66000000D01*
X98801000Y-107833900D02*
X97816100Y-106849000D01*
X52500000Y-76000000D02*
X46000000Y-76000000D01*
X44699000Y-64699000D02*
X46000000Y-66000000D01*
X89831000Y-106849000D02*
X88680000Y-108000000D01*
X45950000Y-41000000D02*
X44649000Y-42301000D01*
X46000000Y-66000000D02*
X44699000Y-67301000D01*
X44500000Y-32500000D02*
X44500000Y-39550000D01*
X90068100Y-116899000D02*
X98801000Y-108166100D01*
X44500000Y-39000000D02*
X44500000Y-86500000D01*
X98801000Y-108166100D02*
X98801000Y-107833900D01*
X44649000Y-54649000D02*
X46000000Y-56000000D01*
X52500000Y-31000000D02*
X46000000Y-31000000D01*
X44649000Y-42301000D02*
X44649000Y-54649000D01*
X44500000Y-86500000D02*
X41000000Y-90000000D01*
X44699000Y-57301000D02*
X44699000Y-64699000D01*
X46000000Y-31000000D02*
X44500000Y-32500000D01*
X45950000Y-41000000D02*
X52450000Y-41000000D01*
X52500000Y-31000000D02*
X44500000Y-39000000D01*
X86000000Y-116899000D02*
X90068100Y-116899000D01*
X44500000Y-39550000D02*
X45950000Y-41000000D01*
%TO.N,Net-(J3-Pin_3)*%
X59500000Y-42500000D02*
X59500000Y-54500000D01*
X67500000Y-56000000D02*
X61000000Y-56000000D01*
X69500000Y-78000000D02*
X72000000Y-78000000D01*
X59500000Y-54500000D02*
X61000000Y-56000000D01*
X67500000Y-31000000D02*
X61000000Y-31000000D01*
X67500000Y-76000000D02*
X69500000Y-78000000D01*
X59500000Y-32500000D02*
X59500000Y-39500000D01*
X61000000Y-41000000D02*
X59500000Y-42500000D01*
X67500000Y-76000000D02*
X61000000Y-76000000D01*
X59699000Y-74699000D02*
X59699000Y-67301000D01*
X61000000Y-76000000D02*
X59699000Y-74699000D01*
X77000000Y-97000000D02*
X80000000Y-100000000D01*
X67500000Y-41000000D02*
X61000000Y-41000000D01*
X67500000Y-66000000D02*
X61000000Y-66000000D01*
X59699000Y-57301000D02*
X61000000Y-56000000D01*
X61000000Y-31000000D02*
X59500000Y-32500000D01*
X59500000Y-39500000D02*
X61000000Y-41000000D01*
X59699000Y-64699000D02*
X59699000Y-57301000D01*
X59699000Y-67301000D02*
X61000000Y-66000000D01*
X61000000Y-66000000D02*
X59699000Y-64699000D01*
%TO.N,Net-(J3-Pin_4)*%
X81000000Y-31000000D02*
X79699000Y-32301000D01*
X81000000Y-76000000D02*
X79699000Y-74699000D01*
X79449000Y-42051000D02*
X79449000Y-54449000D01*
X48770687Y-114752000D02*
X43298000Y-109279313D01*
X84320340Y-79179660D02*
X87500000Y-76000000D01*
X79750000Y-57750000D02*
X81250000Y-56250000D01*
X79449000Y-54449000D02*
X81250000Y-56250000D01*
X57913348Y-79179660D02*
X84320340Y-79179660D01*
X80750000Y-40750000D02*
X79449000Y-42051000D01*
X87500000Y-66000000D02*
X81000000Y-66000000D01*
X87500000Y-31000000D02*
X81000000Y-31000000D01*
X81250000Y-56250000D02*
X87750000Y-56250000D01*
X79699000Y-67301000D02*
X81000000Y-66000000D01*
X43298000Y-93795008D02*
X57913348Y-79179660D01*
X43298000Y-109279313D02*
X43298000Y-93795008D01*
X79750000Y-64750000D02*
X79750000Y-57750000D01*
X80750000Y-40750000D02*
X87250000Y-40750000D01*
X87500000Y-76000000D02*
X81000000Y-76000000D01*
X79699000Y-74699000D02*
X79699000Y-67301000D01*
X79699000Y-39699000D02*
X80750000Y-40750000D01*
X76848000Y-114752000D02*
X48770687Y-114752000D01*
X83600000Y-108000000D02*
X76848000Y-114752000D01*
X81000000Y-66000000D02*
X79750000Y-64750000D01*
X79699000Y-32301000D02*
X79699000Y-39699000D01*
%TO.N,Net-(J3-Pin_5)*%
X94449000Y-67051000D02*
X95750000Y-65750000D01*
X94699000Y-57301000D02*
X96000000Y-56000000D01*
X94699000Y-64699000D02*
X94699000Y-57301000D01*
X95750000Y-65750000D02*
X94699000Y-64699000D01*
X102500000Y-76000000D02*
X96000000Y-76000000D01*
X96000000Y-41000000D02*
X102500000Y-41000000D01*
X86746760Y-101401000D02*
X78996760Y-109151000D01*
X96000000Y-76000000D02*
X94449000Y-74449000D01*
X78996760Y-109151000D02*
X78043240Y-109151000D01*
X94699000Y-39699000D02*
X94699000Y-32301000D01*
X94699000Y-54699000D02*
X94699000Y-42301000D01*
X102250000Y-65750000D02*
X95750000Y-65750000D01*
X97900000Y-98432900D02*
X97900000Y-80600000D01*
X77369000Y-108476760D02*
X77369000Y-107523240D01*
X94449000Y-74449000D02*
X94449000Y-67051000D01*
X77369000Y-107523240D02*
X86459340Y-98432900D01*
X96000000Y-56000000D02*
X94699000Y-54699000D01*
X78043240Y-109151000D02*
X77369000Y-108476760D01*
X81060000Y-108000000D02*
X87060000Y-102000000D01*
X94699000Y-42301000D02*
X96000000Y-41000000D01*
X87060000Y-102000000D02*
X96400000Y-102000000D01*
X102500000Y-56000000D02*
X96000000Y-56000000D01*
X86459340Y-98432900D02*
X97900000Y-98432900D01*
X94699000Y-32301000D02*
X96000000Y-31000000D01*
X96400000Y-102000000D02*
X96999000Y-101401000D01*
X96000000Y-31000000D02*
X102500000Y-31000000D01*
X97900000Y-80600000D02*
X102500000Y-76000000D01*
X96000000Y-41000000D02*
X94699000Y-39699000D01*
X96999000Y-101401000D02*
X86746760Y-101401000D01*
%TO.N,Net-(J3-Pin_6)*%
X109699000Y-42301000D02*
X109699000Y-54699000D01*
X109699000Y-67301000D02*
X109699000Y-74699000D01*
X109699000Y-32301000D02*
X111000000Y-31000000D01*
X111000000Y-66000000D02*
X109699000Y-67301000D01*
X111000000Y-41000000D02*
X117500000Y-41000000D01*
X111000000Y-41000000D02*
X109699000Y-39699000D01*
X111000000Y-66000000D02*
X117500000Y-66000000D01*
X109699000Y-74699000D02*
X111000000Y-76000000D01*
X111000000Y-41000000D02*
X109699000Y-42301000D01*
X103801000Y-44699000D02*
X103801000Y-93099000D01*
X111000000Y-31000000D02*
X117500000Y-31000000D01*
X111000000Y-66000000D02*
X109699000Y-64699000D01*
X117500000Y-76000000D02*
X111000000Y-76000000D01*
X95900000Y-101000000D02*
X85520000Y-101000000D01*
X109699000Y-64699000D02*
X109699000Y-57301000D01*
X103801000Y-93099000D02*
X95900000Y-101000000D01*
X85520000Y-101000000D02*
X78520000Y-108000000D01*
X109699000Y-57301000D02*
X111000000Y-56000000D01*
X117500000Y-56000000D02*
X111000000Y-56000000D01*
X109699000Y-39699000D02*
X109699000Y-32301000D01*
X117500000Y-31000000D02*
X103801000Y-44699000D01*
X109699000Y-54699000D02*
X111000000Y-56000000D01*
%TO.N,Net-(J3-Pin_8)*%
X46301000Y-93199000D02*
X58639000Y-93199000D01*
X45000000Y-94500000D02*
X46301000Y-93199000D01*
X58639000Y-93199000D02*
X73440000Y-108000000D01*
%TO.N,Net-(J3-Pin_9)*%
X50000000Y-94500000D02*
X57400000Y-94500000D01*
X57400000Y-94500000D02*
X70900000Y-108000000D01*
%TO.N,Net-(J2-Pin_2)*%
X47500000Y-94500000D02*
X46199000Y-95801000D01*
X43699000Y-93961108D02*
X44862108Y-92798000D01*
X46199000Y-95801000D02*
X44461108Y-95801000D01*
X67923240Y-94151000D02*
X87569000Y-94151000D01*
X44461108Y-95801000D02*
X43699000Y-95038892D01*
X66570240Y-92798000D02*
X67923240Y-94151000D01*
X87569000Y-94151000D02*
X88720000Y-93000000D01*
X44862108Y-92798000D02*
X66570240Y-92798000D01*
X43699000Y-95038892D02*
X43699000Y-93961108D01*
%TO.N,Net-(J3-Pin_7)*%
X48936787Y-114351000D02*
X45000000Y-110414213D01*
X45000000Y-110414213D02*
X45000000Y-109000000D01*
X75980000Y-108000000D02*
X69629000Y-114351000D01*
X69629000Y-114351000D02*
X48936787Y-114351000D01*
%TD*%
M02*
