%TF.GenerationSoftware,KiCad,Pcbnew,9.0.7*%
%TF.CreationDate,2026-01-22T21:08:17+09:00*%
%TF.ProjectId,YMMkeyboard,594d4d6b-6579-4626-9f61-72642e6b6963,rev?*%
%TF.SameCoordinates,Original*%
%TF.FileFunction,Copper,L1,Top*%
%TF.FilePolarity,Positive*%
%FSLAX46Y46*%
G04 Gerber Fmt 4.6, Leading zero omitted, Abs format (unit mm)*
G04 Created by KiCad (PCBNEW 9.0.7) date 2026-01-22 21:08:17*
%MOMM*%
%LPD*%
G01*
G04 APERTURE LIST*
G04 Aperture macros list*
%AMRoundRect*
0 Rectangle with rounded corners*
0 $1 Rounding radius*
0 $2 $3 $4 $5 $6 $7 $8 $9 X,Y pos of 4 corners*
0 Add a 4 corners polygon primitive as box body*
4,1,4,$2,$3,$4,$5,$6,$7,$8,$9,$2,$3,0*
0 Add four circle primitives for the rounded corners*
1,1,$1+$1,$2,$3*
1,1,$1+$1,$4,$5*
1,1,$1+$1,$6,$7*
1,1,$1+$1,$8,$9*
0 Add four rect primitives between the rounded corners*
20,1,$1+$1,$2,$3,$4,$5,0*
20,1,$1+$1,$4,$5,$6,$7,0*
20,1,$1+$1,$6,$7,$8,$9,0*
20,1,$1+$1,$8,$9,$2,$3,0*%
G04 Aperture macros list end*
%TA.AperFunction,ComponentPad*%
%ADD10RoundRect,0.250000X0.550000X0.550000X-0.550000X0.550000X-0.550000X-0.550000X0.550000X-0.550000X0*%
%TD*%
%TA.AperFunction,ComponentPad*%
%ADD11C,1.600000*%
%TD*%
%TA.AperFunction,ComponentPad*%
%ADD12C,2.000000*%
%TD*%
%TA.AperFunction,ComponentPad*%
%ADD13RoundRect,0.250000X0.550000X-0.550000X0.550000X0.550000X-0.550000X0.550000X-0.550000X-0.550000X0*%
%TD*%
%TA.AperFunction,ComponentPad*%
%ADD14R,1.700000X1.700000*%
%TD*%
%TA.AperFunction,ComponentPad*%
%ADD15C,1.700000*%
%TD*%
%TA.AperFunction,ComponentPad*%
%ADD16R,2.000000X2.000000*%
%TD*%
%TA.AperFunction,ComponentPad*%
%ADD17R,2.000000X3.200000*%
%TD*%
%TA.AperFunction,ViaPad*%
%ADD18C,0.600000*%
%TD*%
%TA.AperFunction,Conductor*%
%ADD19C,0.200000*%
%TD*%
G04 APERTURE END LIST*
D10*
%TO.P,D32,1,K*%
%TO.N,Net-(D32-K)*%
X57620000Y-113250000D03*
D11*
%TO.P,D32,2,A*%
%TO.N,Net-(D32-A)*%
X50000000Y-113250000D03*
%TD*%
D12*
%TO.P,SW13,1,1*%
%TO.N,Net-(J3-Pin_6)*%
X111000000Y-41000000D03*
X117500000Y-41000000D03*
%TO.P,SW13,2,2*%
%TO.N,Net-(D12-K)*%
X111000000Y-45500000D03*
X117500000Y-45500000D03*
%TD*%
%TO.P,SW12,1,1*%
%TO.N,Net-(J3-Pin_5)*%
X96000000Y-41000000D03*
X102500000Y-41000000D03*
%TO.P,SW12,2,2*%
%TO.N,Net-(D11-K)*%
X96000000Y-45500000D03*
X102500000Y-45500000D03*
%TD*%
%TO.P,SW30,1,1*%
%TO.N,Net-(J3-Pin_5)*%
X96000000Y-76000000D03*
X102500000Y-76000000D03*
%TO.P,SW30,2,2*%
%TO.N,Net-(D29-K)*%
X96000000Y-80500000D03*
X102500000Y-80500000D03*
%TD*%
%TO.P,SW5,1,1*%
%TO.N,Net-(J3-Pin_4)*%
X81000000Y-31000000D03*
X87500000Y-31000000D03*
%TO.P,SW5,2,2*%
%TO.N,Net-(D4-K)*%
X81000000Y-35500000D03*
X87500000Y-35500000D03*
%TD*%
D13*
%TO.P,D21,1,K*%
%TO.N,Net-(D21-K)*%
X56500000Y-72620000D03*
D11*
%TO.P,D21,2,A*%
%TO.N,Net-(D20-K)*%
X56500000Y-65000000D03*
%TD*%
D13*
%TO.P,D14,1,K*%
%TO.N,Net-(D14-K)*%
X41500000Y-62310000D03*
D11*
%TO.P,D14,2,A*%
%TO.N,Net-(D14-A)*%
X41500000Y-54690000D03*
%TD*%
D13*
%TO.P,D9,1,K*%
%TO.N,Net-(D10-A)*%
X56500000Y-46810000D03*
D11*
%TO.P,D9,2,A*%
%TO.N,Net-(D8-K)*%
X56500000Y-39190000D03*
%TD*%
D14*
%TO.P,J3,1,Pin_1*%
%TO.N,Net-(J3-Pin_1)*%
X91220000Y-108000000D03*
D15*
%TO.P,J3,2,Pin_2*%
%TO.N,Net-(J3-Pin_2)*%
X88680000Y-108000000D03*
%TO.P,J3,3,Pin_3*%
%TO.N,Net-(J3-Pin_3)*%
X86140000Y-108000000D03*
%TO.P,J3,4,Pin_4*%
%TO.N,Net-(J3-Pin_4)*%
X83600000Y-108000000D03*
%TO.P,J3,5,Pin_5*%
%TO.N,Net-(J3-Pin_5)*%
X81060000Y-108000000D03*
%TO.P,J3,6,Pin_6*%
%TO.N,Net-(J3-Pin_6)*%
X78520000Y-108000000D03*
%TO.P,J3,7,Pin_7*%
%TO.N,Net-(J3-Pin_7)*%
X75980000Y-108000000D03*
%TO.P,J3,8,Pin_8*%
%TO.N,Net-(J3-Pin_8)*%
X73440000Y-108000000D03*
%TO.P,J3,9,Pin_9*%
%TO.N,Net-(J3-Pin_9)*%
X70900000Y-108000000D03*
%TO.P,J3,10*%
%TO.N,N/C*%
X68360000Y-108000000D03*
%TD*%
D13*
%TO.P,D2,1,K*%
%TO.N,Net-(D2-K)*%
X42000000Y-37000000D03*
D11*
%TO.P,D2,2,A*%
%TO.N,Net-(D2-A)*%
X42000000Y-29380000D03*
%TD*%
D12*
%TO.P,SW17,1,1*%
%TO.N,Net-(J3-Pin_4)*%
X81250000Y-56250000D03*
X87750000Y-56250000D03*
%TO.P,SW17,2,2*%
%TO.N,Net-(D16-K)*%
X81250000Y-60750000D03*
X87750000Y-60750000D03*
%TD*%
D13*
%TO.P,D6,1,K*%
%TO.N,Net-(D6-K)*%
X106500000Y-37000000D03*
D11*
%TO.P,D6,2,A*%
%TO.N,Net-(D5-K)*%
X106500000Y-29380000D03*
%TD*%
D14*
%TO.P,J2,1,Pin_1*%
%TO.N,Net-(J2-Pin_1)*%
X91260000Y-93000000D03*
D15*
%TO.P,J2,2,Pin_2*%
%TO.N,Net-(J2-Pin_2)*%
X88720000Y-93000000D03*
%TO.P,J2,3,Pin_3*%
%TO.N,Net-(J2-Pin_3)*%
X86180000Y-93000000D03*
%TO.P,J2,4,Pin_4*%
%TO.N,Net-(D32-K)*%
X83640000Y-93000000D03*
%TO.P,J2,5,Pin_5*%
%TO.N,Net-(D7-K)*%
X81100000Y-93000000D03*
%TO.P,J2,6,Pin_6*%
%TO.N,Net-(D13-K)*%
X78560000Y-93000000D03*
%TO.P,J2,7,Pin_7*%
%TO.N,Net-(D19-K)*%
X76020000Y-93000000D03*
%TO.P,J2,8,Pin_8*%
%TO.N,Net-(D25-K)*%
X73480000Y-93000000D03*
%TO.P,J2,9,Pin_9*%
%TO.N,Net-(D31-K)*%
X70940000Y-93000000D03*
%TO.P,J2,10*%
%TO.N,N/C*%
X68400000Y-93000000D03*
%TD*%
D13*
%TO.P,D30,1,K*%
%TO.N,Net-(D30-K)*%
X106500000Y-82310000D03*
D11*
%TO.P,D30,2,A*%
%TO.N,Net-(D29-K)*%
X106500000Y-74690000D03*
%TD*%
D13*
%TO.P,D10,1,K*%
%TO.N,Net-(D10-K)*%
X75000000Y-46810000D03*
D11*
%TO.P,D10,2,A*%
%TO.N,Net-(D10-A)*%
X75000000Y-39190000D03*
%TD*%
D12*
%TO.P,SW7,1,1*%
%TO.N,Net-(J3-Pin_6)*%
X111000000Y-31000000D03*
X117500000Y-31000000D03*
%TO.P,SW7,2,2*%
%TO.N,Net-(D6-K)*%
X111000000Y-35500000D03*
X117500000Y-35500000D03*
%TD*%
%TO.P,SW28,1,1*%
%TO.N,Net-(J3-Pin_3)*%
X61000000Y-76000000D03*
X67500000Y-76000000D03*
%TO.P,SW28,2,2*%
%TO.N,Net-(D27-K)*%
X61000000Y-80500000D03*
X67500000Y-80500000D03*
%TD*%
D13*
%TO.P,D12,1,K*%
%TO.N,Net-(D12-K)*%
X106500000Y-47310000D03*
D11*
%TO.P,D12,2,A*%
%TO.N,Net-(D11-K)*%
X106500000Y-39690000D03*
%TD*%
D13*
%TO.P,D20,1,K*%
%TO.N,Net-(D20-K)*%
X41500000Y-72620000D03*
D11*
%TO.P,D20,2,A*%
%TO.N,Net-(D20-A)*%
X41500000Y-65000000D03*
%TD*%
D13*
%TO.P,D31,1,K*%
%TO.N,Net-(D31-K)*%
X122500000Y-82120000D03*
D11*
%TO.P,D31,2,A*%
%TO.N,Net-(D30-K)*%
X122500000Y-74500000D03*
%TD*%
D12*
%TO.P,SW20,1,1*%
%TO.N,Net-(J3-Pin_1)*%
X30750000Y-65750000D03*
X37250000Y-65750000D03*
%TO.P,SW20,2,2*%
%TO.N,Net-(D20-A)*%
X30750000Y-70250000D03*
X37250000Y-70250000D03*
%TD*%
D13*
%TO.P,D18,1,K*%
%TO.N,Net-(D18-K)*%
X106500000Y-62310000D03*
D11*
%TO.P,D18,2,A*%
%TO.N,Net-(D17-K)*%
X106500000Y-54690000D03*
%TD*%
D12*
%TO.P,SW26,1,1*%
%TO.N,Net-(J3-Pin_1)*%
X31000000Y-76000000D03*
X37500000Y-76000000D03*
%TO.P,SW26,2,2*%
%TO.N,Net-(D26-A)*%
X31000000Y-80500000D03*
X37500000Y-80500000D03*
%TD*%
D13*
%TO.P,D7,1,K*%
%TO.N,Net-(D7-K)*%
X122500000Y-36810000D03*
D11*
%TO.P,D7,2,A*%
%TO.N,Net-(D6-K)*%
X122500000Y-29190000D03*
%TD*%
D13*
%TO.P,D28,1,K*%
%TO.N,Net-(D28-K)*%
X75000000Y-83310000D03*
D11*
%TO.P,D28,2,A*%
%TO.N,Net-(D27-K)*%
X75000000Y-75690000D03*
%TD*%
D13*
%TO.P,D19,1,K*%
%TO.N,Net-(D19-K)*%
X122500000Y-61620000D03*
D11*
%TO.P,D19,2,A*%
%TO.N,Net-(D18-K)*%
X122500000Y-54000000D03*
%TD*%
D12*
%TO.P,SW21,1,1*%
%TO.N,Net-(J3-Pin_2)*%
X46000000Y-66000000D03*
X52500000Y-66000000D03*
%TO.P,SW21,2,2*%
%TO.N,Net-(D20-K)*%
X46000000Y-70500000D03*
X52500000Y-70500000D03*
%TD*%
D13*
%TO.P,D13,1,K*%
%TO.N,Net-(D13-K)*%
X122500000Y-47310000D03*
D11*
%TO.P,D13,2,A*%
%TO.N,Net-(D12-K)*%
X122500000Y-39690000D03*
%TD*%
D12*
%TO.P,SW16,1,1*%
%TO.N,Net-(J3-Pin_3)*%
X61000000Y-56000000D03*
X67500000Y-56000000D03*
%TO.P,SW16,2,2*%
%TO.N,Net-(D15-K)*%
X61000000Y-60500000D03*
X67500000Y-60500000D03*
%TD*%
%TO.P,SW29,1,1*%
%TO.N,Net-(J3-Pin_4)*%
X81000000Y-76000000D03*
X87500000Y-76000000D03*
%TO.P,SW29,2,2*%
%TO.N,Net-(D28-K)*%
X81000000Y-80500000D03*
X87500000Y-80500000D03*
%TD*%
%TO.P,SW14,1,1*%
%TO.N,Net-(J3-Pin_1)*%
X31000000Y-56000000D03*
X37500000Y-56000000D03*
%TO.P,SW14,2,2*%
%TO.N,Net-(D14-A)*%
X31000000Y-60500000D03*
X37500000Y-60500000D03*
%TD*%
%TO.P,SW15,1,1*%
%TO.N,Net-(J3-Pin_2)*%
X46000000Y-56000000D03*
X52500000Y-56000000D03*
%TO.P,SW15,2,2*%
%TO.N,Net-(D14-K)*%
X46000000Y-60500000D03*
X52500000Y-60500000D03*
%TD*%
D13*
%TO.P,D23,1,K*%
%TO.N,Net-(D23-K)*%
X92000000Y-72310000D03*
D11*
%TO.P,D23,2,A*%
%TO.N,Net-(D22-K)*%
X92000000Y-64690000D03*
%TD*%
D13*
%TO.P,D3,1,K*%
%TO.N,Net-(D3-K)*%
X56500000Y-36810000D03*
D11*
%TO.P,D3,2,A*%
%TO.N,Net-(D2-K)*%
X56500000Y-29190000D03*
%TD*%
D13*
%TO.P,D27,1,K*%
%TO.N,Net-(D27-K)*%
X56500000Y-82810000D03*
D11*
%TO.P,D27,2,A*%
%TO.N,Net-(D26-K)*%
X56500000Y-75190000D03*
%TD*%
D12*
%TO.P,SW18,1,1*%
%TO.N,Net-(J3-Pin_5)*%
X96000000Y-56000000D03*
X102500000Y-56000000D03*
%TO.P,SW18,2,2*%
%TO.N,Net-(D17-K)*%
X96000000Y-60500000D03*
X102500000Y-60500000D03*
%TD*%
%TO.P,SW11,1,1*%
%TO.N,Net-(J3-Pin_4)*%
X80750000Y-40750000D03*
X87250000Y-40750000D03*
%TO.P,SW11,2,2*%
%TO.N,Net-(D10-K)*%
X80750000Y-45250000D03*
X87250000Y-45250000D03*
%TD*%
D13*
%TO.P,D29,1,K*%
%TO.N,Net-(D29-K)*%
X92000000Y-82500000D03*
D11*
%TO.P,D29,2,A*%
%TO.N,Net-(D28-K)*%
X92000000Y-74880000D03*
%TD*%
D12*
%TO.P,SW24,1,1*%
%TO.N,Net-(J3-Pin_5)*%
X95750000Y-65750000D03*
X102250000Y-65750000D03*
%TO.P,SW24,2,2*%
%TO.N,Net-(D23-K)*%
X95750000Y-70250000D03*
X102250000Y-70250000D03*
%TD*%
D13*
%TO.P,D26,1,K*%
%TO.N,Net-(D26-K)*%
X41500000Y-82810000D03*
D11*
%TO.P,D26,2,A*%
%TO.N,Net-(D26-A)*%
X41500000Y-75190000D03*
%TD*%
D12*
%TO.P,SW31,1,1*%
%TO.N,Net-(J3-Pin_6)*%
X111000000Y-76000000D03*
X117500000Y-76000000D03*
%TO.P,SW31,2,2*%
%TO.N,Net-(D30-K)*%
X111000000Y-80500000D03*
X117500000Y-80500000D03*
%TD*%
D13*
%TO.P,D5,1,K*%
%TO.N,Net-(D5-K)*%
X91500000Y-37310000D03*
D11*
%TO.P,D5,2,A*%
%TO.N,Net-(D4-K)*%
X91500000Y-29690000D03*
%TD*%
D13*
%TO.P,D4,1,K*%
%TO.N,Net-(D4-K)*%
X75000000Y-36810000D03*
D11*
%TO.P,D4,2,A*%
%TO.N,Net-(D3-K)*%
X75000000Y-29190000D03*
%TD*%
D12*
%TO.P,SW27,1,1*%
%TO.N,Net-(J3-Pin_2)*%
X46000000Y-76000000D03*
X52500000Y-76000000D03*
%TO.P,SW27,2,2*%
%TO.N,Net-(D26-K)*%
X46000000Y-80500000D03*
X52500000Y-80500000D03*
%TD*%
D13*
%TO.P,D24,1,K*%
%TO.N,Net-(D24-K)*%
X106500000Y-72310000D03*
D11*
%TO.P,D24,2,A*%
%TO.N,Net-(D23-K)*%
X106500000Y-64690000D03*
%TD*%
D13*
%TO.P,D17,1,K*%
%TO.N,Net-(D17-K)*%
X92000000Y-62310000D03*
D11*
%TO.P,D17,2,A*%
%TO.N,Net-(D16-K)*%
X92000000Y-54690000D03*
%TD*%
D12*
%TO.P,SW2,1,1*%
%TO.N,Net-(J3-Pin_1)*%
X31000000Y-31000000D03*
X37500000Y-31000000D03*
%TO.P,SW2,2,2*%
%TO.N,Net-(D2-A)*%
X31000000Y-35500000D03*
X37500000Y-35500000D03*
%TD*%
D13*
%TO.P,D8,1,K*%
%TO.N,Net-(D8-K)*%
X42000000Y-46810000D03*
D11*
%TO.P,D8,2,A*%
%TO.N,Net-(D8-A)*%
X42000000Y-39190000D03*
%TD*%
D13*
%TO.P,D15,1,K*%
%TO.N,Net-(D15-K)*%
X56500000Y-62310000D03*
D11*
%TO.P,D15,2,A*%
%TO.N,Net-(D14-K)*%
X56500000Y-54690000D03*
%TD*%
D12*
%TO.P,SW25,1,1*%
%TO.N,Net-(J3-Pin_6)*%
X111000000Y-66000000D03*
X117500000Y-66000000D03*
%TO.P,SW25,2,2*%
%TO.N,Net-(D24-K)*%
X111000000Y-70500000D03*
X117500000Y-70500000D03*
%TD*%
%TO.P,SW10,1,1*%
%TO.N,Net-(J3-Pin_3)*%
X61000000Y-41000000D03*
X67500000Y-41000000D03*
%TO.P,SW10,2,2*%
%TO.N,Net-(D10-A)*%
X61000000Y-45500000D03*
X67500000Y-45500000D03*
%TD*%
%TO.P,SW23,1,1*%
%TO.N,Net-(J3-Pin_4)*%
X81000000Y-66000000D03*
X87500000Y-66000000D03*
%TO.P,SW23,2,2*%
%TO.N,Net-(D22-K)*%
X81000000Y-70500000D03*
X87500000Y-70500000D03*
%TD*%
%TO.P,SW8,1,1*%
%TO.N,Net-(J3-Pin_1)*%
X31000000Y-41000000D03*
X37500000Y-41000000D03*
%TO.P,SW8,2,2*%
%TO.N,Net-(D8-A)*%
X31000000Y-45500000D03*
X37500000Y-45500000D03*
%TD*%
D13*
%TO.P,D22,1,K*%
%TO.N,Net-(D22-K)*%
X75000000Y-73120000D03*
D11*
%TO.P,D22,2,A*%
%TO.N,Net-(D21-K)*%
X75000000Y-65500000D03*
%TD*%
D12*
%TO.P,SW4,1,1*%
%TO.N,Net-(J3-Pin_3)*%
X61000000Y-31000000D03*
X67500000Y-31000000D03*
%TO.P,SW4,2,2*%
%TO.N,Net-(D3-K)*%
X61000000Y-35500000D03*
X67500000Y-35500000D03*
%TD*%
D13*
%TO.P,D16,1,K*%
%TO.N,Net-(D16-K)*%
X75000000Y-62810000D03*
D11*
%TO.P,D16,2,A*%
%TO.N,Net-(D15-K)*%
X75000000Y-55190000D03*
%TD*%
D12*
%TO.P,SW6,1,1*%
%TO.N,Net-(J3-Pin_5)*%
X96000000Y-31000000D03*
X102500000Y-31000000D03*
%TO.P,SW6,2,2*%
%TO.N,Net-(D5-K)*%
X96000000Y-35500000D03*
X102500000Y-35500000D03*
%TD*%
%TO.P,SW22,1,1*%
%TO.N,Net-(J3-Pin_3)*%
X61000000Y-66000000D03*
X67500000Y-66000000D03*
%TO.P,SW22,2,2*%
%TO.N,Net-(D21-K)*%
X61000000Y-70500000D03*
X67500000Y-70500000D03*
%TD*%
D13*
%TO.P,D11,1,K*%
%TO.N,Net-(D11-K)*%
X91500000Y-47310000D03*
D11*
%TO.P,D11,2,A*%
%TO.N,Net-(D10-K)*%
X91500000Y-39690000D03*
%TD*%
D13*
%TO.P,D25,1,K*%
%TO.N,Net-(D25-K)*%
X122500000Y-72310000D03*
D11*
%TO.P,D25,2,A*%
%TO.N,Net-(D24-K)*%
X122500000Y-64690000D03*
%TD*%
D12*
%TO.P,SW9,1,1*%
%TO.N,Net-(J3-Pin_2)*%
X45950000Y-41000000D03*
X52450000Y-41000000D03*
%TO.P,SW9,2,2*%
%TO.N,Net-(D8-K)*%
X45950000Y-45500000D03*
X52450000Y-45500000D03*
%TD*%
D16*
%TO.P,SW32,A,A*%
%TO.N,Net-(J3-Pin_9)*%
X50000000Y-94500000D03*
D12*
%TO.P,SW32,B,B*%
%TO.N,Net-(J3-Pin_8)*%
X45000000Y-94500000D03*
%TO.P,SW32,C,C*%
%TO.N,Net-(J2-Pin_2)*%
X47500000Y-94500000D03*
D17*
%TO.P,SW32,MP*%
%TO.N,N/C*%
X53100000Y-102000000D03*
X41900000Y-102000000D03*
D12*
%TO.P,SW32,S1,S1*%
%TO.N,Net-(J3-Pin_7)*%
X45000000Y-109000000D03*
%TO.P,SW32,S2,S2*%
%TO.N,Net-(D32-A)*%
X50000000Y-109000000D03*
%TD*%
%TO.P,SW3,1,1*%
%TO.N,Net-(J3-Pin_2)*%
X46000000Y-31000000D03*
X52500000Y-31000000D03*
%TO.P,SW3,2,2*%
%TO.N,Net-(D2-K)*%
X46000000Y-35500000D03*
X52500000Y-35500000D03*
%TD*%
%TO.P,SW19,1,1*%
%TO.N,Net-(J3-Pin_6)*%
X111000000Y-56000000D03*
X117500000Y-56000000D03*
%TO.P,SW19,2,2*%
%TO.N,Net-(D18-K)*%
X111000000Y-60500000D03*
X117500000Y-60500000D03*
%TD*%
D18*
%TO.N,Net-(D19-K)*%
X96500000Y-90000000D03*
%TO.N,Net-(D25-K)*%
X96500000Y-88000000D03*
%TO.N,Net-(J3-Pin_2)*%
X41000000Y-90000000D03*
X86000000Y-116899000D03*
%TO.N,Net-(J3-Pin_3)*%
X80000000Y-100000000D03*
X72000000Y-78000000D03*
X77000000Y-97000000D03*
%TD*%
D19*
%TO.N,Net-(D2-K)*%
X56500000Y-31500000D02*
X52500000Y-35500000D01*
X56500000Y-29190000D02*
X56500000Y-31500000D01*
%TO.N,Net-(D2-A)*%
X31000000Y-35500000D02*
X37500000Y-35500000D01*
X37500000Y-35500000D02*
X42000000Y-31000000D01*
X42000000Y-31000000D02*
X42000000Y-29380000D01*
%TO.N,Net-(D2-K)*%
X46000000Y-35500000D02*
X52500000Y-35500000D01*
X44500000Y-37000000D02*
X46000000Y-35500000D01*
X42000000Y-37000000D02*
X44500000Y-37000000D01*
%TO.N,Net-(D3-K)*%
X61000000Y-35500000D02*
X67500000Y-35500000D01*
X67500000Y-35500000D02*
X73810000Y-29190000D01*
X56500000Y-37120000D02*
X59380000Y-37120000D01*
X73810000Y-29190000D02*
X75000000Y-29190000D01*
X59380000Y-37120000D02*
X61000000Y-35500000D01*
%TO.N,Net-(D4-K)*%
X81000000Y-35500000D02*
X87500000Y-35500000D01*
X75000000Y-36810000D02*
X79690000Y-36810000D01*
X79690000Y-36810000D02*
X81000000Y-35500000D01*
X91500000Y-31500000D02*
X91500000Y-29690000D01*
X87500000Y-35500000D02*
X91500000Y-31500000D01*
%TO.N,Net-(D5-K)*%
X96000000Y-35500000D02*
X102500000Y-35500000D01*
X91500000Y-37310000D02*
X94190000Y-37310000D01*
X106500000Y-31500000D02*
X106500000Y-29380000D01*
X94190000Y-37310000D02*
X96000000Y-35500000D01*
X102500000Y-35500000D02*
X106500000Y-31500000D01*
%TO.N,Net-(D6-K)*%
X106500000Y-37000000D02*
X109500000Y-37000000D01*
X109500000Y-37000000D02*
X111000000Y-35500000D01*
X122500000Y-30500000D02*
X122500000Y-29190000D01*
X111000000Y-35500000D02*
X117500000Y-35500000D01*
X117500000Y-35500000D02*
X122500000Y-30500000D01*
%TO.N,Net-(D7-K)*%
X122500000Y-36810000D02*
X124399000Y-38709000D01*
X94423840Y-68000000D02*
X88644840Y-73779000D01*
X88801000Y-79961108D02*
X88801000Y-85299000D01*
X96839892Y-68000000D02*
X94423840Y-68000000D01*
X124399000Y-40440892D02*
X96839892Y-68000000D01*
X93101000Y-75661108D02*
X88801000Y-79961108D01*
X88801000Y-85299000D02*
X81100000Y-93000000D01*
X93101000Y-74423950D02*
X93101000Y-75661108D01*
X124399000Y-38709000D02*
X124399000Y-40440892D01*
X92456050Y-73779000D02*
X93101000Y-74423950D01*
X88644840Y-73779000D02*
X92456050Y-73779000D01*
%TO.N,Net-(D8-A)*%
X31000000Y-45500000D02*
X37500000Y-45500000D01*
X42000000Y-41000000D02*
X42000000Y-39190000D01*
X37500000Y-45500000D02*
X42000000Y-41000000D01*
%TO.N,Net-(D8-K)*%
X42000000Y-46810000D02*
X44640000Y-46810000D01*
X56500000Y-41450000D02*
X56500000Y-39190000D01*
X44640000Y-46810000D02*
X45950000Y-45500000D01*
X52450000Y-45500000D02*
X56500000Y-41450000D01*
X45950000Y-45500000D02*
X52450000Y-45500000D01*
%TO.N,Net-(D10-A)*%
X67500000Y-45500000D02*
X73810000Y-39190000D01*
X59690000Y-46810000D02*
X61000000Y-45500000D01*
X56500000Y-46810000D02*
X59690000Y-46810000D01*
X73810000Y-39190000D02*
X75000000Y-39190000D01*
X61000000Y-45500000D02*
X67500000Y-45500000D01*
%TO.N,Net-(D10-K)*%
X80750000Y-45250000D02*
X87250000Y-45250000D01*
X87250000Y-45250000D02*
X91500000Y-41000000D01*
X91500000Y-41000000D02*
X91500000Y-39690000D01*
X75000000Y-46810000D02*
X79190000Y-46810000D01*
X79190000Y-46810000D02*
X80750000Y-45250000D01*
%TO.N,Net-(D11-K)*%
X91500000Y-47310000D02*
X94190000Y-47310000D01*
X106500000Y-41500000D02*
X106500000Y-39690000D01*
X102500000Y-45500000D02*
X106500000Y-41500000D01*
X96000000Y-45500000D02*
X102500000Y-45500000D01*
X94190000Y-47310000D02*
X96000000Y-45500000D01*
%TO.N,Net-(D12-K)*%
X117500000Y-45500000D02*
X122500000Y-40500000D01*
X109190000Y-47310000D02*
X111000000Y-45500000D01*
X111000000Y-45500000D02*
X117500000Y-45500000D01*
X106500000Y-47310000D02*
X109190000Y-47310000D01*
X122500000Y-40500000D02*
X122500000Y-39690000D01*
%TO.N,Net-(D13-K)*%
X101817992Y-63589000D02*
X106956050Y-63589000D01*
X81576760Y-94151000D02*
X79711000Y-94151000D01*
X105906992Y-59500000D02*
X101817992Y-63589000D01*
X107601000Y-66738892D02*
X94212684Y-80127208D01*
X107601000Y-64233950D02*
X107601000Y-66738892D01*
X79711000Y-94151000D02*
X78560000Y-93000000D01*
X121700000Y-47310000D02*
X109510000Y-59500000D01*
X89202000Y-80127208D02*
X89202000Y-85572240D01*
X122500000Y-47310000D02*
X121700000Y-47310000D01*
X89202000Y-85572240D02*
X82251000Y-92523240D01*
X82251000Y-92523240D02*
X82251000Y-93476760D01*
X94212684Y-80127208D02*
X89202000Y-80127208D01*
X106956050Y-63589000D02*
X107601000Y-64233950D01*
X82251000Y-93476760D02*
X81576760Y-94151000D01*
X109510000Y-59500000D02*
X105906992Y-59500000D01*
%TO.N,Net-(D14-A)*%
X37500000Y-60500000D02*
X41500000Y-56500000D01*
X31000000Y-60500000D02*
X37500000Y-60500000D01*
X41500000Y-56500000D02*
X41500000Y-54690000D01*
%TO.N,Net-(D14-K)*%
X41500000Y-62310000D02*
X44190000Y-62310000D01*
X44190000Y-62310000D02*
X46000000Y-60500000D01*
X56500000Y-56500000D02*
X56500000Y-54690000D01*
X46000000Y-60500000D02*
X52500000Y-60500000D01*
X52500000Y-60500000D02*
X56500000Y-56500000D01*
%TO.N,Net-(D15-K)*%
X61000000Y-60500000D02*
X67500000Y-60500000D01*
X67500000Y-60500000D02*
X72810000Y-55190000D01*
X56500000Y-62310000D02*
X59190000Y-62310000D01*
X59190000Y-62310000D02*
X61000000Y-60500000D01*
X72810000Y-55190000D02*
X75000000Y-55190000D01*
%TO.N,Net-(D16-K)*%
X81250000Y-60750000D02*
X87750000Y-60750000D01*
X75000000Y-62810000D02*
X79190000Y-62810000D01*
X87750000Y-60750000D02*
X92000000Y-56500000D01*
X79190000Y-62810000D02*
X81250000Y-60750000D01*
X92000000Y-56500000D02*
X92000000Y-54690000D01*
%TO.N,Net-(D17-K)*%
X102500000Y-60500000D02*
X106500000Y-56500000D01*
X94190000Y-62310000D02*
X96000000Y-60500000D01*
X96000000Y-60500000D02*
X102500000Y-60500000D01*
X106500000Y-56500000D02*
X106500000Y-54690000D01*
X92000000Y-62310000D02*
X94190000Y-62310000D01*
%TO.N,Net-(D18-K)*%
X109190000Y-62310000D02*
X111000000Y-60500000D01*
X117500000Y-60500000D02*
X117500000Y-59000000D01*
X117500000Y-59000000D02*
X122500000Y-54000000D01*
X111000000Y-60500000D02*
X117500000Y-60500000D01*
X106500000Y-62310000D02*
X109190000Y-62310000D01*
%TO.N,Net-(D19-K)*%
X96500000Y-90000000D02*
X95899000Y-89399000D01*
X118038892Y-71801000D02*
X123601000Y-66238892D01*
X97761108Y-87399000D02*
X113359108Y-71801000D01*
X95899000Y-87751057D02*
X96251057Y-87399000D01*
X113359108Y-71801000D02*
X118038892Y-71801000D01*
X123601000Y-62721000D02*
X122500000Y-61620000D01*
X96251057Y-87399000D02*
X97761108Y-87399000D01*
X123601000Y-66238892D02*
X123601000Y-62721000D01*
X95899000Y-89399000D02*
X95899000Y-87751057D01*
%TO.N,Net-(D20-A)*%
X37250000Y-70250000D02*
X41500000Y-66000000D01*
X30750000Y-70250000D02*
X37250000Y-70250000D01*
X41500000Y-66000000D02*
X41500000Y-65000000D01*
%TO.N,Net-(D20-K)*%
X46000000Y-70500000D02*
X52500000Y-70500000D01*
X52500000Y-70500000D02*
X56500000Y-66500000D01*
X41500000Y-72620000D02*
X43880000Y-72620000D01*
X56500000Y-66500000D02*
X56500000Y-65000000D01*
X43880000Y-72620000D02*
X46000000Y-70500000D01*
%TO.N,Net-(D21-K)*%
X58880000Y-72620000D02*
X61000000Y-70500000D01*
X72500000Y-65500000D02*
X75000000Y-65500000D01*
X67500000Y-70500000D02*
X72500000Y-65500000D01*
X56500000Y-72620000D02*
X58880000Y-72620000D01*
X61000000Y-70500000D02*
X67500000Y-70500000D01*
%TO.N,Net-(D22-K)*%
X92000000Y-66000000D02*
X92000000Y-64690000D01*
X87500000Y-70500000D02*
X92000000Y-66000000D01*
X75000000Y-73120000D02*
X78380000Y-73120000D01*
X78380000Y-73120000D02*
X81000000Y-70500000D01*
X81000000Y-70500000D02*
X87500000Y-70500000D01*
%TO.N,Net-(D23-K)*%
X102250000Y-70250000D02*
X106500000Y-66000000D01*
X106500000Y-66000000D02*
X106500000Y-64690000D01*
X93690000Y-72310000D02*
X95750000Y-70250000D01*
X95750000Y-70250000D02*
X102250000Y-70250000D01*
X92000000Y-72310000D02*
X93690000Y-72310000D01*
%TO.N,Net-(D24-K)*%
X109190000Y-72310000D02*
X111000000Y-70500000D01*
X122500000Y-65500000D02*
X122500000Y-64690000D01*
X111000000Y-70500000D02*
X117500000Y-70500000D01*
X117500000Y-70500000D02*
X122500000Y-65500000D01*
X106500000Y-72310000D02*
X109190000Y-72310000D01*
%TO.N,Net-(D25-K)*%
X116815840Y-72310000D02*
X122500000Y-72310000D01*
X98923840Y-88000000D02*
X105714840Y-81209000D01*
X105714840Y-81209000D02*
X107916840Y-81209000D01*
X96500000Y-88000000D02*
X98923840Y-88000000D01*
X107916840Y-81209000D02*
X116815840Y-72310000D01*
%TO.N,Net-(D26-A)*%
X37500000Y-80500000D02*
X41500000Y-76500000D01*
X31000000Y-80500000D02*
X37500000Y-80500000D01*
X41500000Y-76500000D02*
X41500000Y-75190000D01*
%TO.N,Net-(D26-K)*%
X52500000Y-80500000D02*
X56500000Y-76500000D01*
X41500000Y-82810000D02*
X43690000Y-82810000D01*
X43690000Y-82810000D02*
X46000000Y-80500000D01*
X56500000Y-76500000D02*
X56500000Y-75190000D01*
X46000000Y-80500000D02*
X52500000Y-80500000D01*
%TO.N,Net-(D27-K)*%
X67500000Y-80500000D02*
X72310000Y-75690000D01*
X58690000Y-82810000D02*
X61000000Y-80500000D01*
X56500000Y-82810000D02*
X58690000Y-82810000D01*
X72310000Y-75690000D02*
X75000000Y-75690000D01*
X61000000Y-80500000D02*
X67500000Y-80500000D01*
%TO.N,Net-(D28-K)*%
X87500000Y-80500000D02*
X87500000Y-79380000D01*
X87500000Y-79380000D02*
X92000000Y-74880000D01*
X78190000Y-83310000D02*
X81000000Y-80500000D01*
X81000000Y-80500000D02*
X87500000Y-80500000D01*
X75000000Y-83310000D02*
X78190000Y-83310000D01*
%TO.N,Net-(D29-K)*%
X102500000Y-80500000D02*
X106500000Y-76500000D01*
X92000000Y-82500000D02*
X94000000Y-82500000D01*
X94000000Y-82500000D02*
X96000000Y-80500000D01*
X106500000Y-76500000D02*
X106500000Y-74690000D01*
X96000000Y-80500000D02*
X102500000Y-80500000D01*
%TO.N,Net-(D30-K)*%
X109190000Y-82310000D02*
X111000000Y-80500000D01*
X117500000Y-79500000D02*
X122500000Y-74500000D01*
X106500000Y-82310000D02*
X109190000Y-82310000D01*
X117500000Y-80500000D02*
X117500000Y-79500000D01*
X111000000Y-80500000D02*
X117500000Y-80500000D01*
%TO.N,Net-(D31-K)*%
X122500000Y-82120000D02*
X90269000Y-114351000D01*
X90269000Y-114351000D02*
X56834840Y-114351000D01*
X56519000Y-107421000D02*
X70940000Y-93000000D01*
X56519000Y-114035160D02*
X56519000Y-107421000D01*
X56834840Y-114351000D02*
X56519000Y-114035160D01*
%TO.N,Net-(D32-K)*%
X66870000Y-104000000D02*
X57620000Y-113250000D01*
X83640000Y-93000000D02*
X72640000Y-104000000D01*
X72640000Y-104000000D02*
X66870000Y-104000000D01*
%TO.N,Net-(J3-Pin_2)*%
X43250000Y-113149000D02*
X47000000Y-116899000D01*
X47000000Y-116899000D02*
X86000000Y-116899000D01*
X43250000Y-92250000D02*
X43250000Y-113149000D01*
X41000000Y-90000000D02*
X43250000Y-92250000D01*
%TO.N,Net-(J3-Pin_3)*%
X80000000Y-101860000D02*
X80000000Y-100000000D01*
X86140000Y-108000000D02*
X80000000Y-101860000D01*
X72000000Y-87352240D02*
X77171000Y-92523240D01*
X72000000Y-78000000D02*
X72000000Y-87352240D01*
X77171000Y-96829000D02*
X77000000Y-97000000D01*
X77171000Y-92523240D02*
X77171000Y-96829000D01*
%TD*%
M02*
