%TF.GenerationSoftware,KiCad,Pcbnew,9.0.7*%
%TF.CreationDate,2026-01-22T21:08:17+09:00*%
%TF.ProjectId,YMMkeyboard,594d4d6b-6579-4626-9f61-72642e6b6963,rev?*%
%TF.SameCoordinates,Original*%
%TF.FileFunction,Soldermask,Bot*%
%TF.FilePolarity,Negative*%
%FSLAX46Y46*%
G04 Gerber Fmt 4.6, Leading zero omitted, Abs format (unit mm)*
G04 Created by KiCad (PCBNEW 9.0.7) date 2026-01-22 21:08:17*
%MOMM*%
%LPD*%
G01*
G04 APERTURE LIST*
G04 Aperture macros list*
%AMRoundRect*
0 Rectangle with rounded corners*
0 $1 Rounding radius*
0 $2 $3 $4 $5 $6 $7 $8 $9 X,Y pos of 4 corners*
0 Add a 4 corners polygon primitive as box body*
4,1,4,$2,$3,$4,$5,$6,$7,$8,$9,$2,$3,0*
0 Add four circle primitives for the rounded corners*
1,1,$1+$1,$2,$3*
1,1,$1+$1,$4,$5*
1,1,$1+$1,$6,$7*
1,1,$1+$1,$8,$9*
0 Add four rect primitives between the rounded corners*
20,1,$1+$1,$2,$3,$4,$5,0*
20,1,$1+$1,$4,$5,$6,$7,0*
20,1,$1+$1,$6,$7,$8,$9,0*
20,1,$1+$1,$8,$9,$2,$3,0*%
G04 Aperture macros list end*
%ADD10RoundRect,0.250000X0.550000X0.550000X-0.550000X0.550000X-0.550000X-0.550000X0.550000X-0.550000X0*%
%ADD11C,1.600000*%
%ADD12C,2.000000*%
%ADD13RoundRect,0.250000X0.550000X-0.550000X0.550000X0.550000X-0.550000X0.550000X-0.550000X-0.550000X0*%
%ADD14R,1.700000X1.700000*%
%ADD15C,1.700000*%
%ADD16R,2.000000X2.000000*%
%ADD17R,2.000000X3.200000*%
G04 APERTURE END LIST*
D10*
%TO.C,D32*%
X57620000Y-113250000D03*
D11*
X50000000Y-113250000D03*
%TD*%
D12*
%TO.C,SW13*%
X111000000Y-41000000D03*
X117500000Y-41000000D03*
X111000000Y-45500000D03*
X117500000Y-45500000D03*
%TD*%
%TO.C,SW12*%
X96000000Y-41000000D03*
X102500000Y-41000000D03*
X96000000Y-45500000D03*
X102500000Y-45500000D03*
%TD*%
%TO.C,SW30*%
X96000000Y-76000000D03*
X102500000Y-76000000D03*
X96000000Y-80500000D03*
X102500000Y-80500000D03*
%TD*%
%TO.C,SW5*%
X81000000Y-31000000D03*
X87500000Y-31000000D03*
X81000000Y-35500000D03*
X87500000Y-35500000D03*
%TD*%
D13*
%TO.C,D21*%
X56500000Y-72620000D03*
D11*
X56500000Y-65000000D03*
%TD*%
D13*
%TO.C,D14*%
X41500000Y-62310000D03*
D11*
X41500000Y-54690000D03*
%TD*%
D13*
%TO.C,D9*%
X56500000Y-46810000D03*
D11*
X56500000Y-39190000D03*
%TD*%
D14*
%TO.C,J3*%
X91220000Y-108000000D03*
D15*
X88680000Y-108000000D03*
X86140000Y-108000000D03*
X83600000Y-108000000D03*
X81060000Y-108000000D03*
X78520000Y-108000000D03*
X75980000Y-108000000D03*
X73440000Y-108000000D03*
X70900000Y-108000000D03*
X68360000Y-108000000D03*
%TD*%
D13*
%TO.C,D2*%
X42000000Y-37000000D03*
D11*
X42000000Y-29380000D03*
%TD*%
D12*
%TO.C,SW17*%
X81250000Y-56250000D03*
X87750000Y-56250000D03*
X81250000Y-60750000D03*
X87750000Y-60750000D03*
%TD*%
D13*
%TO.C,D6*%
X106500000Y-37000000D03*
D11*
X106500000Y-29380000D03*
%TD*%
D14*
%TO.C,J2*%
X91260000Y-93000000D03*
D15*
X88720000Y-93000000D03*
X86180000Y-93000000D03*
X83640000Y-93000000D03*
X81100000Y-93000000D03*
X78560000Y-93000000D03*
X76020000Y-93000000D03*
X73480000Y-93000000D03*
X70940000Y-93000000D03*
X68400000Y-93000000D03*
%TD*%
D13*
%TO.C,D30*%
X106500000Y-82310000D03*
D11*
X106500000Y-74690000D03*
%TD*%
D13*
%TO.C,D10*%
X75000000Y-46810000D03*
D11*
X75000000Y-39190000D03*
%TD*%
D12*
%TO.C,SW7*%
X111000000Y-31000000D03*
X117500000Y-31000000D03*
X111000000Y-35500000D03*
X117500000Y-35500000D03*
%TD*%
%TO.C,SW28*%
X61000000Y-76000000D03*
X67500000Y-76000000D03*
X61000000Y-80500000D03*
X67500000Y-80500000D03*
%TD*%
D13*
%TO.C,D12*%
X106500000Y-47310000D03*
D11*
X106500000Y-39690000D03*
%TD*%
D13*
%TO.C,D20*%
X41500000Y-72620000D03*
D11*
X41500000Y-65000000D03*
%TD*%
D13*
%TO.C,D31*%
X122500000Y-82120000D03*
D11*
X122500000Y-74500000D03*
%TD*%
D12*
%TO.C,SW20*%
X30750000Y-65750000D03*
X37250000Y-65750000D03*
X30750000Y-70250000D03*
X37250000Y-70250000D03*
%TD*%
D13*
%TO.C,D18*%
X106500000Y-62310000D03*
D11*
X106500000Y-54690000D03*
%TD*%
D12*
%TO.C,SW26*%
X31000000Y-76000000D03*
X37500000Y-76000000D03*
X31000000Y-80500000D03*
X37500000Y-80500000D03*
%TD*%
D13*
%TO.C,D7*%
X122500000Y-36810000D03*
D11*
X122500000Y-29190000D03*
%TD*%
D13*
%TO.C,D28*%
X75000000Y-83310000D03*
D11*
X75000000Y-75690000D03*
%TD*%
D13*
%TO.C,D19*%
X122500000Y-61620000D03*
D11*
X122500000Y-54000000D03*
%TD*%
D12*
%TO.C,SW21*%
X46000000Y-66000000D03*
X52500000Y-66000000D03*
X46000000Y-70500000D03*
X52500000Y-70500000D03*
%TD*%
D13*
%TO.C,D13*%
X122500000Y-47310000D03*
D11*
X122500000Y-39690000D03*
%TD*%
D12*
%TO.C,SW16*%
X61000000Y-56000000D03*
X67500000Y-56000000D03*
X61000000Y-60500000D03*
X67500000Y-60500000D03*
%TD*%
%TO.C,SW29*%
X81000000Y-76000000D03*
X87500000Y-76000000D03*
X81000000Y-80500000D03*
X87500000Y-80500000D03*
%TD*%
%TO.C,SW14*%
X31000000Y-56000000D03*
X37500000Y-56000000D03*
X31000000Y-60500000D03*
X37500000Y-60500000D03*
%TD*%
%TO.C,SW15*%
X46000000Y-56000000D03*
X52500000Y-56000000D03*
X46000000Y-60500000D03*
X52500000Y-60500000D03*
%TD*%
D13*
%TO.C,D23*%
X92000000Y-72310000D03*
D11*
X92000000Y-64690000D03*
%TD*%
D13*
%TO.C,D3*%
X56500000Y-36810000D03*
D11*
X56500000Y-29190000D03*
%TD*%
D13*
%TO.C,D27*%
X56500000Y-82810000D03*
D11*
X56500000Y-75190000D03*
%TD*%
D12*
%TO.C,SW18*%
X96000000Y-56000000D03*
X102500000Y-56000000D03*
X96000000Y-60500000D03*
X102500000Y-60500000D03*
%TD*%
%TO.C,SW11*%
X80750000Y-40750000D03*
X87250000Y-40750000D03*
X80750000Y-45250000D03*
X87250000Y-45250000D03*
%TD*%
D13*
%TO.C,D29*%
X92000000Y-82500000D03*
D11*
X92000000Y-74880000D03*
%TD*%
D12*
%TO.C,SW24*%
X95750000Y-65750000D03*
X102250000Y-65750000D03*
X95750000Y-70250000D03*
X102250000Y-70250000D03*
%TD*%
D13*
%TO.C,D26*%
X41500000Y-82810000D03*
D11*
X41500000Y-75190000D03*
%TD*%
D12*
%TO.C,SW31*%
X111000000Y-76000000D03*
X117500000Y-76000000D03*
X111000000Y-80500000D03*
X117500000Y-80500000D03*
%TD*%
D13*
%TO.C,D5*%
X91500000Y-37310000D03*
D11*
X91500000Y-29690000D03*
%TD*%
D13*
%TO.C,D4*%
X75000000Y-36810000D03*
D11*
X75000000Y-29190000D03*
%TD*%
D12*
%TO.C,SW27*%
X46000000Y-76000000D03*
X52500000Y-76000000D03*
X46000000Y-80500000D03*
X52500000Y-80500000D03*
%TD*%
D13*
%TO.C,D24*%
X106500000Y-72310000D03*
D11*
X106500000Y-64690000D03*
%TD*%
D13*
%TO.C,D17*%
X92000000Y-62310000D03*
D11*
X92000000Y-54690000D03*
%TD*%
D12*
%TO.C,SW2*%
X31000000Y-31000000D03*
X37500000Y-31000000D03*
X31000000Y-35500000D03*
X37500000Y-35500000D03*
%TD*%
D13*
%TO.C,D8*%
X42000000Y-46810000D03*
D11*
X42000000Y-39190000D03*
%TD*%
D13*
%TO.C,D15*%
X56500000Y-62310000D03*
D11*
X56500000Y-54690000D03*
%TD*%
D12*
%TO.C,SW25*%
X111000000Y-66000000D03*
X117500000Y-66000000D03*
X111000000Y-70500000D03*
X117500000Y-70500000D03*
%TD*%
%TO.C,SW10*%
X61000000Y-41000000D03*
X67500000Y-41000000D03*
X61000000Y-45500000D03*
X67500000Y-45500000D03*
%TD*%
%TO.C,SW23*%
X81000000Y-66000000D03*
X87500000Y-66000000D03*
X81000000Y-70500000D03*
X87500000Y-70500000D03*
%TD*%
%TO.C,SW8*%
X31000000Y-41000000D03*
X37500000Y-41000000D03*
X31000000Y-45500000D03*
X37500000Y-45500000D03*
%TD*%
D13*
%TO.C,D22*%
X75000000Y-73120000D03*
D11*
X75000000Y-65500000D03*
%TD*%
D12*
%TO.C,SW4*%
X61000000Y-31000000D03*
X67500000Y-31000000D03*
X61000000Y-35500000D03*
X67500000Y-35500000D03*
%TD*%
D13*
%TO.C,D16*%
X75000000Y-62810000D03*
D11*
X75000000Y-55190000D03*
%TD*%
D12*
%TO.C,SW6*%
X96000000Y-31000000D03*
X102500000Y-31000000D03*
X96000000Y-35500000D03*
X102500000Y-35500000D03*
%TD*%
%TO.C,SW22*%
X61000000Y-66000000D03*
X67500000Y-66000000D03*
X61000000Y-70500000D03*
X67500000Y-70500000D03*
%TD*%
D13*
%TO.C,D11*%
X91500000Y-47310000D03*
D11*
X91500000Y-39690000D03*
%TD*%
D13*
%TO.C,D25*%
X122500000Y-72310000D03*
D11*
X122500000Y-64690000D03*
%TD*%
D12*
%TO.C,SW9*%
X45950000Y-41000000D03*
X52450000Y-41000000D03*
X45950000Y-45500000D03*
X52450000Y-45500000D03*
%TD*%
D16*
%TO.C,SW32*%
X50000000Y-94500000D03*
D12*
X45000000Y-94500000D03*
X47500000Y-94500000D03*
D17*
X53100000Y-102000000D03*
X41900000Y-102000000D03*
D12*
X45000000Y-109000000D03*
X50000000Y-109000000D03*
%TD*%
%TO.C,SW3*%
X46000000Y-31000000D03*
X52500000Y-31000000D03*
X46000000Y-35500000D03*
X52500000Y-35500000D03*
%TD*%
%TO.C,SW19*%
X111000000Y-56000000D03*
X117500000Y-56000000D03*
X111000000Y-60500000D03*
X117500000Y-60500000D03*
%TD*%
M02*
