M48
; DRILL file {KiCad 9.0.7} date 2026-02-23T23:42:02+0900
; FORMAT={-:-/ absolute / metric / decimal}
; #@! TF.CreationDate,2026-02-23T23:42:02+09:00
; #@! TF.GenerationSoftware,Kicad,Pcbnew,9.0.7
; #@! TF.FileFunction,NonPlated,1,2,NPTH
FMAT,2
METRIC
; #@! TA.AperFunction,NonPlated,NPTH,ComponentDrill
T1C1.700
; #@! TA.AperFunction,NonPlated,NPTH,ComponentDrill
T2C2.200
; #@! TA.AperFunction,NonPlated,NPTH,ComponentDrill
T3C3.000
; #@! TA.AperFunction,NonPlated,NPTH,ComponentDrill
T4C4.000
%
G90
G05
T1
X33.92Y-39.0
X33.92Y-58.5
X33.92Y-97.5
X33.92Y-117.0
X33.92Y-136.5
X44.08Y-39.0
X44.08Y-58.5
X44.08Y-97.5
X44.08Y-117.0
X44.08Y-136.5
X53.42Y-39.0
X53.42Y-58.5
X53.42Y-97.5
X53.42Y-117.0
X53.42Y-136.5
X63.58Y-39.0
X63.58Y-58.5
X63.58Y-97.5
X63.58Y-117.0
X63.58Y-136.5
X72.92Y-39.0
X72.92Y-58.5
X72.92Y-97.5
X72.92Y-117.0
X72.92Y-136.5
X83.08Y-39.0
X83.08Y-58.5
X83.08Y-97.5
X83.08Y-117.0
X83.08Y-136.5
X111.92Y-39.0
X111.92Y-58.5
X111.92Y-97.5
X111.92Y-117.0
X111.92Y-136.5
X122.08Y-39.0
X122.08Y-58.5
X122.08Y-97.5
X122.08Y-117.0
X122.08Y-136.5
X131.42Y-39.0
X131.42Y-58.5
X131.42Y-97.5
X131.42Y-117.0
X131.42Y-136.5
X141.58Y-39.0
X141.58Y-58.5
X141.58Y-97.5
X141.58Y-117.0
X141.58Y-136.5
X150.92Y-39.0
X150.92Y-58.5
X150.92Y-97.5
X150.92Y-117.0
X150.92Y-136.5
X161.08Y-39.0
X161.08Y-58.5
X161.08Y-97.5
X161.08Y-117.0
X161.08Y-136.5
T2
X38.1Y-76.2
X97.5Y-39.0
X97.5Y-78.0
X97.5Y-136.5
X175.5Y-39.0
X175.5Y-136.5
X177.8Y-78.0
X234.0Y-39.0
X234.0Y-78.0
X234.0Y-136.5
T3
X35.19Y-36.46
X35.19Y-55.96
X35.19Y-94.96
X35.19Y-114.46
X35.19Y-133.96
X41.54Y-33.92
X41.54Y-53.42
X41.54Y-92.42
X41.54Y-111.92
X41.54Y-131.42
X54.69Y-36.46
X54.69Y-55.96
X54.69Y-94.96
X54.69Y-114.46
X54.69Y-133.96
X61.04Y-33.92
X61.04Y-53.42
X61.04Y-92.42
X61.04Y-111.92
X61.04Y-131.42
X74.19Y-36.46
X74.19Y-55.96
X74.19Y-94.96
X74.19Y-114.46
X74.19Y-133.96
X80.54Y-33.92
X80.54Y-53.42
X80.54Y-92.42
X80.54Y-111.92
X80.54Y-131.42
X113.19Y-36.46
X113.19Y-55.96
X113.19Y-94.96
X113.19Y-114.46
X113.19Y-133.96
X119.54Y-33.92
X119.54Y-53.42
X119.54Y-92.42
X119.54Y-111.92
X119.54Y-131.42
X132.69Y-36.46
X132.69Y-55.96
X132.69Y-94.96
X132.69Y-114.46
X132.69Y-133.96
X139.04Y-33.92
X139.04Y-53.42
X139.04Y-92.42
X139.04Y-111.92
X139.04Y-131.42
X152.19Y-36.46
X152.19Y-55.96
X152.19Y-94.96
X152.19Y-114.46
X152.19Y-133.96
X158.54Y-33.92
X158.54Y-53.42
X158.54Y-92.42
X158.54Y-111.92
X158.54Y-131.42
T4
X39.0Y-39.0
X39.0Y-58.5
X39.0Y-97.5
X39.0Y-117.0
X39.0Y-136.5
X58.5Y-39.0
X58.5Y-58.5
X58.5Y-97.5
X58.5Y-117.0
X58.5Y-136.5
X78.0Y-39.0
X78.0Y-58.5
X78.0Y-97.5
X78.0Y-117.0
X78.0Y-136.5
X117.0Y-39.0
X117.0Y-58.5
X117.0Y-97.5
X117.0Y-117.0
X117.0Y-136.5
X136.5Y-39.0
X136.5Y-58.5
X136.5Y-97.5
X136.5Y-117.0
X136.5Y-136.5
X156.0Y-39.0
X156.0Y-58.5
X156.0Y-97.5
X156.0Y-117.0
X156.0Y-136.5
M30
