%TF.GenerationSoftware,KiCad,Pcbnew,9.0.7*%
%TF.CreationDate,2026-02-23T23:42:04+09:00*%
%TF.ProjectId,YmmKeyboardMX,596d6d4b-6579-4626-9f61-72644d582e6b,rev?*%
%TF.SameCoordinates,Original*%
%TF.FileFunction,Legend,Top*%
%TF.FilePolarity,Positive*%
%FSLAX46Y46*%
G04 Gerber Fmt 4.6, Leading zero omitted, Abs format (unit mm)*
G04 Created by KiCad (PCBNEW 9.0.7) date 2026-02-23 23:42:04*
%MOMM*%
%LPD*%
G01*
G04 APERTURE LIST*
%ADD10C,0.150000*%
%ADD11C,0.120000*%
G04 APERTURE END LIST*
D10*
X195990476Y-104607200D02*
X196133333Y-104654819D01*
X196133333Y-104654819D02*
X196371428Y-104654819D01*
X196371428Y-104654819D02*
X196466666Y-104607200D01*
X196466666Y-104607200D02*
X196514285Y-104559580D01*
X196514285Y-104559580D02*
X196561904Y-104464342D01*
X196561904Y-104464342D02*
X196561904Y-104369104D01*
X196561904Y-104369104D02*
X196514285Y-104273866D01*
X196514285Y-104273866D02*
X196466666Y-104226247D01*
X196466666Y-104226247D02*
X196371428Y-104178628D01*
X196371428Y-104178628D02*
X196180952Y-104131009D01*
X196180952Y-104131009D02*
X196085714Y-104083390D01*
X196085714Y-104083390D02*
X196038095Y-104035771D01*
X196038095Y-104035771D02*
X195990476Y-103940533D01*
X195990476Y-103940533D02*
X195990476Y-103845295D01*
X195990476Y-103845295D02*
X196038095Y-103750057D01*
X196038095Y-103750057D02*
X196085714Y-103702438D01*
X196085714Y-103702438D02*
X196180952Y-103654819D01*
X196180952Y-103654819D02*
X196419047Y-103654819D01*
X196419047Y-103654819D02*
X196561904Y-103702438D01*
X196895238Y-103654819D02*
X197133333Y-104654819D01*
X197133333Y-104654819D02*
X197323809Y-103940533D01*
X197323809Y-103940533D02*
X197514285Y-104654819D01*
X197514285Y-104654819D02*
X197752381Y-103654819D01*
X198038095Y-103654819D02*
X198657142Y-103654819D01*
X198657142Y-103654819D02*
X198323809Y-104035771D01*
X198323809Y-104035771D02*
X198466666Y-104035771D01*
X198466666Y-104035771D02*
X198561904Y-104083390D01*
X198561904Y-104083390D02*
X198609523Y-104131009D01*
X198609523Y-104131009D02*
X198657142Y-104226247D01*
X198657142Y-104226247D02*
X198657142Y-104464342D01*
X198657142Y-104464342D02*
X198609523Y-104559580D01*
X198609523Y-104559580D02*
X198561904Y-104607200D01*
X198561904Y-104607200D02*
X198466666Y-104654819D01*
X198466666Y-104654819D02*
X198180952Y-104654819D01*
X198180952Y-104654819D02*
X198085714Y-104607200D01*
X198085714Y-104607200D02*
X198038095Y-104559580D01*
X199609523Y-104654819D02*
X199038095Y-104654819D01*
X199323809Y-104654819D02*
X199323809Y-103654819D01*
X199323809Y-103654819D02*
X199228571Y-103797676D01*
X199228571Y-103797676D02*
X199133333Y-103892914D01*
X199133333Y-103892914D02*
X199038095Y-103940533D01*
X233238095Y-36304819D02*
X233238095Y-35304819D01*
X233238095Y-35781009D02*
X233809523Y-35781009D01*
X233809523Y-36304819D02*
X233809523Y-35304819D01*
X234190476Y-35304819D02*
X234857142Y-35304819D01*
X234857142Y-35304819D02*
X234428571Y-36304819D01*
X96738095Y-36304819D02*
X96738095Y-35304819D01*
X96738095Y-35781009D02*
X97309523Y-35781009D01*
X97309523Y-36304819D02*
X97309523Y-35304819D01*
X98214285Y-35638152D02*
X98214285Y-36304819D01*
X97976190Y-35257200D02*
X97738095Y-35971485D01*
X97738095Y-35971485D02*
X98357142Y-35971485D01*
X174738095Y-133804819D02*
X174738095Y-132804819D01*
X174738095Y-133281009D02*
X175309523Y-133281009D01*
X175309523Y-133804819D02*
X175309523Y-132804819D01*
X176261904Y-132804819D02*
X175785714Y-132804819D01*
X175785714Y-132804819D02*
X175738095Y-133281009D01*
X175738095Y-133281009D02*
X175785714Y-133233390D01*
X175785714Y-133233390D02*
X175880952Y-133185771D01*
X175880952Y-133185771D02*
X176119047Y-133185771D01*
X176119047Y-133185771D02*
X176214285Y-133233390D01*
X176214285Y-133233390D02*
X176261904Y-133281009D01*
X176261904Y-133281009D02*
X176309523Y-133376247D01*
X176309523Y-133376247D02*
X176309523Y-133614342D01*
X176309523Y-133614342D02*
X176261904Y-133709580D01*
X176261904Y-133709580D02*
X176214285Y-133757200D01*
X176214285Y-133757200D02*
X176119047Y-133804819D01*
X176119047Y-133804819D02*
X175880952Y-133804819D01*
X175880952Y-133804819D02*
X175785714Y-133757200D01*
X175785714Y-133757200D02*
X175738095Y-133709580D01*
X96738095Y-75304819D02*
X96738095Y-74304819D01*
X96738095Y-74781009D02*
X97309523Y-74781009D01*
X97309523Y-75304819D02*
X97309523Y-74304819D01*
X97928571Y-74733390D02*
X97833333Y-74685771D01*
X97833333Y-74685771D02*
X97785714Y-74638152D01*
X97785714Y-74638152D02*
X97738095Y-74542914D01*
X97738095Y-74542914D02*
X97738095Y-74495295D01*
X97738095Y-74495295D02*
X97785714Y-74400057D01*
X97785714Y-74400057D02*
X97833333Y-74352438D01*
X97833333Y-74352438D02*
X97928571Y-74304819D01*
X97928571Y-74304819D02*
X98119047Y-74304819D01*
X98119047Y-74304819D02*
X98214285Y-74352438D01*
X98214285Y-74352438D02*
X98261904Y-74400057D01*
X98261904Y-74400057D02*
X98309523Y-74495295D01*
X98309523Y-74495295D02*
X98309523Y-74542914D01*
X98309523Y-74542914D02*
X98261904Y-74638152D01*
X98261904Y-74638152D02*
X98214285Y-74685771D01*
X98214285Y-74685771D02*
X98119047Y-74733390D01*
X98119047Y-74733390D02*
X97928571Y-74733390D01*
X97928571Y-74733390D02*
X97833333Y-74781009D01*
X97833333Y-74781009D02*
X97785714Y-74828628D01*
X97785714Y-74828628D02*
X97738095Y-74923866D01*
X97738095Y-74923866D02*
X97738095Y-75114342D01*
X97738095Y-75114342D02*
X97785714Y-75209580D01*
X97785714Y-75209580D02*
X97833333Y-75257200D01*
X97833333Y-75257200D02*
X97928571Y-75304819D01*
X97928571Y-75304819D02*
X98119047Y-75304819D01*
X98119047Y-75304819D02*
X98214285Y-75257200D01*
X98214285Y-75257200D02*
X98261904Y-75209580D01*
X98261904Y-75209580D02*
X98309523Y-75114342D01*
X98309523Y-75114342D02*
X98309523Y-74923866D01*
X98309523Y-74923866D02*
X98261904Y-74828628D01*
X98261904Y-74828628D02*
X98214285Y-74781009D01*
X98214285Y-74781009D02*
X98119047Y-74733390D01*
X233238095Y-75304819D02*
X233238095Y-74304819D01*
X233238095Y-74781009D02*
X233809523Y-74781009D01*
X233809523Y-75304819D02*
X233809523Y-74304819D01*
X234190476Y-74304819D02*
X234809523Y-74304819D01*
X234809523Y-74304819D02*
X234476190Y-74685771D01*
X234476190Y-74685771D02*
X234619047Y-74685771D01*
X234619047Y-74685771D02*
X234714285Y-74733390D01*
X234714285Y-74733390D02*
X234761904Y-74781009D01*
X234761904Y-74781009D02*
X234809523Y-74876247D01*
X234809523Y-74876247D02*
X234809523Y-75114342D01*
X234809523Y-75114342D02*
X234761904Y-75209580D01*
X234761904Y-75209580D02*
X234714285Y-75257200D01*
X234714285Y-75257200D02*
X234619047Y-75304819D01*
X234619047Y-75304819D02*
X234333333Y-75304819D01*
X234333333Y-75304819D02*
X234238095Y-75257200D01*
X234238095Y-75257200D02*
X234190476Y-75209580D01*
X96738095Y-133804819D02*
X96738095Y-132804819D01*
X96738095Y-133281009D02*
X97309523Y-133281009D01*
X97309523Y-133804819D02*
X97309523Y-132804819D01*
X98309523Y-133804819D02*
X97738095Y-133804819D01*
X98023809Y-133804819D02*
X98023809Y-132804819D01*
X98023809Y-132804819D02*
X97928571Y-132947676D01*
X97928571Y-132947676D02*
X97833333Y-133042914D01*
X97833333Y-133042914D02*
X97738095Y-133090533D01*
X233238095Y-133804819D02*
X233238095Y-132804819D01*
X233238095Y-133281009D02*
X233809523Y-133281009D01*
X233809523Y-133804819D02*
X233809523Y-132804819D01*
X234714285Y-132804819D02*
X234523809Y-132804819D01*
X234523809Y-132804819D02*
X234428571Y-132852438D01*
X234428571Y-132852438D02*
X234380952Y-132900057D01*
X234380952Y-132900057D02*
X234285714Y-133042914D01*
X234285714Y-133042914D02*
X234238095Y-133233390D01*
X234238095Y-133233390D02*
X234238095Y-133614342D01*
X234238095Y-133614342D02*
X234285714Y-133709580D01*
X234285714Y-133709580D02*
X234333333Y-133757200D01*
X234333333Y-133757200D02*
X234428571Y-133804819D01*
X234428571Y-133804819D02*
X234619047Y-133804819D01*
X234619047Y-133804819D02*
X234714285Y-133757200D01*
X234714285Y-133757200D02*
X234761904Y-133709580D01*
X234761904Y-133709580D02*
X234809523Y-133614342D01*
X234809523Y-133614342D02*
X234809523Y-133376247D01*
X234809523Y-133376247D02*
X234761904Y-133281009D01*
X234761904Y-133281009D02*
X234714285Y-133233390D01*
X234714285Y-133233390D02*
X234619047Y-133185771D01*
X234619047Y-133185771D02*
X234428571Y-133185771D01*
X234428571Y-133185771D02*
X234333333Y-133233390D01*
X234333333Y-133233390D02*
X234285714Y-133281009D01*
X234285714Y-133281009D02*
X234238095Y-133376247D01*
X37338095Y-73504819D02*
X37338095Y-72504819D01*
X37338095Y-72981009D02*
X37909523Y-72981009D01*
X37909523Y-73504819D02*
X37909523Y-72504819D01*
X38290476Y-72504819D02*
X38957142Y-72504819D01*
X38957142Y-72504819D02*
X38528571Y-73504819D01*
X177038095Y-75304819D02*
X177038095Y-74304819D01*
X177038095Y-74781009D02*
X177609523Y-74781009D01*
X177609523Y-75304819D02*
X177609523Y-74304819D01*
X178133333Y-75304819D02*
X178323809Y-75304819D01*
X178323809Y-75304819D02*
X178419047Y-75257200D01*
X178419047Y-75257200D02*
X178466666Y-75209580D01*
X178466666Y-75209580D02*
X178561904Y-75066723D01*
X178561904Y-75066723D02*
X178609523Y-74876247D01*
X178609523Y-74876247D02*
X178609523Y-74495295D01*
X178609523Y-74495295D02*
X178561904Y-74400057D01*
X178561904Y-74400057D02*
X178514285Y-74352438D01*
X178514285Y-74352438D02*
X178419047Y-74304819D01*
X178419047Y-74304819D02*
X178228571Y-74304819D01*
X178228571Y-74304819D02*
X178133333Y-74352438D01*
X178133333Y-74352438D02*
X178085714Y-74400057D01*
X178085714Y-74400057D02*
X178038095Y-74495295D01*
X178038095Y-74495295D02*
X178038095Y-74733390D01*
X178038095Y-74733390D02*
X178085714Y-74828628D01*
X178085714Y-74828628D02*
X178133333Y-74876247D01*
X178133333Y-74876247D02*
X178228571Y-74923866D01*
X178228571Y-74923866D02*
X178419047Y-74923866D01*
X178419047Y-74923866D02*
X178514285Y-74876247D01*
X178514285Y-74876247D02*
X178561904Y-74828628D01*
X178561904Y-74828628D02*
X178609523Y-74733390D01*
X174738095Y-36304819D02*
X174738095Y-35304819D01*
X174738095Y-35781009D02*
X175309523Y-35781009D01*
X175309523Y-36304819D02*
X175309523Y-35304819D01*
X175738095Y-35400057D02*
X175785714Y-35352438D01*
X175785714Y-35352438D02*
X175880952Y-35304819D01*
X175880952Y-35304819D02*
X176119047Y-35304819D01*
X176119047Y-35304819D02*
X176214285Y-35352438D01*
X176214285Y-35352438D02*
X176261904Y-35400057D01*
X176261904Y-35400057D02*
X176309523Y-35495295D01*
X176309523Y-35495295D02*
X176309523Y-35590533D01*
X176309523Y-35590533D02*
X176261904Y-35733390D01*
X176261904Y-35733390D02*
X175690476Y-36304819D01*
X175690476Y-36304819D02*
X176309523Y-36304819D01*
D11*
%TO.C,SW31*%
X205500000Y-111400000D02*
G75*
G02*
X199500000Y-111400000I-3000000J0D01*
G01*
X199500000Y-111400000D02*
G75*
G02*
X205500000Y-111400000I3000000J0D01*
G01*
X208600000Y-117300000D02*
X204500000Y-117300000D01*
X208600000Y-114900000D02*
X208600000Y-117300000D01*
X208600000Y-110100000D02*
X208600000Y-112700000D01*
X208600000Y-105500000D02*
X208600000Y-107900000D01*
X204500000Y-105500000D02*
X208600000Y-105500000D01*
X202500000Y-110900000D02*
X202500000Y-111900000D01*
X202000000Y-111400000D02*
X203000000Y-111400000D01*
X200500000Y-117300000D02*
X196400000Y-117300000D01*
X200500000Y-105500000D02*
X196400000Y-105500000D01*
X196400000Y-105500000D02*
X196400000Y-117300000D01*
X195300000Y-107300000D02*
X195000000Y-107600000D01*
X195000000Y-107600000D02*
X194700000Y-107300000D01*
X194700000Y-107300000D02*
X195300000Y-107300000D01*
%TO.C,U1*%
X221890000Y-28770000D02*
X221890000Y-49150000D01*
X221890000Y-28770000D02*
X224550000Y-28770000D01*
X221890000Y-49150000D02*
X224550000Y-49150000D01*
X223220000Y-26170000D02*
X224550000Y-26170000D01*
X224550000Y-26170000D02*
X224550000Y-27500000D01*
X224550000Y-28770000D02*
X224550000Y-49150000D01*
X224680000Y-46470000D02*
X226010000Y-46470000D01*
X224680000Y-47800000D02*
X224680000Y-46470000D01*
X227280000Y-46470000D02*
X237500000Y-46470000D01*
X227280000Y-49130000D02*
X227280000Y-46470000D01*
X227280000Y-49130000D02*
X237500000Y-49130000D01*
X237500000Y-49130000D02*
X237500000Y-46470000D01*
X237670000Y-28760000D02*
X237670000Y-49140000D01*
X237670000Y-28760000D02*
X240330000Y-28760000D01*
X237670000Y-49140000D02*
X240330000Y-49140000D01*
X239000000Y-26160000D02*
X240330000Y-26160000D01*
X240330000Y-26160000D02*
X240330000Y-27490000D01*
X240330000Y-28760000D02*
X240330000Y-49140000D01*
%TD*%
M02*
