%TF.GenerationSoftware,KiCad,Pcbnew,9.0.7*%
%TF.CreationDate,2026-02-23T23:42:04+09:00*%
%TF.ProjectId,YmmKeyboardMX,596d6d4b-6579-4626-9f61-72644d582e6b,rev?*%
%TF.SameCoordinates,Original*%
%TF.FileFunction,Soldermask,Top*%
%TF.FilePolarity,Negative*%
%FSLAX46Y46*%
G04 Gerber Fmt 4.6, Leading zero omitted, Abs format (unit mm)*
G04 Created by KiCad (PCBNEW 9.0.7) date 2026-02-23 23:42:04*
%MOMM*%
%LPD*%
G01*
G04 APERTURE LIST*
%ADD10C,2.000000*%
%ADD11R,3.200000X2.000000*%
%ADD12R,2.000000X2.000000*%
%ADD13C,2.200000*%
%ADD14C,1.700000*%
%ADD15C,3.000000*%
%ADD16R,1.700000X1.700000*%
G04 APERTURE END LIST*
D10*
%TO.C,SW31*%
X209500000Y-108900000D03*
X209500000Y-113900000D03*
D11*
X202500000Y-117000000D03*
X202500000Y-105800000D03*
D10*
X195000000Y-111400000D03*
X195000000Y-113900000D03*
D12*
X195000000Y-108900000D03*
%TD*%
D13*
%TO.C,H7*%
X234000000Y-39000000D03*
%TD*%
%TO.C,H4*%
X97500000Y-39000000D03*
%TD*%
D14*
%TO.C,SW5*%
X131420000Y-39000000D03*
D15*
X132690000Y-36460000D03*
X139040000Y-33920000D03*
D14*
X141580000Y-39000000D03*
%TD*%
%TO.C,SW1*%
X33920000Y-39000000D03*
D15*
X35190000Y-36460000D03*
X41540000Y-33920000D03*
D14*
X44080000Y-39000000D03*
%TD*%
%TO.C,SW2*%
X53420000Y-39000000D03*
D15*
X54690000Y-36460000D03*
X61040000Y-33920000D03*
D14*
X63580000Y-39000000D03*
%TD*%
%TO.C,SW21*%
X72920000Y-117000000D03*
D15*
X74190000Y-114460000D03*
X80540000Y-111920000D03*
D14*
X83080000Y-117000000D03*
%TD*%
%TO.C,SW30*%
X150920000Y-136500000D03*
D15*
X152190000Y-133960000D03*
X158540000Y-131420000D03*
D14*
X161080000Y-136500000D03*
%TD*%
%TO.C,SW18*%
X150920000Y-97500000D03*
D15*
X152190000Y-94960000D03*
X158540000Y-92420000D03*
D14*
X161080000Y-97500000D03*
%TD*%
%TO.C,SW11*%
X131420000Y-58500000D03*
D15*
X132690000Y-55960000D03*
X139040000Y-53420000D03*
D14*
X141580000Y-58500000D03*
%TD*%
%TO.C,SW23*%
X131420000Y-117000000D03*
D15*
X132690000Y-114460000D03*
X139040000Y-111920000D03*
D14*
X141580000Y-117000000D03*
%TD*%
%TO.C,SW6*%
X150920000Y-39000000D03*
D15*
X152190000Y-36460000D03*
X158540000Y-33920000D03*
D14*
X161080000Y-39000000D03*
%TD*%
%TO.C,SW16*%
X111920000Y-97500000D03*
D15*
X113190000Y-94960000D03*
X119540000Y-92420000D03*
D14*
X122080000Y-97500000D03*
%TD*%
%TO.C,SW20*%
X53420000Y-117000000D03*
D15*
X54690000Y-114460000D03*
X61040000Y-111920000D03*
D14*
X63580000Y-117000000D03*
%TD*%
%TO.C,SW12*%
X150920000Y-58500000D03*
D15*
X152190000Y-55960000D03*
X158540000Y-53420000D03*
D14*
X161080000Y-58500000D03*
%TD*%
%TO.C,SW28*%
X111920000Y-136500000D03*
D15*
X113190000Y-133960000D03*
X119540000Y-131420000D03*
D14*
X122080000Y-136500000D03*
%TD*%
%TO.C,SW9*%
X72920000Y-58500000D03*
D15*
X74190000Y-55960000D03*
X80540000Y-53420000D03*
D14*
X83080000Y-58500000D03*
%TD*%
%TO.C,SW24*%
X150920000Y-117000000D03*
D15*
X152190000Y-114460000D03*
X158540000Y-111920000D03*
D14*
X161080000Y-117000000D03*
%TD*%
%TO.C,SW7*%
X33920000Y-58500000D03*
D15*
X35190000Y-55960000D03*
X41540000Y-53420000D03*
D14*
X44080000Y-58500000D03*
%TD*%
%TO.C,SW4*%
X122080000Y-39000000D03*
D15*
X119540000Y-33920000D03*
X113190000Y-36460000D03*
D14*
X111920000Y-39000000D03*
%TD*%
%TO.C,SW19*%
X33920000Y-117000000D03*
D15*
X35190000Y-114460000D03*
X41540000Y-111920000D03*
D14*
X44080000Y-117000000D03*
%TD*%
%TO.C,SW27*%
X72920000Y-136500000D03*
D15*
X74190000Y-133960000D03*
X80540000Y-131420000D03*
D14*
X83080000Y-136500000D03*
%TD*%
%TO.C,SW25*%
X33920000Y-136500000D03*
D15*
X35190000Y-133960000D03*
X41540000Y-131420000D03*
D14*
X44080000Y-136500000D03*
%TD*%
%TO.C,SW17*%
X131420000Y-97500000D03*
D15*
X132690000Y-94960000D03*
X139040000Y-92420000D03*
D14*
X141580000Y-97500000D03*
%TD*%
%TO.C,SW29*%
X131420000Y-136500000D03*
D15*
X132690000Y-133960000D03*
X139040000Y-131420000D03*
D14*
X141580000Y-136500000D03*
%TD*%
%TO.C,SW15*%
X72920000Y-97500000D03*
D15*
X74190000Y-94960000D03*
X80540000Y-92420000D03*
D14*
X83080000Y-97500000D03*
%TD*%
%TO.C,SW26*%
X53420000Y-136500000D03*
D15*
X54690000Y-133960000D03*
X61040000Y-131420000D03*
D14*
X63580000Y-136500000D03*
%TD*%
%TO.C,SW22*%
X111920000Y-117000000D03*
D15*
X113190000Y-114460000D03*
X119540000Y-111920000D03*
D14*
X122080000Y-117000000D03*
%TD*%
%TO.C,SW14*%
X53420000Y-97500000D03*
D15*
X54690000Y-94960000D03*
X61040000Y-92420000D03*
D14*
X63580000Y-97500000D03*
%TD*%
%TO.C,SW10*%
X111920000Y-58500000D03*
D15*
X113190000Y-55960000D03*
X119540000Y-53420000D03*
D14*
X122080000Y-58500000D03*
%TD*%
%TO.C,SW13*%
X33920000Y-97500000D03*
D15*
X35190000Y-94960000D03*
X41540000Y-92420000D03*
D14*
X44080000Y-97500000D03*
%TD*%
%TO.C,SW8*%
X53420000Y-58500000D03*
D15*
X54690000Y-55960000D03*
X61040000Y-53420000D03*
D14*
X63580000Y-58500000D03*
%TD*%
D13*
%TO.C,H5*%
X175500000Y-136500000D03*
%TD*%
%TO.C,H8*%
X97500000Y-78000000D03*
%TD*%
%TO.C,H3*%
X234000000Y-78000000D03*
%TD*%
%TO.C,H1*%
X97500000Y-136500000D03*
%TD*%
%TO.C,H6*%
X234000000Y-136500000D03*
%TD*%
%TO.C,H7*%
X38100000Y-76200000D03*
%TD*%
%TO.C,H9*%
X177800000Y-78000000D03*
%TD*%
%TO.C,H2*%
X175500000Y-39000000D03*
%TD*%
D14*
%TO.C,SW3*%
X72920000Y-39000000D03*
D15*
X74190000Y-36460000D03*
X80540000Y-33920000D03*
D14*
X83080000Y-39000000D03*
%TD*%
D16*
%TO.C,U1*%
X239000000Y-27490000D03*
D14*
X239000000Y-30030000D03*
X239000000Y-32570000D03*
X239000000Y-35110000D03*
X239000000Y-37650000D03*
X239000000Y-40190000D03*
X239000000Y-42730000D03*
X239000000Y-45270000D03*
X239000000Y-47810000D03*
X236170000Y-47800000D03*
X233630000Y-47800000D03*
X231090000Y-47800000D03*
X228550000Y-47800000D03*
D16*
X226010000Y-47800000D03*
D14*
X223220000Y-47820000D03*
X223220000Y-45280000D03*
X223220000Y-42740000D03*
X223220000Y-40200000D03*
X223220000Y-37660000D03*
X223220000Y-35120000D03*
X223220000Y-32580000D03*
X223220000Y-30040000D03*
D16*
X223220000Y-27500000D03*
%TD*%
M02*
